<?xml version="1.0" encoding="utf-8"?>
<!-- Generator: Adobe Illustrator 25.4.1, SVG Export Plug-In . SVG Version: 6.00 Build 0)  -->
<svg version="1.1" id="Layer_1" xmlns="http://www.w3.org/2000/svg" xmlns:xlink="http://www.w3.org/1999/xlink" x="0px" y="0px"
	 viewBox="0 0 1051 137" style="enable-background:new 0 0 1051 137;" xml:space="preserve">
<style type="text/css">
	.st0{enable-background:new    ;}
	.st1{fill:#707070;}
</style>
<g class="st0">
	<path class="st1" d="M8.4,107.9c-2-0.8-3.6-1.9-4.8-3.3c-1.1-1.4-1.9-3-2.3-4.7c-0.4-1.7-0.4-3.5-0.1-5.4c0.3-1.8,0.9-3.6,1.8-5.3
		c0.9-1.7,2-3.2,3.3-4.6c1.4-1.4,2.9-2.4,4.6-3.2c0.4-0.2,0.8-0.2,1.2,0c0.4,0.2,0.7,0.5,0.8,0.9c0.2,0.4,0.3,0.8,0.2,1.2
		c-0.1,0.4-0.3,0.7-0.8,0.9c-1.6,0.7-3.1,1.8-4.4,3.2c-1.4,1.5-2.4,3.1-3.1,4.9c-0.7,1.8-1,3.6-0.8,5.5c0.2,1.9,1,3.5,2.4,5
		c1.8,1.8,3.9,2.8,6.5,3.2c2.6,0.4,5.4,0.2,8.3-0.6c3-0.7,6-2,9.2-3.7c3.1-1.7,6.2-3.8,9.1-6.2c2.9-2.4,5.6-5.1,8-8
		c2.5-2.9,4.5-5.9,6-9.1c1.6-3.1,2.6-6.3,3.1-9.6c0.5-3.2,0.2-6.3-0.8-9.3c-0.7-2.1-1.8-3.8-3.4-5.1c-1.6-1.3-3.5-2.3-5.6-3.1
		c-2.2-0.7-4.5-1.3-7-1.6c-2.5-0.3-5-0.5-7.5-0.5c-2.5-0.1-4.9-0.1-7.3,0c-2.4,0.1-4.5,0.1-6.3,0c0.7,1.5,1.4,3.4,2,5.6
		c0.6,2.2,1.1,4.5,1.5,6.8c0.4,2.4,0.8,4.7,1,7c0.2,2.3,0.4,4.3,0.4,6c0.4-1,0.9-2.3,1.5-3.8c0.6-1.5,1.3-3.1,2-4.7
		c0.7-1.6,1.6-3.3,2.4-4.9c0.9-1.6,1.8-3.1,2.8-4.4c1-1.3,2.1-2.3,3.2-3.1s2.3-1.2,3.5-1.1c0.5,0,0.8,0.2,1.1,0.5
		c0.2,0.3,0.4,0.7,0.4,1.1c0,0.4-0.1,0.8-0.4,1.1c-0.3,0.3-0.7,0.5-1.2,0.5C38,56.2,37,56.8,36,58c-1,1.2-2.1,2.8-3.2,4.7
		c-1.1,1.9-2.2,4-3.2,6.4s-2,4.6-2.8,6.7c-0.9,2.2-1.6,4.1-2.2,5.8c-0.6,1.7-1,2.9-1.2,3.6c-0.1,2.2-0.2,4.4-0.4,6.6
		s-0.4,4.3-0.6,6.5c-0.1,0.8-0.5,1.3-1.2,1.4c-0.7,0.1-1.3-0.2-1.6-0.9c-0.5-0.9-0.8-2-0.8-3.2c-0.1-1.2-0.1-2.4,0.1-3.7
		c0.1-1.3,0.3-2.5,0.6-3.7c0.3-1.2,0.6-2.3,0.8-3.4c0.1-2.4,0.2-5.2,0.3-8.4c0.1-3.2,0-6.5-0.2-9.8c-0.2-3.3-0.6-6.5-1.2-9.6
		c-0.6-3-1.5-5.6-2.8-7.7c-0.6-0.1-1.3-0.1-2.2-0.2c-0.9-0.1-1.7-0.2-2.6-0.4c-0.8-0.2-1.6-0.4-2.3-0.8c-0.7-0.3-1.2-0.8-1.4-1.4
		c-0.5-1.2-0.5-2.1,0.2-2.6c0.7-0.5,1.6-0.7,2.8-0.7c1.2,0,2.4,0.3,3.7,0.8c1.3,0.5,2.3,1.1,3,1.8c1.9,0.2,4,0.3,6.2,0.3
		c2.2,0,4.4,0,6.8,0s4.6,0.1,7,0.2c2.3,0.1,4.5,0.4,6.7,0.8c2.1,0.4,4.1,1.1,6,2c1.9,0.9,3.6,2.1,5,3.6c2.2,2.4,3.6,5.2,4.2,8.3
		s0.5,6.4-0.3,9.8c-0.7,3.4-2.1,6.9-4,10.4c-1.9,3.5-4.2,6.9-6.9,10c-2.7,3.2-5.6,6.1-8.9,8.6c-3.3,2.6-6.6,4.7-10.2,6.3
		c-3.5,1.6-7.1,2.6-10.6,2.9C15.1,109.7,11.7,109.2,8.4,107.9z"/>
	<path class="st1" d="M74.8,71.5c0.9,0.2,1.5,0.7,1.8,1.5c0.4,0.8,0.6,1.7,0.6,2.8c0,1.1-0.1,2.3-0.3,3.6c-0.2,1.3-0.5,2.5-0.9,3.7
		c-0.4,1.2-0.8,2.2-1.2,3.2s-0.7,1.7-1,2.2c0.9,0.7,1.9,0.9,3.1,0.6c1.2-0.3,2.5-0.8,3.8-1.5s2.5-1.5,3.6-2.3c1.1-0.9,2-1.5,2.6-2
		c0.4-0.3,0.8-0.4,1.2-0.3c0.4,0.1,0.8,0.3,1,0.6c0.3,0.3,0.4,0.7,0.4,1.1c0,0.4-0.2,0.8-0.6,1.1c-1,0.7-2.2,1.6-3.6,2.6
		c-1.4,1-3,1.8-4.6,2.5c-1.6,0.7-3.2,1.1-4.8,1.3c-1.6,0.2-2.9-0.2-4.1-1.1c-0.6,0.6-1.4,1.2-2.2,1.7c-0.8,0.5-1.7,0.8-2.5,0.9
		c-0.9,0.1-1.7,0-2.4-0.4c-0.8-0.4-1.4-1-2-2c-1.1-1.8-1.5-3.8-1.2-6.1c0.3-2.2,1-4.3,2.1-6.3c1.1-1.9,2.5-3.6,4.2-4.9
		c1.7-1.3,3.4-2,5.1-1.9c0.3-0.2,0.6-0.4,0.9-0.5C74.1,71.4,74.5,71.4,74.8,71.5z M70.4,76c-1.3,0.8-2.5,2-3.4,3.6
		c-0.9,1.6-1.5,3.1-1.8,4.7c-0.3,1.5-0.3,2.9-0.1,4.2c0.3,1.2,0.9,1.9,1.8,1.9c0.4,0,0.9-0.1,1.4-0.4c0.5-0.3,1.1-0.8,1.6-1.5
		c-0.9-1.9-1.2-3.9-1-6.2C69.2,80,69.7,77.9,70.4,76z M72.3,84.7c0.5-1.2,1-2.6,1.3-4.2c0.3-1.6,0.4-3,0.2-4.2
		c-0.6,1.2-1,2.6-1.3,4.1C72.2,81.8,72.1,83.3,72.3,84.7z"/>
	<path class="st1" d="M143.8,88c-0.3-1.4-0.1-3.2,0.4-5.4c0.5-2.2,1.2-4.4,2.1-6.7c0.9-2.3,1.9-4.4,2.9-6.3c1.1-1.9,2-3.4,2.9-4.4
		c0.2-0.3,0.5-0.4,0.8-0.5c0.3-0.1,0.6,0,0.9,0c0.3,0.1,0.5,0.2,0.7,0.5c0.2,0.2,0.3,0.5,0.3,0.9c0,0.5-0.2,1.3-0.5,2.4
		c-0.3,1.1-0.7,2.3-1.2,3.7c-0.5,1.4-1.1,2.9-1.6,4.5c-0.6,1.6-1.2,3.1-1.7,4.6c-0.6,1.4-1.1,2.7-1.5,3.9c-0.5,1.1-0.8,2-1,2.6
		c0.5,0.7,1.2,0.9,2.3,0.6s2.1-0.7,3.3-1.4c1.1-0.7,2.2-1.4,3.2-2.2c1-0.8,1.8-1.3,2.2-1.7c0.4-0.3,0.8-0.4,1.2-0.4
		c0.4,0.1,0.7,0.3,1,0.6c0.3,0.3,0.4,0.7,0.4,1.1c0,0.4-0.2,0.8-0.6,1.1c-0.7,0.6-1.7,1.3-2.9,2.2c-1.2,0.9-2.4,1.6-3.8,2.3
		c-1.3,0.7-2.7,1.2-4,1.4c-1.4,0.3-2.6,0.1-3.6-0.6c-0.2,0.6-0.6,1.5-1,2.7c-0.5,1.2-1,2.5-1.6,3.9c-0.6,1.4-1.3,2.8-2.1,4.3
		c-0.8,1.5-1.6,2.8-2.4,3.9c-0.9,1.1-1.7,2-2.6,2.7c-0.9,0.7-1.7,0.9-2.6,0.7c-1.2-0.3-2.1-1.2-2.5-2.7c-0.5-1.5-0.7-3.4-0.7-5.6
		c0-2.2,0.2-4.6,0.6-7.2c0.4-2.6,0.8-5.1,1.3-7.5c0.5-2.4,1-4.5,1.4-6.4c0.5-1.9,0.8-3.2,1-4c-0.4,0.6-1,1.4-1.8,2.4
		c-0.7,1-1.6,2.1-2.5,3.4c-0.9,1.2-1.9,2.5-2.9,3.7c-1,1.3-2,2.4-2.8,3.4c-0.9,1-1.7,1.9-2.4,2.6c-0.7,0.7-1.3,1-1.6,1.1
		c-0.6,0.1-1-0.1-1.3-0.6c-0.3-0.5-0.4-1.1-0.5-1.7c-0.1-0.7-0.1-1.3,0-2c0.1-0.7,0.1-1.2,0.2-1.5c-0.5-0.2-0.8-0.7-1-1.4
		c-0.2-0.7,0-1.3,0.5-1.8c0.9-0.8,1.6-1.9,2.2-3.2c0.6-1.3,1.1-2.7,1.6-4.2c0.5-1.5,1-2.9,1.5-4.4c0.5-1.4,1.2-2.7,2-3.8
		c0.4-0.5,1-0.7,1.7-0.4c0.7,0.2,1.1,0.7,1,1.4c0,1.1-0.1,2.3-0.4,3.6c-0.3,1.3-0.7,2.6-1.2,3.9c-0.5,1.3-1.1,2.6-1.8,3.8
		c-0.7,1.2-1.4,2.3-2.2,3.4c-0.1,0.5-0.2,1-0.3,1.4c-0.1,0.5-0.1,1-0.1,1.4c2.2-2.4,4.5-5.1,6.7-8.2c2.2-3,4.3-5.9,6.3-8.6
		c0.2-0.3,0.5-0.8,1-1.5c0.5-0.7,0.9-1.2,1.4-1.7c0.5-0.5,0.9-0.7,1.4-0.8c0.5,0,0.8,0.4,1.2,1.2c-0.2,0.7-0.6,2.2-1.2,4.3
		c-0.6,2.1-1.2,4.6-1.8,7.4c-0.7,2.8-1.3,5.7-1.9,8.8c-0.6,3.1-1.1,6-1.5,8.6c-0.4,2.7-0.5,4.9-0.5,6.8c0.1,1.9,0.4,3,1,3.4
		c1-1,1.9-2.2,2.8-3.8c0.9-1.5,1.8-3.2,2.6-4.9c0.8-1.7,1.5-3.4,2.2-5.1C142.7,90.7,143.3,89.2,143.8,88z"/>
	<path class="st1" d="M153.4,99.6c0.3-1.1,0.8-3,1.5-5.6c0.7-2.6,1.6-5.6,2.7-9.1c1.1-3.5,2.3-7.3,3.6-11.3
		c1.3-4.1,2.8-8.1,4.4-12.1c1.6-4,3.2-7.8,4.9-11.4c1.7-3.6,3.4-6.7,5.2-9.3c1.8-2.6,3.5-4.6,5.3-5.8c1.8-1.3,3.5-1.6,5.1-0.9
		c1.4,0.6,2.2,1.7,2.4,3.4c0.1,1.7-0.2,3.7-1,6.1c-0.8,2.4-2,5-3.6,7.9c-1.6,2.9-3.3,5.8-5.2,8.8c-1.9,3-3.8,5.9-5.8,8.8
		c-2,2.9-3.9,5.4-5.6,7.8c-1.7,2.3-3.2,4.3-4.4,5.9c-1.2,1.6-2,2.6-2.3,3.1c-0.5,1.5-0.9,3.1-1.4,4.6c-0.4,1.5-0.9,3.1-1.3,4.6
		c0.6-0.7,1.4-1.9,2.5-3.4c1.1-1.5,2.3-3.1,3.6-4.8c1.3-1.7,2.7-3.5,4.2-5.2c1.5-1.7,2.9-3.2,4.3-4.5c1.4-1.3,2.7-2.2,3.9-2.8
		s2.2-0.6,3,0c0.7,0.6,1.3,1.5,1.6,2.9c0.3,1.3,0.7,2.7,1,4.2c0.3,1.5,0.7,2.9,1.2,4.2c0.5,1.3,1.3,2.1,2.4,2.6
		c1.1,0.5,2.7,0.3,4.6-0.3c1.9-0.7,4.5-2.3,7.6-4.8c0.4-0.3,0.8-0.4,1.2-0.3c0.4,0.1,0.8,0.3,1,0.6c0.2,0.3,0.4,0.7,0.4,1.1
		c0,0.4-0.2,0.8-0.6,1.1c-2.6,2.1-5.1,3.8-7.4,4.9c-2.3,1.1-4.4,1.6-6.2,1.5c-1.5-0.1-2.7-0.5-3.6-1.3c-0.9-0.8-1.6-1.8-2.2-2.9
		c-0.6-1.1-1-2.3-1.3-3.6c-0.3-1.3-0.6-2.5-0.8-3.5c-0.2-1.1-0.5-1.9-0.8-2.5c-0.3-0.6-0.6-0.8-1.1-0.7c-0.7,0.3-1.6,1-2.7,2.2
		c-1.1,1.2-2.3,2.6-3.6,4.2c-1.3,1.6-2.7,3.4-4.1,5.3c-1.4,1.9-2.8,3.7-4.1,5.4c-1.3,1.7-2.6,3.1-3.7,4.4c-1.1,1.2-2,2-2.7,2.4
		c-0.5,0.3-1,0.2-1.5-0.2C153.4,100.7,153.2,100.2,153.4,99.6z M162.8,78.3c0.3-0.4,1-1.2,2-2.5c1-1.3,2.2-2.9,3.5-4.8
		c1.4-1.9,2.8-4,4.4-6.4c1.6-2.3,3.2-4.7,4.7-7.1c1.5-2.4,2.9-4.8,4.2-7.1c1.3-2.3,2.3-4.4,3-6.3c0.7-1.9,1.1-3.4,1.1-4.7
		c0-1.3-0.5-2.1-1.5-2.4c-0.7-0.3-1.6,0.1-2.6,1c-1,0.9-2,2.3-3.1,4c-1.1,1.7-2.2,3.7-3.4,6c-1.1,2.3-2.3,4.7-3.4,7.2
		c-1.1,2.5-2.1,5-3.2,7.5c-1,2.5-1.9,4.8-2.7,6.9c-0.8,2.1-1.5,3.9-2,5.5C163.4,76.7,163,77.7,162.8,78.3z"/>
	<path class="st1" d="M214.1,59.2c-0.5,0.1-0.9,0-1.1-0.2c-0.3-0.3-0.4-0.6-0.4-1c0-0.4,0.1-0.8,0.2-1.2c0.2-0.4,0.5-0.7,1-0.8
		c5.3-1.5,10.5-2.9,15.6-4.3c5.1-1.4,10.4-2.6,15.8-3.8c0.6-1.9,1.3-3.7,2-5.5c0.7-1.8,1.5-3.6,2.3-5.4c0.2-0.4,0.4-0.7,0.8-0.8
		c0.4-0.1,0.7-0.1,1.1,0c0.3,0.1,0.6,0.3,0.8,0.6c0.2,0.3,0.3,0.7,0.2,1.1c-0.4,2.9-0.9,5.9-1.7,9c1.8-0.4,3.7-0.7,5.6-1
		c1.9-0.3,3.8-0.4,5.7-0.4c1.9,0,3.7,0.1,5.4,0.4c1.8,0.3,3.4,0.9,4.8,1.7c0.4,0.3,0.7,0.6,0.8,1c0.1,0.4,0,0.8-0.1,1.2
		c-0.2,0.4-0.4,0.7-0.8,0.9c-0.3,0.2-0.7,0.2-1.2-0.1c-1.4-0.8-2.9-1.3-4.6-1.6c-1.7-0.3-3.4-0.4-5.3-0.4c-1.8,0.1-3.7,0.2-5.6,0.5
		c-1.9,0.3-3.7,0.6-5.6,1c-1,3.7-2.2,7.4-3.6,11.1c-1.4,3.7-2.9,7.2-4.8,10.5c-0.3,0.9-0.7,2.5-1.3,4.8c-0.6,2.3-1.2,4.8-1.9,7.7
		c-0.7,2.9-1.3,5.9-1.9,9.1c-0.6,3.2-1,6.1-1.2,8.8c-0.2,2.7-0.2,5,0,7c0.3,1.9,0.9,3.1,1.9,3.5c0.5,0.2,0.8,0.5,0.9,0.9
		c0.1,0.4,0.1,0.8,0,1.2c-0.1,0.4-0.4,0.7-0.7,0.9c-0.3,0.2-0.7,0.2-1.2,0c-1.4-0.5-2.4-1.6-3-3.3c-0.6-1.7-1-3.6-1-5.8
		c-0.1-2.2,0-4.7,0.3-7.2c0.3-2.6,0.7-5.1,1.1-7.5c0.5-2.4,0.9-4.6,1.4-6.6c0.5-2,0.9-3.5,1.1-4.6c-0.7,1-1.7,2.2-3,3.6
		c-1.3,1.4-2.6,2.7-4.1,3.9c-1.5,1.2-3,2.3-4.6,3.2c-1.6,0.9-3,1.3-4.4,1.4c-1.3,0.1-2.5-0.4-3.5-1.4c-1-1-1.7-2.7-2-5.1
		c-0.6,0.5-1.3,1.1-2.3,1.8c-0.9,0.7-1.9,1.5-3,2.3c-1.1,0.8-2.2,1.5-3.4,2.2c-1.2,0.7-2.4,1.2-3.5,1.5c-1.1,0.3-2.2,0.4-3.1,0.3
		c-1-0.1-1.8-0.6-2.4-1.4c-0.9-1.1-1.3-2.5-1.2-4.1c0.1-1.6,0.6-3.3,1.4-5.1c0.8-1.8,1.8-3.6,3.1-5.4c1.3-1.8,2.7-3.4,4.2-5
		c1.5-1.5,3-2.8,4.5-3.9c1.5-1.1,2.9-1.8,4.1-2.1c2.1-0.6,3.8-0.6,5,0c1.2,0.6,2.1,1.5,2.5,2.6c0.4,1.2,0.5,2.5,0.2,4
		c-0.3,1.5-0.8,2.9-1.7,4.3c0.3,0.3,0.5,0.7,0.5,1.1c0,0.4-0.1,0.8-0.2,1.2c-0.2,0.4-0.4,0.8-0.7,1.2c-0.3,0.4-0.5,0.7-0.8,1
		c-0.2,3.1,0.1,5.1,0.9,6c0.8,0.9,1.9,1,3.2,0.4c1.4-0.6,2.9-1.7,4.6-3.3c1.7-1.6,3.4-3.4,5-5.4c1.6-1.9,3.1-3.9,4.4-5.7
		c1.3-1.9,2.2-3.3,2.7-4.4c0.8-3.1,1.6-6.3,2.5-9.4c0.9-3.1,1.8-6.3,2.8-9.4c-5.1,1.2-10.1,2.5-15,3.8
		C224.2,56.4,219.2,57.7,214.1,59.2z M199.5,90.4c0.3,0.5,0.8,0.7,1.7,0.5c0.9-0.2,1.9-0.6,3-1.2c1.1-0.6,2.3-1.4,3.5-2.3
		c1.2-0.9,2.4-1.8,3.4-2.6c1-0.8,1.9-1.5,2.6-2.2c0.7-0.6,1.1-0.9,1.1-1c0.2-1,0.4-1.8,0.7-2.6c0.3-0.7,0.7-1.3,1.3-1.5
		c-0.3-0.5-0.3-1.1-0.1-1.6c0.5-0.9,0.8-1.7,1-2.5c0.2-0.8,0.3-1.5,0.1-2.1c-0.1-0.6-0.4-1-0.9-1.3c-0.5-0.3-1.2-0.3-2.1-0.2
		c-1.1,0.2-2.3,0.8-3.6,1.7c-1.3,0.9-2.5,2.1-3.8,3.4c-1.3,1.3-2.4,2.8-3.5,4.3c-1.1,1.5-2,3-2.8,4.5c-0.8,1.4-1.3,2.7-1.6,3.9
		C199.2,88.9,199.2,89.8,199.5,90.4z"/>
	<path class="st1" d="M326.2,85.6c-1.6,1.1-3.4,2-5.3,2.7c-1.9,0.7-3.9,1.3-6,1.9c-0.6,1.9-1.6,3.8-2.8,5.7
		c-1.3,1.9-2.7,3.7-4.4,5.4c-1.7,1.7-3.4,3.1-5.4,4.4c-1.9,1.3-3.9,2.2-5.9,2.9c-2,0.6-4,0.9-6,0.7c-1.9-0.2-3.8-0.9-5.5-2.1
		c-1.8-1.3-2.4-2.6-1.9-4c0.5-1.4,1.7-2.8,3.4-4.2c1.8-1.4,4-2.7,6.7-4c2.7-1.3,5.3-2.4,7.9-3.4c2.6-1,4.9-1.9,7-2.6
		c2.1-0.7,3.5-1.1,4.1-1.2c0.3-1.2,0.6-2.6,0.9-4.1c0.3-1.5,0.5-3,0.6-4.6c0.1-1.6,0.2-3.1,0.2-4.6c0-1.5-0.1-2.9-0.3-4.2
		c-1,0.7-2.1,1.7-3.4,2.8c-1.3,1.1-2.8,2.3-4.4,3.6c-1.6,1.3-3.2,2.5-4.8,3.8c-1.7,1.3-3.3,2.4-4.9,3.3c-1.6,1-3.1,1.7-4.5,2.2
		c-1.4,0.5-2.7,0.7-3.7,0.5c-1.5-0.3-2.4-1-2.8-2.1c-0.3,0.3-0.6,0.6-0.8,0.8c-0.2,0.2-0.5,0.4-0.8,0.7c-0.4,0.3-0.8,0.4-1.2,0.4
		s-0.7-0.3-1-0.6s-0.4-0.7-0.5-1.1c-0.1-0.4,0.1-0.8,0.6-1.1c0.5-0.4,1-1,1.7-1.6c0.6-0.7,1.3-1.4,2.1-2.2c0.2-0.7,0.4-1.6,0.7-2.7
		s0.7-2.2,1.2-3.4s1-2.1,1.6-3c0.6-0.9,1.3-1.4,2-1.6c0.4-0.1,0.8,0,1.2,0.3c0.3,0.3,0.6,0.7,0.7,1.1c0.2,0.9,0.2,1.7,0.1,2.6
		c-0.2,0.9-0.5,1.8-0.9,2.7c-0.4,0.9-0.9,1.8-1.5,2.7c-0.6,0.9-1.2,1.7-1.9,2.5c-0.2,1.4,0.3,2.1,1.5,2c1.2-0.1,2.7-0.7,4.5-1.8
		c1.8-1,3.8-2.4,6-4c2.2-1.6,4.3-3.2,6.2-4.8c1.9-1.6,3.6-3,5-4.2c1.4-1.2,2.2-1.9,2.4-2.1c0.5-0.4,1-0.4,1.6-0.2
		c0.5,0.2,0.9,0.8,1.2,1.7c0.3,0.9,0.4,2.1,0.5,3.4c0.1,1.4,0.1,2.8,0,4.4c-0.1,1.6-0.2,3.2-0.4,4.7c-0.2,1.5-0.3,2.9-0.5,4.1
		c-0.2,1.2-0.3,2.1-0.5,2.7c1.4-0.4,2.9-0.9,4.2-1.4c1.4-0.5,2.7-1.2,3.8-2c0.4-0.3,0.8-0.4,1.2-0.3c0.5,0.1,0.8,0.3,1.1,0.6
		c0.3,0.3,0.4,0.7,0.4,1.1C326.8,85,326.6,85.3,326.2,85.6z M286.5,103.6c0,0.8,0.5,1.4,1.4,1.8s2.2,0.5,3.7,0.4
		c1.5-0.1,3.2-0.5,5-1.1c1.8-0.6,3.7-1.5,5.5-2.7c1.8-1.2,3.5-2.7,5.1-4.4c1.6-1.8,2.8-3.9,3.8-6.3c-0.6,0.2-1.6,0.5-3,1
		c-1.4,0.5-3.1,1.1-4.9,1.7c-1.8,0.7-3.7,1.4-5.7,2.2c-1.9,0.8-3.7,1.6-5.4,2.5c-1.6,0.9-3,1.7-4,2.6
		C287,102,286.5,102.8,286.5,103.6z M297.4,55c0.4-0.1,0.9,0,1.4,0.1c0.5,0.1,1,0.3,1.4,0.6c0.4,0.3,0.7,0.6,1,1
		c0.2,0.4,0.3,0.7,0.2,1.1c-1.2,1.4-2.3,2.6-3.4,3.7c-0.9,0.9-1.7,1.7-2.5,2.5c-0.8,0.7-1.2,1.1-1.3,1c-0.9-0.3-1.3-0.9-1.2-2
		c0.1-1.1,0.4-2.2,1-3.4c0.6-1.2,1.2-2.2,2-3.2C296.5,55.5,297.1,55.1,297.4,55z"/>
	<path class="st1" d="M355.6,83.2c1.5-1.2,3-2.5,4.4-3.7c1.5-1.2,2.8-2.5,4-4c1.2-1.4,2.3-2.9,3.2-4.5c0.9-1.6,1.5-3.4,1.9-5.3
		c-0.6-0.7-1-1.5-1.2-2.5c-0.1-1,0-1.9,0.4-2.8c0.2-0.4,0.5-0.7,1-1c0.5-0.2,0.9-0.1,1.3,0.2c0.5,0.4,0.9,1,1.1,1.7
		c0.2,0.7,0.3,1.4,0.4,2.2c0.6,0.4,1.4,0.7,2.2,0.9c0.8,0.2,1.3,0.5,1.6,0.9c0.6,0.9,0.9,2.1,0.8,3.6c-0.1,1.6-0.5,3.3-1.1,5.2
		c-0.6,1.9-1.3,3.8-2.2,5.8c-0.9,2-1.6,3.8-2.3,5.5c-0.7,1.7-1.2,3.1-1.6,4.3c-0.4,1.2-0.5,1.9-0.2,2.2c0.4,0.4,1,0.5,2,0.3
		c1-0.2,2.1-0.6,3.3-1.2c1.2-0.6,2.5-1.2,3.9-2c1.4-0.8,2.7-1.6,3.9-2.4c1.2-0.8,2.3-1.5,3.2-2.2c0.9-0.7,1.6-1.2,2-1.5
		c0.4-0.3,0.8-0.4,1.2-0.3c0.4,0.1,0.8,0.3,1,0.6c0.2,0.3,0.4,0.7,0.4,1.1c0,0.4-0.2,0.8-0.6,1.1c-0.6,0.5-1.6,1.3-2.9,2.2
		c-1.3,0.9-2.8,1.9-4.4,3c-1.6,1-3.3,2-5,2.9c-1.7,0.9-3.4,1.5-4.9,1.9c-1.5,0.4-2.9,0.5-4,0.2c-1.1-0.3-1.9-1.1-2.3-2.4
		c-0.3-0.9-0.2-2.1,0.3-3.6c0.5-1.5,1.1-3.2,1.8-5c0.8-1.8,1.6-3.7,2.5-5.6s1.6-3.7,2.1-5.4c0.5-1.7,0.8-3.1,0.8-4.3
		c0-1.2-0.5-2.1-1.6-2.5c-0.4,1.9-1.1,3.7-2.1,5.4c-1,1.7-2.1,3.3-3.4,4.8c-1.3,1.5-2.8,3-4.3,4.4c-1.5,1.4-3,2.7-4.5,4
		c-0.4,0.4-0.8,0.5-1.2,0.4c-0.4-0.1-0.7-0.3-0.9-0.6c-0.2-0.3-0.4-0.7-0.4-1.2C355.1,83.9,355.3,83.5,355.6,83.2z"/>
	<path class="st1" d="M394.4,80.8c-0.2,0.6-0.4,1.5-0.6,2.6c-0.2,1.1-0.4,2.2-0.5,3.3c-0.1,1.1,0,2.1,0.2,3c0.2,0.9,0.7,1.5,1.5,1.7
		c1.1,0.3,2.4,0.1,4-0.5c1.6-0.6,3.2-1.4,4.9-2.3c1.7-1,3.2-2,4.6-3s2.5-1.9,3.2-2.4c0.4-0.3,0.8-0.4,1.2-0.3c0.4,0.1,0.7,0.3,1,0.6
		c0.2,0.3,0.4,0.7,0.4,1.1c0,0.4-0.1,0.8-0.5,1.1c-0.6,0.5-1.5,1.2-2.5,2c-1,0.8-2.2,1.6-3.5,2.4c-1.3,0.8-2.6,1.6-4,2.3
		c-1.4,0.7-2.8,1.3-4.2,1.7c-1.4,0.4-2.7,0.6-3.9,0.6c-1.2-0.1-2.3-0.4-3.3-1.1c-1.2-0.9-1.9-2.2-2.1-3.8c-0.2-1.6-0.2-3.1,0-4.6
		l-0.6,0.6c-0.4,0.3-0.8,0.4-1.2,0.4c-0.4-0.1-0.7-0.3-1-0.6c-0.2-0.3-0.4-0.7-0.4-1.1c0-0.4,0.1-0.8,0.5-1.1c0.7-0.7,1.4-1.3,2-1.9
		c0.6-0.6,1.2-1.3,1.8-2.1c0.2-0.6,0.4-1.4,0.8-2.5c0.3-1.1,0.7-2.1,1.2-3.2c0.4-1.1,0.9-2,1.4-2.9c0.5-0.9,1.1-1.5,1.7-1.7
		c0.4-0.2,0.8-0.1,1.2,0.1s0.7,0.5,0.8,0.9c0.3,0.7,0.3,1.5,0,2.6c-0.2,1-0.6,2-1.1,3.1s-1,2-1.6,3
		C395.3,79.5,394.8,80.2,394.4,80.8z M407.4,58c-1.4,1.5-2.6,2.8-3.4,3.7c-0.9,0.9-1.7,1.7-2.4,2.5c-0.7,0.7-1.2,1.1-1.3,1
		c-1-0.3-1.4-0.9-1.3-2c0.1-1.1,0.4-2.2,1-3.4c0.5-1.2,1.2-2.2,1.9-3.2c0.7-1,1.3-1.5,1.6-1.5c0.4-0.1,0.9,0,1.4,0.1
		c0.5,0.1,1,0.3,1.4,0.6c0.4,0.3,0.7,0.6,1,1C407.4,57.3,407.5,57.7,407.4,58z"/>
	<path class="st1" d="M441.7,79.8c-2.4,2.4-4.8,4.8-7.2,7.1c-2.4,2.3-4.9,4.7-7.4,7c-1.2,2.7-2.6,5.9-4.2,9.5
		c-1.5,3.6-3.2,7.2-4.9,10.9c-1.7,3.7-3.5,7.2-5.3,10.6c-1.8,3.4-3.6,6.2-5.3,8.5c-1.3,1.8-2.8,2.5-4.3,2.3
		c-1.5-0.2-2.9-1.3-4.2-3.3c-1.2-1.8-1.5-3.9-1.1-6.3c0.5-2.4,1.4-4.9,3-7.5s3.4-5.3,5.6-7.9c2.2-2.7,4.5-5.2,6.8-7.6
		s4.5-4.6,6.5-6.5c2.1-1.9,3.7-3.4,4.8-4.6l2-4.5c-0.7,0.5-1.6,1.1-2.6,1.7c-1,0.6-2,1.1-3.1,1.6c-1.1,0.5-2.2,0.9-3.2,1.1
		c-1.1,0.3-2,0.4-2.9,0.3c-1.9-0.2-3.1-1.1-3.6-2.8c-0.5-1.7-0.4-3.8,0.2-6.3c0.6-2.5,1.6-5,3-7.7c1.4-2.7,3-5.1,4.9-7.2
		c1.8-2.1,3.8-3.6,5.8-4.6s3.9-1,5.6,0c1,0.6,1.7,1.3,2.1,2.2c0.4,0.9,0.6,1.9,0.6,2.8c0,1-0.2,2-0.5,3c-0.3,1-0.7,2-1.1,2.8
		c-0.2,0.5-0.5,0.8-1,0.9c-0.4,0.1-0.8,0.1-1.2,0c-0.3-0.1-0.6-0.3-0.8-0.7c-0.2-0.3-0.2-0.8,0-1.2c0.3-0.5,0.6-1.2,0.9-2.1
		c0.3-0.9,0.5-1.7,0.5-2.4c0-0.8-0.2-1.4-0.6-2c-0.4-0.6-1.2-0.8-2.3-0.8c-1,0-2,0.5-3.2,1.6c-1.2,1.1-2.3,2.4-3.5,4
		c-1.1,1.6-2.2,3.4-3.2,5.3c-1,1.9-1.7,3.7-2.3,5.4c-0.5,1.7-0.8,3.2-0.8,4.4c0,1.2,0.5,1.9,1.3,2.2c0.9,0.2,2,0,3.3-0.7
		c1.4-0.7,2.7-1.5,4.1-2.5c1.4-1,2.6-2,3.8-3c1.1-1,1.9-1.8,2.4-2.3c0.4-1.2,0.9-2.3,1.4-3.4c0.5-1.1,1.1-2.1,1.7-3
		c0.2-0.3,0.5-0.5,0.8-0.6s0.6-0.1,0.9,0c0.3,0.1,0.5,0.3,0.8,0.6c0.2,0.3,0.3,0.6,0.2,1c-0.1,1.4-0.5,2.7-1.1,4
		c-0.6,1.3-1.4,2.5-2.4,3.7c-0.3,0.6-0.5,1.3-0.8,2c-0.2,0.7-0.5,1.3-0.8,2c2.2-2,4.3-4.1,6.4-6.2c2.1-2.1,4.2-4.2,6.2-6.3
		c0.6-2.9,1.3-6.2,2.1-9.8c0.7-3.6,1.7-7.1,2.7-10.7c1.1-3.6,2.3-7,3.8-10.3c1.5-3.3,3.2-6.1,5.3-8.5c1.9-2.1,3.8-3.6,5.8-4.4
		c2-0.8,3.8-1,5.3-0.6c1.5,0.5,2.6,1.5,3.2,3.3c0.7,1.7,0.6,4.1-0.3,7.2c-0.8,2.7-2.2,5.6-4.2,8.9c-2,3.3-4.3,6.5-6.8,9.8
		c-2.5,3.2-5,6.3-7.6,9.2c-2.6,2.9-4.8,5.4-6.7,7.4c-0.4,2-0.8,4.1-1.2,6.1c-0.4,2.1-0.7,4.1-1,6.2c0.7-0.9,1.8-2.2,3.2-3.8
		c1.4-1.7,2.9-3.3,4.4-4.8c1.6-1.5,3.1-2.9,4.7-3.9c1.6-1.1,2.9-1.5,4-1.3c1.2,0.3,2.2,1,2.8,2.3c0.6,1.3,1.2,2.7,1.8,4.3
		c0.6,1.6,1.2,3.1,1.8,4.6c0.7,1.5,1.6,2.5,2.9,3.1c1.3,0.6,3,0.5,5.1-0.2c2.1-0.7,4.9-2.4,8.3-5.2c0.4-0.3,0.8-0.4,1.2-0.3
		c0.4,0.1,0.8,0.3,1,0.6c0.2,0.3,0.4,0.7,0.4,1.1c0,0.4-0.2,0.8-0.6,1.1c-3.7,3-6.9,5-9.6,5.9c-2.6,0.9-4.9,1.1-6.6,0.6
		c-1.8-0.5-3.2-1.4-4.3-2.9c-1.1-1.4-1.9-2.9-2.5-4.5c-0.6-1.6-1.1-3-1.4-4.4c-0.3-1.3-0.6-2.1-0.8-2.4c-0.4-0.4-1-0.4-1.8,0.2
		c-0.9,0.5-1.8,1.4-3,2.5c-1.1,1.1-2.3,2.4-3.5,3.8c-1.2,1.4-2.4,2.8-3.6,4.2c-1.2,1.3-2.2,2.5-3.2,3.5c-1,1-1.7,1.6-2.3,1.8
		c-0.4,0.1-0.7,0.1-1-0.2c-0.3-0.2-0.5-0.5-0.6-0.7c-0.3-0.4-0.4-1.2-0.3-2.4c0.1-1.2,0.2-2.4,0.4-3.8c0.2-1.4,0.5-2.7,0.8-4
		C441.3,81.5,441.6,80.5,441.7,79.8z M404.2,132.5c1-1.1,2-2.4,3-4.1c1-1.7,2.1-3.5,3.2-5.5c1.1-2,2.1-4.1,3.1-6.3
		c1-2.2,2-4.3,3-6.4c1-2.1,1.9-4.1,2.7-6c0.8-1.9,1.6-3.5,2.2-4.9c-0.7,0.7-1.8,1.7-3.1,3c-1.3,1.3-2.8,2.9-4.4,4.6
		s-3.2,3.5-4.8,5.5c-1.6,1.9-3.1,3.9-4.3,5.8c-1.3,1.9-2.2,3.8-3,5.6c-0.7,1.8-0.9,3.4-0.7,4.8c0.1,0.9,0.5,1.6,1,2.4
		C402.6,131.8,403.3,132.3,404.2,132.5z M467.7,39.6c0.6-2.3,0.8-4,0.4-5c-0.4-1.1-1.1-1.7-2-1.8c-0.9-0.1-2,0.1-3.3,0.8
		c-1.3,0.7-2.4,1.6-3.5,2.9c-1.7,2-3.2,4.5-4.6,7.5c-1.3,3-2.5,6.2-3.6,9.4c-1,3.2-1.9,6.3-2.6,9.3c-0.7,3-1.3,5.3-1.7,7.2
		c1.7-1.9,3.5-4,5.7-6.5c2.1-2.5,4.2-5.1,6.2-7.8c2-2.7,3.9-5.5,5.5-8.2C465.9,44.6,467,42,467.7,39.6z"/>
	<path class="st1" d="M503.6,37.6c0,0.5-0.1,1.3-0.4,2.3c-0.2,1-0.5,2-0.8,3.1c-0.3,1.1-0.6,2.1-1,3.2s-0.6,1.9-0.7,2.5
		c2.2-0.5,4.7-1,7.4-1.6c2.7-0.6,5.5-1.1,8.4-1.4c2.8-0.3,5.6-0.4,8.2-0.2c2.6,0.2,5,0.9,7,2c0.4,0.3,0.7,0.6,0.8,1
		c0.1,0.4,0.1,0.8-0.1,1.2c-0.2,0.3-0.4,0.6-0.8,0.8c-0.3,0.2-0.8,0.1-1.2-0.2c-2-1.1-4.3-1.7-6.9-1.9c-2.6-0.1-5.4,0-8.2,0.4
		c-2.8,0.4-5.6,0.9-8.3,1.6c-2.7,0.7-5.1,1.3-7.3,1.8c-0.7,2.2-1.4,4.6-2.2,7.1c-0.8,2.5-1.6,5-2.5,7.6c-0.9,2.5-1.9,5-2.9,7.3
		c-1,2.3-2.2,4.5-3.4,6.3c-0.2,0.6-0.4,1.5-0.6,2.8c-0.3,1.3-0.5,2.7-0.8,4.2c-0.3,1.5-0.5,3.1-0.6,4.8c-0.1,1.7-0.1,3.1,0,4.4
		c0.2,1.3,0.5,2.3,1.1,3.1c0.6,0.8,1.4,1.1,2.5,0.9c1.4-0.2,3.1-0.9,4.9-2.2c1.8-1.2,3.7-2.7,5.6-4.5c1.9-1.8,3.9-3.6,5.9-5.6
		c2-1.9,3.9-3.7,5.6-5.4c0.4-0.3,0.8-0.4,1.2-0.4s0.7,0.3,1,0.6c0.2,0.3,0.4,0.7,0.4,1.1c0,0.4-0.1,0.8-0.5,1.1
		c-1.6,1.4-3.5,3.1-5.6,5.2c-2.1,2.1-4.3,4.2-6.6,6.2c-2.3,2-4.5,3.7-6.8,5.1c-2.3,1.4-4.4,2.1-6.4,2c-2-0.1-3.4-0.8-4.2-2.4
		c-0.8-1.5-1.3-3.3-1.4-5.4c-0.1-2.1,0-4.1,0.3-6.2s0.6-3.7,0.8-4.9l-0.2,0.2c-0.4,0.4-0.8,0.5-1.2,0.4c-0.4-0.1-0.7-0.3-1-0.6
		c-0.2-0.3-0.4-0.7-0.4-1.1c0-0.4,0.1-0.8,0.5-1.1c0.8-0.7,1.5-1.5,2-2.1c0.5-0.7,1.1-1.5,1.8-2.4c1.1-4.2,2.3-8.4,3.6-12.6
		c1.3-4.2,2.7-8.3,4.2-12.4c-1.7,0.4-3.2,0.8-4.6,1.2c-1.3,0.4-2.6,0.7-3.9,1.1c-1.3,0.3-2.5,0.7-3.9,1.1c-1.3,0.4-2.8,0.8-4.5,1.3
		c-0.5,0.2-0.9,0.1-1.2-0.1c-0.3-0.2-0.6-0.5-0.8-0.9c-0.2-0.4-0.2-0.7,0-1.1c0.1-0.4,0.4-0.6,0.9-0.8c1.9-0.5,3.6-1,5.1-1.4
		c1.5-0.4,3-0.9,4.5-1.3c1.5-0.4,3-0.8,4.5-1.2c1.5-0.4,3.2-0.8,5.2-1.3c0.9-2.2,1.7-4.4,2.6-6.6c0.9-2.2,1.8-4.3,2.8-6.4
		c0.2-0.4,0.4-0.7,0.8-0.9c0.3-0.2,0.7-0.2,1-0.1s0.6,0.3,0.8,0.6C503.5,36.9,503.6,37.2,503.6,37.6z"/>
	<path class="st1" d="M521.6,101.7c0,0.6-0.2,1.1-0.7,1.4c-0.5,0.3-1,0.5-1.5,0.5s-1.1-0.2-1.5-0.5c-0.5-0.3-0.7-0.8-0.7-1.4
		c0-0.6,0.2-1.1,0.7-1.5c0.5-0.4,1-0.6,1.5-0.6c0.6-0.1,1.1,0.1,1.5,0.4C521.3,100.3,521.6,100.9,521.6,101.7z"/>
	<path class="st1" d="M563.8,74c0.7,0.3,1.1,0.6,1.3,1.1c0.2,0.5,0.1,1.1-0.1,1.7c-0.2,0.7-0.6,1.4-1,2.1c-0.5,0.7-1,1.5-1.7,2.2
		c-0.1,0.3-0.2,0.6-0.4,1c-0.1,0.3-0.3,0.6-0.4,1c1.5-1.6,3.2-3.2,5.1-4.8c1.8-1.6,3.6-2.8,5.3-3.8s3.2-1.5,4.4-1.5
		c1.3,0,2.2,0.7,2.6,2.3c0.3,1,0.5,2.2,0.6,3.7c0.1,1.4,0.2,2.8,0.4,4.2s0.6,2.6,1.2,3.6c0.6,1.1,1.5,1.7,2.8,1.9
		c1,0.2,2.1,0.2,3.3-0.2c1.2-0.3,2.4-0.8,3.6-1.4c1.2-0.6,2.3-1.2,3.4-2c1.1-0.7,2.1-1.4,2.9-2c0.4-0.3,0.8-0.4,1.2-0.3
		c0.4,0.1,0.7,0.3,1,0.6s0.4,0.7,0.4,1.1c0,0.4-0.2,0.8-0.6,1.1c-1.1,0.9-2.3,1.7-3.6,2.5c-1.3,0.8-2.6,1.4-4,2
		c-1.3,0.6-2.7,1-4,1.3c-1.3,0.3-2.6,0.4-3.8,0.4c-2-0.1-3.5-0.7-4.5-1.9c-1-1.1-1.7-2.5-2.1-4.2c-0.4-1.6-0.7-3.3-0.8-5.1
		c-0.1-1.8-0.3-3.4-0.6-4.8c-1.1,0.4-2.5,1.3-4.1,2.5c-1.6,1.2-3.3,2.6-5,4c-1.7,1.5-3.3,3-4.8,4.5c-1.5,1.5-2.6,2.8-3.4,3.8
		c-0.3,0.4-0.6,0.6-1,0.7c-0.4,0.1-0.7,0-1-0.1c-0.3-0.2-0.5-0.4-0.6-0.8s-0.2-0.7-0.1-1.2l0.8-3c-0.3,0.1-0.6,0.1-0.9-0.2
		c-0.3-0.2-0.5-0.5-0.6-0.8c-0.1-0.3-0.2-0.7-0.2-1.1c0-0.4,0.2-0.8,0.5-1.1c0.5-0.4,1.2-1.2,1.9-2.3c0.7-1.1,1.5-2.2,2.3-3.2
		c0.8-1.1,1.5-2,2.2-2.8C562.7,74.1,563.3,73.8,563.8,74z"/>
	<path class="st1" d="M612.4,75.8c0.1,1.4-0.1,3.1-0.5,5.1c-0.4,2-1.1,4-2,5.8c-0.9,1.9-2,3.5-3.4,4.8c-1.4,1.3-2.9,2-4.7,1.9
		c-1.5,0-2.8-0.5-3.7-1.4c-0.9-0.9-1.5-2.1-1.7-3.5c-0.2-1.4-0.2-3,0.2-4.8c0.4-1.7,1.1-3.4,2-5c1-1.6,2.3-3.1,3.8-4.3
		s3.4-2.1,5.5-2.7c0.8-0.2,1.3,0.1,1.6,0.7c0.6-0.3,1.1-0.3,1.4-0.2c1.9,0.5,3.7,0.7,5.3,0.6c1.6-0.2,3.1-0.6,4.6-1.3
		c1.4-0.7,2.7-1.6,3.9-2.8c1.2-1.1,2.3-2.4,3.2-3.9l3.4-13.5c-5.9,1.1-11.7,2.2-17.4,3.5c-5.8,1.3-11.5,2.7-17.3,4.3
		c-0.5,0.2-0.9,0.1-1.2-0.2c-0.3-0.3-0.5-0.6-0.6-1c-0.1-0.4-0.1-0.8,0.1-1.2c0.2-0.4,0.5-0.6,1-0.8c6-1.7,12.1-3.2,18.2-4.5
		c6.1-1.3,12.2-2.5,18.3-3.6c1.1-3.6,2.2-7.1,3.4-10.6c1.2-3.5,2.5-6.9,4-10.2c0.3-0.5,0.8-0.9,1.5-1.1c0.7-0.2,1.2,0,1.5,0.7
		c0.2,0.4,0.2,1.1,0.2,2.2c-0.1,1-0.2,2.2-0.4,3.5c-0.2,1.3-0.5,2.7-0.8,4.1c-0.3,1.4-0.6,2.8-1,4.2c-0.3,1.3-0.6,2.5-0.9,3.6
		c-0.3,1.1-0.5,1.9-0.6,2.4c1.7-0.2,3.7-0.5,6-0.8c2.4-0.3,4.8-0.5,7.3-0.6c2.5-0.1,4.9,0,7.1,0.3c2.3,0.3,4.1,0.8,5.6,1.7
		c0.4,0.3,0.7,0.6,0.8,1c0.1,0.4,0,0.8-0.2,1.1c-0.2,0.3-0.5,0.6-0.9,0.7c-0.4,0.2-0.8,0.1-1.3-0.2c-1.3-0.7-3-1.2-5.3-1.4
		c-2.2-0.2-4.6-0.2-7,0c-2.5,0.2-4.9,0.4-7.2,0.7c-2.4,0.3-4.4,0.6-6,0.9c-0.9,2.7-1.8,5.3-3,7.9c-1.1,2.6-2.5,5.1-4,7.4
		c-0.3,1.2-0.8,3.1-1.5,5.7c-0.7,2.6-1.4,5.6-2.1,8.8c-0.7,3.3-1.5,6.7-2.2,10.3c-0.7,3.6-1.3,7-1.6,10.2c-0.4,3.2-0.5,6-0.4,8.4
		c0.1,2.4,0.6,4,1.5,4.8c0.4,0.3,0.5,0.7,0.4,1.1c-0.1,0.4-0.3,0.7-0.6,1c-0.3,0.3-0.7,0.4-1.1,0.5c-0.4,0.1-0.8-0.1-1.1-0.4
		c-1-1-1.7-2.6-2-4.9c-0.3-2.2-0.3-4.8-0.1-7.7c0.2-2.9,0.6-5.9,1.1-9.2c0.5-3.3,1.1-6.4,1.8-9.4c0.7-3,1.3-5.7,1.9-8.2
		c0.6-2.5,1-4.3,1.4-5.6c-1.9,1.7-4.1,3-6.4,3.9C617.9,76,615.3,76.2,612.4,75.8z M608.6,74.9c-1.6,0.4-3,1-4.1,1.9
		c-1.1,0.9-2,1.9-2.7,3.1c-0.7,1.1-1.2,2.3-1.5,3.6c-0.3,1.2-0.5,2.3-0.4,3.4c0.1,1,0.3,1.9,0.7,2.5s1,1,1.8,0.9
		c1.1-0.1,2.1-0.7,3-1.9c0.9-1.2,1.7-2.7,2.3-4.4s1.1-3.4,1.3-5.1c0.3-1.7,0.3-3.1,0.1-4.1C609,74.8,608.8,74.8,608.6,74.9z"/>
	<path class="st1" d="M695.1,88c-0.3-1.4-0.1-3.2,0.4-5.4c0.5-2.2,1.2-4.4,2.1-6.7c0.9-2.3,1.9-4.4,2.9-6.3c1.1-1.9,2-3.4,2.9-4.4
		c0.2-0.3,0.5-0.4,0.8-0.5c0.3-0.1,0.6,0,0.9,0c0.3,0.1,0.5,0.2,0.7,0.5c0.2,0.2,0.3,0.5,0.3,0.9c0,0.5-0.2,1.3-0.5,2.4
		c-0.3,1.1-0.7,2.3-1.2,3.7c-0.5,1.4-1.1,2.9-1.6,4.5c-0.6,1.6-1.2,3.1-1.7,4.6c-0.6,1.4-1.1,2.7-1.5,3.9c-0.5,1.1-0.8,2-1,2.6
		c0.5,0.7,1.2,0.9,2.3,0.6s2.1-0.7,3.3-1.4c1.1-0.7,2.2-1.4,3.2-2.2c1-0.8,1.8-1.3,2.2-1.7c0.4-0.3,0.8-0.4,1.2-0.4s0.7,0.3,1,0.6
		c0.3,0.3,0.4,0.7,0.4,1.1c0,0.4-0.2,0.8-0.6,1.1c-0.7,0.6-1.7,1.3-2.9,2.2c-1.2,0.9-2.4,1.6-3.8,2.3c-1.3,0.7-2.7,1.2-4,1.4
		c-1.4,0.3-2.6,0.1-3.6-0.6c-0.2,0.6-0.6,1.5-1,2.7c-0.5,1.2-1,2.5-1.6,3.9c-0.6,1.4-1.3,2.8-2.1,4.3c-0.8,1.5-1.6,2.8-2.4,3.9
		c-0.9,1.1-1.7,2-2.6,2.7c-0.9,0.7-1.7,0.9-2.6,0.7c-1.2-0.3-2.1-1.2-2.5-2.7c-0.5-1.5-0.7-3.4-0.7-5.6c0-2.2,0.2-4.6,0.6-7.2
		c0.4-2.6,0.8-5.1,1.3-7.5c0.5-2.4,1-4.5,1.4-6.4c0.5-1.9,0.8-3.2,1-4c-0.4,0.6-1,1.4-1.8,2.4c-0.7,1-1.6,2.1-2.5,3.4
		c-0.9,1.2-1.9,2.5-2.9,3.7c-1,1.3-2,2.4-2.8,3.4c-0.9,1-1.7,1.9-2.4,2.6c-0.7,0.7-1.3,1-1.6,1.1c-0.6,0.1-1-0.1-1.3-0.6
		c-0.3-0.5-0.4-1.1-0.5-1.7c-0.1-0.7-0.1-1.3,0-2c0.1-0.7,0.1-1.2,0.2-1.5c-0.5-0.2-0.8-0.7-1-1.4c-0.2-0.7,0-1.3,0.5-1.8
		c0.9-0.8,1.6-1.9,2.2-3.2c0.6-1.3,1.1-2.7,1.6-4.2c0.5-1.5,1-2.9,1.5-4.4c0.5-1.4,1.2-2.7,2-3.8c0.4-0.5,1-0.7,1.7-0.4
		c0.7,0.2,1.1,0.7,1,1.4c0,1.1-0.1,2.3-0.4,3.6c-0.3,1.3-0.7,2.6-1.2,3.9c-0.5,1.3-1.1,2.6-1.8,3.8c-0.7,1.2-1.4,2.3-2.2,3.4
		c-0.1,0.5-0.2,1-0.3,1.4c-0.1,0.5-0.1,1-0.1,1.4c2.2-2.4,4.5-5.1,6.7-8.2s4.3-5.9,6.3-8.6c0.2-0.3,0.5-0.8,1-1.5
		c0.5-0.7,0.9-1.2,1.4-1.7c0.5-0.5,0.9-0.7,1.4-0.8c0.5,0,0.8,0.4,1.2,1.2c-0.2,0.7-0.6,2.2-1.2,4.3c-0.6,2.1-1.2,4.6-1.8,7.4
		c-0.7,2.8-1.3,5.7-1.9,8.8c-0.6,3.1-1.1,6-1.5,8.6c-0.4,2.7-0.5,4.9-0.5,6.8c0.1,1.9,0.4,3,1,3.4c1-1,1.9-2.2,2.8-3.8
		c0.9-1.5,1.8-3.2,2.6-4.9c0.8-1.7,1.5-3.4,2.2-5.1C694.1,90.7,694.7,89.2,695.1,88z"/>
	<path class="st1" d="M704.7,99.6c0.3-1.1,0.8-3,1.5-5.6c0.7-2.6,1.6-5.6,2.7-9.1c1.1-3.5,2.3-7.3,3.6-11.3
		c1.3-4.1,2.8-8.1,4.4-12.1s3.2-7.8,4.9-11.4c1.7-3.6,3.4-6.7,5.2-9.3c1.8-2.6,3.5-4.6,5.3-5.8s3.5-1.6,5.1-0.9
		c1.4,0.6,2.2,1.7,2.4,3.4c0.1,1.7-0.2,3.7-1,6.1c-0.8,2.4-2,5-3.6,7.9c-1.6,2.9-3.3,5.8-5.2,8.8c-1.9,3-3.8,5.9-5.8,8.8
		c-2,2.9-3.9,5.4-5.6,7.8c-1.7,2.3-3.2,4.3-4.4,5.9c-1.2,1.6-2,2.6-2.3,3.1c-0.5,1.5-0.9,3.1-1.4,4.6c-0.4,1.5-0.9,3.1-1.3,4.6
		c0.6-0.7,1.4-1.9,2.5-3.4c1.1-1.5,2.3-3.1,3.6-4.8c1.3-1.7,2.7-3.5,4.2-5.2c1.5-1.7,2.9-3.2,4.3-4.5c1.4-1.3,2.7-2.2,3.9-2.8
		s2.2-0.6,3,0c0.7,0.6,1.3,1.5,1.6,2.9c0.3,1.3,0.7,2.7,1,4.2c0.3,1.5,0.7,2.9,1.2,4.2c0.5,1.3,1.3,2.1,2.4,2.6
		c1.1,0.5,2.7,0.3,4.6-0.3c1.9-0.7,4.5-2.3,7.6-4.8c0.4-0.3,0.8-0.4,1.2-0.3c0.4,0.1,0.8,0.3,1,0.6s0.4,0.7,0.4,1.1
		c0,0.4-0.2,0.8-0.6,1.1c-2.6,2.1-5.1,3.8-7.4,4.9c-2.3,1.1-4.4,1.6-6.2,1.5c-1.5-0.1-2.7-0.5-3.6-1.3s-1.6-1.8-2.2-2.9
		c-0.6-1.1-1-2.3-1.3-3.6c-0.3-1.3-0.6-2.5-0.8-3.5c-0.2-1.1-0.5-1.9-0.8-2.5c-0.3-0.6-0.6-0.8-1.1-0.7c-0.7,0.3-1.6,1-2.7,2.2
		c-1.1,1.2-2.3,2.6-3.6,4.2c-1.3,1.6-2.7,3.4-4.1,5.3c-1.4,1.9-2.8,3.7-4.1,5.4c-1.3,1.7-2.6,3.1-3.7,4.4c-1.1,1.2-2,2-2.7,2.4
		c-0.5,0.3-1,0.2-1.5-0.2C704.7,100.7,704.6,100.2,704.7,99.6z M714.2,78.3c0.3-0.4,1-1.2,2-2.5c1-1.3,2.2-2.9,3.5-4.8
		c1.4-1.9,2.8-4,4.4-6.4c1.6-2.3,3.2-4.7,4.7-7.1c1.5-2.4,2.9-4.8,4.2-7.1c1.3-2.3,2.3-4.4,3-6.3c0.7-1.9,1.1-3.4,1.1-4.7
		c0-1.3-0.5-2.1-1.5-2.4c-0.7-0.3-1.6,0.1-2.6,1c-1,0.9-2,2.3-3.1,4c-1.1,1.7-2.2,3.7-3.4,6c-1.1,2.3-2.3,4.7-3.4,7.2
		c-1.1,2.5-2.1,5-3.2,7.5c-1,2.5-1.9,4.8-2.7,6.9c-0.8,2.1-1.5,3.9-2,5.5C714.8,76.7,714.4,77.7,714.2,78.3z"/>
	<path class="st1" d="M765.5,59.2c-0.5,0.1-0.9,0-1.1-0.2c-0.3-0.3-0.4-0.6-0.4-1c0-0.4,0.1-0.8,0.2-1.2c0.2-0.4,0.5-0.7,1-0.8
		c5.3-1.5,10.5-2.9,15.6-4.3c5.1-1.4,10.4-2.6,15.8-3.8c0.6-1.9,1.3-3.7,2-5.5c0.7-1.8,1.5-3.6,2.3-5.4c0.2-0.4,0.4-0.7,0.8-0.8
		c0.4-0.1,0.7-0.1,1.1,0c0.3,0.1,0.6,0.3,0.8,0.6c0.2,0.3,0.3,0.7,0.2,1.1c-0.4,2.9-0.9,5.9-1.7,9c1.8-0.4,3.7-0.7,5.6-1
		c1.9-0.3,3.8-0.4,5.7-0.4c1.9,0,3.7,0.1,5.4,0.4c1.8,0.3,3.4,0.9,4.8,1.7c0.4,0.3,0.7,0.6,0.8,1c0.1,0.4,0,0.8-0.1,1.2
		c-0.2,0.4-0.4,0.7-0.8,0.9c-0.3,0.2-0.7,0.2-1.2-0.1c-1.4-0.8-2.9-1.3-4.6-1.6c-1.7-0.3-3.4-0.4-5.3-0.4c-1.8,0.1-3.7,0.2-5.6,0.5
		c-1.9,0.3-3.7,0.6-5.6,1c-1,3.7-2.2,7.4-3.6,11.1c-1.4,3.7-2.9,7.2-4.8,10.5c-0.3,0.9-0.7,2.5-1.3,4.8c-0.6,2.3-1.2,4.8-1.9,7.7
		s-1.3,5.9-1.9,9.1c-0.6,3.2-1,6.1-1.2,8.8s-0.2,5,0,7c0.3,1.9,0.9,3.1,1.9,3.5c0.5,0.2,0.8,0.5,0.9,0.9c0.1,0.4,0.1,0.8,0,1.2
		c-0.1,0.4-0.4,0.7-0.7,0.9c-0.3,0.2-0.7,0.2-1.2,0c-1.4-0.5-2.4-1.6-3-3.3c-0.6-1.7-1-3.6-1-5.8c-0.1-2.2,0-4.7,0.3-7.2
		c0.3-2.6,0.7-5.1,1.1-7.5c0.5-2.4,0.9-4.6,1.4-6.6c0.5-2,0.9-3.5,1.1-4.6c-0.7,1-1.7,2.2-3,3.6c-1.3,1.4-2.6,2.7-4.1,3.9
		c-1.5,1.2-3,2.3-4.6,3.2s-3,1.3-4.4,1.4c-1.3,0.1-2.5-0.4-3.5-1.4c-1-1-1.7-2.7-2-5.1c-0.6,0.5-1.3,1.1-2.3,1.8
		c-0.9,0.7-1.9,1.5-3,2.3c-1.1,0.8-2.2,1.5-3.4,2.2c-1.2,0.7-2.4,1.2-3.5,1.5c-1.1,0.3-2.2,0.4-3.1,0.3c-1-0.1-1.8-0.6-2.4-1.4
		c-0.9-1.1-1.3-2.5-1.2-4.1c0.1-1.6,0.6-3.3,1.4-5.1c0.8-1.8,1.8-3.6,3.1-5.4c1.3-1.8,2.7-3.4,4.2-5c1.5-1.5,3-2.8,4.5-3.9
		c1.5-1.1,2.9-1.8,4.1-2.1c2.1-0.6,3.8-0.6,5,0c1.2,0.6,2.1,1.5,2.5,2.6c0.4,1.2,0.5,2.5,0.2,4c-0.3,1.5-0.8,2.9-1.7,4.3
		c0.3,0.3,0.5,0.7,0.5,1.1c0,0.4-0.1,0.8-0.2,1.2c-0.2,0.4-0.4,0.8-0.7,1.2c-0.3,0.4-0.5,0.7-0.8,1c-0.2,3.1,0.1,5.1,0.9,6
		c0.8,0.9,1.9,1,3.2,0.4c1.4-0.6,2.9-1.7,4.6-3.3c1.7-1.6,3.4-3.4,5-5.4c1.6-1.9,3.1-3.9,4.4-5.7c1.3-1.9,2.2-3.3,2.7-4.4
		c0.8-3.1,1.6-6.3,2.5-9.4c0.9-3.1,1.8-6.3,2.8-9.4c-5.1,1.2-10.1,2.5-15,3.8S770.5,57.7,765.5,59.2z M750.8,90.4
		c0.3,0.5,0.8,0.7,1.7,0.5c0.9-0.2,1.9-0.6,3-1.2c1.1-0.6,2.3-1.4,3.5-2.3c1.2-0.9,2.4-1.8,3.4-2.6c1-0.8,1.9-1.5,2.6-2.2
		c0.7-0.6,1.1-0.9,1.1-1c0.2-1,0.4-1.8,0.7-2.6c0.3-0.7,0.7-1.3,1.3-1.5c-0.3-0.5-0.3-1.1-0.1-1.6c0.5-0.9,0.8-1.7,1-2.5
		c0.2-0.8,0.3-1.5,0.1-2.1c-0.1-0.6-0.4-1-0.9-1.3c-0.5-0.3-1.2-0.3-2.1-0.2c-1.1,0.2-2.3,0.8-3.6,1.7c-1.3,0.9-2.5,2.1-3.8,3.4
		c-1.3,1.3-2.4,2.8-3.5,4.3c-1.1,1.5-2,3-2.8,4.5c-0.8,1.4-1.3,2.7-1.6,3.9C750.5,88.9,750.5,89.8,750.8,90.4z"/>
	<path class="st1" d="M877.5,85.6c-1.6,1.1-3.4,2-5.3,2.7c-1.9,0.7-3.9,1.3-6,1.9c-0.6,1.9-1.6,3.8-2.8,5.7
		c-1.3,1.9-2.7,3.7-4.4,5.4c-1.7,1.7-3.4,3.1-5.4,4.4c-1.9,1.3-3.9,2.2-5.9,2.9c-2,0.6-4,0.9-6,0.7c-1.9-0.2-3.8-0.9-5.5-2.1
		c-1.8-1.3-2.4-2.6-1.9-4c0.5-1.4,1.7-2.8,3.4-4.2c1.8-1.4,4-2.7,6.7-4c2.7-1.3,5.3-2.4,7.9-3.4c2.6-1,4.9-1.9,7-2.6
		c2.1-0.7,3.5-1.1,4.1-1.2c0.3-1.2,0.6-2.6,0.9-4.1c0.3-1.5,0.5-3,0.6-4.6c0.1-1.6,0.2-3.1,0.2-4.6c0-1.5-0.1-2.9-0.3-4.2
		c-1,0.7-2.1,1.7-3.4,2.8c-1.3,1.1-2.8,2.3-4.4,3.6c-1.6,1.3-3.2,2.5-4.8,3.8c-1.7,1.3-3.3,2.4-4.9,3.3c-1.6,1-3.1,1.7-4.5,2.2
		c-1.4,0.5-2.7,0.7-3.7,0.5c-1.5-0.3-2.4-1-2.8-2.1c-0.3,0.3-0.6,0.6-0.8,0.8c-0.2,0.2-0.5,0.4-0.8,0.7c-0.4,0.3-0.8,0.4-1.2,0.4
		c-0.4-0.1-0.7-0.3-1-0.6c-0.3-0.3-0.4-0.7-0.5-1.1c-0.1-0.4,0.1-0.8,0.6-1.1c0.5-0.4,1-1,1.7-1.6c0.6-0.7,1.3-1.4,2.1-2.2
		c0.2-0.7,0.4-1.6,0.7-2.7s0.7-2.2,1.2-3.4s1-2.1,1.6-3c0.6-0.9,1.3-1.4,2-1.6c0.4-0.1,0.8,0,1.2,0.3c0.3,0.3,0.6,0.7,0.7,1.1
		c0.2,0.9,0.2,1.7,0.1,2.6c-0.2,0.9-0.5,1.8-0.9,2.7c-0.4,0.9-0.9,1.8-1.5,2.7s-1.2,1.7-1.9,2.5c-0.2,1.4,0.3,2.1,1.5,2
		c1.2-0.1,2.7-0.7,4.5-1.8s3.8-2.4,6-4c2.2-1.6,4.3-3.2,6.2-4.8c1.9-1.6,3.6-3,5-4.2c1.4-1.2,2.2-1.9,2.4-2.1c0.5-0.4,1-0.4,1.6-0.2
		c0.5,0.2,0.9,0.8,1.2,1.7c0.3,0.9,0.4,2.1,0.5,3.4c0.1,1.4,0.1,2.8,0,4.4c-0.1,1.6-0.2,3.2-0.4,4.7c-0.2,1.5-0.3,2.9-0.5,4.1
		c-0.2,1.2-0.3,2.1-0.5,2.7c1.4-0.4,2.9-0.9,4.2-1.4c1.4-0.5,2.7-1.2,3.8-2c0.4-0.3,0.8-0.4,1.2-0.3c0.5,0.1,0.8,0.3,1.1,0.6
		c0.3,0.3,0.4,0.7,0.4,1.1C878.2,85,878,85.3,877.5,85.6z M837.9,103.6c0,0.8,0.5,1.4,1.4,1.8s2.2,0.5,3.7,0.4
		c1.5-0.1,3.2-0.5,5-1.1c1.8-0.6,3.7-1.5,5.5-2.7c1.8-1.2,3.5-2.7,5.1-4.4c1.6-1.8,2.8-3.9,3.8-6.3c-0.6,0.2-1.6,0.5-3,1
		c-1.4,0.5-3.1,1.1-4.9,1.7c-1.8,0.7-3.7,1.4-5.7,2.2s-3.7,1.6-5.4,2.5c-1.6,0.9-3,1.7-4,2.6C838.4,102,837.9,102.8,837.9,103.6z
		 M848.7,55c0.4-0.1,0.9,0,1.4,0.1c0.5,0.1,1,0.3,1.4,0.6c0.4,0.3,0.7,0.6,1,1c0.2,0.4,0.3,0.7,0.2,1.1c-1.2,1.4-2.3,2.6-3.4,3.7
		c-0.9,0.9-1.7,1.7-2.5,2.5c-0.8,0.7-1.2,1.1-1.3,1c-0.9-0.3-1.3-0.9-1.2-2c0.1-1.1,0.4-2.2,1-3.4c0.6-1.2,1.2-2.2,2-3.2
		C847.9,55.5,848.4,55.1,848.7,55z"/>
	<path class="st1" d="M922,64c0.6,0.8,0.9,1.8,0.7,3.1c-0.2,1.3-0.6,2.6-1.4,4c-0.7,1.4-1.6,2.9-2.7,4.4c-1.1,1.5-2.2,2.9-3.3,4.2
		c-1.1,1.3-2.2,2.5-3.2,3.5c-1,1-1.8,1.8-2.3,2.2c0.6,1.9,1.6,3.2,2.8,4.1c1.2,0.9,2.5,1.3,4,1.4c1.5,0.1,3-0.1,4.7-0.6
		c1.7-0.5,3.3-1.1,4.9-1.9c1.6-0.8,3.1-1.7,4.5-2.6c1.4-1,2.6-1.8,3.6-2.6c0.4-0.3,0.8-0.4,1.2-0.3c0.4,0.1,0.7,0.3,1,0.6
		c0.3,0.3,0.4,0.7,0.4,1.1c0,0.4-0.2,0.8-0.6,1.1c-1.3,1-2.8,2.1-4.6,3.2c-1.8,1.1-3.7,2.1-5.8,2.9c-2,0.8-4.1,1.5-6.2,1.9
		c-2.1,0.4-4,0.5-5.8,0.1c-1.8-0.3-3.4-1.2-4.7-2.4c-1.4-1.3-2.3-3.2-2.8-5.8c-0.4-1.9-0.4-3.8,0-5.9c0.4-2.1,1-4.1,1.9-6
		c0.9-1.9,1.9-3.7,3.2-5.4c1.2-1.6,2.5-2.9,3.8-3.9c1.3-1,2.6-1.5,3.8-1.7C920.1,62.6,921.2,63,922,64z M919.5,66.8
		c-0.6-0.6-1.3-0.7-2.1-0.4c-0.7,0.3-1.5,0.9-2.2,1.9c-0.7,0.9-1.5,2-2.2,3.3c-0.7,1.3-1.4,2.6-1.9,3.9s-1,2.5-1.3,3.7
		c-0.3,1.2-0.5,2.1-0.5,2.6c0.3-0.3,0.7-0.8,1.4-1.5c0.7-0.7,1.5-1.6,2.3-2.7c0.9-1,1.7-2.1,2.6-3.3c0.9-1.1,1.7-2.2,2.4-3.2
		c0.7-1,1.2-1.9,1.5-2.7C919.8,67.6,919.8,67,919.5,66.8z"/>
	<path class="st1" d="M952.7,84.7c-0.6,0.5-1.4,1.2-2.3,2c-1,0.8-2,1.7-3.2,2.5c-1.2,0.9-2.4,1.7-3.7,2.4c-1.3,0.8-2.5,1.4-3.8,1.8
		s-2.4,0.6-3.4,0.6c-1-0.1-1.9-0.5-2.5-1.2c-1-1.1-1.4-2.4-1.4-3.9c0-1.5,0.4-3.2,1-5c0.7-1.8,1.6-3.5,2.8-5.3c1.2-1.8,2.5-3.4,4-5
		c1.5-1.5,3-2.9,4.6-4.1c1.6-1.2,3.1-2,4.5-2.5c2.3-0.8,4.1-1,5.5-0.5c1.4,0.5,2.3,1.3,2.8,2.5c0.5,1.2,0.6,2.6,0.3,4.2
		c-0.3,1.6-0.9,3.1-2,4.4c0.6,0.5,0.7,1.2,0.4,2c-0.3,0.8-0.7,1.5-1.1,2c0.5,1.3,1.3,2.1,2.4,2.4c1.1,0.3,2.3,0.2,3.7-0.3
		c1.4-0.5,2.9-1.2,4.6-2.3s3.3-2.2,5-3.5c1.7-1.3,3.3-2.7,5-4.1s3.1-2.8,4.4-4c1.3-1.2,2.5-2.3,3.5-3.1c1-0.8,1.7-1.3,2.1-1.5
		c0.6-0.2,1.1-0.1,1.5,0.3c0.4,0.5,0.7,1.4,0.9,2.5s0.2,2.4,0.2,3.8c0,1.4-0.1,3-0.3,4.6c-0.2,1.6-0.4,3.2-0.6,4.7
		c-0.2,1.5-0.5,2.9-0.7,4.1c-0.2,1.2-0.4,2.2-0.6,2.8c1.6-0.7,3.2-1.4,4.9-2.1c1.7-0.6,3.2-1.6,4.7-2.9c0.4-0.4,0.8-0.5,1.2-0.4
		c0.4,0.1,0.8,0.3,1,0.6c0.3,0.3,0.4,0.7,0.4,1.1c0,0.4-0.1,0.8-0.5,1.1c-1.8,1.5-3.8,2.7-6.2,3.8c-2.4,1-4.6,1.9-6.7,2.8
		c-0.6,2-1.5,4-2.5,5.8c-1,1.9-2.3,3.5-3.6,5c-1.4,1.5-3,2.7-4.8,3.7s-3.9,1.6-6.1,1.8c-1.1,0.1-2.2,0-3.3-0.2
		c-1.1-0.3-1.9-0.7-2.6-1.3c-0.7-0.6-1.1-1.3-1.2-2.2c-0.1-0.9,0.2-2,0.9-3.2c0.9-1.3,2.1-2.6,3.9-3.8c1.7-1.2,3.6-2.3,5.6-3.3
		c2-1,4.1-1.9,6.1-2.7c2.1-0.8,3.8-1.5,5.3-2.1c0.9-3.2,1.5-6.3,1.9-9.4c0.3-3.1,0.5-6.3,0.4-9.7c-0.9,0.8-2.2,1.9-3.8,3.4
		c-1.7,1.5-3.5,3-5.5,4.6c-2,1.6-4.2,3.1-6.4,4.6c-2.3,1.5-4.4,2.6-6.5,3.4c-2.1,0.8-4,1.1-5.8,0.9
		C955.1,87.3,953.7,86.4,952.7,84.7z M950.5,69.9c-0.6,0.3-1.5,1-2.6,1.9c-1.1,1-2.2,2.1-3.4,3.4c-1.2,1.3-2.4,2.8-3.6,4.3
		c-1.2,1.5-2.2,3-3,4.4c-0.8,1.4-1.4,2.7-1.8,3.9c-0.3,1.1-0.3,2,0.2,2.7c0.3,0.4,0.9,0.5,1.7,0.2c0.8-0.2,1.7-0.6,2.8-1.2
		c1-0.6,2.1-1.2,3.3-2c1.2-0.8,2.3-1.6,3.3-2.4s1.9-1.5,2.7-2.2c0.8-0.7,1.3-1.2,1.6-1.5c-0.1-0.7,0.1-1.4,0.4-2.2
		c0.3-0.8,0.7-1.3,1.3-1.6c-0.3-0.5-0.3-1,0-1.4c1-1.9,1.6-3.4,1.8-4.5c0.2-1.1,0.1-1.8-0.3-2.2c-0.4-0.4-0.9-0.5-1.7-0.4
		C952.3,69.1,951.5,69.4,950.5,69.9z M965.2,105.2c1.6,0.7,3.3,0.8,5,0.2c1.7-0.6,3.3-1.6,4.8-2.9c1.5-1.3,2.9-2.8,4-4.4
		c1.1-1.6,2-3.1,2.4-4.4c-0.3,0.2-1.1,0.5-2.3,1c-1.2,0.5-2.6,1.1-4.1,1.8c-1.5,0.7-3.1,1.5-4.7,2.3c-1.6,0.8-2.9,1.6-4,2.4
		c-1.1,0.8-1.8,1.6-2.1,2.3C963.9,104.2,964.2,104.7,965.2,105.2z"/>
	<path class="st1" d="M1013.3,94c0.9-1.7,1.7-3.4,2.5-5.1c0.8-1.7,1.6-3.4,2.4-5.1c-0.6,0.6-1.4,1.4-2.4,2.3s-2.2,2-3.5,3
		c-1.3,1-2.7,2.1-4.1,3.1c-1.4,1-2.9,1.9-4.3,2.5c-1.4,0.7-2.7,1.1-4,1.3c-1.3,0.2-2.3,0-3.2-0.5c-0.7-0.4-1.2-1-1.4-1.8
		c-0.2-0.8-0.3-1.7-0.2-2.6c0.1-0.9,0.2-1.8,0.5-2.7c0.2-0.9,0.5-1.7,0.7-2.3c-0.4-0.3-0.6-0.7-0.8-1.4c-0.1-0.7,0-1.2,0.5-1.5
		c0.9-1,1.7-2.2,2.4-3.4c0.8-1.3,1.5-2.5,2.2-3.6c0.7-1.1,1.3-2.2,2-3.1c0.6-0.9,1.2-1.5,1.6-1.8c0.3-0.2,0.7-0.2,1-0.1
		c0.3,0.2,0.7,0.4,0.9,0.6c0.7,0.8,1,1.7,0.8,2.7c-0.1,1-0.5,2.1-1.1,3.1c-0.6,1.1-1.4,2.1-2.3,3.2c-0.9,1-1.8,2-2.7,2.8
		c-0.2,0.4-0.5,1.1-0.9,2c-0.4,0.9-0.8,1.9-1.1,2.9c-0.3,1-0.6,1.9-0.8,2.8c-0.2,0.9-0.1,1.4,0.1,1.6c0.6,0.5,1.6,0.4,3-0.2
		c1.3-0.6,2.8-1.5,4.5-2.7c1.7-1.2,3.4-2.6,5.3-4.2s3.5-3.2,5.1-4.7c1.6-1.5,3-2.9,4.2-4.1c1.2-1.2,2-2.1,2.4-2.6
		c0.2-0.5,0.6-1.3,1.1-2.4c0.5-1.1,1.1-2.2,1.8-3.2c0.7-1,1.3-1.7,2-2.1c0.7-0.4,1.4-0.1,2,1c0.4,0.6,0.5,1.3,0.3,2.1
		c-0.2,0.8-0.5,1.6-1,2.4c-0.5,0.8-1.1,1.6-1.7,2.3c-0.7,0.7-1.3,1.4-1.9,2.1l-6.9,15c2.6-1.2,5.1-2.5,7.6-3.8
		c2.5-1.3,4.9-2.9,7.2-4.7c0.4-0.3,0.8-0.4,1.2-0.3c0.4,0.1,0.7,0.3,1,0.6c0.3,0.3,0.4,0.7,0.4,1.1c0,0.4-0.2,0.8-0.6,1.1
		c-3,2.4-6.1,4.4-9.3,6c-3.2,1.6-6.4,3.2-9.7,4.9c-0.5,1.2-1.4,2.8-2.5,5c-1.1,2.2-2.5,4.5-4,7.1c-1.5,2.6-3.1,5.1-5,7.7
		c-1.8,2.6-3.7,4.9-5.6,6.9c-1.9,2-3.8,3.6-5.7,4.7c-1.9,1.1-3.7,1.4-5.3,1c-1.5-0.4-2.5-1-2.9-2c-0.5-0.9-0.6-2-0.4-3.2
		c0.2-1.2,0.6-2.5,1.2-3.8c0.6-1.4,1.4-2.7,2.2-3.9c0.8-1.2,1.6-2.3,2.4-3.3c0.8-1,1.3-1.7,1.7-2.2c2.9-3.5,6.2-6.6,9.8-9.3
		C1005.5,98.6,1009.3,96.2,1013.3,94z M988.4,125.7c0.9,0.5,2,0.3,3.4-0.6c1.4-0.9,2.8-2.3,4.4-4c1.5-1.8,3.1-3.8,4.7-6
		c1.6-2.2,3-4.4,4.4-6.6c1.3-2.1,2.5-4.1,3.4-5.8c1-1.7,1.6-2.9,2-3.5c-2.9,1.7-5.6,3.6-8.3,5.7c-2.6,2.1-5.1,4.4-7.3,7
		c-0.3,0.3-0.7,0.7-1.2,1.4c-0.6,0.7-1.2,1.5-1.8,2.4c-0.7,0.9-1.3,1.9-2,3c-0.7,1-1.2,2-1.6,3c-0.4,0.9-0.6,1.8-0.7,2.5
		C987.6,124.9,987.9,125.4,988.4,125.7z"/>
	<path class="st1" d="M1039.6,103.3c0,0.6-0.2,1.1-0.7,1.4c-0.5,0.3-1,0.5-1.5,0.5c-0.6,0-1.1-0.2-1.5-0.5c-0.5-0.3-0.7-0.8-0.7-1.4
		c0-0.6,0.2-1.1,0.7-1.5c0.5-0.4,1-0.6,1.5-0.6c0.6-0.1,1.1,0.1,1.5,0.4C1039.4,101.9,1039.6,102.5,1039.6,103.3z M1047.3,56.7
		c0.1-0.5,0.3-0.9,0.7-1.1c0.4-0.3,0.8-0.4,1.2-0.4c0.4,0,0.7,0.1,1,0.4c0.3,0.2,0.4,0.6,0.3,1.2c-0.5,3.4-1.1,6.7-1.9,9.8
		c-0.8,3.1-1.6,6.1-2.5,9.1c-0.9,3-1.8,6-2.8,9c-0.9,3-1.8,6.2-2.6,9.5c-0.1,0.5-0.3,0.9-0.7,1.1c-0.4,0.3-0.7,0.4-1.1,0.4
		c-0.3,0-0.6-0.1-0.9-0.4c-0.2-0.2-0.3-0.6-0.2-1.1c0.9-3.3,1.7-6.5,2.6-9.6c0.9-3.1,1.8-6.1,2.6-9.1c0.9-3,1.6-6,2.4-9.1
		C1046.2,63.3,1046.8,60.1,1047.3,56.7z"/>
</g>
</svg>
