<svg xmlns="http://www.w3.org/2000/svg" width="361.249" height="100" viewBox="0 0 361.249 100">
  <g id="Group_342" data-name="Group 342" transform="translate(-357.639 -101.137)">
    <g id="Group_340" data-name="Group 340" transform="translate(357.639 101.137)">
      <g id="Group_277" data-name="Group 277" transform="translate(0 0)">
        <path id="Path_701" data-name="Path 701" d="M400.852,101.137h6.181a15.89,15.89,0,0,1-5.744,1.97c-.6.127-1.163.415-1.777.494-.552.079-1.114.026-1.665.111a12.819,12.819,0,0,0-1.412.488,4.754,4.754,0,0,0-1.688.227,4.857,4.857,0,0,1-1.259.4,9.237,9.237,0,0,0-2.368.764c-1.546.534-2.984,1.324-4.479,1.978a42.321,42.321,0,0,0-5.329,3.3c-.4.347-1.094.6-1.085,1.217a4.462,4.462,0,0,0,2.154-.907q1.856-.947,3.757-1.8a8.637,8.637,0,0,0,2.145-.984c.478-.168.955-.339,1.435-.5.731-.245,1.538-.122,2.251-.438a2.225,2.225,0,0,1,1.939-.205,8.037,8.037,0,0,1-2.412,1.288c-1.328.663-2.753,1.112-4.049,1.842-1.253.592-2.5,1.193-3.725,1.852-.8.526-1.591,1.069-2.4,1.581a15.755,15.755,0,0,0-5.028,5.585c-.514,1.171-1.5,2.088-1.878,3.323-.464,1.287-.986,2.552-1.427,3.847a4.11,4.11,0,0,0-.708,1.781,24.5,24.5,0,0,0-.653,2.717,5.989,5.989,0,0,1-.349,2,11.538,11.538,0,0,0-.3,3.708,32.453,32.453,0,0,0,.242,4.987c.1.694.42,1.332.557,2.018.086.417.123.841.213,1.256a3.888,3.888,0,0,0,.424,0,13.156,13.156,0,0,0,.071-3.018c-.023-1.052-.307-2.086-.233-3.14.091-1.523.372-3.033.347-4.562a5.369,5.369,0,0,1,.37-1.981,12.361,12.361,0,0,0,.355-2.015c.44-1.327.89-2.655,1.237-4.01.529-.94.866-1.969,1.367-2.924.552-1.052.967-2.177,1.608-3.183a15.915,15.915,0,0,1,4.478-4.93,27.5,27.5,0,0,1,3.95-2.523c1.156-.589,2.3-1.211,3.509-1.689a19.486,19.486,0,0,0,3.475-1.154c1.332-.616,2.782-.883,4.16-1.369a15.865,15.865,0,0,1,2.859-.751,5.718,5.718,0,0,0,1.557-.426,16.446,16.446,0,0,1,1.91-.295c.5-.119.961-.389,1.475-.469a27.506,27.506,0,0,0,2.763-.208,7.414,7.414,0,0,1,2.168-.488c1.492.04,2.984-.008,4.476-.012a39.426,39.426,0,0,1,4-.113c1.54.171,3.09.082,4.635.127a9.432,9.432,0,0,1,3.4.319c.944.4,2.024.167,2.952.613a4.011,4.011,0,0,0,1.685.361c.961.4,1.91.839,2.83,1.327.136.5.684.639,1.069.9a3.779,3.779,0,0,1,1.2,1.162,1.151,1.151,0,0,1-.771-.056c-.813-.373-1.7-.545-2.529-.861-.739-.289-1.552-.324-2.274-.66a5.409,5.409,0,0,0-1.537-.347,18.777,18.777,0,0,0-2-.562,8.317,8.317,0,0,1-1.9-.168,9.032,9.032,0,0,0-1.855-.417c-2.248-.142-4.5-.046-6.752-.026-.961-.008-1.814.526-2.763.577-.977.062-1.958-.074-2.93.057-.7.1-1.313.484-2.012.565a7.047,7.047,0,0,0-2.077.273,7.5,7.5,0,0,1-1.3.526,3.07,3.07,0,0,0-1.305.426,2.549,2.549,0,0,0,2.322.128,9.537,9.537,0,0,1,3.433-.27c2.086.017,4.174-.227,6.26-.062,1.183.1,2.432-.1,3.544.43.912.41,1.941.1,2.873.423.591.153,1.112.486,1.688.684a13.728,13.728,0,0,0-2.216.312l-.469.089-.255-.029a16.055,16.055,0,0,0-2.324-.193q-4.013-.035-8.023.011c-1.168-.031-2.236.569-3.4.568a8.234,8.234,0,0,0-2.324.5,15.814,15.814,0,0,0-2.061.446A26.712,26.712,0,0,1,399.579,114a13.266,13.266,0,0,0-2.6.711c-1-.221-1.825.515-2.736.768a24.909,24.909,0,0,0-4.382,2.088,21.384,21.384,0,0,0-3.641,2.379c-.387.339-.879.69-.912,1.253a8.685,8.685,0,0,0,2.965-1.511,2.7,2.7,0,0,1,1.2-.238,16.2,16.2,0,0,0-2.469,2.364c-.582.768-1.16,1.541-1.676,2.354a14.7,14.7,0,0,0-1.743,4.359c-.1-.114-.2-.228-.29-.346q.009.643.032,1.285a9.5,9.5,0,0,0-1.075,2.4,29.39,29.39,0,0,0-.841,2.9c-.074.324-.054.707-.319.952a12.221,12.221,0,0,1,0-4.132,27.549,27.549,0,0,1,1.112-4.41,27.906,27.906,0,0,1,1.028-2.668c.222-.478-.563-.711-.435-1.182a7.484,7.484,0,0,1,1.077-2.49,17.655,17.655,0,0,1,3.91-3.649,21.6,21.6,0,0,1,4.442-2.662c1.143-.559,2.259-1.173,3.45-1.622,1.489-.515,2.895-1.233,4.385-1.744-.745-.716-1.714-.022-2.538.139a38.239,38.239,0,0,0-5.8,1.8,44.724,44.724,0,0,0-5.329,2.4,19.888,19.888,0,0,0-5.516,4.2,27.239,27.239,0,0,0-3.3,5.183,33.494,33.494,0,0,0-1.973,4.971,27.746,27.746,0,0,0-1.358,6.241,42.355,42.355,0,0,0-.383,4.7c.052,1.475.264,2.936.381,4.407a13.683,13.683,0,0,0,.295,2.338,6.608,6.608,0,0,1,.384,2.168.229.229,0,0,1-.225.295c-.471-.585-.745-1.3-1.19-1.9a12.231,12.231,0,0,1-1.318-2.085,20.466,20.466,0,0,1-.878-2.811,10.147,10.147,0,0,1-.438-2.219,43.967,43.967,0,0,1-.353-9.143,12.1,12.1,0,0,1,.466-2.871,36.789,36.789,0,0,1,5.033-12.576.685.685,0,0,0,.062-.429,5.957,5.957,0,0,0-.761.66,30.256,30.256,0,0,0-3.519,5.26,46.339,46.339,0,0,0-2.034,4.772c-.332.924-.631,1.859-.917,2.8-.322,1.051-.451,2.149-.782,3.2a19.015,19.015,0,0,0-.349,2.745,31.724,31.724,0,0,0-.33,8.478c.091,1.244.447,2.455.458,3.706a13.7,13.7,0,0,0,.529,2.686,45.322,45.322,0,0,0,2.064,6.931c.546,1.361,1.225,2.663,1.861,3.982a39.345,39.345,0,0,0,2.066,3.5,19.612,19.612,0,0,0,1.543,2.305,46.842,46.842,0,0,0,3.632,4.238,47.772,47.772,0,0,0,3.76,3.185c.688.566,1.487.974,2.189,1.52.46.285.287.875.366,1.324a3.672,3.672,0,0,0,.525.367c-.236.461-.609.963-.4,1.506a9.122,9.122,0,0,0,1.163,2.007,2.654,2.654,0,0,1-1.469-.617c-.657-.576-1.594-.5-2.342-.879a45.918,45.918,0,0,1-7.284-4.765c-1.242-.907-2.316-2.017-3.524-2.965a43.71,43.71,0,0,1-8.346-11.7c-.508-1.1-1.023-2.2-1.424-3.351a5.57,5.57,0,0,0-.466-.892,1.3,1.3,0,0,0-.213.887,49.513,49.513,0,0,0,4.289,10.4,17.737,17.737,0,0,0,1.572,2.614c.8,1.066,1.418,2.254,2.271,3.279a43.978,43.978,0,0,0,3.231,3.712c.884.866,1.739,1.76,2.66,2.587a43.374,43.374,0,0,0,3.442,2.723,42.2,42.2,0,0,0,4.91,2.9,23.448,23.448,0,0,0,6.807,2.856,13.538,13.538,0,0,0,1.9.569,25.676,25.676,0,0,0,2.753.659c.321.071.815-.039.9.393q-.537.009-1.072.031c-.335-.009-.67-.009-1,.011-.452-.014-.9-.04-1.355-.076-.008-.08-.022-.239-.028-.318a1.88,1.88,0,0,0-.56-.2,42.544,42.544,0,0,1-15.915-7.4,51.862,51.862,0,0,1-4.508-3.82,48.757,48.757,0,0,1-8.813-12.009,42.681,42.681,0,0,1-2.629-5.7,47.748,47.748,0,0,1-2.088-7.2,7.906,7.906,0,0,1-.509-2.052,8.03,8.03,0,0,0-.35-2.459c-.542-1.6-.219-3.3-.312-4.951-.137-2.213.059-4.427.014-6.639-.052-1.276.642-2.427.643-3.7a13.056,13.056,0,0,1,.747-3.254,2.873,2.873,0,0,1,.77-1.415,3.32,3.32,0,0,1,.154,1.588c-.025,1.21-.529,2.342-.6,3.546-.079,1.028-.116,2.058-.185,3.086a21.275,21.275,0,0,0-.127,3.68,35.188,35.188,0,0,1,.25,4.032,8.572,8.572,0,0,0,.279,2.524c.295.883.486,1.8.847,2.658.643-1.122.134-2.5.665-3.637a14.517,14.517,0,0,1,1.143,3.121c.293.824.355,1.713.694,2.523.322.771.221,1.643.532,2.418a5.67,5.67,0,0,1,.392,1.634c.076.9.529,1.708.631,2.6a9.387,9.387,0,0,0,.858,2.385,26.559,26.559,0,0,0,4.524,7.5c.8.947,1.571,1.919,2.341,2.893a30.027,30.027,0,0,0,2.25,2.226,21.358,21.358,0,0,0,3.85,2.77c.986.929,2.376,1.078,3.617,1.472a4.984,4.984,0,0,0,3-.293.814.814,0,0,0-.171-.967c-.617-.489-1.361-.784-1.992-1.256a31.762,31.762,0,0,1-2.873-2.216c-1.194-1.12-2.379-2.251-3.482-3.461-.841-.869-1.52-1.875-2.282-2.81-.765-.955-1.361-2.026-2.038-3.041-.949-1.526-1.673-3.169-2.479-4.768a21.869,21.869,0,0,1-1.227-2.979,26.216,26.216,0,0,1-1.02-3.126c-.094-.853-.582-1.6-.64-2.461-.057-.91-.574-1.713-.614-2.623-.034-.489-.012-.98-.043-1.469-.054-1.077-.538-2.081-.552-3.165-.052-2.01-.037-4.021-.025-6.03,0-1.052.469-2.024.549-3.066.06-.623.015-1.254.113-1.875.09-.6.406-1.142.506-1.743a8.1,8.1,0,0,1,.3-1.619c.395-1.072.611-2.2,1.04-3.263a38.454,38.454,0,0,1,4.59-9.14,28.136,28.136,0,0,1,2.663-3.345,28.76,28.76,0,0,1,8.4-5.812,29.962,29.962,0,0,1,4.985-2.2,85.247,85.247,0,0,1,8.164-2.655C398.211,101.885,399.467,101.239,400.852,101.137Z" transform="translate(-357.639 -101.137)" fill="#e67d7c"/>
        <path id="Path_702" data-name="Path 702" d="M555.145,358.908a4.108,4.108,0,0,1-.008-1.941c.363.052.724.119,1.086.182-.006.071-.02.214-.026.285a3.232,3.232,0,0,0,.123,1.49c.333,1.026.463,2.111.859,3.118a31.147,31.147,0,0,0,4.442,8.714c.7.893,1.4,1.777,2.14,2.638a38.9,38.9,0,0,0,4.644,3.995c1.08.941,2.384,1.606,3.374,2.651.514.535.522,1.361,1.008,1.909a7.248,7.248,0,0,0,2.544,1.045,17.6,17.6,0,0,0,2.753,1.063,9.884,9.884,0,0,0,3.763-.236,20.8,20.8,0,0,1,5.011-.381,14.787,14.787,0,0,1-2.072,1.474,26.709,26.709,0,0,1-4.578,2.2,5.753,5.753,0,0,1-2.359.557c.211-.7.906-1.054,1.3-1.628.245-.406-.042-.876-.326-1.176a2.5,2.5,0,0,0-1.543-.646,17.4,17.4,0,0,0-3.749-.1,10.879,10.879,0,0,1-3.021-.057c-.15-.052-.39-.073-.315-.293.711-.293,1.561-.412,2.055-1.068.2-.179.119-.466.029-.676-.262-.653-1.075-.671-1.646-.889a23.89,23.89,0,0,1-5.42-2.092,5.33,5.33,0,0,1-2.069-1.48c-1.083-1.457-2.075-2.979-3.019-4.528a41.86,41.86,0,0,1-3.669-8.5c-.191-.711-.284-1.446-.5-2.149C555.577,361.256,555.482,360.054,555.145,358.908Z" transform="translate(-524.569 -317.494)" fill="#e67d7c"/>
        <path id="Path_703" data-name="Path 703" d="M767.968,482.115a8.223,8.223,0,0,1,3-.085l.309.029c0,.059,0,.177,0,.236-.031,2.154.054,4.309-.017,6.463a11.136,11.136,0,0,1-.441,2.651l-.117-.017a5.177,5.177,0,0,0-2.22-.125c-.594.1-1.217.446-1.818.213-.464-.434-.611-1.125-1.109-1.538a5.475,5.475,0,0,0-1.958-.883c.494-.346,1.349-.515,1.365-1.244a19.13,19.13,0,0,1,.663-3.137,3.978,3.978,0,0,1,1.057-1.54A3.633,3.633,0,0,1,767.968,482.115Z" transform="translate(-700.956 -423.18)" fill="#e67d7c"/>
      </g>
      <g id="Group_278" data-name="Group 278" transform="translate(22.587 3.063)">
        <path id="Path_704" data-name="Path 704" d="M518.551,121.214a4.754,4.754,0,0,1,1.688-.227c-1.173.447-2.4.734-3.6,1.077a43.159,43.159,0,0,0-7.193,3.143c-.684.457-1.389.879-2.083,1.321a.407.407,0,0,0-.221.335c.643.235,1.177-.347,1.751-.537a18.141,18.141,0,0,1,3.2-1.14,8.638,8.638,0,0,1-2.145.984q-1.9.849-3.757,1.8a4.462,4.462,0,0,1-2.154.907c-.009-.622.682-.87,1.085-1.217a42.316,42.316,0,0,1,5.329-3.3c1.5-.654,2.933-1.444,4.479-1.978a9.237,9.237,0,0,1,2.368-.764A4.858,4.858,0,0,0,518.551,121.214Z" transform="translate(-504.03 -120.987)" fill="#eea19f"/>
      </g>
      <g id="Group_279" data-name="Group 279" transform="translate(31.835 4.03)">
        <path id="Path_705" data-name="Path 705" d="M586.191,127.708c1.626-.065,3.232-.361,4.859-.429,1.421-.094,2.836.1,4.255.151,1.291.043,2.564.3,3.854.373a11.313,11.313,0,0,1,2.256.275,16.942,16.942,0,0,1,4.073,1.205,4.01,4.01,0,0,1-1.685-.361c-.927-.446-2.007-.214-2.952-.613a9.432,9.432,0,0,0-3.4-.319c-1.544-.045-3.1.045-4.635-.127a39.426,39.426,0,0,0-4,.113c-1.492,0-2.984.052-4.476.012a7.413,7.413,0,0,0-2.168.488,27.506,27.506,0,0,1-2.763.208c-.514.08-.972.35-1.475.469a16.446,16.446,0,0,0-1.91.295,5.717,5.717,0,0,1-1.557.426,15.866,15.866,0,0,0-2.859.751c-1.378.486-2.828.753-4.16,1.369a19.487,19.487,0,0,1-3.475,1.154,40.039,40.039,0,0,1,3.954-1.663c1.325-.443,2.672-.815,4-1.244,2.222-.721,4.541-1.052,6.79-1.659.994-.176,2.017-.153,3-.417A23.51,23.51,0,0,1,586.191,127.708Z" transform="translate(-563.971 -127.254)" fill="#ea9594"/>
      </g>
      <g id="Group_280" data-name="Group 280" transform="translate(9.625 9.714)">
        <path id="Path_706" data-name="Path 706" d="M450.289,164.553c.824-.16,1.793-.855,2.538-.139-1.49.511-2.9,1.228-4.385,1.743-1.191.449-2.307,1.063-3.45,1.622a21.593,21.593,0,0,0-4.442,2.662,17.654,17.654,0,0,0-3.91,3.649,7.484,7.484,0,0,0-1.077,2.49c-.128.471.657.7.435,1.182a27.908,27.908,0,0,0-1.028,2.668,27.546,27.546,0,0,0-1.112,4.41,12.221,12.221,0,0,0,0,4.132c.265-.245.245-.628.319-.952a29.391,29.391,0,0,1,.841-2.9,9.5,9.5,0,0,1,1.075-2.4,56.014,56.014,0,0,1-1.581,5.612c-.159.73.093,1.628-.463,2.222a2.47,2.47,0,0,1-.5-1.557c-.057-.7-.111-1.4-.177-2.1a19.265,19.265,0,0,1,.23-3.32,19.938,19.938,0,0,0,.788-3.115c.2-.642-.279-1.217-.322-1.841a7.639,7.639,0,0,1,.488-1.335c.478-1.032.842-2.118,1.4-3.114a10.712,10.712,0,0,1,2.242-2.529,29.222,29.222,0,0,1,5.123-3.655,15.5,15.5,0,0,0,2.009-1.139,4.408,4.408,0,0,0-2.057.576c-.9.361-1.754.816-2.623,1.241a11.963,11.963,0,0,0-2.515,1.359,22.646,22.646,0,0,0-2.876,2.071A21.852,21.852,0,0,0,430.572,179a27.848,27.848,0,0,0-1.267,3.026c-.467,1.18-.7,2.435-1.142,3.621a4.933,4.933,0,0,0-.2,1.426c-.019,1.17-.687,2.23-.6,3.414.1,1.507-.207,3.012-.035,4.518.093.912.026,1.825.04,2.739,0,1.024.539,1.949.58,2.967a5.625,5.625,0,0,0,.414,2.083,2.017,2.017,0,0,1-.077,2.166.515.515,0,0,1-.5-.177,13.53,13.53,0,0,0-2.094-2.709c-.565-.432-.56-1.188-.836-1.79a5.883,5.883,0,0,1-.554-1.7c-.094-.795-.509-1.5-.679-2.273a15.438,15.438,0,0,1-.634-3.044c0-1.205-.529-2.336-.506-3.543,0-1.034,0-2.066.008-3.1,0-1,.441-1.927.48-2.921a8.563,8.563,0,0,1,.245-2.234c.205-.69.623-1.389.367-2.126a2.371,2.371,0,0,0-.7,1.193c-.205.862-.626,1.662-.75,2.546-.108.952-.693,1.79-.651,2.77.014,1.12-.594,2.129-.6,3.245-.012.765.032,1.531-.031,2.294a32.971,32.971,0,0,0,.008,5.588,14.42,14.42,0,0,0,.255,3.5,7.689,7.689,0,0,1,.39,2.2c.012.866.518,1.619.6,2.472a16.265,16.265,0,0,0,.937,3.146c.176.625.43,1.222.631,1.838.511,1.341,1.276,2.566,1.8,3.9a42.448,42.448,0,0,0,2.179,3.666c.693,1.185,1.557,2.254,2.348,3.371a47.7,47.7,0,0,0,4.576,4.686,32.488,32.488,0,0,0,2.706,2.077c.548.444,1.2.741,1.75,1.179.438.341.346.961.41,1.452-.011.059-.035.176-.048.235l-.248.171a3.676,3.676,0,0,1-.525-.367c-.079-.449.094-1.038-.366-1.324-.7-.546-1.5-.954-2.189-1.52a47.773,47.773,0,0,1-3.76-3.185,46.85,46.85,0,0,1-3.632-4.238,19.614,19.614,0,0,1-1.543-2.305,39.34,39.34,0,0,1-2.066-3.5c-.636-1.319-1.315-2.621-1.861-3.982a45.319,45.319,0,0,1-2.064-6.931,13.7,13.7,0,0,1-.529-2.686c-.011-1.251-.367-2.463-.458-3.706a31.726,31.726,0,0,1,.33-8.478,19.015,19.015,0,0,1,.349-2.745c.332-1.049.46-2.148.782-3.2.285-.94.585-1.875.917-2.8a46.346,46.346,0,0,1,2.034-4.772,30.254,30.254,0,0,1,3.519-5.26,5.956,5.956,0,0,1,.761-.66.685.685,0,0,1-.062.429,36.789,36.789,0,0,0-5.033,12.576,12.1,12.1,0,0,0-.466,2.871,43.967,43.967,0,0,0,.353,9.143,10.147,10.147,0,0,0,.438,2.219,20.466,20.466,0,0,0,.878,2.811,12.232,12.232,0,0,0,1.318,2.084c.444.6.719,1.318,1.19,1.9a.229.229,0,0,0,.225-.295,6.608,6.608,0,0,0-.384-2.168,13.683,13.683,0,0,1-.295-2.338c-.117-1.47-.329-2.932-.381-4.407a42.348,42.348,0,0,1,.383-4.7,27.746,27.746,0,0,1,1.358-6.241,33.5,33.5,0,0,1,1.973-4.971,27.242,27.242,0,0,1,3.3-5.183,19.889,19.889,0,0,1,5.516-4.2,44.725,44.725,0,0,1,5.329-2.4A38.237,38.237,0,0,1,450.289,164.553Z" transform="translate(-420.022 -164.097)" fill="#de5655"/>
      </g>
      <g id="Group_281" data-name="Group 281" transform="translate(35.083 10.269)">
        <path id="Path_707" data-name="Path 707" d="M599.819,168.285c1.167,0,2.234-.6,3.4-.568q4.011-.044,8.023-.011a16.059,16.059,0,0,1,2.324.193c-.73-.015-1.458.032-2.185.08a15.868,15.868,0,0,1,2.341.554,55.7,55.7,0,0,0-8.5-.514,31.043,31.043,0,0,0-3.9.478c-1.406-.031-2.712.559-4.1.662a22.162,22.162,0,0,0-2.671.736,19.272,19.272,0,0,0-2.952,1.029,15.041,15.041,0,0,0-3.5,1.614,9.377,9.377,0,0,0-1.4.585,14.568,14.568,0,0,1-1.682.643,12.7,12.7,0,0,1,2.916-1.566,18.84,18.84,0,0,1,2.882-1.267,3.136,3.136,0,0,0,1.058-.648,26.716,26.716,0,0,0,3.556-1.054,15.81,15.81,0,0,1,2.061-.446A8.233,8.233,0,0,1,599.819,168.285Z" transform="translate(-585.021 -167.692)" fill="#8a6866"/>
      </g>
      <g id="Group_282" data-name="Group 282" transform="translate(22.812 10.474)">
        <path id="Path_708" data-name="Path 708" d="M544.124,169.1c.727-.048,1.455-.1,2.185-.08l.255.029a3.877,3.877,0,0,0,1.7.609,8.988,8.988,0,0,1,2.138.483,40.248,40.248,0,0,1,10.5,4.192,34.435,34.435,0,0,1,5.251,3.539,42.376,42.376,0,0,1,6.352,5.994,49.519,49.519,0,0,1,5.994,8.816c.633,1.316,1.332,2.6,1.933,3.933a51.649,51.649,0,0,1,2.594,7.425c.313.825.207,1.745.549,2.564a12.044,12.044,0,0,1,.525,2.955v14.605c-.256.949-.142,1.963-.475,2.893-.406,1.04-.364,2.213-.929,3.2-.113.139-.14.481-.386.383a21.984,21.984,0,0,1,.04-2.51c.036-.852.489-1.609.574-2.452a45.216,45.216,0,0,1,.307-5.351,4.786,4.786,0,0,0,.037-1.879c-.421-1.992-.185-4.042-.376-6.056a7.385,7.385,0,0,0-1.145-2.691c-.518,1.091-.211,2.341-.508,3.489a7.275,7.275,0,0,1-.755-1.166,9.388,9.388,0,0,0-.437-1.9c-.376-.864-.293-1.844-.671-2.708-.38-.909-.23-1.929-.574-2.844a5.737,5.737,0,0,1-.384-1.591,11.2,11.2,0,0,0-.724-2.884,34.846,34.846,0,0,0-2-4.457c-.517-.992-1.143-1.918-1.747-2.858a16.611,16.611,0,0,0-2.359-3.08,24.348,24.348,0,0,0-3.132-3.479,25.759,25.759,0,0,0-2.135-1.7,11.48,11.48,0,0,0-4.479-2.486,7.776,7.776,0,0,0-3.2-.285c-.3.032-.685.025-.85.327-.071.327-.109.8.239.98a32.176,32.176,0,0,1,7.042,5.63,43.168,43.168,0,0,1,5.519,7.446,34.749,34.749,0,0,1,1.961,3.907,20.888,20.888,0,0,1,1.441,3.455,23.561,23.561,0,0,1,.935,3,21.458,21.458,0,0,1,.6,2.328c.046.981.654,1.835.651,2.824a9.539,9.539,0,0,0,.278,2.526,12.7,12.7,0,0,1,.281,3.161c.039,1.494.019,2.987-.012,4.481-.008,1.2-.508,2.325-.537,3.521a6.641,6.641,0,0,1-.341,2.4,21.108,21.108,0,0,0-.5,2.313c-.434,1.14-.608,2.364-1.111,3.481a42.536,42.536,0,0,1-2.85,6.423c-.724,1.3-1.575,2.524-2.418,3.751-2.444,3.641-6.156,6.2-9.986,8.2-1.31.6-2.632,1.176-3.93,1.8-1.842.613-3.64,1.347-5.5,1.9-.775.339-1.64.339-2.419.659s-1.637.338-2.407.67c-.886.4-1.9.236-2.8.616a5.384,5.384,0,0,1-2.216.384,8.715,8.715,0,0,0-1.592-.035,13,13,0,0,1-2.12.279,1.824,1.824,0,0,1-1.057-.6,15.271,15.271,0,0,1,4.41-1.409,10.907,10.907,0,0,1,2.319-.589c1.128.017,2.111-.68,3.242-.639a5.527,5.527,0,0,0,1.936-.469,27.641,27.641,0,0,0,5.943-1.939c1.267-.653,2.626-1.123,3.833-1.89.9-.484,1.771-1.012,2.674-1.49,1.006-.569,2.293-1.133,2.6-2.361a11.479,11.479,0,0,0-2.543,1.168,22.764,22.764,0,0,0-2.642,1.389,33,33,0,0,1-4.744,1.739c-.909.387-1.926.333-2.841.694a3.914,3.914,0,0,1-1.782.224,5.329,5.329,0,0,1,2.109-1.154c1.8-.759,3.621-1.458,5.368-2.327a30.9,30.9,0,0,0,4.613-2.476,15.509,15.509,0,0,0,5.791-5.474,34.209,34.209,0,0,0,4.005-7.96,20.792,20.792,0,0,0,.839-2.947c.093-.7.5-1.313.54-2.02a9.377,9.377,0,0,1,.176-1.764,10.025,10.025,0,0,0,.438-1.989,37.68,37.68,0,0,0-.117-5.646,17.3,17.3,0,0,0-.645-2.895,3.519,3.519,0,0,0-.387-1.049c-.748,1.963.341,4.007.019,6.008-.17,1.362-.31,2.729-.387,4.1-.042,1.035-.6,1.964-.628,3a5.112,5.112,0,0,1-.407,1.768,33.946,33.946,0,0,1-5.564,11.427c-1.435,2.03-3.589,3.36-5.632,4.7-1.117.687-2.327,1.2-3.485,1.81a5.808,5.808,0,0,0-1.848,1.055c-1.183-.035-2.18.687-3.276,1.015s-2.146.741-3.259.964c-.677.137-1.29.488-1.975.594a6.711,6.711,0,0,0-1.561.435,5.138,5.138,0,0,1-1.8.252c-.864.008-1.583.622-2.45.613a7.457,7.457,0,0,0-2.611.33c-1.345.488-2.794.261-4.189.387-1.509,0-2.969.452-4.473.489a18.373,18.373,0,0,1-4.269-.2,28.239,28.239,0,0,0-5.156-.387c-.909-.046-1.711-.577-2.626-.585a10.816,10.816,0,0,1-3.015-.779,16.926,16.926,0,0,1-2.26-.913,15.2,15.2,0,0,1-2.928-1.864,3.649,3.649,0,0,1-.805-.839,5.46,5.46,0,0,1,1.99.449,34.383,34.383,0,0,0,3.635,1.151,9.041,9.041,0,0,0,1.882.54c.958.051,1.785.679,2.76.625,1.169-.036,2.216.622,3.382.619,2.55.039,5.107.085,7.656-.042.915-.069,1.753-.528,2.674-.554.873-.039,1.75.062,2.621-.034.8-.093,1.5-.569,2.31-.636a9.847,9.847,0,0,0,2.462-.29,2.059,2.059,0,0,0-.082-.447,10.7,10.7,0,0,0-2.986-.236c-1.592.076-3.186.148-4.774.3-1.548.076-3.08-.231-4.623-.29-.471-.022-.943-.008-1.412-.056a13.736,13.736,0,0,1-1.565-.514,15.5,15.5,0,0,1-2.023-.213,12.835,12.835,0,0,0-2.132-.756A24.421,24.421,0,0,0,519.8,247c.333-.02.668-.02,1-.011a5.307,5.307,0,0,0,.764.187,5.031,5.031,0,0,0,2.051.452c1.7,0,3.4-.022,5.1.006a21.951,21.951,0,0,0,3.751-.458c1.106-.063,2.166-.413,3.259-.572,1.385-.177,2.723-.6,4.086-.889a25.6,25.6,0,0,0,4.127-1.245,8.727,8.727,0,0,0,2.5-.654,27.766,27.766,0,0,0,2.947-1.125c.512-.207,1.009-.449,1.51-.684a7.487,7.487,0,0,0,2.115-1,11.856,11.856,0,0,0,3.288-2.422.783.783,0,0,0,.177-.579,3.386,3.386,0,0,0-1.807.81,11.7,11.7,0,0,1-1.591.889c.742-.861,1.751-1.45,2.439-2.362a18.875,18.875,0,0,0,2.234-3.172,16.43,16.43,0,0,0,1.136-2.541,11.235,11.235,0,0,0,.719-3.226,28.105,28.105,0,0,1,1.026-3.228,8.274,8.274,0,0,1,.551-1.881,26.149,26.149,0,0,1,.054,2.992,22.448,22.448,0,0,1-.523,2.493,19.052,19.052,0,0,1-1.291,4.292,18.343,18.343,0,0,0-1.088,2.745c.463.022.554-.542.822-.81.1.225.256.481.133.73a19.8,19.8,0,0,1-.907,1.995,7.6,7.6,0,0,1-2.072,2.41,25.459,25.459,0,0,1-5.877,3.988c-1.284.577-2.524,1.259-3.854,1.731-1.836.676-3.663,1.373-5.436,2.2.818.42,1.632-.076,2.442-.224a41.981,41.981,0,0,0,4.137-1.014c1.46-.568,2.979-.974,4.414-1.6a36.135,36.135,0,0,0,5.482-2.848,14.933,14.933,0,0,0,5.119-5.065,28.014,28.014,0,0,0,2.387-4.4,33.475,33.475,0,0,0,1.97-5.278c.316-.937.38-1.932.651-2.879a20.477,20.477,0,0,0,.418-3.59,22.745,22.745,0,0,0,.188-3.992c-.159-1.7-.255-3.4-.43-5.1-.083-.954-.693-1.87-.384-2.837.508.646.833,1.407,1.3,2.083a11.443,11.443,0,0,1,1.848,3.587,14.532,14.532,0,0,1,.66,2.7,11.55,11.55,0,0,0,.181,2.088,30.687,30.687,0,0,1,.207,4.9,16.788,16.788,0,0,1-.353,4.26c-.2.728-.275,1.48-.409,2.22a33.318,33.318,0,0,1-2.857,7.77c-.5,1.024-1.066,2.017-1.649,3-.211.409-.548.861-.329,1.339a33.777,33.777,0,0,0,6.749-12.076c.437-1.54.9-3.075,1.233-4.641a25.4,25.4,0,0,0,.56-4.056,30.359,30.359,0,0,0,.309-6.281c-.046-1.586-.472-3.131-.511-4.717a15.2,15.2,0,0,0-.559-2.822,34.983,34.983,0,0,0-1.359-4.979,44.694,44.694,0,0,0-2.077-5.047c-.719-1.582-1.7-3.021-2.569-4.521a31.747,31.747,0,0,0-4.28-5.447,30.984,30.984,0,0,0-5.345-4.678,4.216,4.216,0,0,1-1.237-1.031c.037-.281.079-.563.094-.847-.5-.449-1.251-.58-1.648-1.139.043-.665.477-1.406-.026-2-.131-.179-.275-.344-.415-.514.171-.122.3-.355.531-.358a4.133,4.133,0,0,1,1.477.469,32.123,32.123,0,0,1,5.323,2.873c1.153.687,2.168,1.581,3.36,2.2.907.785,1.915,1.449,2.771,2.291.515.508,1.029,1.015,1.582,1.483.818,1.088,1.768,2.064,2.594,3.146a43.45,43.45,0,0,1,4.217,6.439c.534.889.926,1.85,1.415,2.763.954,1.669,1.353,3.583,2.243,5.28a11.94,11.94,0,0,1,.6,1.986,2.167,2.167,0,0,0,.282-1.325c-.589-1.725-.97-3.512-1.5-5.255-.447-1.234-.9-2.469-1.4-3.685a40.851,40.851,0,0,0-2.118-4.533,35.967,35.967,0,0,0-2.018-3.391,26.507,26.507,0,0,0-2.013-2.932c-.6-.693-1.163-1.409-1.724-2.129-.916-1.185-2.084-2.135-3.107-3.222a29.241,29.241,0,0,0-2.969-2.589c-1.034-.895-2.231-1.565-3.334-2.365a53.9,53.9,0,0,0-6.73-3.637,37.308,37.308,0,0,0-5.754-1.76c-.771-.168-1.557-.264-2.318-.472A15.869,15.869,0,0,0,544.124,169.1Z" transform="translate(-505.491 -169.018)" fill="#7d7a78"/>
        <path id="Path_709" data-name="Path 709" d="M575.372,290.469a12.163,12.163,0,0,1,2.192-.792,1.37,1.37,0,0,1,1.233.276c-.432.358-1.04.569-1.288,1.1A1.342,1.342,0,0,0,578.6,292.7a5.955,5.955,0,0,0,2.381.322,29.538,29.538,0,0,1,5.7-.066,14.715,14.715,0,0,1,2.5.23,6.5,6.5,0,0,1-.792.208,8.834,8.834,0,0,0-3.5.859,1.167,1.167,0,0,0-.552.872,5.35,5.35,0,0,0,2.373,1.077,22.942,22.942,0,0,1,3.566,1.369,14.662,14.662,0,0,1,2.594,1.544,14.505,14.505,0,0,1,1.944,2.509c.87,1.228,1.552,2.574,2.3,3.877a42.88,42.88,0,0,1,2.763,7.063c.239,1.187.619,2.339.821,3.532.193,1.338.836,2.658.457,4.027-.381-.156-.765-.3-1.148-.451,0-.059,0-.177,0-.236a1.466,1.466,0,0,0,.057-1.123c-.413-.921-.423-1.955-.807-2.885a29.553,29.553,0,0,0-2.854-6.562,16.85,16.85,0,0,0-2.049-3.236,18.724,18.724,0,0,0-2.844-3.157,38.228,38.228,0,0,0-4.783-3.871,9.474,9.474,0,0,1-1.62-1.295c-.6-.694-.776-1.649-1.348-2.364-.679-.418-1.509-.5-2.225-.85-1.35-.5-2.64-1.3-4.116-1.341-1.094,0-2.135.415-3.225.472-1.645.2-3.367-.143-4.947.48a2.277,2.277,0,0,0-1.585,1.486,7.656,7.656,0,0,1-.407,2.4,6.494,6.494,0,0,1-2.415,2.7,5.191,5.191,0,0,1-3.478-.211l-.167-.173c.082-1.242-.164-2.473-.111-3.714.032-1.052.15-2.1.227-3.151a5.756,5.756,0,0,1,.545-2.006c.659.123,1.318.258,1.973.4.869.193,1.682-.443,2.55-.272.381.464.568,1.063,1,1.494a2.545,2.545,0,0,0,2.365.713,7.848,7.848,0,0,0,1.916-1.085A18.937,18.937,0,0,1,575.372,290.469Z" transform="translate(-552.497 -271.033)" fill="#7d7a78"/>
      </g>
      <g id="Group_283" data-name="Group 283" transform="translate(51.387 10.586)">
        <path id="Path_710" data-name="Path 710" d="M690.691,170.235a31.038,31.038,0,0,1,3.9-.478,55.7,55.7,0,0,1,8.5.514c.761.208,1.546.3,2.318.472a37.309,37.309,0,0,1,5.754,1.76,53.893,53.893,0,0,1,6.73,3.637c1.1.8,2.3,1.47,3.334,2.365a29.242,29.242,0,0,1,2.969,2.589c1.023,1.086,2.191,2.037,3.107,3.222.56.721,1.128,1.436,1.723,2.129a26.5,26.5,0,0,1,2.014,2.932,35.95,35.95,0,0,1,2.018,3.391,40.874,40.874,0,0,1,2.118,4.533c.5,1.216.949,2.45,1.4,3.685.528,1.743.909,3.53,1.5,5.255a2.167,2.167,0,0,1-.282,1.325,11.934,11.934,0,0,0-.6-1.986c-.89-1.7-1.29-3.61-2.243-5.28-.489-.913-.881-1.875-1.415-2.763a43.455,43.455,0,0,0-4.217-6.439c-.826-1.082-1.776-2.058-2.594-3.146a5.724,5.724,0,0,1,1.62,1.5,44.114,44.114,0,0,1,7,10.575,3.62,3.62,0,0,0,.727,1.288,2.848,2.848,0,0,0-.247-1.313c-.609-1.5-1.111-3.053-1.8-4.527-.508-1.029-1.066-2.03-1.552-3.07a35.518,35.518,0,0,0-1.936-3.152,21.337,21.337,0,0,0-1.767-2.552,35.513,35.513,0,0,0-3.905-4.427,42.592,42.592,0,0,0-9.815-7.451c-.313-.162-.634-.307-.946-.469a28.481,28.481,0,0,0-4.388-2.029,13.339,13.339,0,0,0-1.344-.549c-2.179-.588-4.4-.961-6.613-1.4a19.151,19.151,0,0,0-2.694-.125c-1.287-.006-2.566-.2-3.854-.159C693.7,170.109,692.2,170.35,690.691,170.235Z" transform="translate(-690.691 -169.746)" fill="#5b5855"/>
      </g>
      <g id="Group_284" data-name="Group 284" transform="translate(38.168 10.927)">
        <path id="Path_711" data-name="Path 711" d="M622.75,171.965c1.288-.042,2.567.153,3.854.159a19.154,19.154,0,0,1,2.694.125c2.209.437,4.434.81,6.613,1.4a13.331,13.331,0,0,1,1.344.549c-1.083-.093-2.06-.62-3.135-.75-1-.136-1.964-.486-2.976-.571-1.154-.1-2.288-.39-3.453-.38-2.162.015-4.323.008-6.483.009a11.768,11.768,0,0,0-2.91.16,9.844,9.844,0,0,1-2.024.443,7,7,0,0,0-2.4.214c-1.079.472-2.279.512-3.378.927-1.827.48-3.533,1.307-5.325,1.882l-.159.015a15.045,15.045,0,0,1,3.5-1.614,19.267,19.267,0,0,1,2.952-1.029,22.159,22.159,0,0,1,2.671-.736c1.386-.1,2.692-.693,4.1-.662C619.74,172.221,621.243,171.98,622.75,171.965Z" transform="translate(-605.011 -171.959)" fill="#4d4845"/>
      </g>
      <g id="Group_285" data-name="Group 285" transform="translate(30.876 11.461)">
        <path id="Path_712" data-name="Path 712" d="M578.329,175.593a11.768,11.768,0,0,1,2.91-.16c2.16,0,4.322.006,6.483-.009,1.165-.011,2.3.279,3.453.38,1.012.085,1.973.435,2.976.571,1.075.13,2.052.657,3.135.75a28.481,28.481,0,0,1,4.388,2.029c.688.637,1.654,1.145,1.9,2.117.153.579-.367,1.011-.79,1.3a2.231,2.231,0,0,1-1.7.449c-.418-.413-.71-.971-1.259-1.234a16.841,16.841,0,0,0-5.8-1.79,14.277,14.277,0,0,0-4.962-.253c.963.5,2.083.19,3.1.5,1.347.4,2.739.668,4.05,1.19.293.088.463.356.668.563-1.7.144-3.411-.057-5.11.1-.949.191-1.847.582-2.81.724a6.391,6.391,0,0,0-1.284.534,21.7,21.7,0,0,0-5,.08,22.345,22.345,0,0,0-3.35.3,23.542,23.542,0,0,0-5.076,1.08,2.689,2.689,0,0,0-1.509-.046,57.768,57.768,0,0,0-5.8,1.916,18.881,18.881,0,0,0-3.257,1.515,9.558,9.558,0,0,0-3.192,2.521,20.613,20.613,0,0,0-1.327,2.842c-.108.261-.381.373-.582.546-.162-.113-.324-.224-.486-.332-.123-.16-.215-.343-.336-.5a2.435,2.435,0,0,0,.667-.9,14.671,14.671,0,0,1,1.22-2.949,12.565,12.565,0,0,1,4.748-3.894c1.287-.622,2.533-1.332,3.873-1.838,1.47-.555,2.9-1.231,4.42-1.64,1.267-.359,2.521-.77,3.8-1.085,1.054-.238,2.368-.11,3.067-1.108-1.293.014-2.572.227-3.863.261a9.1,9.1,0,0,0-2.3.343c-1,.292-2.066.216-3.063.526-.614.185-1.239.33-1.867.454a37.459,37.459,0,0,0-4.538,1.315c-1.108.312-2.117.883-3.2,1.273a18.587,18.587,0,0,0-2.4,1.335l.077-.12a13.253,13.253,0,0,1,2.043-2.27,22.207,22.207,0,0,1,2.706-2.385c.676-.523,1.557-.79,2.049-1.531,1.791-.576,3.5-1.4,5.325-1.882,1.1-.415,2.3-.455,3.377-.927a7,7,0,0,1,2.4-.214A9.847,9.847,0,0,0,578.329,175.593Z" transform="translate(-557.751 -175.42)" fill="#402b27"/>
        <path id="Path_713" data-name="Path 713" d="M818.744,488.767a5.56,5.56,0,0,1,1.129.6,9.716,9.716,0,0,1,2.967,3.978,11.435,11.435,0,0,1,.842,4.618c-.073.44-.134.879-.211,1.319-.162.352-.316.708-.457,1.071a24.818,24.818,0,0,1-2.908,4.508,14.629,14.629,0,0,1-1.964,1.728c.643-1.332,1.6-2.561,1.776-4.075a6.167,6.167,0,0,0-.457-3.473,5.257,5.257,0,0,0-1.511-1.435l.028-.111c.181-.67.355-1.341.5-2.018.241-1.137.093-2.308.236-3.456C818.854,490.943,818.628,489.853,818.744,488.767Z" transform="translate(-777.804 -440.42)" fill="#402b27"/>
      </g>
      <g id="Group_286" data-name="Group 286" transform="translate(10.356 12.459)">
        <path id="Path_714" data-name="Path 714" d="M447.273,182.462a4.407,4.407,0,0,1,2.057-.576,15.5,15.5,0,0,1-2.009,1.139,29.221,29.221,0,0,0-5.123,3.655,10.713,10.713,0,0,0-2.242,2.529c-.555,1-.92,2.081-1.4,3.114a7.64,7.64,0,0,0-.488,1.335c.043.623.52,1.2.322,1.841a19.941,19.941,0,0,1-.788,3.115,7.275,7.275,0,0,0-.2-1.6,4.088,4.088,0,0,0-.753,1.566,22.886,22.886,0,0,0-1.089,4.459c-.113,1.251-.562,2.456-.551,3.723a47.478,47.478,0,0,0,.879,9.142c.259.835.438,1.691.705,2.521a33.022,33.022,0,0,0,2.191,5.058,29.2,29.2,0,0,0,3.168,4.7c.727.926,1.8,1.588,2.271,2.7a8.825,8.825,0,0,1-2.813-1.855,48.994,48.994,0,0,1-4.319-3.857c-.933-.971-1.956-1.859-2.791-2.921a7,7,0,0,0-.886-.977c-.37.111-.273.579-.219.867.219.94.717,1.782.952,2.716-1.242-.974-1.788-2.52-2.874-3.621.242,2.081,1.446,3.859,2.371,5.686A21.972,21.972,0,0,0,435.6,229.9a27.746,27.746,0,0,0,5.565,6c.792.6,1.625,1.149,2.438,1.725a27.818,27.818,0,0,0,6.053,2.722c.991.321,2.132.3,2.972.987-.136.355-.575.318-.878.415a26.205,26.205,0,0,0-5.056,1.723,12.982,12.982,0,0,0-2.731,1.14,2.53,2.53,0,0,0,.542,1.037c-.35-.039-.7-.082-1.049-.145-.065-.491.028-1.111-.41-1.452-.551-.438-1.2-.734-1.75-1.179a32.5,32.5,0,0,1-2.706-2.077,47.706,47.706,0,0,1-4.576-4.686c-.792-1.117-1.656-2.186-2.348-3.371a42.448,42.448,0,0,1-2.179-3.666c-.522-1.335-1.287-2.56-1.8-3.9-.2-.616-.455-1.213-.631-1.838a16.26,16.26,0,0,1-.937-3.146c-.079-.853-.585-1.606-.6-2.472a7.689,7.689,0,0,0-.39-2.2,14.42,14.42,0,0,1-.255-3.5,32.971,32.971,0,0,1-.008-5.588c.063-.764.019-1.529.031-2.294,0-1.116.611-2.125.6-3.245-.042-.98.543-1.818.651-2.77.123-.884.545-1.683.75-2.546a2.371,2.371,0,0,1,.7-1.193c.256.738-.162,1.436-.367,2.126a8.563,8.563,0,0,0-.245,2.234c-.039.994-.478,1.924-.48,2.921-.011,1.034,0,2.066-.008,3.1-.023,1.207.5,2.338.506,3.543a15.439,15.439,0,0,0,.634,3.044c.17.775.585,1.478.679,2.273a5.885,5.885,0,0,0,.554,1.7c.276.6.272,1.358.836,1.79a13.53,13.53,0,0,1,2.094,2.709.515.515,0,0,0,.5.177,2.017,2.017,0,0,0,.077-2.166,5.626,5.626,0,0,1-.414-2.083c-.042-1.018-.58-1.943-.58-2.967-.014-.913.052-1.827-.04-2.739-.171-1.506.131-3.01.035-4.518-.091-1.185.577-2.245.6-3.414a4.933,4.933,0,0,1,.2-1.426c.443-1.187.674-2.441,1.142-3.621a27.847,27.847,0,0,1,1.267-3.026,21.852,21.852,0,0,1,4.683-6.911,22.649,22.649,0,0,1,2.876-2.071,11.963,11.963,0,0,1,2.515-1.359C445.519,183.279,446.375,182.824,447.273,182.462Z" transform="translate(-424.757 -181.885)" fill="#d84443"/>
        <path id="Path_715" data-name="Path 715" d="M508.636,284.757l.085.143a15.657,15.657,0,0,0,.21,3.617,16.041,16.041,0,0,0,1.14,3.33,8.951,8.951,0,0,0,3.126,3.3l.157.106c-.025.086-.073.259-.1.346a8.045,8.045,0,0,0,.332,4.1,51.888,51.888,0,0,0,1.728,6.184,39.4,39.4,0,0,0,3.407,7.07,25.079,25.079,0,0,0,3.613,4.723,22.239,22.239,0,0,0,5.851,2.611c.731.278,1.753.15,2.185.932a2.708,2.708,0,0,1-1.765,1.017,31.455,31.455,0,0,1-3.192.049.973.973,0,0,0-.83.329,1.533,1.533,0,0,0,.974.378c.75.1,1.5.208,2.24.369a13.313,13.313,0,0,0,3.944.185,26.535,26.535,0,0,0,3.911-.392,2.5,2.5,0,0,1,1.543.646c.284.3.571.77.326,1.176-.393.574-1.088.927-1.3,1.628a5.752,5.752,0,0,0,2.359-.557,26.707,26.707,0,0,0,4.578-2.2,14.784,14.784,0,0,0,2.072-1.473l.344-.066a5.474,5.474,0,0,1,1.958.883c.5.414.645,1.1,1.109,1.538.6.233,1.224-.11,1.818-.213a5.179,5.179,0,0,1,2.22.125c-.387,1.1-.846,2.169-1.3,3.243a6.077,6.077,0,0,1-2.037,2.447,31.8,31.8,0,0,1-9.091,3.731,4.443,4.443,0,0,1-2.385.372,9.6,9.6,0,0,1,1.012-.477,22.029,22.029,0,0,0,4.9-2.234,11.526,11.526,0,0,0,4.126-4.377c.207-.545.511-1.231.159-1.774-1.416-.224-2.742.559-4.137.683-1.35.1-2.626.685-3.993.639-1.654-.036-3.3.093-4.956.157-.011-.268.147-.671-.2-.787-1.606-.753-3.43-.643-5.123-1.062-.8-.2-1.635-.276-2.425-.528a13.116,13.116,0,0,1-2.055-1.316,10.25,10.25,0,0,1-1.1-.606,5.375,5.375,0,0,1-.452-.974c-.318-.443-.858-.717-1.075-1.228a10.474,10.474,0,0,0-.2-2.123,3.547,3.547,0,0,0-.97-1.325c-.685-.65-1.327-1.347-2.063-1.943a32.992,32.992,0,0,1-8.651-10.041,15.812,15.812,0,0,1-1.063-1.858,35.627,35.627,0,0,1-1.558-3.891,24.925,24.925,0,0,1-1.19-4.67c-.071-.821-.634-1.486-.778-2.288a9.284,9.284,0,0,1-.157-3.475c.066.7.12,1.4.177,2.1a2.469,2.469,0,0,0,.5,1.557c.555-.594.3-1.492.463-2.222A56.025,56.025,0,0,0,508.636,284.757Z" transform="translate(-493.297 -268.885)" fill="#d84443"/>
      </g>
      <g id="Group_287" data-name="Group 287" transform="translate(33.381 12.863)">
        <path id="Path_716" data-name="Path 716" d="M579.951,185.218a13.268,13.268,0,0,1,2.6-.711,3.135,3.135,0,0,1-1.058.648,18.846,18.846,0,0,0-2.882,1.267,12.7,12.7,0,0,0-2.916,1.566c-.528.315-1.16.359-1.7.642a10.375,10.375,0,0,1,1.944-1.163c.5-.218.893-.594,1.369-.846A13.764,13.764,0,0,0,579.951,185.218Z" transform="translate(-573.991 -184.507)" fill="#ae8d8b"/>
      </g>
      <g id="Group_288" data-name="Group 288" transform="translate(27.671 13.534)">
        <path id="Path_717" data-name="Path 717" d="M545.916,189.662c.91-.253,1.74-.989,2.736-.768A13.761,13.761,0,0,1,546,190.3c-.793-.268-1.467.309-2.175.557a20.457,20.457,0,0,0-2.939,1.639c-.4.221-.776.494-1.173.727a4.038,4.038,0,0,0,.637.1,6.608,6.608,0,0,1,1.711-.636,5.9,5.9,0,0,1-.915.946,2.7,2.7,0,0,0-1.2.238,8.686,8.686,0,0,1-2.966,1.51c.032-.563.525-.913.912-1.253a21.388,21.388,0,0,1,3.641-2.379A24.907,24.907,0,0,1,545.916,189.662Z" transform="translate(-536.981 -188.853)" fill="#eb9492"/>
      </g>
      <g id="Group_289" data-name="Group 289" transform="translate(30.407 14.908)">
        <path id="Path_718" data-name="Path 718" d="M558.823,198.382c.708-.248,1.382-.825,2.176-.557-.475.251-.873.628-1.369.846a10.378,10.378,0,0,0-1.944,1.163c-.208.13-.417.256-.626.383a6.609,6.609,0,0,0-1.711.636,4.039,4.039,0,0,1-.637-.1c.4-.233.768-.506,1.173-.727A20.464,20.464,0,0,1,558.823,198.382Z" transform="translate(-554.711 -197.756)" fill="#ecb5b3"/>
      </g>
      <g id="Group_290" data-name="Group 290" transform="translate(30.306 15.101)">
        <path id="Path_719" data-name="Path 719" d="M560.52,199.607a9.377,9.377,0,0,1,1.4-.585l.159-.015c-.492.741-1.373,1.008-2.049,1.531a22.219,22.219,0,0,0-2.706,2.385,13.253,13.253,0,0,0-2.043,2.27c-.37.324-.826.523-1.222.808a30.88,30.88,0,0,1,2.416-3A45.7,45.7,0,0,1,560.52,199.607Z" transform="translate(-554.061 -199.007)" fill="#583634"/>
      </g>
      <g id="Group_291" data-name="Group 291" transform="translate(31.698 15.193)">
        <path id="Path_720" data-name="Path 720" d="M773.3,199.607c.312.162.633.307.946.469a42.594,42.594,0,0,1,9.815,7.451,35.517,35.517,0,0,1,3.905,4.427,21.33,21.33,0,0,1,1.767,2.552,35.492,35.492,0,0,1,1.936,3.152c.486,1.04,1.045,2.041,1.552,3.07.688,1.473,1.19,3.023,1.8,4.527a2.848,2.848,0,0,1,.247,1.313,3.622,3.622,0,0,1-.727-1.288,44.117,44.117,0,0,0-7-10.575,5.726,5.726,0,0,0-1.62-1.5c-.552-.468-1.066-.975-1.582-1.483-.856-.842-1.864-1.506-2.771-2.291a15.506,15.506,0,0,0-3.3-2.6,26.624,26.624,0,0,0-5.678-2.945c-.8-.307-1.563-.909-2.476-.707-.543-.228-1.08-.471-1.606-.734-.205-.207-.375-.475-.668-.563-1.311-.521-2.7-.787-4.05-1.19-1.012-.313-2.132,0-3.1-.5a14.277,14.277,0,0,1,4.962.253,16.84,16.84,0,0,1,5.8,1.79c.549.264.841.821,1.259,1.234a2.231,2.231,0,0,0,1.7-.449c.423-.289.943-.721.79-1.3C774.957,200.752,773.991,200.244,773.3,199.607Z" transform="translate(-730.201 -199.607)" fill="#454240"/>
        <path id="Path_721" data-name="Path 721" d="M767.571,230.933a6.508,6.508,0,0,1,2.679.353c1.188.273,2.373.557,3.57.788.856.376,1.739.693,2.577,1.111a21.135,21.135,0,0,0,1.919,1.224,4.953,4.953,0,0,1-.123.836,5.308,5.308,0,0,0,1.543,1.213,33.725,33.725,0,0,1,5.883,5.2,37.946,37.946,0,0,1,3.433,4.437c.773,1.325,1.591,2.628,2.328,3.976a43.674,43.674,0,0,1,3.485,9.19c.363,1.154.483,2.361.764,3.533a28.481,28.481,0,0,1,.434,4.178,24.227,24.227,0,0,1,.091,4.868c-.309,1.922.011,3.907-.532,5.794-.23.853-.284,1.743-.508,2.6a37.032,37.032,0,0,1-1.267,4.14,34.777,34.777,0,0,1-2.731,6.014,2.662,2.662,0,0,1-.907,1.091,14.041,14.041,0,0,1,1.058-2.813,39.488,39.488,0,0,0,1.484-4.529c.179-.8.309-1.617.518-2.413a36.376,36.376,0,0,0,.435-4.985,29.429,29.429,0,0,0-.125-3.516,9.876,9.876,0,0,0-.6-3.274,14.537,14.537,0,0,0-.66-2.7,5.213,5.213,0,0,0-.173-1.907,7.705,7.705,0,0,0-1.382-2.441c-.775-.773-1.037-1.9-1.824-2.669a1.1,1.1,0,0,0-.586-.278c-.565,1.054.326,2.054.387,3.1a9.692,9.692,0,0,0,.332,2.154,8.2,8.2,0,0,1,.332,2.455c0,2.111.019,4.221-.02,6.332a7.069,7.069,0,0,1-.42,2.013c-.3.958-.086,2.006-.481,2.945-.414,1.415-.889,2.81-1.338,4.212-.373.895-.832,1.751-1.231,2.634a24.133,24.133,0,0,1-3.5,5.6,12.012,12.012,0,0,1-2.8,2.45,23.248,23.248,0,0,1-3.084,1.856,48.249,48.249,0,0,1-5.352,2.253,4.38,4.38,0,0,1-.853,0c1.034-.651,2.2-1.046,3.248-1.674a30.645,30.645,0,0,0,3.2-2.2,14.7,14.7,0,0,0,3.026-2.669,11.685,11.685,0,0,0,1.023-1.77,19.27,19.27,0,0,0,1.444-3.791,2.366,2.366,0,0,0-.139-1.213c-.245-.764.282-1.478.426-2.208a10.281,10.281,0,0,0,.127,1.583c.322-.09.488-.4.643-.668a10.665,10.665,0,0,0,1.166-2.782,17.486,17.486,0,0,0,.853-3.186c.031-1.112.565-2.135.6-3.248.052-1.436,0-2.876.018-4.312a11.716,11.716,0,0,0-.307-3.712c-.41-1.112-.23-2.344-.7-3.438a29.375,29.375,0,0,0-2.433-6.368,32.924,32.924,0,0,0-2.837-4.552c.031-.032.091-.1.12-.134a25.289,25.289,0,0,1,2.651,2.3,36.357,36.357,0,0,1,2.716,2.841c.758.788,1.393,1.694,2.225,2.407.225.181.613.446.853.145.1-.284.184-.572.3-.852.792.849,1,2.165,2.106,2.733a3.59,3.59,0,0,0-.1-1.608,30.2,30.2,0,0,0-2.575-6.1,33.889,33.889,0,0,0-3.286-5.2,28.236,28.236,0,0,0-2.6-2.953,26.209,26.209,0,0,0-4.366-3.487,19.612,19.612,0,0,0-2.811-1.52c-.734-.27-1.426-.639-2.145-.943a14.044,14.044,0,0,1-2.68-.89,7.253,7.253,0,0,1,2.409-1.026c1.344-.508,2.717-.93,4.052-1.458a2.39,2.39,0,0,0,1.042-.677.713.713,0,0,0-.242-.846,17.127,17.127,0,0,0-2.524-1.333,14.537,14.537,0,0,0-3.419-1.295C770.131,231.563,768.87,231.16,767.571,230.933Z" transform="translate(-736.02 -226.084)" fill="#454240"/>
        <path id="Path_722" data-name="Path 722" d="M577.242,235.509a2.689,2.689,0,0,1,1.509.046,17.451,17.451,0,0,1-1.895.645,23.525,23.525,0,0,0-4.565,2.362,9.584,9.584,0,0,0-4.069,5.079,1.049,1.049,0,0,0,.214,1.179c.461.366,1.06.117,1.558-.014.978-.31,2.026-.262,3-.568a8.158,8.158,0,0,1,2.254-.355c1.153-.023,2.245-.466,3.4-.5a14.492,14.492,0,0,1,2.584-.094c.491.247.767.8,1.278,1.026a9.39,9.39,0,0,0,1.563.3c.954.131,1.876.435,2.834.545a7.7,7.7,0,0,1,3.995,1.4c.543.447,1.187.758,1.719,1.219a10.866,10.866,0,0,0,1.1,1.686c.369.342.228.879.265,1.325a5.066,5.066,0,0,0,.87,2.324,18.518,18.518,0,0,0-6.306-3.149,16.2,16.2,0,0,1-1.961-.682c-.239-.4.264-.667.589-.738a6.928,6.928,0,0,1,3.658-.364c.393.04,1.006.332,1.237-.137a1.819,1.819,0,0,0-1.382-1.123c-1.435-.221-2.891-.069-4.334-.168-1.285-.1-2.567.08-3.854.046-.736-.022-1.472.022-2.208.039a1.342,1.342,0,0,1-1.089-1.643c.248-.535.856-.747,1.288-1.1a1.37,1.37,0,0,0-1.233-.276,12.164,12.164,0,0,0-2.192.792,18.931,18.931,0,0,0-3.72,1.821,7.85,7.85,0,0,1-1.916,1.085,5.169,5.169,0,0,1-1.929-.847c-.6-.5-.714-1.5-1.56-1.685-.833-.159-1.676.143-2.515.039a7.306,7.306,0,0,0-2.123.025l-.111.011-.116-.2c.2-.173.474-.285.582-.546a20.615,20.615,0,0,1,1.327-2.842,9.557,9.557,0,0,1,3.192-2.521,18.875,18.875,0,0,1,3.257-1.515A57.772,57.772,0,0,1,577.242,235.509Z" transform="translate(-563.081 -229.889)" fill="#454240"/>
        <path id="Path_723" data-name="Path 723" d="M772.831,354.167a10.517,10.517,0,0,1,1.446,1.352c.79.907,1.736,1.656,2.583,2.5a35.562,35.562,0,0,1,8.295,12.667c.255,1.163.771,2.251.969,3.428a10.219,10.219,0,0,1,.506,2.567,3.013,3.013,0,0,0,.694,1.572,3.441,3.441,0,0,1,.287,1.861,6.589,6.589,0,0,0-.454-1.609,2.822,2.822,0,0,0-.46,1.537c-.122.784-.481,1.506-.626,2.287a10.548,10.548,0,0,1-.546,1.8,11.433,11.433,0,0,0-.842-4.618,9.715,9.715,0,0,0-2.967-3.978,5.562,5.562,0,0,0-1.129-.6c0-.071,0-.213,0-.284a9.125,9.125,0,0,0-.33-3.672c-.335-.816-.25-1.725-.549-2.55-.312-.853-.434-1.762-.738-2.618-.616-1.6-1.125-3.245-1.885-4.786A40.09,40.09,0,0,0,772.831,354.167Z" transform="translate(-740.468 -330.32)" fill="#454240"/>
      </g>
      <g id="Group_292" data-name="Group 292" transform="translate(26.582 15.701)">
        <path id="Path_724" data-name="Path 724" d="M538.423,203.54a14.58,14.58,0,0,0,1.682-.643,45.686,45.686,0,0,0-4.042,3.391,30.892,30.892,0,0,0-2.416,3,7.161,7.161,0,0,0-2.574,2.654,8.635,8.635,0,0,1-1.151,1.656,16.085,16.085,0,0,1,3.587-6.011c.733-.815,1.656-1.426,2.439-2.189C536.691,204.671,537.7,204.292,538.423,203.54Z" transform="translate(-529.921 -202.897)" fill="#724340"/>
      </g>
      <g id="Group_293" data-name="Group 293" transform="translate(29.702 15.901)">
        <path id="Path_725" data-name="Path 725" d="M569.248,204.458c1.291-.034,2.57-.247,3.863-.261-.7,1-2.013.87-3.067,1.108-1.281.315-2.535.725-3.8,1.085-1.523.409-2.95,1.085-4.42,1.64-1.339.506-2.586,1.216-3.873,1.838a12.566,12.566,0,0,0-4.748,3.894,14.671,14.671,0,0,0-1.22,2.949,2.436,2.436,0,0,1-.667.9,3.652,3.652,0,0,1-1.024-1.582,6.638,6.638,0,0,1,.011-2.853,11.672,11.672,0,0,1,1.589-3.478,18.58,18.58,0,0,1,2.4-1.335c1.08-.39,2.089-.961,3.2-1.273a37.462,37.462,0,0,1,4.538-1.315c.628-.123,1.253-.268,1.867-.454,1-.31,2.061-.235,3.063-.526A9.1,9.1,0,0,1,569.248,204.458Z" transform="translate(-550.141 -204.197)" fill="#3e1f1c"/>
      </g>
      <g id="Group_294" data-name="Group 294" transform="translate(25.662 16.344)">
        <path id="Path_726" data-name="Path 726" d="M531.68,207.709c.542-.282,1.174-.327,1.7-.642-.727.751-1.731,1.131-2.475,1.859-.784.764-1.706,1.375-2.439,2.189a16.086,16.086,0,0,0-3.587,6.011c-.279.685-.515,1.387-.8,2.071l-.085-.143q-.023-.641-.032-1.285c.094.117.19.231.29.346a14.7,14.7,0,0,1,1.743-4.359c.515-.813,1.094-1.586,1.676-2.355a16.2,16.2,0,0,1,2.469-2.364,5.9,5.9,0,0,0,.915-.946C531.264,207.965,531.472,207.838,531.68,207.709Z" transform="translate(-523.961 -207.067)" fill="#a3625f"/>
      </g>
      <g id="Group_295" data-name="Group 295" transform="translate(29.083 18.037)">
        <path id="Path_727" data-name="Path 727" d="M757.548,218.861c.963-.142,1.861-.532,2.81-.724,1.7-.157,3.41.043,5.11-.1.526.264,1.063.506,1.606.734a7.744,7.744,0,0,0,.764,1.062c.14.17.284.335.415.514a2.865,2.865,0,0,1-.012,1.295,4.073,4.073,0,0,1-.7.654c-.838-.418-1.72-.734-2.577-1.111a7.936,7.936,0,0,0-1.1-.693,10.733,10.733,0,0,0-4-1.225,11.321,11.321,0,0,0-1.981.077c-.279.017-.393.3-.565.48l-.219-.048A2.508,2.508,0,0,1,757.548,218.861Z" transform="translate(-724.55 -218.037)" fill="#734341"/>
        <path id="Path_728" data-name="Path 728" d="M546.457,599.514a3.244,3.244,0,0,1,1.668.52,42.675,42.675,0,0,0,4.47,2.018c.932.313,1.936.143,2.882.393a9.39,9.39,0,0,0,2.31.278l.076.122c-.926.268-1.855.532-2.779.81a22.615,22.615,0,0,1-3.344.42,17.574,17.574,0,0,0-1.964-.295c-1.188-.776-2.637-1.308-3.422-2.566A1.47,1.47,0,0,1,546.457,599.514Z" transform="translate(-546.135 -540.65)" fill="#734341"/>
      </g>
      <g id="Group_296" data-name="Group 296" transform="translate(71.607 18.731)">
        <path id="Path_729" data-name="Path 729" d="M821.741,222.574c.913-.2,1.672.4,2.476.707a26.619,26.619,0,0,1,5.678,2.945,15.5,15.5,0,0,1,3.3,2.6c-1.193-.62-2.208-1.515-3.36-2.2a32.129,32.129,0,0,0-5.323-2.873,4.133,4.133,0,0,0-1.477-.469c-.23,0-.359.236-.531.358A7.739,7.739,0,0,1,821.741,222.574Z" transform="translate(-821.741 -222.534)" fill="#645a57"/>
      </g>
      <g id="Group_298" data-name="Group 298" transform="translate(36.758 18.861)">
        <g id="Group_297" data-name="Group 297">
          <path id="Path_730" data-name="Path 730" d="M619.912,223.911a6.388,6.388,0,0,1,1.284-.534,2.506,2.506,0,0,0-.447.915l.219.048a13.758,13.758,0,0,0,1.4.219c1.3.227,2.56.63,3.842.93a14.537,14.537,0,0,1,3.419,1.295,17.119,17.119,0,0,1,2.524,1.333.713.713,0,0,1,.242.846,2.39,2.39,0,0,1-1.041.677c-1.335.528-2.708.95-4.052,1.458a7.251,7.251,0,0,0-2.409,1.026,14.046,14.046,0,0,0,2.68.89c.719.3,1.41.673,2.145.943a19.605,19.605,0,0,1,2.811,1.52,26.2,26.2,0,0,1,4.367,3.487,28.244,28.244,0,0,1,2.6,2.953,33.9,33.9,0,0,1,3.286,5.2,30.205,30.205,0,0,1,2.575,6.1,3.591,3.591,0,0,1,.1,1.608c-1.1-.568-1.315-1.884-2.106-2.733-.116.279-.2.568-.3.852-.241.3-.628.035-.853-.145-.832-.713-1.467-1.618-2.225-2.407a36.323,36.323,0,0,0-2.716-2.841,25.287,25.287,0,0,0-2.651-2.3c-.029.034-.089.1-.12.134a32.918,32.918,0,0,1,2.837,4.552,29.368,29.368,0,0,1,2.433,6.368c.471,1.094.29,2.325.7,3.438a11.714,11.714,0,0,1,.307,3.712c-.023,1.436.034,2.876-.018,4.312-.032,1.112-.566,2.135-.6,3.248a17.49,17.49,0,0,1-.853,3.186,10.667,10.667,0,0,1-1.166,2.782c-.156.27-.321.579-.643.668a10.273,10.273,0,0,1-.127-1.583c.136-1.19.555-2.331.586-3.533.039-1.008.023-2.018.015-3.027a3.442,3.442,0,0,0-.287-1.861,3.013,3.013,0,0,1-.694-1.572,10.218,10.218,0,0,0-.506-2.567c-.2-1.177-.714-2.265-.969-3.428a35.562,35.562,0,0,0-8.295-12.667c-.847-.849-1.793-1.6-2.583-2.5a10.519,10.519,0,0,0-1.446-1.352c-.194-.208-.393-.413-.586-.622a5.066,5.066,0,0,1-.87-2.324c-.037-.446.1-.983-.265-1.325a10.871,10.871,0,0,1-1.1-1.686c-.532-.461-1.176-.771-1.719-1.219a7.7,7.7,0,0,0-3.995-1.4c-.958-.11-1.881-.414-2.834-.545a9.384,9.384,0,0,1-1.563-.3c-.511-.225-.787-.779-1.278-1.026a14.493,14.493,0,0,0-2.584.094c-1.153.035-2.245.478-3.4.5a8.156,8.156,0,0,0-2.254.355c-.978.305-2.026.258-3,.568-.5.131-1.1.38-1.558.014a1.049,1.049,0,0,1-.214-1.179,9.584,9.584,0,0,1,4.069-5.079,23.529,23.529,0,0,1,4.565-2.362,17.437,17.437,0,0,0,1.895-.645,23.54,23.54,0,0,1,5.076-1.08,22.341,22.341,0,0,1,3.35-.3c-1.438.751-3.131.315-4.641.805a24.746,24.746,0,0,1-2.729.66,24.19,24.19,0,0,0-7.783,3.441,9.293,9.293,0,0,0-2.714,2.85,4.975,4.975,0,0,0-.821,2.5,2.9,2.9,0,0,0,1.568-.045c1.321-.219,2.611-.628,3.951-.728,1.091-.089,2.148-.429,3.246-.452a20.274,20.274,0,0,0,4.654-.395,3.777,3.777,0,0,1,2.361-.009,8.281,8.281,0,0,1-1.622.65c.977,1,2.484.747,3.731,1.032.915.252,1.848.427,2.776.63,1.3.33,2.094,1.543,3.288,2.085.864.446,1.881.287,2.782.614a21.829,21.829,0,0,1,3,.989c.91.427,1.845.807,2.711,1.321a44.165,44.165,0,0,1,3.791,2.535,41.754,41.754,0,0,1,5.15,4.416c1.011.839,1.828,1.872,2.756,2.8.472.463.836,1.079,1.48,1.324.011-1.239-1.21-2.188-.917-3.456.929.313,1.322,1.27,1.969,1.922a5.32,5.32,0,0,1-.094-.534,28.329,28.329,0,0,0-4.11-6.838,26.331,26.331,0,0,0-13.959-9.362c-1.025-.333-2.126-.372-3.121-.8a6.023,6.023,0,0,1,2.088-.563,28.164,28.164,0,0,0,3.794-1.122c1.364-.535,2.76-.989,4.112-1.554a1.68,1.68,0,0,0-.836-.753A39.876,39.876,0,0,0,625.7,225.9c-1.676-.6-3.464-.773-5.161-1.29C620.21,224.523,620.091,224.161,619.912,223.911Zm1.779,14.537a6.989,6.989,0,0,1,.535,1.413,7.844,7.844,0,0,0,.469,2.495,6.113,6.113,0,0,0,1.426,1.511,40.7,40.7,0,0,1,5.4,4.927,38.167,38.167,0,0,1,4.055,5.973c.822,1.4,1.4,2.915,2.1,4.374a19.34,19.34,0,0,1,1.02,3.33,9.822,9.822,0,0,1,.565,2.515c0,1.02.838,1.79.853,2.8.113,2.476-.066,4.962.083,7.435.227-1,.728-1.956.9-2.986a17.938,17.938,0,0,0,.606-2.606c.062-1.6.4-3.181.478-4.783.006-1.764-.418-3.495-.48-5.255,0-1.19-.594-2.26-.721-3.431a31.95,31.95,0,0,0-2.734-6.69,25.767,25.767,0,0,0-2.257-3.438,16.591,16.591,0,0,0-1.807-2.058,20.018,20.018,0,0,0-2.4-2.231,15.946,15.946,0,0,0-2.708-1.784,9.565,9.565,0,0,0-3.112-1.185C623.2,238.715,622.45,238.55,621.691,238.448Z" transform="translate(-595.872 -223.377)" fill="#3b3735"/>
        </g>
      </g>
      <g id="Group_301" data-name="Group 301" transform="translate(37.106 19.29)">
        <g id="Group_299" data-name="Group 299">
          <path id="Path_731" data-name="Path 731" d="M616.819,226.344a21.705,21.705,0,0,1,5-.08c.179.25.3.613.628.7,1.7.517,3.485.69,5.161,1.29a39.881,39.881,0,0,1,5.062,2.057,1.679,1.679,0,0,1,.836.753c-1.352.565-2.748,1.018-4.112,1.554a28.164,28.164,0,0,1-3.794,1.122,6.023,6.023,0,0,0-2.088.563c1,.424,2.1.463,3.121.8A26.33,26.33,0,0,1,640.6,244.46a28.325,28.325,0,0,1,4.11,6.838,5.305,5.305,0,0,0,.094.534c-.647-.653-1.04-1.609-1.969-1.922-.293,1.268.927,2.217.917,3.456-.643-.245-1.008-.861-1.48-1.324-.927-.924-1.745-1.956-2.756-2.8a41.755,41.755,0,0,0-5.15-4.416,44.165,44.165,0,0,0-3.791-2.535c-.866-.514-1.8-.893-2.711-1.321a21.832,21.832,0,0,0-3-.989c-.9-.327-1.918-.168-2.782-.614-1.194-.542-1.984-1.754-3.288-2.084-.927-.2-1.861-.378-2.776-.63-1.247-.285-2.754-.034-3.731-1.032a8.28,8.28,0,0,0,1.622-.65,3.776,3.776,0,0,0-2.361.009,20.273,20.273,0,0,1-4.653.395c-1.1.023-2.156.363-3.246.452-1.341.1-2.631.509-3.951.728a2.9,2.9,0,0,1-1.568.045,4.975,4.975,0,0,1,.821-2.5,9.291,9.291,0,0,1,2.714-2.85,24.19,24.19,0,0,1,7.783-3.441,24.752,24.752,0,0,0,2.729-.66C613.688,226.659,615.381,227.1,616.819,226.344Zm-1.5.969c-.824.227-1.686.3-2.489.6a16.274,16.274,0,0,0-2.546.98c-.7.4-1.44.708-2.109,1.153a12.742,12.742,0,0,0-2.611,2.334,1.24,1.24,0,0,0-.384,1,4.562,4.562,0,0,0,2.861,1.518,5.658,5.658,0,0,0,2.788-.31,14.117,14.117,0,0,0,2.615-.648,21.684,21.684,0,0,0,3.436-2.285c1.364-1.069,2.185-2.638,3.408-3.842a4.8,4.8,0,0,0,.5-.592,6.027,6.027,0,0,0-2.606-.12C617.231,227.234,616.26,227.12,615.319,227.313Zm4.823,8.063a1.1,1.1,0,0,0-.762.96,2.034,2.034,0,0,0,1.137,1.359c.838.3,1.668.631,2.52.9,1.412.412,2.714,1.117,4.115,1.563,1.918.815,3.823,1.657,5.75,2.449,1.1.535,2.186,1.088,3.274,1.645,1.694.864,3.087,2.2,4.712,3.166a12.312,12.312,0,0,0-2.3-3.573,25.961,25.961,0,0,0-4.271-4.371,26.951,26.951,0,0,0-4.511-2.762c-.716-.329-1.481-.538-2.189-.886a11.606,11.606,0,0,0-2.29-.5,6.9,6.9,0,0,0-1.918-.268A10.257,10.257,0,0,0,620.142,235.377Z" transform="translate(-598.131 -226.159)" fill="#2d2a26"/>
        </g>
        <g id="Group_300" data-name="Group 300" transform="translate(25.471 14.642)">
          <path id="Path_732" data-name="Path 732" d="M763.211,321.057c.759.1,1.511.267,2.274.329a9.563,9.563,0,0,1,3.112,1.185,15.939,15.939,0,0,1,2.708,1.784,20.015,20.015,0,0,1,2.4,2.231,16.589,16.589,0,0,1,1.807,2.058,25.762,25.762,0,0,1,2.257,3.438,31.95,31.95,0,0,1,2.734,6.69c.126,1.171.716,2.242.721,3.431.062,1.76.486,3.492.48,5.255-.076,1.6-.417,3.18-.478,4.783a17.936,17.936,0,0,1-.606,2.606c-.17,1.029-.671,1.986-.9,2.986-.15-2.473.029-4.959-.083-7.435-.015-1.014-.858-1.784-.853-2.8a9.819,9.819,0,0,0-.565-2.515,19.345,19.345,0,0,0-1.02-3.33c-.7-1.46-1.276-2.976-2.1-4.374a38.17,38.17,0,0,0-4.055-5.973,40.7,40.7,0,0,0-5.4-4.927,6.112,6.112,0,0,1-1.426-1.511,7.839,7.839,0,0,1-.469-2.495A7,7,0,0,0,763.211,321.057Zm1.024,1.224c1.065,1.112,2.364,1.978,3.4,3.118.6.688,1.285,1.293,1.838,2.02a32.489,32.489,0,0,1,2.418,3.3c.693.932,1.211,1.97,1.821,2.955a45.713,45.713,0,0,1,2.3,4.342c.739,1.435,1.259,2.965,1.884,4.451.367.829.421,1.754.8,2.578a6.858,6.858,0,0,1,.443,1.651,4.8,4.8,0,0,0,.264-2.169,17.542,17.542,0,0,0-.511-3.51,17.1,17.1,0,0,0-.538-2.709c-.236-.636-.313-1.316-.532-1.956a26.1,26.1,0,0,0-6.345-10.464,15.815,15.815,0,0,0-6.21-4.135C764.868,321.594,764.265,321.805,764.235,322.281Z" transform="translate(-763.211 -321.057)" fill="#2d2a26"/>
        </g>
      </g>
      <g id="Group_302" data-name="Group 302" transform="translate(61.853 19.26)">
        <path id="Path_733" data-name="Path 733" d="M758.521,226.526c.171-.176.285-.463.565-.48a11.322,11.322,0,0,1,1.981-.077,10.733,10.733,0,0,1,4,1.225,7.937,7.937,0,0,1,1.1.693c-1.2-.231-2.382-.515-3.57-.788a6.508,6.508,0,0,0-2.678-.353A13.751,13.751,0,0,1,758.521,226.526Z" transform="translate(-758.521 -225.962)" fill="#6e5d5b"/>
      </g>
      <g id="Group_303" data-name="Group 303" transform="translate(44.137 20.149)">
        <path id="Path_734" data-name="Path 734" d="M653.857,232.021c.941-.193,1.912-.079,2.862-.211a6.026,6.026,0,0,1,2.606.12,4.8,4.8,0,0,1-.5.592c-1.224,1.2-2.044,2.773-3.408,3.842a21.686,21.686,0,0,1-3.436,2.285,14.123,14.123,0,0,1-2.615.648,5.658,5.658,0,0,1-2.788.31,4.562,4.562,0,0,1-2.861-1.518,1.24,1.24,0,0,1,.384-1,12.744,12.744,0,0,1,2.611-2.334c.67-.444,1.413-.756,2.109-1.153a16.278,16.278,0,0,1,2.546-.98C652.17,232.325,653.033,232.248,653.857,232.021Z" transform="translate(-643.699 -231.726)" fill="#211e1c"/>
        <path id="Path_735" data-name="Path 735" d="M736.613,284.15a10.257,10.257,0,0,1,3.269-.318,6.9,6.9,0,0,1,1.918.268,11.608,11.608,0,0,1,2.29.5c.708.347,1.473.557,2.189.886a26.956,26.956,0,0,1,4.512,2.762,25.967,25.967,0,0,1,4.271,4.371,12.311,12.311,0,0,1,2.3,3.573c-1.625-.97-3.018-2.3-4.712-3.166-1.088-.557-2.176-1.109-3.274-1.645-1.927-.792-3.833-1.634-5.75-2.449-1.4-.446-2.7-1.151-4.115-1.563-.852-.268-1.682-.6-2.52-.9a2.033,2.033,0,0,1-1.137-1.359A1.1,1.1,0,0,1,736.613,284.15Z" transform="translate(-721.633 -275.792)" fill="#211e1c"/>
        <path id="Path_736" data-name="Path 736" d="M769.851,325.792c.029-.475.633-.687,1.032-.534a15.815,15.815,0,0,1,6.21,4.135,26.105,26.105,0,0,1,6.344,10.464c.219.64.3,1.321.532,1.956a17.116,17.116,0,0,1,.538,2.709,17.555,17.555,0,0,1,.511,3.51,4.8,4.8,0,0,1-.264,2.169,6.855,6.855,0,0,0-.443-1.651c-.38-.824-.434-1.75-.8-2.578-.625-1.486-1.145-3.016-1.884-4.451a45.689,45.689,0,0,0-2.3-4.342c-.609-.984-1.128-2.023-1.821-2.955a32.493,32.493,0,0,0-2.418-3.3c-.552-.727-1.242-1.332-1.838-2.02C772.215,327.77,770.916,326.9,769.851,325.792Z" transform="translate(-750.387 -310.786)" fill="#211e1c"/>
      </g>
      <g id="Group_304" data-name="Group 304" transform="translate(72.075 20.347)">
        <path id="Path_737" data-name="Path 737" d="M825.482,233.007c.5.592.069,1.333.026,2,.4.559,1.153.69,1.648,1.139-.015.284-.057.566-.094.847a4.214,4.214,0,0,0,1.237,1.031,30.983,30.983,0,0,1,5.345,4.678,31.746,31.746,0,0,1,4.28,5.447c.867,1.5,1.85,2.939,2.569,4.521a44.7,44.7,0,0,1,2.077,5.047,34.992,34.992,0,0,1,1.359,4.979,15.2,15.2,0,0,1,.559,2.822c.039,1.586.464,3.131.511,4.717a30.367,30.367,0,0,1-.309,6.281,25.415,25.415,0,0,1-.56,4.056c-.335,1.566-.8,3.1-1.233,4.641a33.776,33.776,0,0,1-6.749,12.076c-.219-.478.117-.93.329-1.339.583-.98,1.146-1.972,1.649-3a33.315,33.315,0,0,0,2.857-7.77c.134-.741.211-1.492.409-2.22a16.79,16.79,0,0,0,.353-4.26,30.681,30.681,0,0,0-.207-4.9,11.555,11.555,0,0,1-.18-2.088,9.878,9.878,0,0,1,.6,3.274,29.416,29.416,0,0,1,.125,3.516,36.365,36.365,0,0,1-.435,4.985c-.21.8-.339,1.609-.518,2.413a39.5,39.5,0,0,1-1.484,4.528,14.042,14.042,0,0,0-1.058,2.813,2.661,2.661,0,0,0,.907-1.091,34.777,34.777,0,0,0,2.731-6.014,37.03,37.03,0,0,0,1.267-4.14c.224-.855.278-1.745.508-2.6.543-1.887.224-3.871.532-5.794a24.227,24.227,0,0,0-.091-4.868,28.48,28.48,0,0,0-.434-4.178c-.281-1.173-.4-2.379-.764-3.533a43.672,43.672,0,0,0-3.485-9.19c-.737-1.349-1.555-2.651-2.328-3.976a37.946,37.946,0,0,0-3.433-4.437,33.725,33.725,0,0,0-5.883-5.2,5.307,5.307,0,0,1-1.543-1.213,4.953,4.953,0,0,0,.123-.836,21.15,21.15,0,0,1-1.919-1.224,4.073,4.073,0,0,0,.7-.654A2.863,2.863,0,0,0,825.482,233.007Z" transform="translate(-824.771 -233.007)" fill="#5f5c5b"/>
      </g>
      <g id="Group_305" data-name="Group 305" transform="translate(25.323 21.286)">
        <path id="Path_738" data-name="Path 738" d="M529.246,239.905c.4-.285.852-.484,1.222-.808l-.077.12A11.67,11.67,0,0,0,528.8,242.7a6.636,6.636,0,0,0-.011,2.853,3.651,3.651,0,0,0,1.024,1.582c.122.16.213.343.336.5a2.625,2.625,0,0,0-.876,1.54c-.321,2.04-.353,4.115-.64,6.159-.09.363.264.6.447.853.037.116.074.231.113.347a8.951,8.951,0,0,1-3.126-3.3,16.044,16.044,0,0,1-1.14-3.33,15.66,15.66,0,0,1-.21-3.617c.287-.684.523-1.386.8-2.071a8.633,8.633,0,0,0,1.151-1.656A7.161,7.161,0,0,1,529.246,239.905Z" transform="translate(-524.262 -239.097)" fill="#6e2a28"/>
        <path id="Path_739" data-name="Path 739" d="M566.807,545.167l.148.009a4.732,4.732,0,0,0,.534.022l-.028.111c-.572,1.492-1,3.041-1.674,4.493a7.548,7.548,0,0,1-1.839,2.341,15.754,15.754,0,0,1-3.441,2.279,37.1,37.1,0,0,1-4.06,1.83,36.46,36.46,0,0,1-4.916,1.673c-.654.157-1.3.335-1.946.526-.881.265-1.807.322-2.688.583s-1.791.335-2.651.64a5.535,5.535,0,0,0,2.549.261,21.628,21.628,0,0,0,2.615-.309c1.231-.182,2.486-.185,3.7-.463,1.3-.316,2.635-.474,3.928-.825a40.42,40.42,0,0,0,4.317-1.22,41.845,41.845,0,0,0,5.971-2.543,25.188,25.188,0,0,1-4.175,4.181,29.3,29.3,0,0,1-2.52,1.631,14.722,14.722,0,0,0-1.7.611,13.925,13.925,0,0,0-1.9.437c-.955.373-2,.383-2.964.733a8.544,8.544,0,0,1-2.2.307c-.9.069-1.708.546-2.614.572a22.166,22.166,0,0,0-3.371.213,28.009,28.009,0,0,1-4.5.413,48.806,48.806,0,0,1-5.247-.137c-.984-.083-1.938-.39-2.927-.438a9.8,9.8,0,0,1-2.729-.253c-1.04-.389-2.179-.437-3.185-.926a14.672,14.672,0,0,1-4.8-2.8,2.053,2.053,0,0,1-.736-1.14,1.542,1.542,0,0,1,1.413-1.1c.5.088.818.537,1.216.815a9.154,9.154,0,0,0,2.791,1.406c.884.378,1.865.42,2.766.744a4.769,4.769,0,0,0,1.406.295c1.952.093,3.908.162,5.862.1a6.686,6.686,0,0,0,2.873-.571c-1.572-.687-3.337-.285-4.99-.5-.745-.128-1.435-.485-2.194-.542-.6-.077-1.319-.025-1.777-.494a22.593,22.593,0,0,0,3.344-.42c.924-.278,1.853-.542,2.779-.81,2.757-.011,5.562.177,8.265-.48a18.407,18.407,0,0,1,2.674-.125c.907-.04,1.7-.582,2.615-.6a18.577,18.577,0,0,0,3.465-.785c1.207-.475,2.515-.636,3.688-1.2a21.717,21.717,0,0,0,3.124-1.335,15.248,15.248,0,0,0,3.185-2.069,9.973,9.973,0,0,0,1.662-2.828C566.336,546.741,566.277,545.83,566.807,545.167Z" transform="translate(-521.761 -497.943)" fill="#6e2a28"/>
      </g>
      <g id="Group_307" data-name="Group 307" transform="translate(16.872 27.584)">
        <g id="Group_306" data-name="Group 306">
          <path id="Path_740" data-name="Path 740" d="M472.367,281.483a4.088,4.088,0,0,1,.753-1.566,7.277,7.277,0,0,1,.2,1.6,19.265,19.265,0,0,0-.23,3.32,9.285,9.285,0,0,0,.157,3.475c.143.8.707,1.467.778,2.288a24.93,24.93,0,0,0,1.19,4.67,35.644,35.644,0,0,0,1.558,3.891,15.824,15.824,0,0,0,1.063,1.858,32.995,32.995,0,0,0,8.651,10.041c.736.6,1.378,1.293,2.063,1.943a3.546,3.546,0,0,1,.971,1.325,10.481,10.481,0,0,1,.2,2.123c.218.511.758.785,1.075,1.228a5.37,5.37,0,0,0,.452.974,10.255,10.255,0,0,0,1.1.606,13.114,13.114,0,0,0,2.055,1.316c.79.252,1.622.33,2.425.528,1.693.418,3.516.309,5.123,1.062.349.116.191.518.2.787,1.651-.065,3.3-.193,4.956-.157,1.367.046,2.643-.535,3.993-.639,1.395-.125,2.72-.907,4.137-.684.352.543.048,1.23-.159,1.774a11.526,11.526,0,0,1-4.126,4.377,22.033,22.033,0,0,1-4.9,2.234,9.589,9.589,0,0,0-1.012.477,17.4,17.4,0,0,1-1.688.662c-1.776-.116-3.433.741-5.2.63-.275-.008-.549-.025-.822-.032a5.469,5.469,0,0,1,1.909-.58,16.353,16.353,0,0,0,5.923-2.243,8.793,8.793,0,0,0,3.564-3.53c.151-.5-.346-.893-.665-1.2a4.556,4.556,0,0,0-2.856-.847,10.849,10.849,0,0,0-3.172.474A9.173,9.173,0,0,0,498.3,325.3a15.764,15.764,0,0,0-3.967,3.9,21.254,21.254,0,0,0-1.973,2.415c-.406.046-.808.1-1.213.159-1.609-.151-3.152-.65-4.743-.91a28.285,28.285,0,0,1-6.178-2.305,2.53,2.53,0,0,1-.542-1.037,12.979,12.979,0,0,1,2.731-1.14,26.205,26.205,0,0,1,5.056-1.723c.3-.1.742-.06.878-.415-.839-.688-1.981-.667-2.972-.987a27.818,27.818,0,0,1-6.053-2.722c-.813-.576-1.646-1.122-2.438-1.725a27.747,27.747,0,0,1-5.565-6,21.976,21.976,0,0,1-1.956-2.984c-.926-1.827-2.129-3.6-2.371-5.686,1.086,1.1,1.632,2.648,2.874,3.621-.235-.933-.733-1.776-.952-2.716-.054-.289-.151-.756.219-.867a7.005,7.005,0,0,1,.886.977c.835,1.062,1.858,1.95,2.791,2.921a48.984,48.984,0,0,0,4.319,3.857,8.825,8.825,0,0,0,2.813,1.855c-.475-1.114-1.544-1.776-2.271-2.7a29.2,29.2,0,0,1-3.168-4.7,33.028,33.028,0,0,1-2.191-5.058c-.267-.83-.446-1.686-.705-2.521a47.481,47.481,0,0,1-.879-9.142c-.011-1.267.438-2.472.551-3.723A22.887,22.887,0,0,1,472.367,281.483Zm1.145,10.767a16.524,16.524,0,0,0,.272,5.272,25.848,25.848,0,0,0,.5,2.6,16.165,16.165,0,0,1,.432,1.575,27.339,27.339,0,0,0,2.615,5.868c.469.679.77,1.461,1.293,2.1a26.523,26.523,0,0,0,3.174,3.617,17.254,17.254,0,0,0,5.064,3.428c.642.156,1.518.585,2.018-.065a2.394,2.394,0,0,0-1-1.114c-.528-.392-1.011-.836-1.5-1.271a30.56,30.56,0,0,1-5.115-5.838,55.285,55.285,0,0,1-6.786-13.086C474.221,294.288,473.7,293.3,473.511,292.25Zm-.682,19.646a17.135,17.135,0,0,0,3.186,4.232,14.968,14.968,0,0,0,2.114,2.057,15.429,15.429,0,0,0,3.2,2.358,22.582,22.582,0,0,0,5.9,2.569,32.409,32.409,0,0,0,3.982.228,4.307,4.307,0,0,0,2.324-.324,1.165,1.165,0,0,0,.251-1.663c-1.057-.881-2.473-1.037-3.714-1.535-1.2-.358-2.327-.907-3.524-1.27-1.461-.6-2.891-1.271-4.39-1.768a36.093,36.093,0,0,1-6.661-3.373c-.873-.512-1.649-1.17-2.509-1.7Z" transform="translate(-466.991 -279.917)" fill="#d32928"/>
        </g>
      </g>
      <g id="Group_308" data-name="Group 308" transform="translate(29.681 29.822)">
        <path id="Path_741" data-name="Path 741" d="M550.663,295.957a2.625,2.625,0,0,1,.876-1.54c.162.108.324.219.486.332l.116.2a4.475,4.475,0,0,0-.6.184,18.02,18.02,0,0,0-.543,2.058,27.811,27.811,0,0,0-.2,4.9,2.9,2.9,0,0,1-.329.872c-.184-.258-.537-.491-.448-.853C550.31,300.072,550.342,298,550.663,295.957Z" transform="translate(-550.008 -294.417)" fill="#6f3835"/>
      </g>
      <g id="Group_309" data-name="Group 309" transform="translate(31.925 30.236)">
        <path id="Path_742" data-name="Path 742" d="M564.551,297.212a7.3,7.3,0,0,1,2.123-.025c.839.1,1.682-.2,2.515-.039.845.184.964,1.19,1.56,1.685a5.169,5.169,0,0,0,1.929.847,2.545,2.545,0,0,1-2.365-.713c-.427-.43-.614-1.029-1-1.494-.869-.171-1.682.464-2.55.272-.656-.14-1.315-.275-1.973-.4Z" transform="translate(-564.551 -297.101)" fill="#595654"/>
      </g>
      <g id="Group_310" data-name="Group 310" transform="translate(30.143 30.346)">
        <path id="Path_743" data-name="Path 743" d="M554.073,298.011a4.466,4.466,0,0,1,.6-.184l.111-.011.242.136a5.759,5.759,0,0,0-.545,2.006c-.077,1.049-.194,2.1-.227,3.151-.052,1.241.193,2.472.111,3.714-.366-.174-.731-.347-1.094-.525l-.157-.106c-.039-.116-.076-.231-.113-.347a2.9,2.9,0,0,0,.329-.872,27.8,27.8,0,0,1,.2-4.9A18.02,18.02,0,0,1,554.073,298.011Z" transform="translate(-553.001 -297.817)" fill="#724b48"/>
      </g>
      <g id="Group_311" data-name="Group 311" transform="translate(48.914 32.028)">
        <path id="Path_744" data-name="Path 744" d="M676.869,308.792c1.287.034,2.569-.143,3.854-.046,1.443.1,2.9-.052,4.334.168a1.819,1.819,0,0,1,1.383,1.123c-.231.469-.844.177-1.237.137a6.928,6.928,0,0,0-3.658.364c-.326.071-.829.338-.589.737a16.2,16.2,0,0,0,1.961.682,18.519,18.519,0,0,1,6.306,3.149c.193.208.392.413.586.622a40.088,40.088,0,0,1,4.257,6.857c.761,1.541,1.27,3.186,1.885,4.786.3.856.426,1.765.738,2.618.3.826.214,1.734.549,2.55a9.125,9.125,0,0,1,.33,3.672l-.378.173.022-.131c.38-1.369-.264-2.689-.457-4.027-.2-1.193-.582-2.345-.821-3.532a42.881,42.881,0,0,0-2.763-7.064c-.745-1.3-1.427-2.649-2.3-3.877a14.506,14.506,0,0,0-1.944-2.509,14.661,14.661,0,0,0-2.594-1.544,22.93,22.93,0,0,0-3.566-1.369,5.351,5.351,0,0,1-2.373-1.077,1.167,1.167,0,0,1,.552-.872,8.833,8.833,0,0,1,3.5-.859,6.508,6.508,0,0,0,.792-.208,14.717,14.717,0,0,0-2.5-.23,29.543,29.543,0,0,0-5.7.066,5.955,5.955,0,0,1-2.381-.322C675.4,308.813,676.133,308.77,676.869,308.792Z" transform="translate(-674.661 -308.716)" fill="#565451"/>
      </g>
      <g id="Group_312" data-name="Group 312" transform="translate(30.316 38.828)">
        <path id="Path_745" data-name="Path 745" d="M554.121,353.133c.025-.086.073-.259.1-.346.363.177.728.35,1.094.525l.167.173-.019.13c-.363-.063-.724-.13-1.086-.182C554.288,353.333,554.2,353.233,554.121,353.133Z" transform="translate(-554.121 -352.787)" fill="#b06361"/>
      </g>
      <g id="Group_313" data-name="Group 313" transform="translate(30.172 39.173)">
        <path id="Path_746" data-name="Path 746" d="M553.333,355.027c.082.1.167.2.253.3a4.107,4.107,0,0,0,.008,1.941c.336,1.146.432,2.348.808,3.484.219.7.312,1.438.5,2.149a41.865,41.865,0,0,0,3.669,8.5c.944,1.549,1.936,3.072,3.02,4.528a5.33,5.33,0,0,0,2.069,1.48,23.889,23.889,0,0,0,5.42,2.092c.571.218,1.384.236,1.646.889.089.21.167.5-.029.676-.494.656-1.344.775-2.055,1.068-.076.221.165.241.315.293a10.876,10.876,0,0,0,3.021.057,17.4,17.4,0,0,1,3.749.1,26.538,26.538,0,0,1-3.911.392,13.317,13.317,0,0,1-3.944-.185c-.741-.16-1.49-.269-2.24-.369a1.532,1.532,0,0,1-.974-.378.973.973,0,0,1,.83-.329,31.464,31.464,0,0,0,3.192-.049,2.709,2.709,0,0,0,1.765-1.017c-.432-.782-1.453-.654-2.185-.932a22.237,22.237,0,0,1-5.851-2.611,25.077,25.077,0,0,1-3.614-4.723,39.394,39.394,0,0,1-3.407-7.07,51.872,51.872,0,0,1-1.728-6.184A8.045,8.045,0,0,1,553.333,355.027Z" transform="translate(-553.189 -355.027)" fill="#e05e5e"/>
      </g>
      <g id="Group_314" data-name="Group 314" transform="translate(22.711 39.917)">
        <path id="Path_747" data-name="Path 747" d="M508.788,359.847c.19,1.052.71,2.038.961,3.089a55.283,55.283,0,0,0,6.786,13.086,30.557,30.557,0,0,0,5.115,5.838c.492.435.975.879,1.5,1.271a2.4,2.4,0,0,1,1,1.114c-.5.65-1.376.221-2.018.065a17.252,17.252,0,0,1-5.064-3.428,26.522,26.522,0,0,1-3.174-3.617c-.523-.642-.824-1.424-1.293-2.1a27.336,27.336,0,0,1-2.615-5.868,16.156,16.156,0,0,0-.432-1.575,25.83,25.83,0,0,1-.5-2.6A16.524,16.524,0,0,1,508.788,359.847Z" transform="translate(-508.106 -359.847)" fill="#d11c1d"/>
        <path id="Path_748" data-name="Path 748" d="M504.831,486.137l.162-.19c.859.531,1.635,1.188,2.509,1.7a36.094,36.094,0,0,0,6.661,3.373c1.5.5,2.929,1.171,4.39,1.768,1.2.363,2.325.912,3.524,1.27,1.24.5,2.657.654,3.714,1.535a1.165,1.165,0,0,1-.251,1.663,4.307,4.307,0,0,1-2.324.324,32.414,32.414,0,0,1-3.982-.228,22.583,22.583,0,0,1-5.9-2.569,15.43,15.43,0,0,1-3.2-2.358,14.974,14.974,0,0,1-2.114-2.057A17.134,17.134,0,0,1,504.831,486.137Z" transform="translate(-504.831 -466.491)" fill="#d11c1d"/>
        <path id="Path_749" data-name="Path 749" d="M641.073,560.744a10.849,10.849,0,0,1,3.172-.474,4.555,4.555,0,0,1,2.856.847c.319.309.816.705.665,1.2a8.793,8.793,0,0,1-3.564,3.53,16.354,16.354,0,0,1-5.923,2.243,5.468,5.468,0,0,0-1.909.58,25.936,25.936,0,0,1-4.979.018,21.256,21.256,0,0,1,1.973-2.415,15.762,15.762,0,0,1,3.967-3.9A9.173,9.173,0,0,1,641.073,560.744Z" transform="translate(-611.864 -529.325)" fill="#d11c1d"/>
      </g>
      <g id="Group_315" data-name="Group 315" transform="translate(58.462 49.067)">
        <path id="Path_750" data-name="Path 750" d="M762.117,419.147a1.1,1.1,0,0,1,.586.278c.787.765,1.049,1.9,1.824,2.669a7.706,7.706,0,0,1,1.382,2.441,5.213,5.213,0,0,1,.173,1.907,11.447,11.447,0,0,0-1.848-3.587c-.464-.676-.79-1.436-1.3-2.083-.309.967.3,1.884.384,2.837.176,1.7.272,3.4.43,5.1a22.733,22.733,0,0,1-.188,3.992,20.472,20.472,0,0,1-.418,3.59c-.272.947-.335,1.943-.651,2.879a33.487,33.487,0,0,1-1.97,5.278,28.011,28.011,0,0,1-2.387,4.4,14.933,14.933,0,0,1-5.119,5.065,36.13,36.13,0,0,1-5.482,2.848c-1.435.63-2.955,1.035-4.414,1.6a41.984,41.984,0,0,1-4.137,1.014c-.81.148-1.625.643-2.442.224,1.773-.83,3.6-1.527,5.436-2.2,1.33-.472,2.571-1.154,3.854-1.731a25.458,25.458,0,0,0,5.877-3.988,7.6,7.6,0,0,0,2.072-2.41,19.824,19.824,0,0,0,.907-1.995c.123-.248-.037-.5-.133-.73-.268.268-.359.832-.822.81a18.333,18.333,0,0,1,1.088-2.745,19.046,19.046,0,0,0,1.291-4.292,22.433,22.433,0,0,0,.523-2.493,26.148,26.148,0,0,0-.054-2.992,8.281,8.281,0,0,0-.551,1.881A28.132,28.132,0,0,0,755,439.944c-.127.154-.256.307-.381.464.077-.44.139-.879.211-1.319a10.537,10.537,0,0,0,.546-1.8c.145-.781.5-1.5.626-2.287a2.822,2.822,0,0,1,.46-1.537,6.59,6.59,0,0,1,.454,1.609c.008,1.009.023,2.02-.015,3.027-.031,1.2-.451,2.344-.586,3.533-.144.73-.671,1.444-.426,2.208a2.368,2.368,0,0,1,.139,1.213,19.274,19.274,0,0,1-1.444,3.791,11.681,11.681,0,0,1-1.023,1.77,14.7,14.7,0,0,1-3.026,2.669,30.628,30.628,0,0,1-3.2,2.2c-1.046.628-2.214,1.023-3.248,1.674a4.379,4.379,0,0,0,.853,0A48.237,48.237,0,0,0,750.3,454.9a23.252,23.252,0,0,0,3.084-1.856,12.013,12.013,0,0,0,2.8-2.45,24.127,24.127,0,0,0,3.5-5.6c.4-.883.858-1.739,1.231-2.634.449-1.4.924-2.8,1.338-4.212.395-.94.177-1.987.481-2.945a7.07,7.07,0,0,0,.42-2.014c.039-2.111.025-4.221.02-6.332a8.2,8.2,0,0,0-.332-2.455,9.692,9.692,0,0,1-.332-2.154C762.442,421.2,761.552,420.2,762.117,419.147Z" transform="translate(-736.541 -419.147)" fill="#5a5755"/>
      </g>
      <g id="Group_316" data-name="Group 316" transform="translate(4.434 54.834)">
        <path id="Path_751" data-name="Path 751" d="M386.4,457.414a1.3,1.3,0,0,1,.213-.887,5.572,5.572,0,0,1,.466.892c.4,1.146.916,2.248,1.424,3.351a43.707,43.707,0,0,0,8.346,11.7c1.208.949,2.282,2.058,3.524,2.966a45.917,45.917,0,0,0,7.284,4.765c.748.384,1.685.3,2.342.879a2.654,2.654,0,0,0,1.469.617,4.419,4.419,0,0,0,.793.211c.489.282.946.62,1.457.866a10.494,10.494,0,0,0,2.748,1.1c.356.116.835.076,1.04.452a7.425,7.425,0,0,1-3.28-.4,12.688,12.688,0,0,1-4.035-1.666c-.346-.35-.594-.782-.92-1.15a2.692,2.692,0,0,0-1.719.582,1.346,1.346,0,0,0-.79,1.352c.14,1.194,1.316,1.784,2.134,2.493l-.12.091a42.2,42.2,0,0,1-4.91-2.9,43.366,43.366,0,0,1-3.442-2.723c-.921-.827-1.776-1.722-2.66-2.587a43.966,43.966,0,0,1-3.231-3.712c-.853-1.025-1.475-2.213-2.271-3.279a17.735,17.735,0,0,1-1.572-2.614,49.517,49.517,0,0,1-4.289-10.4Z" transform="translate(-386.378 -456.527)" fill="#d84544"/>
      </g>
      <g id="Group_317" data-name="Group 317" transform="translate(69.858 59.116)">
        <path id="Path_752" data-name="Path 752" d="M810.859,484.277c.383.148.767.295,1.148.451l-.022.131c-.477,2.118.279,4.371-.481,6.445a20.959,20.959,0,0,0-.444,2.378l-.148-.009-.424.025c-.022-.076-.065-.228-.086-.305a11.142,11.142,0,0,0,.441-2.651C810.913,488.586,810.828,486.431,810.859,484.277Z" transform="translate(-810.401 -484.277)" fill="#884e4c"/>
      </g>
      <g id="Group_318" data-name="Group 318" transform="translate(70.517 59.525)">
        <path id="Path_753" data-name="Path 753" d="M815.6,487.1l.378-.173c0,.071,0,.213,0,.284-.116,1.086.11,2.176-.034,3.259-.143,1.148,0,2.319-.236,3.456-.14.677-.315,1.349-.5,2.018a4.716,4.716,0,0,1-.534-.022,20.931,20.931,0,0,1,.444-2.378C815.876,491.471,815.12,489.218,815.6,487.1Z" transform="translate(-814.671 -486.927)" fill="#643d3a"/>
      </g>
      <g id="Group_319" data-name="Group 319" transform="translate(53.242 68.213)">
        <path id="Path_754" data-name="Path 754" d="M719.21,543.237l.117.017.086.306a22.252,22.252,0,0,1-1.787,4.211c-.9,1.364-2.509,1.947-3.853,2.762a45.535,45.535,0,0,1-7.134,2.56c-.927.2-1.844.434-2.765.656-.389-.009-.776-.04-1.163-.056a17.376,17.376,0,0,0,1.688-.662,4.443,4.443,0,0,0,2.385-.372,31.8,31.8,0,0,0,9.091-3.731,6.076,6.076,0,0,0,2.037-2.447C718.364,545.406,718.822,544.336,719.21,543.237Z" transform="translate(-702.711 -543.237)" fill="#b63736"/>
      </g>
      <g id="Group_320" data-name="Group 320" transform="translate(40.735 68.51)">
        <path id="Path_755" data-name="Path 755" d="M650.86,545.192l.424-.025c-.529.663-.471,1.574-.88,2.3a9.972,9.972,0,0,1-1.662,2.828,15.248,15.248,0,0,1-3.185,2.069,21.718,21.718,0,0,1-3.125,1.335c-1.173.565-2.481.725-3.688,1.2a18.575,18.575,0,0,1-3.465.785c-.912.02-1.708.562-2.615.6a18.406,18.406,0,0,0-2.674.125c-2.7.657-5.508.469-8.266.48l-.076-.122.6-.344a37.917,37.917,0,0,0,6.247-.168,26.3,26.3,0,0,0,4.473-.454c.775-.194,1.571-.273,2.354-.421.921-.222,1.838-.46,2.765-.656a45.529,45.529,0,0,0,7.134-2.56c1.344-.815,2.949-1.4,3.853-2.762A22.255,22.255,0,0,0,650.86,545.192Z" transform="translate(-621.651 -545.167)" fill="#8c2f2d"/>
      </g>
      <g id="Group_321" data-name="Group 321" transform="translate(47.809 68.652)">
        <path id="Path_756" data-name="Path 756" d="M690.714,546.087a5.255,5.255,0,0,1,1.511,1.435,6.167,6.167,0,0,1,.457,3.473c-.173,1.514-1.132,2.743-1.776,4.075-.108.093-.214.187-.321.282a41.835,41.835,0,0,1-5.971,2.543,40.391,40.391,0,0,1-4.317,1.22c-1.293.352-2.628.509-3.928.825-1.217.278-2.472.281-3.7.463a21.629,21.629,0,0,1-2.615.309,5.535,5.535,0,0,1-2.549-.261c.859-.305,1.779-.376,2.651-.64s1.807-.318,2.688-.583c.643-.191,1.292-.369,1.946-.526a36.429,36.429,0,0,0,4.916-1.672,37.108,37.108,0,0,0,4.059-1.83,15.75,15.75,0,0,0,3.441-2.279,7.547,7.547,0,0,0,1.839-2.341C689.716,549.128,690.142,547.579,690.714,546.087Z" transform="translate(-667.501 -546.087)" fill="#3e1f1d"/>
      </g>
      <g id="Group_322" data-name="Group 322" transform="translate(67.667 69.864)">
        <path id="Path_757" data-name="Path 757" d="M805.077,554.4c.125-.157.255-.31.381-.464a11.235,11.235,0,0,1-.719,3.226A16.415,16.415,0,0,1,803.6,559.7a18.867,18.867,0,0,1-2.234,3.172c-.688.912-1.7,1.5-2.439,2.362-.907.469-1.785.992-2.729,1.387a22.3,22.3,0,0,0,2.853-2.368,15.941,15.941,0,0,0,4.061-4.726,9.816,9.816,0,0,0,1.506-4.059C804.761,555.11,804.915,554.753,805.077,554.4Z" transform="translate(-796.201 -553.937)" fill="#775c59"/>
      </g>
      <g id="Group_323" data-name="Group 323" transform="translate(64.198 71.399)">
        <path id="Path_758" data-name="Path 758" d="M782.7,568.4a24.812,24.812,0,0,0,2.908-4.508,9.814,9.814,0,0,1-1.506,4.059,15.941,15.941,0,0,1-4.061,4.726,22.3,22.3,0,0,1-2.853,2.368c-.049.037-.151.109-.2.145-.262.136-.522.279-.781.418a9.75,9.75,0,0,0-2.129.71l-.358-.1a29.312,29.312,0,0,0,2.52-1.631,25.191,25.191,0,0,0,4.175-4.181c.106-.1.213-.19.321-.282A14.629,14.629,0,0,0,782.7,568.4Z" transform="translate(-773.721 -563.887)" fill="#71423f"/>
      </g>
      <g id="Group_324" data-name="Group 324" transform="translate(28.993 76.082)">
        <path id="Path_759" data-name="Path 759" d="M545.613,594.237c.349.063.7.106,1.049.145a28.287,28.287,0,0,0,6.178,2.305c1.591.261,3.134.759,4.743.91l.1.111c-1.242,0-2.482-.088-3.721-.145a19.038,19.038,0,0,1-5.34-1.875c-1.021-.366-1.938-1.166-3.075-1.08l.014-.137C545.577,594.413,545.6,594.3,545.613,594.237Z" transform="translate(-545.551 -594.237)" fill="#cc4c4b"/>
      </g>
      <g id="Group_325" data-name="Group 325" transform="translate(28.299 76.316)">
        <path id="Path_760" data-name="Path 760" d="M541.511,595.928l.248-.171-.014.137a3.254,3.254,0,0,0-.086,1.919,5.7,5.7,0,0,0,1.412,1.839,4.415,4.415,0,0,1-.793-.211,9.123,9.123,0,0,1-1.163-2.007C540.9,596.891,541.275,596.39,541.511,595.928Z" transform="translate(-541.051 -595.757)" fill="#b66562"/>
      </g>
      <g id="Group_326" data-name="Group 326" transform="translate(28.784 76.447)">
        <path id="Path_761" data-name="Path 761" d="M544.4,596.612c1.137-.086,2.054.714,3.075,1.08a19.038,19.038,0,0,0,5.34,1.875c1.239.057,2.479.142,3.721.145.049.054.151.16.2.213l-.6.344a9.394,9.394,0,0,1-2.31-.278c-.946-.25-1.95-.08-2.882-.393a42.65,42.65,0,0,1-4.47-2.018,3.244,3.244,0,0,0-1.668-.52,1.47,1.47,0,0,0-.1,1.7c.785,1.257,2.234,1.79,3.422,2.566l.134.076a9.8,9.8,0,0,1-1.083-.165c-.511-.245-.967-.583-1.457-.865a5.7,5.7,0,0,1-1.412-1.839A3.254,3.254,0,0,1,544.4,596.612Z" transform="translate(-544.192 -596.605)" fill="#974d4b"/>
      </g>
      <g id="Group_327" data-name="Group 327" transform="translate(41.025 78.657)">
        <path id="Path_762" data-name="Path 762" d="M630.545,611.567c1.77.111,3.427-.745,5.2-.63.387.015.775.046,1.163.056-.784.148-1.58.227-2.355.421a26.311,26.311,0,0,1-4.473.454,37.91,37.91,0,0,1-6.247.168c-.049-.052-.151-.159-.2-.213l-.1-.111c.4-.054.807-.113,1.213-.159a25.936,25.936,0,0,0,4.979-.018C630,611.543,630.271,611.56,630.545,611.567Z" transform="translate(-623.531 -610.927)" fill="#b12b2c"/>
      </g>
      <g id="Group_328" data-name="Group 328" transform="translate(24.803 79.404)">
        <path id="Path_763" data-name="Path 763" d="M519.2,616.368a2.692,2.692,0,0,1,1.719-.582c.326.367.574.8.92,1.149a12.687,12.687,0,0,0,4.035,1.666,7.426,7.426,0,0,0,3.28.4c-.205-.377-.684-.336-1.04-.452a10.5,10.5,0,0,1-2.748-1.1,9.813,9.813,0,0,0,1.083.165,19.5,19.5,0,0,0,4.387,1.305c1.132.3,2.341.068,3.45.475a3.9,3.9,0,0,1-1.29.268,17.27,17.27,0,0,1-5.065-.335,16.441,16.441,0,0,1-5.9-1.959c-.543-.321-.892-.878-1.429-1.2a2.479,2.479,0,0,0-1.577.671,1.132,1.132,0,0,0-.13,1.507,9.622,9.622,0,0,0,1.916,1.811l-.262.065c-.818-.71-1.993-1.3-2.134-2.493A1.346,1.346,0,0,1,519.2,616.368Z" transform="translate(-518.392 -615.768)" fill="#b83c3b"/>
      </g>
      <g id="Group_329" data-name="Group 329" transform="translate(67.466 79.467)">
        <path id="Path_764" data-name="Path 764" d="M799.422,616.986a3.385,3.385,0,0,1,1.807-.81.783.783,0,0,1-.177.579,11.857,11.857,0,0,1-3.288,2.422,7.487,7.487,0,0,1-2.115,1,16.913,16.913,0,0,1,2.881-1.825c-.287-.063-.6-.213-.884-.056-.764.353-1.492.778-2.267,1.1l-.477.008c.049-.036.151-.108.2-.145.944-.395,1.822-.918,2.729-1.387A11.7,11.7,0,0,0,799.422,616.986Z" transform="translate(-794.901 -616.175)" fill="#7d7a78"/>
      </g>
      <g id="Group_330" data-name="Group 330" transform="translate(25.075 79.793)">
        <path id="Path_765" data-name="Path 765" d="M520.509,618.962a2.479,2.479,0,0,1,1.577-.671c.537.326.886.883,1.429,1.2a16.442,16.442,0,0,0,5.9,1.96,17.27,17.27,0,0,0,5.065.335,3.9,3.9,0,0,0,1.29-.268c-1.109-.407-2.318-.176-3.45-.475a19.492,19.492,0,0,1-4.387-1.305l-.134-.076a17.574,17.574,0,0,1,1.964.295c.458.469,1.173.417,1.778.494.759.057,1.449.414,2.194.542,1.653.219,3.418-.182,4.99.5a6.686,6.686,0,0,1-2.873.571c-1.953.065-3.91,0-5.862-.1a4.768,4.768,0,0,1-1.406-.295c-.9-.324-1.882-.366-2.766-.744a9.155,9.155,0,0,1-2.791-1.406c-.4-.278-.716-.727-1.216-.815a1.542,1.542,0,0,0-1.413,1.1,2.053,2.053,0,0,0,.736,1.14,14.668,14.668,0,0,0,4.8,2.8c1.006.489,2.145.537,3.185.926a9.8,9.8,0,0,0,2.729.253c.989.048,1.943.355,2.927.438a48.805,48.805,0,0,0,5.247.137,28,28,0,0,0,4.5-.414,22.172,22.172,0,0,1,3.371-.213c.906-.026,1.717-.5,2.614-.572a8.551,8.551,0,0,0,2.2-.307c.961-.35,2.009-.359,2.964-.733a13.915,13.915,0,0,1,1.9-.437,14.7,14.7,0,0,1,1.7-.611l.358.1c-.552.27-1.106.537-1.679.765-1.808.341-3.481,1.213-5.318,1.432a14.141,14.141,0,0,0-2.055.412c-1.219.316-2.5.2-3.722.468a13.772,13.772,0,0,1-3.124.386c-2.316-.014-4.63.111-6.946.034-.929-.028-1.856-.012-2.785-.036-1.51-.014-2.966-.486-4.47-.577a24.8,24.8,0,0,1-7.241-2.925,9.628,9.628,0,0,1-1.916-1.811A1.131,1.131,0,0,1,520.509,618.962Z" transform="translate(-520.155 -618.29)" fill="#933432"/>
      </g>
      <g id="Group_331" data-name="Group 331" transform="translate(65.928 81.516)">
        <path id="Path_766" data-name="Path 766" d="M789.213,629.525c.282-.157.6-.008.884.056a16.9,16.9,0,0,0-2.881,1.825c-.5.235-1,.477-1.511.683q-.389-.213-.775-.421a7.517,7.517,0,0,0,2.015-1.038C787.721,630.3,788.449,629.878,789.213,629.525Z" transform="translate(-784.931 -629.456)" fill="#7d7a78"/>
      </g>
      <g id="Group_332" data-name="Group 332" transform="translate(61.254 82.69)">
        <path id="Path_767" data-name="Path 767" d="M760.072,637.493c.259-.139.518-.282.781-.418l.477-.008a7.518,7.518,0,0,1-2.015,1.038q.386.208.775.421a27.78,27.78,0,0,1-2.947,1.125,8.729,8.729,0,0,1-2.5.654,9.629,9.629,0,0,1,2.131-1.126C757.855,638.581,759.021,638.152,760.072,637.493Z" transform="translate(-754.641 -637.067)" fill="#b86867"/>
      </g>
      <g id="Group_333" data-name="Group 333" transform="translate(57.127 83.116)">
        <path id="Path_768" data-name="Path 768" d="M735.32,640.537a9.755,9.755,0,0,1,2.129-.71c-1.051.659-2.217,1.088-3.3,1.686a9.625,9.625,0,0,0-2.131,1.126,25.608,25.608,0,0,1-4.127,1.245c.114-.145.227-.29.343-.432.685-.25,1.407-.39,2.077-.687,1.109-.489,2.259-.892,3.331-1.464C734.214,641.074,734.768,640.807,735.32,640.537Z" transform="translate(-727.891 -639.827)" fill="#b86867"/>
      </g>
      <g id="Group_334" data-name="Group 334" transform="translate(26.833 83.784)">
        <path id="Path_769" data-name="Path 769" d="M531.671,644.222c.066-.015.2-.049.262-.065a24.8,24.8,0,0,0,7.241,2.925c-.273.025-.545.059-.816.086a23.448,23.448,0,0,1-6.807-2.856Z" transform="translate(-531.551 -644.157)" fill="#b34c4a"/>
      </g>
      <g id="Group_335" data-name="Group 335" transform="translate(34.457 84.591)">
        <path id="Path_770" data-name="Path 770" d="M604.063,650.819c1.838-.219,3.51-1.091,5.318-1.432-1.072.572-2.222.975-3.331,1.464-.67.3-1.392.437-2.077.687-1.089.423-2.284.366-3.385.737-.989.321-2.044.284-3.052.515a24.5,24.5,0,0,1-5.309.431c-1.265,0-2.533.054-3.8-.059-1.173-.876-2.7-.429-4.029-.77a18.067,18.067,0,0,1-3.441-.887c1.5.091,2.959.563,4.47.577.929.023,1.856.008,2.785.036,2.316.077,4.63-.048,6.946-.034a13.772,13.772,0,0,0,3.125-.386c1.225-.272,2.5-.151,3.721-.468A14.134,14.134,0,0,1,604.063,650.819Z" transform="translate(-580.961 -649.387)" fill="#d34443"/>
      </g>
      <g id="Group_336" data-name="Group 336" transform="translate(33.641 86.709)">
        <path id="Path_771" data-name="Path 771" d="M575.671,663.2c.271-.028.543-.062.816-.086a18.06,18.06,0,0,0,3.441.887c1.332.341,2.856-.106,4.029.77-.91.062-1.822.076-2.734.051-.088-.432-.582-.323-.9-.393a25.681,25.681,0,0,1-2.753-.659A13.541,13.541,0,0,1,575.671,663.2Z" transform="translate(-575.671 -663.117)" fill="#d95957"/>
      </g>
      <g id="Group_337" data-name="Group 337" transform="translate(38.12 86.742)">
        <path id="Path_772" data-name="Path 772" d="M620.666,664.065c1.1-.372,2.3-.315,3.385-.738-.116.142-.228.287-.343.432-1.362.29-2.7.711-4.086.889-1.092.159-2.152.509-3.259.572a42.141,42.141,0,0,0-4.522.093,39.113,39.113,0,0,1-4.1-.074,15.542,15.542,0,0,0-2.274-.018,5.292,5.292,0,0,1-.764-.187q.535-.021,1.072-.031c.912.025,1.824.011,2.734-.051,1.264.113,2.532.056,3.8.059a24.5,24.5,0,0,0,5.309-.431C618.621,664.348,619.677,664.385,620.666,664.065Z" transform="translate(-604.701 -663.327)" fill="#a05150"/>
      </g>
      <g id="Group_338" data-name="Group 338" transform="translate(38.884 88.581)">
        <path id="Path_773" data-name="Path 773" d="M609.651,675.3a15.541,15.541,0,0,1,2.274.019,39.132,39.132,0,0,0,4.1.074,42.14,42.14,0,0,1,4.522-.093,21.954,21.954,0,0,1-3.751.458c-1.7-.028-3.4,0-5.1-.006A5.03,5.03,0,0,1,609.651,675.3Z" transform="translate(-609.651 -675.247)" fill="#825b58"/>
      </g>
      <g id="Group_339" data-name="Group 339" transform="translate(51.866 99.042)">
        <path id="Path_774" data-name="Path 774" d="M693.791,743.369c0-.224.248-.245.4-.322a1.824,1.824,0,0,0,1.057.6,12.993,12.993,0,0,0,2.12-.279,8.719,8.719,0,0,1,1.592.035c-1.062.1-2.074.477-3.132.591A2.435,2.435,0,0,1,693.791,743.369Z" transform="translate(-693.791 -743.047)" fill="#928f8e"/>
      </g>
    </g>
    <g id="Group_341" data-name="Group 341" transform="translate(476.859 134.671)">
      <path id="Path_775" data-name="Path 775" d="M1139.538,344.087q0,2.625,1.129,3.132a9.169,9.169,0,0,0,3.247.6h.23V349.2h-13.818v-1.428c.03.031.053.046.069.046h.069a9.063,9.063,0,0,0,3.339-.622q1.128-.529,1.128-3.063V323.59q0-2.487-1.151-3.017a9.162,9.162,0,0,0-3.316-.622h-.138v-1.474h10.824q.644.047,1.313.046t1.313.046a19.529,19.529,0,0,1,7.323,1.516q3.316,1.424,3.316,6.568a8.067,8.067,0,0,1-.99,3.926,7.2,7.2,0,0,1-2.879,2.871,7.378,7.378,0,0,1-2.28.826,16.413,16.413,0,0,1-2.418.276q-.461.046-.921.046h-5.389Zm3.547-10.916a5.844,5.844,0,0,0,4.744-1.8,7.148,7.148,0,0,0,1.612-4.882q0-3.684-1.75-5.182a7.993,7.993,0,0,0-5.3-1.5h-.714a5.881,5.881,0,0,0-.714.046q-.369,0-.714.023c-.23.016-.469.023-.714.023v13.265Z" transform="translate(-1130.326 -318.478)" fill="#2d2a26"/>
      <path id="Path_776" data-name="Path 776" d="M1318.538,349.2v-1.428a9.067,9.067,0,0,0,3.455-.576q1.151-.529,1.151-3.063V320h-5.158q-2.948.046-4.168,1.773a14.266,14.266,0,0,0-1.958,4.214l-1.382-.046.783-7.461h28.28l.783,7.461h-1.335a15.815,15.815,0,0,0-2-4.145q-1.221-1.75-4.168-1.75l-5.159-.046v24.088q0,2.625,1.151,3.132a9.245,9.245,0,0,0,3.224.6h.23V349.2Z" transform="translate(-1282.682 -318.478)" fill="#2d2a26"/>
      <path id="Path_777" data-name="Path 777" d="M1509.269,492.708a2.407,2.407,0,0,1-.76-1.8,2.595,2.595,0,0,1,2.579-2.579,2.408,2.408,0,0,1,1.8.76,2.524,2.524,0,0,1,.737,1.819,2.516,2.516,0,0,1-2.533,2.533A2.524,2.524,0,0,1,1509.269,492.708Z" transform="translate(-1450.158 -462.125)" fill="#2d2a26"/>
      <path id="Path_778" data-name="Path 778" d="M1579.167,349.2v-1.428c.03.031.053.046.069.046h.069a9.064,9.064,0,0,0,3.339-.622q1.128-.529,1.128-3.063V323.59q0-2.487-1.151-3.017a9.162,9.162,0,0,0-3.316-.622h-.138v-1.474h13.817v1.428q-.323.046-.691.069t-.737.069a6.963,6.963,0,0,0-1.105.184,4.943,4.943,0,0,0-1.013.368,1.485,1.485,0,0,0-.76.852,4.447,4.447,0,0,0-.253,1.174,3.2,3.2,0,0,0-.046.53v20.934q0,2.625,1.128,3.132a9.171,9.171,0,0,0,3.247.6h.23V349.2Z" transform="translate(-1509.914 -318.478)" fill="#2d2a26"/>
      <path id="Path_779" data-name="Path 779" d="M1702.073,390.6q.092.231.161.391a2.363,2.363,0,0,1,.115.346,4.881,4.881,0,0,1,.253,1.036,8.345,8.345,0,0,1,.069,1.082,13.33,13.33,0,0,1,3.27-2.211,8.812,8.812,0,0,1,3.823-.829q3.085,0,4.352,1.727a7.5,7.5,0,0,1,1.267,4.537v8.245a5.164,5.164,0,0,0,.6,2.717,2.743,2.743,0,0,0,2.441,1.013v1.382h-9.949v-1.428a2.659,2.659,0,0,0,2.441-.967,5.069,5.069,0,0,0,.6-2.672v-7.784a5.379,5.379,0,0,0-.875-3.2,3.548,3.548,0,0,0-3.086-1.22,5.3,5.3,0,0,0-2.626.668,13.322,13.322,0,0,0-2.257,1.589v9.9a5.015,5.015,0,0,0,.622,2.717,2.81,2.81,0,0,0,2.464,1.013v1.382h-9.995v-1.428a2.721,2.721,0,0,0,2.464-.967,4.912,4.912,0,0,0,.622-2.672v-7.968a4.669,4.669,0,0,0-.668-2.648,2.8,2.8,0,0,0-2.418-1.036v-1.428q1.612-.184,3.178-.484t3.132-.76Z" transform="translate(-1608.52 -379.32)" fill="#2d2a26"/>
      <path id="Path_780" data-name="Path 780" d="M1869.973,356.918h-5.112V368.8c0,.215.007.422.023.622s.038.392.069.576a4.477,4.477,0,0,0,.645,1.773,1.676,1.676,0,0,0,1.52.806,2.726,2.726,0,0,0,1.658-.507,9.086,9.086,0,0,0,1.289-1.151l.161-.161.161-.161.921.737a8.925,8.925,0,0,1-2.349,2.51,5.426,5.426,0,0,1-3.27,1.036q-2.81,0-3.731-1.819a9.2,9.2,0,0,1-.921-4.214V356.918h-2.257v-1.013a3.863,3.863,0,0,0,2.9-1.773,9.545,9.545,0,0,0,1.382-3.293,6.961,6.961,0,0,0,.184-1.105q.045-.553.046-1.059l1.566-.046v6.817h5.112Z" transform="translate(-1746.386 -343.976)" fill="#2d2a26"/>
      <path id="Path_781" data-name="Path 781" d="M1964.495,399.77q0,.553.023,1.083t.069,1.036a11.5,11.5,0,0,0,1.474,4.79,4.571,4.571,0,0,0,4.329,2.165,5.8,5.8,0,0,0,3.408-.967,10.278,10.278,0,0,0,2.487-2.533l1.336.691a9.773,9.773,0,0,1-3.362,3.362,8.91,8.91,0,0,1-4.56,1.151,8.777,8.777,0,0,1-6.863-2.81,10.064,10.064,0,0,1-2.533-7,11.337,11.337,0,0,1,2.441-7.208,8.176,8.176,0,0,1,6.817-3.109,6.918,6.918,0,0,1,5.988,2.887,10.817,10.817,0,0,1,2.073,6.462Zm9.073-1.8v-.23a8.726,8.726,0,0,0-.852-3.869,3.392,3.392,0,0,0-3.385-1.75,3.844,3.844,0,0,0-3.5,1.737,7.947,7.947,0,0,0-1.244,3.793.8.8,0,0,0-.046.252v.251h8.982A.408.408,0,0,1,1973.568,397.974Z" transform="translate(-1832.244 -379.32)" fill="#2d2a26"/>
      <path id="Path_782" data-name="Path 782" d="M2111.3,393.414a9.914,9.914,0,0,1,.622,1.428,7.38,7.38,0,0,1,.345,1.52c0,.184.007.361.023.53s.023.33.023.484a6.17,6.17,0,0,1-1.865,4.652,7.183,7.183,0,0,1-4.675,1.98q-.415,0-1.22.046a11.389,11.389,0,0,0-1.681.23,8.255,8.255,0,0,0-2.119.53,1.465,1.465,0,0,0-1.059,1.128.7.7,0,0,0,.369.691,2.294,2.294,0,0,0,.783.23h.6q1.749,0,3.477.092l3.431.184a11.048,11.048,0,0,1,4.905,1.474q2.049,1.244,2.049,4.514a7.57,7.57,0,0,1-3.178,6.586,12.161,12.161,0,0,1-8.728,2.142q-.853-.116-1.727-.3a12.061,12.061,0,0,1-4.237-2.05,4.618,4.618,0,0,1-1.935-3.892,4.227,4.227,0,0,1,1.635-3.385,5.74,5.74,0,0,1,3.616-1.4h.323a.751.751,0,0,1,.23.046.732.732,0,0,1,.184.023.773.773,0,0,0,.184.023l-.46.369a4.76,4.76,0,0,0-.415.368,7.951,7.951,0,0,0-1.474,1.5,3.423,3.423,0,0,0-.6,2.1,3.758,3.758,0,0,0,1.566,3.247,8.2,8.2,0,0,0,3.454,1.451,5.155,5.155,0,0,0,.806.115q.39.023.76.023.46,0,.921-.046t.921-.138a8.238,8.238,0,0,0,3.524-1.474,3.845,3.845,0,0,0,1.589-3.316,2.937,2.937,0,0,0-1.359-2.718,6.794,6.794,0,0,0-3.017-.967c-.154,0-.33-.008-.53-.023s-.407-.039-.622-.069q-.737-.046-1.612-.092t-1.75-.138a13.245,13.245,0,0,1-4.1-1.152,3.166,3.166,0,0,1-1.842-3.132,2.642,2.642,0,0,1,1.036-2.165,5.541,5.541,0,0,1,2.233-1.105,4.384,4.384,0,0,1,.507-.138,2.382,2.382,0,0,1,.46-.046,6.042,6.042,0,0,1-3.109-2.188,5.957,5.957,0,0,1-1.128-3.616,6.7,6.7,0,0,1,2.118-5.2,7.62,7.62,0,0,1,5.343-1.934c.184,0,.36.008.53.023s.345.023.53.023a10.459,10.459,0,0,1,2.6.714,5.493,5.493,0,0,1,2.142,1.589,7.871,7.871,0,0,1,1.911-1.612,4.759,4.759,0,0,1,2.326-.737h.253a.827.827,0,0,1,.253.046,2.479,2.479,0,0,1,1.2.53,1.421,1.421,0,0,1,.552,1.174,1.923,1.923,0,0,1-.415,1.221,1.38,1.38,0,0,1-1.152.53,1.221,1.221,0,0,1-.714-.207,4.161,4.161,0,0,1-.576-.484q-.276-.23-.576-.437a1.222,1.222,0,0,0-.714-.207,1.858,1.858,0,0,0-.944.253,3.91,3.91,0,0,0-.806.622Zm-2.625,3.915v-.576a4.5,4.5,0,0,0-.046-.622,7.783,7.783,0,0,0-.9-3.109,2.882,2.882,0,0,0-2.787-1.4,2.811,2.811,0,0,0-2.625,1.312,7.759,7.759,0,0,0-1.013,2.879,7.517,7.517,0,0,0-.115.967q-.023.461-.023.921c0,.184.007.384.023.6s.038.43.069.645a6.766,6.766,0,0,0,.967,2.787,2.75,2.75,0,0,0,2.533,1.266,3.019,3.019,0,0,0,2.718-1.336,7.213,7.213,0,0,0,1.1-2.994c.03-.214.053-.43.069-.645s.023-.43.023-.645Z" transform="translate(-1946.579 -379.32)" fill="#2d2a26"/>
      <path id="Path_783" data-name="Path 783" d="M2265.872,396.795v9.4q0,2.165.622,2.764a5.036,5.036,0,0,0,2.372.967.765.765,0,0,1,.184.023.735.735,0,0,0,.184.023V411.3h-10.271v-1.428a2.721,2.721,0,0,0,2.464-.967,4.913,4.913,0,0,0,.622-2.672v-7.968a4.669,4.669,0,0,0-.668-2.648,2.8,2.8,0,0,0-2.418-1.036v-1.428q1.612-.184,3.178-.484t3.132-.76a4.138,4.138,0,0,1,.53,1.681q.069.853.069,1.773a11.389,11.389,0,0,1,2.372-2.326,5.114,5.114,0,0,1,3.109-1.036,2.994,2.994,0,0,1,1.888.645,2.1,2.1,0,0,1,.829,1.75v.23a2.185,2.185,0,0,1-.53,1.105,1.524,1.524,0,0,1-1.083.553,1.319,1.319,0,0,1-.852-.276,7.931,7.931,0,0,1-.668-.6v-.046a7.417,7.417,0,0,0-.645-.576,1.305,1.305,0,0,0-.829-.253,3.6,3.6,0,0,0-2.1.691,4.785,4.785,0,0,0-1.5,1.612Z" transform="translate(-2084.823 -380.583)" fill="#2d2a26"/>
      <path id="Path_784" data-name="Path 784" d="M2388.377,349.2v14.324a5.015,5.015,0,0,0,.622,2.717,2.809,2.809,0,0,0,2.464,1.013v1.382h-9.995V367.21a2.721,2.721,0,0,0,2.464-.967,4.913,4.913,0,0,0,.622-2.672V355.6a4.671,4.671,0,0,0-.668-2.648,2.8,2.8,0,0,0-2.418-1.036v-1.428q1.2-.138,2.326-.322t2.28-.415q.6-.138,1.174-.253t1.129-.253Zm-3.546-3.8a2.207,2.207,0,0,1,0-3.293,2.509,2.509,0,0,1,1.7-.645,2.221,2.221,0,0,1,1.612.684,2.189,2.189,0,0,1,0,3.192,2.22,2.22,0,0,1-1.612.683A2.285,2.285,0,0,1,2384.831,345.4Z" transform="translate(-2188.427 -337.917)" fill="#2d2a26"/>
      <path id="Path_785" data-name="Path 785" d="M2474.033,356.918h-5.112V368.8c0,.215.007.422.023.622s.038.392.069.576a4.477,4.477,0,0,0,.645,1.773,1.676,1.676,0,0,0,1.52.806,2.727,2.727,0,0,0,1.658-.507,9.112,9.112,0,0,0,1.289-1.151l.161-.161.161-.161.921.737a8.918,8.918,0,0,1-2.349,2.51,5.426,5.426,0,0,1-3.27,1.036q-2.81,0-3.731-1.819a9.2,9.2,0,0,1-.921-4.214V356.918h-2.257v-1.013a3.863,3.863,0,0,0,2.9-1.773,9.544,9.544,0,0,0,1.382-3.293,6.935,6.935,0,0,0,.185-1.105q.045-.553.046-1.059l1.566-.046v6.817h5.112Z" transform="translate(-2257.244 -343.976)" fill="#2d2a26"/>
      <path id="Path_786" data-name="Path 786" d="M2579.807,395.086l-.461.046a4.152,4.152,0,0,0-1.612.507,3.068,3.068,0,0,0-1.059,1.29l-9.81,21.417q-.277.6-.576,1.313t-.668,1.451a15.658,15.658,0,0,1-1.98,2.971,3.555,3.555,0,0,1-2.809,1.359h-.323a2.825,2.825,0,0,1-1.335-.53,1.472,1.472,0,0,1-.6-1.267,2.017,2.017,0,0,1,.069-.53,1.332,1.332,0,0,1,.254-.484.739.739,0,0,1,.184.023.762.762,0,0,0,.184.023.607.607,0,0,1,.138.023.773.773,0,0,0,.184.023,4.689,4.689,0,0,0,3.754-1.889,22.541,22.541,0,0,0,2.694-4.191q.6-1.2,1.105-2.372t.921-2l-7.185-15.383a3.177,3.177,0,0,0-1.152-1.29,3.5,3.5,0,0,0-1.658-.461V393.7h8.8v1.382a1.6,1.6,0,0,1-.392.046,2.279,2.279,0,0,0-.437.046,2.05,2.05,0,0,0-.783.253.709.709,0,0,0-.368.668,1.235,1.235,0,0,0,.069.391,3.748,3.748,0,0,1,.115.438l4.974,10.731,4.836-10.777c.03-.061.062-.13.093-.208s.061-.161.092-.253.061-.177.092-.253a.679.679,0,0,0,.046-.253v-.092a.474.474,0,0,0-.323-.461,2.563,2.563,0,0,0-.691-.184,1.637,1.637,0,0,1-.276-.023,1.686,1.686,0,0,0-.276-.023h-.23l-.322-.046V393.7h6.725Z" transform="translate(-2337.777 -382.098)" fill="#2d2a26"/>
    </g>
  </g>
</svg>
