<svg xmlns="http://www.w3.org/2000/svg" width="63.442" height="50" viewBox="0 0 63.442 50">
  <g id="audit" transform="translate(0 -54.241)">
    <g id="Group_88" data-name="Group 88" transform="translate(0 54.241)">
      <path id="Path_155" data-name="Path 155" d="M61.893,73.154h-2.2V62.042a1.551,1.551,0,0,0-1.549-1.549h-19.4v-4.7A1.551,1.551,0,0,0,37.2,54.241H12.763a.929.929,0,1,0,0,1.859H36.887v6.589a11.936,11.936,0,0,0-12.535,2.739H7.7a.929.929,0,0,0,0,1.859H22.822a11.921,11.921,0,0,0-1.263,2.473h-6.07a.929.929,0,1,0,0,1.859h5.548a11.963,11.963,0,0,0-.22,2.286c0,.062,0,.125,0,.187H7.7a.929.929,0,0,0,0,1.859H20.993a11.85,11.85,0,0,0,.712,2.473H7.7a.929.929,0,1,0,0,1.859H22.665a12.04,12.04,0,0,0,2.08,2.473H18.586a.929.929,0,0,0,0,1.859h8.883a11.928,11.928,0,0,0,9.294.55v17.219H1.859V56.1H8.426a.929.929,0,1,0,0-1.859H1.549A1.551,1.551,0,0,0,0,55.79v46.9a1.551,1.551,0,0,0,1.549,1.549H53.157a.929.929,0,1,0,0-1.859H38.746V84.244c.162-.094.323-.19.48-.292l1.936,1.936a1.549,1.549,0,0,0,.376,1.573L48.6,94.519a3.381,3.381,0,0,0,5.728-2.939h7.259v2.205H57.37a.929.929,0,0,0,0,1.859h4.213v2.205H49.44a.929.929,0,1,0,0,1.859H61.583v2.674H57.494a.929.929,0,1,0,0,1.859h4.4a1.551,1.551,0,0,0,1.549-1.549V74.7a1.551,1.551,0,0,0-1.549-1.549Zm-4.061-10.8v2.205H47.458a.929.929,0,1,0,0,1.859H57.832v2.205H47.458a.929.929,0,1,0,0,1.859H57.832v2.674H44.69a11.962,11.962,0,0,0-5.944-9.591V62.352H57.832ZM32.766,83.994A10.09,10.09,0,1,1,42.856,73.9,10.1,10.1,0,0,1,32.766,83.994Zm7.952-1.18a12.067,12.067,0,0,0,.959-.959l1.639,1.639-.959.959ZM52.067,93.205a1.526,1.526,0,0,1-2.155,0l-6.839-6.839,2.155-2.155,6.839,6.839A1.526,1.526,0,0,1,52.067,93.205Zm1.3-3.484-7.044-7.044a1.549,1.549,0,0,0-1.573-.376l-1.936-1.936a11.871,11.871,0,0,0,1.848-5.352H61.583V77.53H52.414a.929.929,0,1,0,0,1.859h9.169v2.205H50.431a.929.929,0,1,0,0,1.859H61.583v2.205h-6.2a.929.929,0,1,0,0,1.859h6.2v2.205H53.367Z" transform="translate(0 -54.241)" fill="#fff"/>
      <path id="Path_156" data-name="Path 156" d="M109.721,103.359a.929.929,0,0,0,0-1.859H97.355a.929.929,0,0,0,0,1.859Z" transform="translate(-84.478 -95.644)" fill="#fff"/>
      <path id="Path_157" data-name="Path 157" d="M55.579,181.34h4.814a.929.929,0,1,0,0-1.859H55.579a.929.929,0,1,0,0,1.859Z" transform="translate(-47.878 -163.963)" fill="#fff"/>
      <path id="Path_158" data-name="Path 158" d="M63.367,284.352H55.579a.929.929,0,1,0,0,1.859h7.788a.929.929,0,1,0,0-1.859Z" transform="translate(-47.878 -255.839)" fill="#fff"/>
      <path id="Path_159" data-name="Path 159" d="M78.3,319.309H55.579a.929.929,0,0,0,0,1.859H78.3a.929.929,0,0,0,0-1.859Z" transform="translate(-47.878 -286.464)" fill="#fff"/>
      <path id="Path_160" data-name="Path 160" d="M193.811,354.266h-6.381a.929.929,0,1,0,0,1.859h6.381a.929.929,0,1,0,0-1.859Z" transform="translate(-163.391 -317.09)" fill="#fff"/>
      <path id="Path_161" data-name="Path 161" d="M55.579,356.125H68.943a.929.929,0,0,0,0-1.859H55.579a.929.929,0,1,0,0,1.859Z" transform="translate(-47.878 -317.09)" fill="#fff"/>
      <path id="Path_162" data-name="Path 162" d="M55.579,391.082H78.3a.929.929,0,0,0,0-1.859H55.579a.929.929,0,0,0,0,1.859Z" transform="translate(-47.878 -347.715)" fill="#fff"/>
      <path id="Path_163" data-name="Path 163" d="M209.731,151.571a.929.929,0,0,0-1.144.647,6.992,6.992,0,1,1-.027-3.827.929.929,0,1,0,1.784-.522,8.851,8.851,0,1,0,.034,4.846.929.929,0,0,0-.647-1.144Z" transform="translate(-169.084 -130.688)" fill="#fff"/>
      <path id="Path_164" data-name="Path 164" d="M242.792,182.206a.929.929,0,1,0,0-1.859h-4.964a.929.929,0,1,0,0,1.859Z" transform="translate(-207.544 -164.721)" fill="#fff"/>
      <path id="Path_165" data-name="Path 165" d="M235.283,206.359a.929.929,0,0,0-.929-.929h-7.744a.929.929,0,1,0,0,1.859h7.744A.929.929,0,0,0,235.283,206.359Z" transform="translate(-197.716 -186.696)" fill="#fff"/>
      <path id="Path_166" data-name="Path 166" d="M244.238,230.514a.929.929,0,0,0,0,1.859h3.376a.929.929,0,1,0,0-1.859Z" transform="translate(-213.161 -208.672)" fill="#fff"/>
    </g>
  </g>
</svg>
