<svg id="finance" xmlns="http://www.w3.org/2000/svg" width="50" height="50" viewBox="0 0 50 50">
  <g id="Group_90" data-name="Group 90">
    <g id="Group_89" data-name="Group 89">
      <path id="Path_167" data-name="Path 167" d="M30.876,198.08H54.285a.716.716,0,0,0,.758-.758v-7.576a.759.759,0,0,0-.758-.758H30.876a.716.716,0,0,0-.758.758v7.576A.716.716,0,0,0,30.876,198.08Zm.758-7.576H53.527v6.061H31.633Z" transform="translate(-27.088 -169.974)" fill="#fff"/>
      <path id="Path_168" data-name="Path 168" d="M38.575,292.894H35.394a.716.716,0,0,0-.758.758v3.106a.716.716,0,0,0,.758.758H38.5a.716.716,0,0,0,.758-.758v-3.182C39.333,293.2,38.954,292.894,38.575,292.894ZM36.151,296v-1.667h1.591V296Z" transform="translate(-31.151 -263.424)" fill="#fff"/>
      <path id="Path_169" data-name="Path 169" d="M38.575,356.141H35.394a.716.716,0,0,0-.758.758v3.182a.716.716,0,0,0,.758.758H38.5a.716.716,0,0,0,.758-.758V356.9A.66.66,0,0,0,38.575,356.141Zm-2.424,3.182v-1.667h1.591v1.667Z" transform="translate(-31.151 -320.308)" fill="#fff"/>
      <path id="Path_170" data-name="Path 170" d="M38.575,419.388H35.394a.716.716,0,0,0-.758.758v3.182a.716.716,0,0,0,.758.758H38.5a.716.716,0,0,0,.758-.758v-3.182A.7.7,0,0,0,38.575,419.388Zm-2.424,3.182V420.9h1.591v1.667Z" transform="translate(-31.151 -377.191)" fill="#fff"/>
      <path id="Path_171" data-name="Path 171" d="M102.574,292.894H99.393a.716.716,0,0,0-.758.758v3.106a.716.716,0,0,0,.758.758h3.182a.716.716,0,0,0,.758-.758v-3.182A.747.747,0,0,0,102.574,292.894ZM101.817,296H100.15v-1.667h1.667Z" transform="translate(-88.711 -263.424)" fill="#fff"/>
      <path id="Path_172" data-name="Path 172" d="M102.574,356.141H99.393a.716.716,0,0,0-.758.758v3.182a.716.716,0,0,0,.758.758h3.182a.716.716,0,0,0,.758-.758V356.9A.759.759,0,0,0,102.574,356.141Zm-.758,3.182H100.15v-1.667h1.667Z" transform="translate(-88.711 -320.308)" fill="#fff"/>
      <path id="Path_173" data-name="Path 173" d="M102.574,419.388H99.393a.716.716,0,0,0-.758.758v3.182a.716.716,0,0,0,.758.758h3.182a.716.716,0,0,0,.758-.758v-3.182A.815.815,0,0,0,102.574,419.388Zm-.758,3.182H100.15V420.9h1.667Z" transform="translate(-88.711 -377.191)" fill="#fff"/>
      <path id="Path_174" data-name="Path 174" d="M167.252,292.894h-3.106a.716.716,0,0,0-.758.758v3.106a.716.716,0,0,0,.758.758h3.106a.716.716,0,0,0,.758-.758v-3.182A.747.747,0,0,0,167.252,292.894ZM166.494,296H164.9v-1.667h1.591Z" transform="translate(-146.949 -263.424)" fill="#fff"/>
      <path id="Path_175" data-name="Path 175" d="M167.252,356.141h-3.106a.716.716,0,0,0-.758.758v3.182a.716.716,0,0,0,.758.758h3.106a.716.716,0,0,0,.758-.758V356.9A.759.759,0,0,0,167.252,356.141Zm-.758,3.182H164.9v-1.667h1.591Z" transform="translate(-146.949 -320.308)" fill="#fff"/>
      <path id="Path_176" data-name="Path 176" d="M167.252,419.388h-3.106a.716.716,0,0,0-.758.758v3.182a.716.716,0,0,0,.758.758h3.106a.716.716,0,0,0,.758-.758v-3.182A.815.815,0,0,0,167.252,419.388Zm-.758,3.182H164.9V420.9h1.591Z" transform="translate(-146.949 -377.191)" fill="#fff"/>
      <path id="Path_177" data-name="Path 177" d="M230.5,292.894h-3.106a.716.716,0,0,0-.758.758v3.106a.716.716,0,0,0,.758.758H230.5a.716.716,0,0,0,.758-.758v-3.182A.7.7,0,0,0,230.5,292.894ZM229.741,296H228.15v-1.667h1.591Z" transform="translate(-203.832 -263.424)" fill="#fff"/>
      <path id="Path_178" data-name="Path 178" d="M230.5,356.141h-3.106a.716.716,0,0,0-.758.758v9.546a.716.716,0,0,0,.758.758H230.5a.716.716,0,0,0,.758-.758V356.9A.716.716,0,0,0,230.5,356.141Zm-.758,9.546H228.15v-8.03h1.591Z" transform="translate(-203.832 -320.308)" fill="#fff"/>
      <path id="Path_179" data-name="Path 179" d="M49.773,13.182,36.288.227A.818.818,0,0,0,35.758,0H9.7a.716.716,0,0,0-.758.758v15H.758A.716.716,0,0,0,0,16.515V49.242A.716.716,0,0,0,.758,50H49.242A.716.716,0,0,0,50,49.242V13.712C50,13.561,49.924,13.258,49.773,13.182ZM36.515,2.5,47.349,12.879H36.515ZM29.47,48.485H1.515V17.273H29.47V48.485Zm19.015,0h-17.5V16.515a.716.716,0,0,0-.758-.758H10.455V1.515H35v12.2a.716.716,0,0,0,.758.758H48.485C48.485,40.455,48.485,48.106,48.485,48.485Z" fill="#fff"/>
      <path id="Path_180" data-name="Path 180" d="M153.021,47.435H137.794a.758.758,0,1,0,0,1.515h15.227a.758.758,0,1,0,0-1.515Z" transform="translate(-123.248 -42.662)" fill="#fff"/>
      <path id="Path_181" data-name="Path 181" d="M153.021,91.859H137.794a.758.758,0,0,0,0,1.515h15.227a.758.758,0,0,0,0-1.515Z" transform="translate(-123.248 -82.617)" fill="#fff"/>
      <path id="Path_182" data-name="Path 182" d="M331.038,317.741a7.349,7.349,0,1,0,7.273,7.348A7.291,7.291,0,0,0,331.038,317.741Zm0,13.106a5.834,5.834,0,1,1,5.758-5.833A5.772,5.772,0,0,1,331.038,330.847Z" transform="translate(-291.189 -285.771)" fill="#fff"/>
      <path id="Path_183" data-name="Path 183" d="M372.587,350.221a3.4,3.4,0,0,0-1.818-.833v-2.045a3.758,3.758,0,0,1,1.515.606l.682-.985a4.9,4.9,0,0,0-2.2-.833v-.53h-.682v.53a2.116,2.116,0,0,0-1.667.682,1.907,1.907,0,0,0-.682,1.515,1.886,1.886,0,0,0,.53,1.439,4.151,4.151,0,0,0,1.742.758v2.121a3.2,3.2,0,0,1-1.818-.909l-.758.909a5.021,5.021,0,0,0,2.652,1.212v.758h.682v-.758a2.283,2.283,0,0,0,1.742-.682,1.907,1.907,0,0,0,.682-1.515A1.823,1.823,0,0,0,372.587,350.221Zm-2.5-1.061h0a2.9,2.9,0,0,1-.833-.379.746.746,0,0,1-.227-.606.689.689,0,0,1,.3-.606,1.758,1.758,0,0,1,.758-.3Zm1.439,3.182a1.379,1.379,0,0,1-.833.3v-1.97a6.563,6.563,0,0,1,.909.379.86.86,0,0,1,.227.606A.738.738,0,0,1,371.527,352.342Z" transform="translate(-330.466 -310.827)" fill="#fff"/>
      <path id="Path_184" data-name="Path 184" d="M317.911,161.347c-.076,0,0,0,0,.076l-3.106,6.591a.723.723,0,0,0,.227.909.794.794,0,0,0,.909.076l5.985-4.091.076-.076a.074.074,0,0,0,.076-.076l8.333-9.773a2.662,2.662,0,0,0-.3-3.788,2.779,2.779,0,0,0-3.788.3l-8.333,9.773A.074.074,0,0,1,317.911,161.347Zm9.621-8.864a1.174,1.174,0,0,1,1.591-.152,1.194,1.194,0,0,1,.152,1.667l-7.879,9.167-1.742-1.515Zm-7.273,11.667-2.879,1.97,1.515-3.182Z" transform="translate(-283.062 -135.437)" fill="#fff"/>
    </g>
  </g>
</svg>
