<svg xmlns="http://www.w3.org/2000/svg" width="61.161" height="50" viewBox="0 0 61.161 50">
  <g id="team-management" transform="translate(0 -46.718)">
    <path id="Path_185" data-name="Path 185" d="M23.764,82.08a.893.893,0,1,1,1.693-.565,5.445,5.445,0,0,0,1.974,2.672A5.4,5.4,0,0,0,35.7,81.514a.893.893,0,1,1,1.693.565,7.189,7.189,0,0,1-13.633,0Zm27.855-24.3L48.281,56.65l-2.137,1.043v.951a2.738,2.738,0,0,0,5.476,0Zm-5.476-2.072,1.629-.8a.881.881,0,0,1,.735-.071l3.112,1.053V54.75a1.131,1.131,0,0,0-.332-.8,1.148,1.148,0,0,0-.806-.335h-3.2a1.144,1.144,0,0,0-1.138,1.138v.958Zm-36.6-.681h5.476V53.612H10.68A1.145,1.145,0,0,0,9.542,54.75v.278Zm5.476,1.791H9.542v1.825a2.738,2.738,0,0,0,5.476,0V56.819Zm18.3-4.134a4.888,4.888,0,0,1-3.664-1.009,3.769,3.769,0,0,1-1.812.454v1.412a2.738,2.738,0,0,0,5.476,0v-.857Zm-5.476-2.34a1.983,1.983,0,0,0,1.317-.474l.017-.014a.9.9,0,0,1,1.26.092,3.089,3.089,0,0,0,2.882.945V49.647a1.144,1.144,0,0,0-1.138-1.138h-3.2a1.135,1.135,0,0,0-.8.335,1.121,1.121,0,0,0-.335.8Zm-11.036,8.3A4.522,4.522,0,0,1,16.2,60.92,4.338,4.338,0,0,1,19.8,65.183v1.456l.244-.244a.831.831,0,0,1,.119-.1,1.533,1.533,0,0,1,.951-.352,1.5,1.5,0,0,1,1.036.42c.014.01.024.024.037.034l.87.867V60.08a4.337,4.337,0,0,1,3.606-4.263,4.515,4.515,0,0,1-.616-2.276V49.647a2.937,2.937,0,0,1,2.933-2.929h3.2a2.937,2.937,0,0,1,2.929,2.929v3.894a4.481,4.481,0,0,1-.616,2.276A4.336,4.336,0,0,1,38.1,60.08v7.182l.867-.867a.573.573,0,0,1,.122-.1,1.453,1.453,0,0,1,.955-.352,1.557,1.557,0,0,1,1.019.41.616.616,0,0,0,.047.044l.244.244V65.183a4.336,4.336,0,0,1,3.61-4.263,4.49,4.49,0,0,1-.616-2.276V54.75a2.937,2.937,0,0,1,2.929-2.929h3.2a2.937,2.937,0,0,1,2.932,2.929v3.894A4.524,4.524,0,0,1,52.8,60.92,4.337,4.337,0,0,1,56.4,65.183v4.791a29.016,29.016,0,0,1,2.181,2.154,1.325,1.325,0,0,1,.379.931,1.466,1.466,0,0,1-.4.979l-.7.7a8.38,8.38,0,0,1,.538,1.124c.156.393.288.786.4,1.155h1.026a1.3,1.3,0,0,1,1.334,1.375v2.841a1.354,1.354,0,0,1-.379.958,1.387,1.387,0,0,1-.992.379H58.8c-.112.369-.244.762-.4,1.155a8.38,8.38,0,0,1-.538,1.124l.721.721a1.482,1.482,0,0,1,.379.958,1.294,1.294,0,0,1-.345.891.375.375,0,0,1-.034.037v0L56.546,89.5a1.268,1.268,0,0,1-1.907-.017l-.708-.708a9.856,9.856,0,0,1-1.124.535c-.362.146-.728.267-1.148.4v1.033a1.359,1.359,0,0,1-.383.965,1.276,1.276,0,0,1-.955.366v.007H47.444a1.348,1.348,0,0,1-.962-.372,1.39,1.39,0,0,1-.376-.992V89.705c-.423-.132-.786-.254-1.148-.4-.19-.078-.376-.159-.566-.247a1.566,1.566,0,0,1,.017.22,1.486,1.486,0,0,1-.437,1.056L41.115,93.2a1.5,1.5,0,0,1-2.164-.02l-1.2-1.2a13.815,13.815,0,0,1-1.785.87c-.572.23-1.148.417-1.849.633V95.2a1.556,1.556,0,0,1-.427,1.1,1.466,1.466,0,0,1-1.087.41v0H28.556a1.52,1.52,0,0,1-1.09-.413,1.579,1.579,0,0,1-.427-1.114v-1.71l-.013,0c-.694-.213-1.266-.4-1.832-.63a13.845,13.845,0,0,1-1.788-.87L22.19,93.2a1.489,1.489,0,0,1-2.093.041.612.612,0,0,1-.047-.044l0,0-2.865-2.868a1.5,1.5,0,0,1-.43-1.05,1.565,1.565,0,0,1,.02-.22c-.19.088-.376.169-.566.247-.362.146-.728.267-1.151.4v1.033a1.365,1.365,0,0,1-.376.965,1.278,1.278,0,0,1-.958.366v.007H10.839a1.337,1.337,0,0,1-.955-.372,1.317,1.317,0,0,1-.376-.951v-.013h0V89.705c-.423-.132-.789-.254-1.148-.4a10.17,10.17,0,0,1-1.128-.535l-.725.725a1.247,1.247,0,0,1-1.842.041.548.548,0,0,1-.044-.044l0,0L2.58,87.46a1.311,1.311,0,0,1-.379-.931,1.462,1.462,0,0,1,.274-.826,1,1,0,0,1,.1-.132L3.3,84.85a8.808,8.808,0,0,1-.538-1.124c-.156-.393-.288-.786-.4-1.155H1.338a1.346,1.346,0,0,1-.955-.379A1.316,1.316,0,0,1,0,81.25v-.017H0V78.355A1.343,1.343,0,0,1,.383,77.4a1.371,1.371,0,0,1,.958-.379H2.364c.108-.369.24-.762.4-1.155A8.808,8.808,0,0,1,3.3,74.739l-.718-.721a1.483,1.483,0,0,1-.379-.958,1.314,1.314,0,0,1,.383-.935l2.032-2.032a1.572,1.572,0,0,1,.142-.118V65.183a4.336,4.336,0,0,1,3.61-4.263,4.49,4.49,0,0,1-.616-2.276V54.75a2.937,2.937,0,0,1,2.929-2.929h5.235a.893.893,0,0,1,.894.894v5.929ZM14.392,62.65a4.5,4.5,0,0,1-4.219,0H9.082a2.543,2.543,0,0,0-2.533,2.533V70.14l.681.677a10.149,10.149,0,0,1,1.128-.535c.359-.146.725-.267,1.148-.4V68.85a.818.818,0,0,1,.01-.129,1.259,1.259,0,0,1,1.324-1.2v0h2.882a1.337,1.337,0,0,1,.958.369,1.4,1.4,0,0,1,.376.989v1.009c.423.132.789.254,1.151.4.19.078.376.159.566.247a1.547,1.547,0,0,1-.02-.22,1.475,1.475,0,0,1,.393-1.009c.013-.013.024-.027.037-.041l.83-.83V65.183a2.543,2.543,0,0,0-2.533-2.533H14.392Zm36.6,0a4.5,4.5,0,0,1-4.219,0h-1.09a2.538,2.538,0,0,0-2.529,2.533V68.43l.83.83a1.481,1.481,0,0,1,.427,1.05,1.564,1.564,0,0,1-.017.22c.19-.088.376-.169.566-.247.362-.146.725-.267,1.148-.4a10.168,10.168,0,0,1,.01-1.161,1.254,1.254,0,0,1,1.327-1.2v0h2.878a1.28,1.28,0,0,1,1.334,1.32v.014h0v1.033c.42.132.786.254,1.148.4a9.837,9.837,0,0,1,1.124.535l.681-.677V65.183A2.543,2.543,0,0,0,52.08,62.65H50.993Zm-18.3-5.1a4.523,4.523,0,0,1-4.229-.007l-1.077.007a2.538,2.538,0,0,0-2.533,2.529v6.8l.342-.142c.569-.227,1.148-.416,1.845-.633V64.383a1.556,1.556,0,0,1,.427-1.1,1.473,1.473,0,0,1,1.09-.41v0h4.053a1.434,1.434,0,0,1,1.51,1.5v.013h0v1.724l.014,0c.694.213,1.27.4,1.835.63l.339.142v-6.8a2.532,2.532,0,0,0-2.529-2.529ZM47.1,82.9c.078.044.156.085.234.125a3.576,3.576,0,1,0,0-6.454c-.078.041-.159.081-.237.125a1.484,1.484,0,0,1,.406,1.056v.017h0v4.057A1.551,1.551,0,0,1,47.1,82.9Zm-2.245-6.644a5.414,5.414,0,0,1,1.7-1.294,5.367,5.367,0,1,1,0,9.671,5.411,5.411,0,0,1-1.7-1.293h-.582a19.054,19.054,0,0,1-.623,1.859,11.709,11.709,0,0,1-.88,1.774l.183.183a1.4,1.4,0,0,1,.654-.24,1.5,1.5,0,0,1,.908.186,8.546,8.546,0,0,0,1.111.549c.356.142.728.264,1.175.4a1.582,1.582,0,0,1,.8.521,1.411,1.411,0,0,1,.3.88v.83h1.967v-.83h0a1.368,1.368,0,0,1,.3-.88,1.586,1.586,0,0,1,.752-.511v0l0,0c.467-.142.846-.267,1.212-.413a8.593,8.593,0,0,0,1.114-.549,1.5,1.5,0,0,1,.908-.186,1.4,1.4,0,0,1,.786.345c.024.02.047.041.068.061l.586.589,1.392-1.392-.586-.589h0a1.451,1.451,0,0,1-.42-.863,1.4,1.4,0,0,1,.223-.931,6.669,6.669,0,0,0,.528-1.067,11.644,11.644,0,0,0,.4-1.2,1.582,1.582,0,0,1,.521-.765,1.449,1.449,0,0,1,.877-.318h.83V78.809h-.83v0a1.387,1.387,0,0,1-.877-.315,1.581,1.581,0,0,1-.521-.765,11.643,11.643,0,0,0-.4-1.2,6.664,6.664,0,0,0-.528-1.067,1.4,1.4,0,0,1-.223-.931,1.5,1.5,0,0,1,.416-.863l.586-.589L55.6,71.681l-.586.589v0a1.4,1.4,0,0,1-.853.41,1.5,1.5,0,0,1-.908-.186,8.577,8.577,0,0,0-1.114-.549c-.356-.142-.725-.264-1.172-.4a1.582,1.582,0,0,1-.8-.521,1.394,1.394,0,0,1-.308-.88v-.83H47.9v.83h0a1.347,1.347,0,0,1-.3.88,1.579,1.579,0,0,1-.755.511v0l0,0c-.464.142-.846.267-1.212.413a8.547,8.547,0,0,0-1.111.549,1.5,1.5,0,0,1-.908.186,1.393,1.393,0,0,1-.654-.24l-.183.183a11.7,11.7,0,0,1,.88,1.774,18.989,18.989,0,0,1,.623,1.859h.583ZM18.211,72.436a1.4,1.4,0,0,1-.654.24,1.5,1.5,0,0,1-.9-.186,8.57,8.57,0,0,0-1.114-.549c-.356-.142-.725-.264-1.172-.4l-.044-.01a1.6,1.6,0,0,1-.755-.511,1.374,1.374,0,0,1-.3-.8c0-.027,0-.054,0-.081v-.83H11.3v.83h0a1.347,1.347,0,0,1-.3.88,1.6,1.6,0,0,1-.755.511v0l0,0c-.464.142-.847.267-1.212.413a8.546,8.546,0,0,0-1.111.549A1.511,1.511,0,0,1,7,72.676a1.391,1.391,0,0,1-.786-.345l-.071-.061-.586-.589L4.169,73.072l.586.589a1.447,1.447,0,0,1,.417.863,1.416,1.416,0,0,1-.22.931,6.4,6.4,0,0,0-.532,1.067,12.538,12.538,0,0,0-.4,1.2,1.558,1.558,0,0,1-.521.765,1.428,1.428,0,0,1-.877.318h-.83v1.971h.83v0A1.393,1.393,0,0,1,3.5,81.1a1.558,1.558,0,0,1,.521.765,12.505,12.505,0,0,0,.4,1.2,6.39,6.39,0,0,0,.532,1.067,1.416,1.416,0,0,1,.22.931,1.454,1.454,0,0,1-.417.863l-.586.589,1.392,1.392.586-.589,0,0A1.409,1.409,0,0,1,7,86.911a1.513,1.513,0,0,1,.908.186,8.545,8.545,0,0,0,1.111.549c.356.142.725.264,1.175.4a1.6,1.6,0,0,1,.8.521,1.411,1.411,0,0,1,.3.88v.83h1.967v-.83h0a1.346,1.346,0,0,1,.3-.88,1.6,1.6,0,0,1,.755-.511v0l0,0c.467-.142.847-.267,1.212-.413a8.584,8.584,0,0,0,1.114-.549,1.5,1.5,0,0,1,.9-.186,1.4,1.4,0,0,1,.654.24l.183-.183a11.37,11.37,0,0,1-.877-1.774,19.073,19.073,0,0,1-.626-1.859h-.582a5.434,5.434,0,0,1-1.74,1.314,5.367,5.367,0,1,1,0-9.711,5.433,5.433,0,0,1,1.74,1.314h.582a19.052,19.052,0,0,1,.626-1.859,11.37,11.37,0,0,1,.877-1.774Zm-4.145,4.256c-.085-.047-.173-.095-.261-.135a3.576,3.576,0,1,0,0,6.475c.088-.041.173-.088.257-.135a1.515,1.515,0,0,1-.4-1.056v-.017h0V77.766a1.554,1.554,0,0,1,.41-1.074Zm5.479-7.263-.01.01-.894.894,1.087,1.084h0a1.683,1.683,0,0,1,.484,1,1.648,1.648,0,0,1-.254,1.077,9.2,9.2,0,0,0-.779,1.561,16.412,16.412,0,0,0-.576,1.73,1.848,1.848,0,0,1-.61.891,1.663,1.663,0,0,1-1.009.369H15.448v3.5h1.534v0a1.615,1.615,0,0,1,1.009.369,1.825,1.825,0,0,1,.61.887,16.413,16.413,0,0,0,.576,1.73,9.184,9.184,0,0,0,.779,1.561,1.648,1.648,0,0,1,.254,1.077,1.678,1.678,0,0,1-.427.938c-.017.02-.034.041-.054.061l-1.087,1.084,2.479,2.479L22.2,90.646l0,0a1.622,1.622,0,0,1,.982-.474,1.738,1.738,0,0,1,1.057.22,12.473,12.473,0,0,0,1.612.792c.515.207,1.05.383,1.7.582a.323.323,0,0,1,.044.013,1.841,1.841,0,0,1,.884.6,1.563,1.563,0,0,1,.345.938.581.581,0,0,1,0,.075v1.534h3.5V93.393h0a1.55,1.55,0,0,1,.349-1.013,1.825,1.825,0,0,1,.884-.6h0c.664-.207,1.209-.386,1.737-.6A12.728,12.728,0,0,0,36.92,90.4a1.727,1.727,0,0,1,1.053-.22,1.64,1.64,0,0,1,.924.416c.02.017.041.037.061.054l1.087,1.087,2.475-2.479-.22-.22-.863-.863a1.7,1.7,0,0,1-.484-1A1.652,1.652,0,0,1,41.21,86.1a9.453,9.453,0,0,0,.779-1.561,18.157,18.157,0,0,0,.576-1.73,1.825,1.825,0,0,1,.61-.887,1.636,1.636,0,0,1,1.006-.372h1.534v-3.5H44.18v0a1.606,1.606,0,0,1-1.006-.369,1.825,1.825,0,0,1-.61-.887,18.146,18.146,0,0,0-.576-1.73,9.454,9.454,0,0,0-.779-1.561,1.651,1.651,0,0,1-.257-1.077,1.7,1.7,0,0,1,.427-.938c.017-.02.037-.041.058-.061l1.084-1.084-.894-.894-.007-.01-1.575-1.575-1.087,1.087v0a1.631,1.631,0,0,1-.985.474,1.765,1.765,0,0,1-1.165-.284c-.518-.261-.955-.508-1.5-.728-.518-.207-1.05-.383-1.7-.582a1.836,1.836,0,0,1-.928-.609,1.545,1.545,0,0,1-.349-.938c0-.027,0-.051,0-.074V64.662h-3.5V66.2h0a1.567,1.567,0,0,1-.345,1.013,1.871,1.871,0,0,1-.884.6l0,0v0c-.667.2-1.212.383-1.737.593a12.236,12.236,0,0,0-1.429.687,1.873,1.873,0,0,1-1.239.325A1.618,1.618,0,0,1,22.264,69c-.02-.017-.041-.037-.061-.054L21.12,67.855ZM37.4,77.508a.893.893,0,1,1-1.693.566,5.4,5.4,0,0,0-10.247,0,.893.893,0,1,1-1.693-.566,7.189,7.189,0,0,1,13.633,0Z" fill="#fff"/>
  </g>
</svg>
