<svg xmlns="http://www.w3.org/2000/svg" width="49.851" height="50" viewBox="0 0 49.851 50">
  <g id="_044---Bank-Statement" data-name="044---Bank-Statement" transform="translate(-0.178)">
    <path id="Shape" d="M16.747,23a1.667,1.667,0,0,0,1.667-1.667V19.667A1.667,1.667,0,0,0,16.747,18h-10A1.667,1.667,0,0,0,5.08,19.667v1.667A1.667,1.667,0,0,0,6.747,23Zm-10-3.333h10v1.667h-10Z" transform="translate(-0.817 -3)" fill="#fff"/>
    <path id="Shape-2" data-name="Shape" d="M8.58,26a2.5,2.5,0,1,0,2.5,2.5A2.5,2.5,0,0,0,8.58,26Zm0,3.333a.833.833,0,1,1,.833-.833A.833.833,0,0,1,8.58,29.333Z" transform="translate(-0.984 -4.333)" fill="#fff"/>
    <path id="Shape-3" data-name="Shape" d="M8.58,33a2.5,2.5,0,1,0,2.5,2.5A2.5,2.5,0,0,0,8.58,33Zm0,3.333a.833.833,0,1,1,.833-.833A.833.833,0,0,1,8.58,36.333Z" transform="translate(-0.984 -5.5)" fill="#fff"/>
    <path id="Shape-4" data-name="Shape" d="M8.58,40a2.5,2.5,0,1,0,2.5,2.5A2.5,2.5,0,0,0,8.58,40Zm0,3.333a.833.833,0,1,1,.833-.833A.833.833,0,0,1,8.58,43.333Z" transform="translate(-0.984 -6.667)" fill="#fff"/>
    <path id="Shape-5" data-name="Shape" d="M16.58,26a2.5,2.5,0,1,0,2.5,2.5A2.5,2.5,0,0,0,16.58,26Zm0,3.333a.833.833,0,1,1,.833-.833A.833.833,0,0,1,16.58,29.333Z" transform="translate(-2.317 -4.333)" fill="#fff"/>
    <path id="Shape-6" data-name="Shape" d="M16.58,33a2.5,2.5,0,1,0,2.5,2.5A2.5,2.5,0,0,0,16.58,33Zm0,3.333a.833.833,0,1,1,.833-.833A.833.833,0,0,1,16.58,36.333Z" transform="translate(-2.317 -5.5)" fill="#fff"/>
    <path id="Shape-7" data-name="Shape" d="M16.58,40a2.5,2.5,0,1,0,2.5,2.5A2.5,2.5,0,0,0,16.58,40Zm0,3.333a.833.833,0,1,1,.833-.833A.833.833,0,0,1,16.58,43.333Z" transform="translate(-2.317 -6.667)" fill="#fff"/>
    <path id="Shape-8" data-name="Shape" d="M46.333,38.833a.833.833,0,0,0,1.667,0c0-2.06-1.806-3.772-4.167-4.1v-.9a.833.833,0,1,0-1.667,0v.9c-2.361.333-4.167,2.044-4.167,4.1s1.806,3.772,4.167,4.1v4.973a2.757,2.757,0,0,1-2.5-2.411A.833.833,0,0,0,38,45.5c0,2.06,1.806,3.772,4.167,4.1v.9a.833.833,0,0,0,1.667,0v-.9C46.194,49.271,48,47.56,48,45.5s-1.806-3.772-4.167-4.1V36.422A2.756,2.756,0,0,1,46.333,38.833Zm-6.667,0a2.756,2.756,0,0,1,2.5-2.411v4.822a2.756,2.756,0,0,1-2.5-2.411ZM46.333,45.5a2.756,2.756,0,0,1-2.5,2.411V43.089a2.756,2.756,0,0,1,2.5,2.411Z" transform="translate(-6.304 -5.5)" fill="#fff"/>
    <path id="Shape-9" data-name="Shape" d="M31.7,24.315V17.5l11.226,5.02a5,5,0,0,0,4.083-9.129L31.7,6.544V5.833a4.172,4.172,0,0,1,4.167-4.167.833.833,0,0,0,0-1.667H15.93A5.84,5.84,0,0,0,10.1,5.833v5.833H3.43a2.5,2.5,0,0,0-2.5,2.5v25a2.5,2.5,0,0,0,2.5,2.5H10.1v1.667H1.846A1.66,1.66,0,0,0,.2,45.287,5.843,5.843,0,0,0,5.93,50H25.863a5.816,5.816,0,0,0,4.187-1.792A13.325,13.325,0,1,0,31.7,24.315ZM25.083,11.379l1.726-3.843,1.828-.021L26.294,12.75ZM21.7,7.546h3.275l-1.106,2.463Zm6.944,4.029c4.965,2.22,4.655,2.113,4.9,2.113a.833.833,0,0,0,.341-1.594L29.329,10.05,30.35,7.767l11.41,5.1-1.02,2.282-3.8-1.7a.833.833,0,0,0-.68,1.522l3.8,1.7-1.021,2.282-11.41-5.1ZM44.8,14.235l-2.721,6.083-1.522-.68,2.722-6.083Zm3.279,2.528A3.342,3.342,0,0,1,43.6,21l2.722-6.083a3.333,3.333,0,0,1,1.757,1.842ZM2.6,39.167v-25a.833.833,0,0,1,.833-.833h15a.833.833,0,0,1,.833.833v25A.833.833,0,0,1,18.43,40h-15A.833.833,0,0,1,2.6,39.167Zm-.75,5.838H20.1a5.805,5.805,0,0,0,1.7,3.328H5.93a4.156,4.156,0,0,1-4.082-3.328Zm19.9-.232a1.661,1.661,0,0,0-1.648-1.44H11.763V41.667H18.43a2.5,2.5,0,0,0,2.5-2.5v-25a2.5,2.5,0,0,0-2.5-2.5H11.763V5.833A4.172,4.172,0,0,1,15.93,1.667H31.78a5.817,5.817,0,0,0-1.75,4.185.953.953,0,0,0-.1-.018l-.015.018H19.863a.853.853,0,0,0-.626,1.406c7.715,8.75,6.638,7.55,6.952,7.775l3.84,1.722v8.383a13.3,13.3,0,0,0-1.394,22.125,4.159,4.159,0,0,1-6.889-2.489ZM36.7,48.333A11.667,11.667,0,1,1,48.363,36.667,11.667,11.667,0,0,1,36.7,48.333Z" transform="translate(0)" fill="#fff"/>
    <path id="Shape-10" data-name="Shape" d="M34.51,37.488a.833.833,0,0,0-1.139.3,10.2,10.2,0,0,0-.442,9.361.833.833,0,1,0,1.513-.7,8.537,8.537,0,0,1,.37-7.827A.833.833,0,0,0,34.51,37.488Z" transform="translate(-5.304 -6.229)" fill="#fff"/>
    <path id="Shape-11" data-name="Shape" d="M52.905,37.488a.833.833,0,0,0-.3,1.139,8.537,8.537,0,0,1,.37,7.827.833.833,0,1,0,1.513.7,10.2,10.2,0,0,0-.443-9.361.833.833,0,0,0-1.139-.3Z" transform="translate(-8.719 -6.229)" fill="#fff"/>
  </g>
</svg>
