<svg id="XMLID_2846_" xmlns="http://www.w3.org/2000/svg" width="50" height="50" viewBox="0 0 50 50">
  <g id="XMLID_1455_" transform="translate(0 0)">
    <path id="XMLID_1459_" d="M161.064,288.461h-8.17a.977.977,0,0,0,0,1.953h8.17a.977.977,0,0,0,0-1.953Z" transform="translate(-137.081 -260.291)" fill="#fff"/>
    <path id="XMLID_1461_" d="M288.677,288.46a.977.977,0,1,0,.69.286A.984.984,0,0,0,288.677,288.46Z" transform="translate(-259.604 -260.29)" fill="#fff"/>
    <path id="XMLID_1462_" d="M341.057,288.46a.977.977,0,1,0,.69.286A.984.984,0,0,0,341.057,288.46Z" transform="translate(-306.869 -260.29)" fill="#fff"/>
    <path id="XMLID_1465_" d="M151.917,113.451a.977.977,0,0,0,.977.977h8.17a.977.977,0,1,0,0-1.953h-8.17A.977.977,0,0,0,151.917,113.451Z" transform="translate(-137.081 -101.49)" fill="#fff"/>
    <path id="XMLID_1481_" d="M288.677,114.423a.977.977,0,1,0-.69-.286A.981.981,0,0,0,288.677,114.423Z" transform="translate(-259.604 -101.487)" fill="#fff"/>
    <path id="XMLID_1482_" d="M341.747,114.137a.976.976,0,1,0-.69.286A.982.982,0,0,0,341.747,114.137Z" transform="translate(-306.869 -101.487)" fill="#fff"/>
    <path id="XMLID_1487_" d="M39.648,21.529h2.383a4.044,4.044,0,1,0,0-1.953H39.648V18.209a2.917,2.917,0,0,0-.748-1.953,2.917,2.917,0,0,0,.748-1.953V12.937h6.307a.977.977,0,0,0,.977-.977V7.969a4.044,4.044,0,1,0-1.953,0v3.015H39.648V9.616a2.933,2.933,0,0,0-2.93-2.93H29.394a.977.977,0,0,0,0,1.953h7.324a.978.978,0,0,1,.977.977V14.3a.977.977,0,0,1-.96.976H13.265a.977.977,0,0,1-.96-.976V9.616a.978.978,0,0,1,.977-.977h7.324a.977.977,0,0,0,0-1.953H13.281a2.933,2.933,0,0,0-2.93,2.93v1.367H5.021V7.969a4.044,4.044,0,1,0-1.953,0V11.96a.977.977,0,0,0,.977.977h6.307V14.3a2.917,2.917,0,0,0,.748,1.953,2.917,2.917,0,0,0-.748,1.953v1.367H7.969a4.044,4.044,0,1,0,0,1.953h2.383V22.9A2.917,2.917,0,0,0,11.1,24.85a2.918,2.918,0,0,0-.748,1.953v1.366H4.044a.977.977,0,0,0-.977.977v3.991a4.045,4.045,0,1,0,1.953,0V30.122h5.331V31.49a2.933,2.933,0,0,0,2.93,2.93H24.023v9.086a3.335,3.335,0,0,0-2.2,2.2h-10.5a.977.977,0,1,0,0,1.953h10.5a3.32,3.32,0,0,0,6.347,0h10.5a.977.977,0,0,0,0-1.953h-10.5a3.335,3.335,0,0,0-2.2-2.2V34.42H36.719a2.933,2.933,0,0,0,2.93-2.93V30.122h5.331v3.015a4.044,4.044,0,1,0,1.953,0V29.145a.977.977,0,0,0-.977-.977H39.648V26.8A2.917,2.917,0,0,0,38.9,24.85a2.918,2.918,0,0,0,.748-1.953Zm6.307-3.068a2.091,2.091,0,1,1-2.091,2.091A2.094,2.094,0,0,1,45.956,18.462ZM43.864,4.044a2.091,2.091,0,1,1,2.091,2.091A2.094,2.094,0,0,1,43.864,4.044Zm-41.911,0A2.091,2.091,0,1,1,4.044,6.136,2.094,2.094,0,0,1,1.953,4.044Zm2.091,18.6a2.091,2.091,0,1,1,2.091-2.091A2.094,2.094,0,0,1,4.044,22.644ZM6.136,37.061A2.091,2.091,0,1,1,4.044,34.97,2.094,2.094,0,0,1,6.136,37.061ZM25,48.047a1.367,1.367,0,1,1,1.367-1.367A1.369,1.369,0,0,1,25,48.047ZM48.047,37.061a2.091,2.091,0,1,1-2.091-2.091A2.094,2.094,0,0,1,48.047,37.061ZM12.3,22.9V18.209a.977.977,0,0,1,.96-.976h23.47a.977.977,0,0,1,.96.976V22.9a.978.978,0,0,1-.977.977H13.281A.978.978,0,0,1,12.3,22.9ZM37.7,31.49a.978.978,0,0,1-.977.977H13.281a.978.978,0,0,1-.977-.977V26.8a.978.978,0,0,1,.977-.977H36.719a.978.978,0,0,1,.977.977Z" transform="translate(0 0)" fill="#fff"/>
    <path id="XMLID_1707_" d="M161.064,200.461h-8.17a.977.977,0,0,0,0,1.953h8.17a.977.977,0,0,0,0-1.953Z" transform="translate(-137.081 -180.885)" fill="#fff"/>
    <path id="XMLID_1709_" d="M288.677,200.46a.977.977,0,1,0,.69.286A.984.984,0,0,0,288.677,200.46Z" transform="translate(-259.604 -180.884)" fill="#fff"/>
    <path id="XMLID_1710_" d="M341.057,200.46a.977.977,0,1,0,.69.286A.984.984,0,0,0,341.057,200.46Z" transform="translate(-306.869 -180.884)" fill="#fff"/>
    <path id="XMLID_1714_" d="M246.977,70.423a.977.977,0,1,0-.69-.286A.979.979,0,0,0,246.977,70.423Z" transform="translate(-221.977 -61.783)" fill="#fff"/>
  </g>
</svg>
