<svg xmlns="http://www.w3.org/2000/svg" width="50" height="50" viewBox="0 0 50 50">
  <g id="acquisition" transform="translate(-1 -1)">
    <path id="Path_186" data-name="Path 186" d="M46.419,13.065a.808.808,0,0,1-.806-.806H44a2.422,2.422,0,0,0,2.419,2.419V16.29h1.613V14.677h2.419V12.258a2.422,2.422,0,0,0-2.419-2.419H46.419a.808.808,0,0,1-.806-.806V8.226h2.419a.808.808,0,0,1,.806.806h1.613a2.422,2.422,0,0,0-2.419-2.419V5H46.419V6.613H44V9.032a2.422,2.422,0,0,0,2.419,2.419h1.613a.808.808,0,0,1,.806.806v.806Z" transform="translate(-8.323 -0.774)" fill="#fff"/>
    <path id="Path_187" data-name="Path 187" d="M53.968,28.226V25H36.226v3.226H33V55.645H57.194V28.226ZM37.839,26.613H52.355v1.613H37.839Zm11.29,19.355v8.065H41.065V45.968Zm6.452,8.065H50.742V45.968h1.613V44.355H37.839v1.613h1.613v8.065H34.613V29.839H55.581Z" transform="translate(-6.194 -4.645)" fill="#fff"/>
    <path id="Path_188" data-name="Path 188" d="M45.065,33H37v4.839h8.065Zm-1.613,3.226H38.613V34.613h4.839Z" transform="translate(-6.968 -6.194)" fill="#fff"/>
    <path id="Path_189" data-name="Path 189" d="M57.065,33H49v4.839h8.065Zm-1.613,3.226H50.613V34.613h4.839Z" transform="translate(-9.29 -6.194)" fill="#fff"/>
    <path id="Path_190" data-name="Path 190" d="M45.065,41H37v4.839h8.065Zm-1.613,3.226H38.613V42.613h4.839Z" transform="translate(-6.968 -7.742)" fill="#fff"/>
    <path id="Path_191" data-name="Path 191" d="M57.065,41H49v4.839h8.065Zm-1.613,3.226H50.613V42.613h4.839Z" transform="translate(-9.29 -7.742)" fill="#fff"/>
    <path id="Path_192" data-name="Path 192" d="M21.968,37H4.226v3.226H1V57.968H25.194V40.226H21.968ZM5.839,38.613H20.355v1.613H5.839Zm11.29,12.9v4.839H9.065V51.516Zm6.452,4.839H18.742V51.516h1.613V49.9H5.839v1.613H7.452v4.839H2.613V41.839H23.581Z" transform="translate(0 -6.968)" fill="#fff"/>
    <path id="Path_193" data-name="Path 193" d="M13.065,45H5v4.839h8.065Zm-1.613,3.226H6.613V46.613h4.839Z" transform="translate(-0.774 -8.516)" fill="#fff"/>
    <path id="Path_194" data-name="Path 194" d="M25.065,45H17v4.839h8.065Zm-1.613,3.226H18.613V46.613h4.839Z" transform="translate(-3.097 -8.516)" fill="#fff"/>
    <path id="Path_195" data-name="Path 195" d="M20.96,17.463,25.8,22.3l7.3-7.3a8.907,8.907,0,1,0-.836-1.444l-6.46,6.46L20.96,15.182,8.293,27.849l1.14,1.14ZM40.315,2.613a7.258,7.258,0,1,1-7.258,7.258A7.267,7.267,0,0,1,40.315,2.613Z" transform="translate(-1.412)" fill="#fff"/>
  </g>
</svg>
