<svg xmlns="http://www.w3.org/2000/svg" width="51.672" height="50" viewBox="0 0 51.672 50">
  <g id="stats_1_" data-name="stats (1)" transform="translate(0 -7.768)">
    <g id="Group_104" data-name="Group 104" transform="translate(21.53 25.903)">
      <g id="Group_103" data-name="Group 103">
        <path id="Path_201" data-name="Path 201" d="M207.751,176.232h-6.89a.861.861,0,0,0-.861.861v24.114a.861.861,0,0,0,.861.861h6.89a.861.861,0,0,0,.861-.861V177.093A.861.861,0,0,0,207.751,176.232Zm-.861,24.114h-5.167V177.954h5.167Z" transform="translate(-200 -176.232)" fill="#fff"/>
      </g>
    </g>
    <g id="Group_106" data-name="Group 106" transform="translate(42.199 22.459)">
      <g id="Group_105" data-name="Group 105" transform="translate(0 0)">
        <path id="Path_202" data-name="Path 202" d="M399.751,144.232h-6.89a.861.861,0,0,0-.861.861v27.559a.861.861,0,0,0,.861.861h6.89a.861.861,0,0,0,.861-.861V145.093A.861.861,0,0,0,399.751,144.232Zm-.861,27.559h-5.167V145.954h5.167Z" transform="translate(-392 -144.232)" fill="#fff"/>
      </g>
    </g>
    <g id="Group_108" data-name="Group 108" transform="translate(31.865 41.405)">
      <g id="Group_107" data-name="Group 107">
        <path id="Path_203" data-name="Path 203" d="M303.751,320.232h-6.89a.861.861,0,0,0-.861.861v8.612a.861.861,0,0,0,.861.861h6.89a.861.861,0,0,0,.861-.861v-8.612A.861.861,0,0,0,303.751,320.232Zm-.861,8.612h-5.167v-6.89h5.167Z" transform="translate(-296 -320.232)" fill="#fff"/>
      </g>
    </g>
    <g id="Group_110" data-name="Group 110" transform="translate(0.861 29.348)">
      <g id="Group_109" data-name="Group 109">
        <path id="Path_204" data-name="Path 204" d="M15.751,208.232H8.861a.861.861,0,0,0-.861.861v20.669a.861.861,0,0,0,.861.861h6.89a.861.861,0,0,0,.861-.861V209.093A.861.861,0,0,0,15.751,208.232ZM14.89,228.9H9.722V209.954H14.89Z" transform="translate(-8 -208.232)" fill="#fff"/>
      </g>
    </g>
    <g id="Group_112" data-name="Group 112" transform="translate(11.196 34.516)">
      <g id="Group_111" data-name="Group 111">
        <path id="Path_205" data-name="Path 205" d="M111.751,256.232h-6.89a.861.861,0,0,0-.861.861v15.5a.861.861,0,0,0,.861.861h6.89a.861.861,0,0,0,.861-.861v-15.5A.861.861,0,0,0,111.751,256.232Zm-.861,15.5h-5.167V257.954h5.167Z" transform="translate(-104 -256.232)" fill="#fff"/>
      </g>
    </g>
    <g id="Group_114" data-name="Group 114" transform="translate(1.719 7.768)">
      <g id="Group_113" data-name="Group 113" transform="translate(0 0)">
        <path id="Path_206" data-name="Path 206" d="M60.808,7.768a3.47,3.47,0,0,0-2.4,6l-7.148,13.11a3.162,3.162,0,0,0-1.964.09l-6.649-9.979a3.445,3.445,0,1,0-5.663-.815l-5.228,4.352a3.4,3.4,0,0,0-4.586.537l-4.384-2.193A3.5,3.5,0,1,0,22,20.407L26.388,22.6a3.445,3.445,0,1,0,6.467-.744L38.084,17.5a3.328,3.328,0,0,0,3.13.448l6.648,9.979a3.445,3.445,0,1,0,4.909-.223L59.918,14.6a3.4,3.4,0,0,0,.841.11,3.47,3.47,0,0,0,.05-6.94ZM19.42,19.875a1.722,1.722,0,1,1,1.722-1.722A1.722,1.722,0,0,1,19.42,19.875Zm10.334,5.167a1.722,1.722,0,1,1,1.722-1.722A1.722,1.722,0,0,1,29.755,25.042ZM40.089,16.43a1.722,1.722,0,1,1,1.722-1.722A1.722,1.722,0,0,1,40.089,16.43Zm10.334,15.5a1.722,1.722,0,1,1,1.722-1.722A1.722,1.722,0,0,1,50.424,31.932ZM60.758,12.985a1.722,1.722,0,1,1,1.722-1.722A1.722,1.722,0,0,1,60.758,12.985Z" transform="translate(-15.973 -7.768)" fill="#fff"/>
      </g>
    </g>
    <g id="Group_116" data-name="Group 116" transform="translate(0 52.601)">
      <g id="Group_115" data-name="Group 115">
        <path id="Path_207" data-name="Path 207" d="M50.811,424.232H.861a.861.861,0,0,0-.861.861v3.445a.861.861,0,0,0,.861.861h49.95a.861.861,0,0,0,.861-.861v-3.445A.861.861,0,0,0,50.811,424.232Zm-.861,3.445H1.722v-1.722H49.95Z" transform="translate(0 -424.232)" fill="#fff"/>
      </g>
    </g>
  </g>
</svg>
