<svg xmlns="http://www.w3.org/2000/svg" width="50.847" height="50" viewBox="0 0 50.847 50">
  <g id="Outline" transform="translate(-16 -24)">
    <path id="Path_208" data-name="Path 208" d="M63.458,72.305V31.627h1.695A.847.847,0,0,0,66,30.78V24.848A.847.847,0,0,0,65.078,24L36.265,26.546a.847.847,0,0,0-.773.844v3.39a.847.847,0,0,0,.847.847h1.695V45.187h1.695V31.627H61.763V72.305H56.209a3.165,3.165,0,0,0,.469-1.67,3.058,3.058,0,0,0-1.1-2.318c-.414-.417-.6-.621-.6-1.1,0-2.106-1.164-4.237-3.39-4.237s-3.39,2.132-3.39,4.237c0,.475-.183.679-.6,1.1a3.058,3.058,0,0,0-1.1,2.318,3.166,3.166,0,0,0,.469,1.67H38.034V61.288a.847.847,0,0,0-.847-.847H32.1a.847.847,0,0,0-.847.847V72.305H28.712V57.341l10.169-4.449,10.169,4.449v4.8h1.695V58.082l1.355.593a.847.847,0,0,0,1.187-.777V53.661a.847.847,0,0,0-.508-.776L39.221,46.953a.847.847,0,0,0-.679,0L24.982,52.885a.847.847,0,0,0-.508.776V57.9a.847.847,0,0,0,1.187.776l1.355-.593V72.305H21.085V57.9H22.78V56.2H17.695V37.56H36.339V35.865H30.758l-3.142-3.142a.847.847,0,0,0-.6-.248h-6.78a.847.847,0,0,0-.847.847v2.542H16.847a.847.847,0,0,0-.847.847V57.051a.847.847,0,0,0,.847.847H19.39V72.305H16V74H66.847V72.305ZM37.186,28.166l27.119-2.393v4.159H37.186ZM26.169,56.6V54.216l12.712-5.561,12.712,5.561V56.6l-.847-.371V56.2h-.065L39.221,51.19a.847.847,0,0,0-.679,0L27.082,56.2h-.065v.028ZM21.085,34.17h5.581l1.695,1.695H21.085ZM32.949,62.136h3.39v10.17h-3.39ZM49.9,72.305a1.827,1.827,0,0,1-1.695-1.67c0-.493.186-.7.606-1.124a3.029,3.029,0,0,0,1.089-2.29c0-2.011,1.109-2.542,1.695-2.542,1.341,0,1.695,1.663,1.695,2.542a3.029,3.029,0,0,0,1.089,2.29c.42.424.606.631.606,1.124a1.827,1.827,0,0,1-1.695,1.67Z" fill="#fff"/>
    <path id="Path_209" data-name="Path 209" d="M240.847,384a.847.847,0,0,0-.847.847v4.237a.847.847,0,0,0,.847.847h5.085a.847.847,0,0,0,.847-.847v-4.237a.847.847,0,0,0-.847-.847Zm4.237,4.237h-3.39v-2.542h3.39Z" transform="translate(-200.271 -321.864)" fill="#fff"/>
    <rect id="Rectangle_78" data-name="Rectangle 78" width="1.695" height="1.695" transform="translate(33.797 57.051)" fill="#fff"/>
    <path id="Path_210" data-name="Path 210" d="M57.322,178.169v-8.475h7.627V168h-16.1a.847.847,0,0,0-.847.847v13.559a.847.847,0,0,0,.847.847H51.39v-1.695H49.695V169.695h5.932v8.475Z" transform="translate(-28.61 -128.745)" fill="#fff"/>
    <path id="Path_211" data-name="Path 211" d="M264.847,126.78h5.085a.847.847,0,0,0,.847-.847v-5.085a.847.847,0,0,0-.847-.847h-5.085a.847.847,0,0,0-.847.847v5.085A.847.847,0,0,0,264.847,126.78Zm.847-5.085h3.39v3.39h-3.39Z" transform="translate(-221.729 -85.83)" fill="#fff"/>
    <path id="Path_212" data-name="Path 212" d="M360.847,126.78h5.085a.847.847,0,0,0,.847-.847v-5.085a.847.847,0,0,0-.847-.847h-5.085a.847.847,0,0,0-.847.847v5.085A.847.847,0,0,0,360.847,126.78Zm.847-5.085h3.39v3.39h-3.39Z" transform="translate(-307.559 -85.83)" fill="#fff"/>
    <path id="Path_213" data-name="Path 213" d="M264,211.39h1.695v-1.695h3.39v4.237h1.695v-5.085a.847.847,0,0,0-.847-.847h-5.085a.847.847,0,0,0-.847.847Z" transform="translate(-221.729 -164.508)" fill="#fff"/>
    <path id="Path_214" data-name="Path 214" d="M360,213.932a.847.847,0,0,0,.847.847h5.085a.847.847,0,0,0,.847-.847v-5.085a.847.847,0,0,0-.847-.847h-5.085a.847.847,0,0,0-.847.847Zm1.695-4.237h3.39v3.39h-3.39Z" transform="translate(-307.559 -164.508)" fill="#fff"/>
    <path id="Path_215" data-name="Path 215" d="M384,301.085v1.695h3.39a.847.847,0,0,0,.847-.847v-5.085a.847.847,0,0,0-.847-.847H384v1.695h2.542v3.39Z" transform="translate(-329.017 -243.186)" fill="#fff"/>
    <rect id="Rectangle_79" data-name="Rectangle 79" width="1.695" height="1.695" transform="translate(22.78 60.441)" fill="#fff"/>
  </g>
</svg>
