<svg xmlns="http://www.w3.org/2000/svg" width="56.368" height="50" viewBox="0 0 56.368 50">
  <g id="investment" transform="translate(0 -28.922)">
    <path id="Path_216" data-name="Path 216" d="M170.332,40.221h-1.218V38.366a1.157,1.157,0,0,0-1.156-1.156h-1.719a8.8,8.8,0,0,0-.386-.931l1.216-1.216a1.158,1.158,0,0,0,0-1.635l-2.461-2.461a1.157,1.157,0,0,0-1.635,0l-1.216,1.216a8.8,8.8,0,0,0-.931-.386V30.078a1.157,1.157,0,0,0-1.156-1.156h-3.481a1.157,1.157,0,0,0-1.156,1.156V31.8a8.778,8.778,0,0,0-.931.386l-1.216-1.216a1.156,1.156,0,0,0-1.635,0l-2.461,2.461a1.156,1.156,0,0,0,0,1.635l1.216,1.216a8.8,8.8,0,0,0-.386.931H147.9a1.157,1.157,0,0,0-1.156,1.156v1.854H130.806a.826.826,0,0,0,0,1.651h15.94A1.157,1.157,0,0,0,147.9,43h1.72a8.765,8.765,0,0,0,.386.931L148.79,45.15a1.156,1.156,0,0,0,0,1.635l2.461,2.461a1.156,1.156,0,0,0,1.635,0L154.1,48.03a8.76,8.76,0,0,0,.931.386v1.72a1.157,1.157,0,0,0,1.156,1.156h3.481a1.157,1.157,0,0,0,1.156-1.156v-1.72a8.776,8.776,0,0,0,.931-.386l1.216,1.216a1.157,1.157,0,0,0,1.635,0l2.461-2.461a1.158,1.158,0,0,0,0-1.635l-1.216-1.216a8.779,8.779,0,0,0,.386-.931h1.72a1.157,1.157,0,0,0,1.155-1.131h1.22a.056.056,0,0,1,.055.055V70.785a.826.826,0,1,0,1.651,0V41.927a1.708,1.708,0,0,0-1.706-1.706Zm-2.87,1.131h-1.584a1.16,1.16,0,0,0-1.106.819,7.119,7.119,0,0,1-.545,1.316,1.161,1.161,0,0,0,.2,1.361l1.12,1.12-1.761,1.761-1.12-1.12a1.161,1.161,0,0,0-1.361-.2,7.111,7.111,0,0,1-1.316.545,1.161,1.161,0,0,0-.819,1.106V49.64h-2.49V48.056a1.161,1.161,0,0,0-.819-1.106,7.121,7.121,0,0,1-1.316-.545,1.16,1.16,0,0,0-1.361.2l-1.12,1.12-1.761-1.761,1.12-1.12a1.161,1.161,0,0,0,.2-1.361,7.123,7.123,0,0,1-.545-1.316,1.16,1.16,0,0,0-1.105-.819H148.4v-2.49h1.584a1.16,1.16,0,0,0,1.105-.819,7.112,7.112,0,0,1,.545-1.316,1.161,1.161,0,0,0-.2-1.361l-1.12-1.12,1.761-1.761,1.12,1.12a1.161,1.161,0,0,0,1.361.2,7.111,7.111,0,0,1,1.316-.545,1.161,1.161,0,0,0,.819-1.106V30.573h2.49v1.584a1.161,1.161,0,0,0,.819,1.106,7.11,7.11,0,0,1,1.316.545,1.16,1.16,0,0,0,1.361-.2l1.12-1.12,1.761,1.761-1.12,1.12a1.16,1.16,0,0,0-.2,1.361,7.113,7.113,0,0,1,.545,1.316,1.161,1.161,0,0,0,1.106.819h1.584v2.49Z" transform="translate(-115.67)" fill="#fff"/>
    <path id="Path_217" data-name="Path 217" d="M55.543,119.953a.826.826,0,0,0-.826.826v2.577a.056.056,0,0,1-.055.055H3.468a1.819,1.819,0,0,1-1.817-1.817v-2.231h0a1.819,1.819,0,0,1,1.817-1.817H7.96a1.268,1.268,0,0,0,1.266-1.266V88.013h2.056a.826.826,0,1,0,0-1.651H9.226V82.037A1.268,1.268,0,0,0,7.96,80.771H3.468A3.472,3.472,0,0,0,0,84.239v35.125H0v2.231a3.472,3.472,0,0,0,3.468,3.468H54.662a1.708,1.708,0,0,0,1.706-1.706v-2.577A.826.826,0,0,0,55.543,119.953ZM1.651,84.239a1.819,1.819,0,0,1,1.817-1.817H7.575V115.9H3.468a3.448,3.448,0,0,0-1.817.515Z" transform="translate(0 -46.141)" fill="#fff"/>
    <path id="Path_218" data-name="Path 218" d="M358.978,76.961c-.4-.141-.687-.25-.938-.353a5.651,5.651,0,0,1-1.34-.707.832.832,0,0,1-.206-.805,1.116,1.116,0,0,1,.741-.882,2.174,2.174,0,0,1,.533-.093,2.064,2.064,0,0,1,1.326.475.826.826,0,1,0,1.127-1.208,3.761,3.761,0,0,0-1.667-.844v-.45a.826.826,0,0,0-1.651,0v.5c-.048.012-.1.024-.143.038a2.752,2.752,0,0,0-1.888,2.157,2.447,2.447,0,0,0,.809,2.411,7.157,7.157,0,0,0,1.735.937c.275.113.586.23,1.012.381a1.26,1.26,0,0,1,.91,1.478,1.626,1.626,0,0,1-1.613,1.372,2.626,2.626,0,0,1-1.884-.5.826.826,0,1,0-.9,1.382,3.958,3.958,0,0,0,1.968.741v.494a.826.826,0,0,0,1.651,0v-.574a3.322,3.322,0,0,0,2.411-2.644A2.924,2.924,0,0,0,358.978,76.961Z" transform="translate(-315.526 -37.684)" fill="#fff"/>
    <path id="Path_219" data-name="Path 219" d="M252.311,325.527h12.733a1.047,1.047,0,0,0,1.046-1.046v-4.149a1.042,1.042,0,0,0-.877-1.032l-12.733-2.089a1.046,1.046,0,0,0-1.215,1.032v6.238A1.047,1.047,0,0,0,252.311,325.527Zm.606-6.571,11.522,1.89v3.029H252.916Z" transform="translate(-223.602 -256.537)" fill="#fff"/>
    <path id="Path_220" data-name="Path 220" d="M129.744,203.109a1.047,1.047,0,0,0-1.046,1.046v2.475a1.047,1.047,0,0,0,1.046,1.046h.141v5.373h-2.68a.826.826,0,0,0,0,1.651H161.67a.826.826,0,0,0,0-1.651h-3.193V205.29l.09.015a1.045,1.045,0,0,0,1.2-.865l.4-2.443a1.046,1.046,0,0,0-.865-1.2l-14.7-2.388-.381-7.734a1.043,1.043,0,0,0-1.044-1h-4.055a1.044,1.044,0,0,0-1.045.994l-.326,6.623-1.232-.2a1.047,1.047,0,0,0-1.2.865l-.4,2.443a1.047,1.047,0,0,0,.865,1.2l.821.133v1.373h-6.861Zm.606,1.651h6.256v1.264H130.35Zm1.187,2.915h5.069v5.373h-5.069ZM142.6,191.33l.088,1.793h-3.078l.088-1.793Zm-3.071,3.444h3.24l.166,3.363-3.543-.576Zm-2.676,4.048,21.587,3.507-.2,1.247-21.588-3.507Zm19.976,6.2v8.027H138.257V202.005Z" transform="translate(-112.466 -143.059)" fill="#fff"/>
    <path id="Path_221" data-name="Path 221" d="M108.463,163.677h-7.094a.826.826,0,1,0,0,1.651h7.094a.826.826,0,1,0,0-1.651Z" transform="translate(-89.474 -119.919)" fill="#fff"/>
    <path id="Path_222" data-name="Path 222" d="M101.369,191.328h5.993a.826.826,0,0,0,0-1.651h-5.993a.826.826,0,0,0,0,1.651Z" transform="translate(-89.474 -143.057)" fill="#fff"/>
    <path id="Path_223" data-name="Path 223" d="M101.369,217.328h4.567a.826.826,0,1,0,0-1.651h-4.567a.826.826,0,1,0,0,1.651Z" transform="translate(-89.474 -166.194)" fill="#fff"/>
    <path id="Path_224" data-name="Path 224" d="M399.326,431.577v.938a.826.826,0,0,0,1.651,0v-.938a.826.826,0,1,0-1.651,0Z" transform="translate(-355.362 -357.59)" fill="#fff"/>
    <path id="Path_225" data-name="Path 225" d="M425.326,431.577v.938a.826.826,0,0,0,1.651,0v-.938a.826.826,0,1,0-1.651,0Z" transform="translate(-378.5 -357.59)" fill="#fff"/>
    <path id="Path_226" data-name="Path 226" d="M451.326,432.515a.826.826,0,0,0,1.651,0v-.938a.826.826,0,1,0-1.651,0Z" transform="translate(-401.638 -357.59)" fill="#fff"/>
  </g>
</svg>
