<svg id="Group_218" data-name="Group 218" xmlns="http://www.w3.org/2000/svg" width="302.817" height="162.375" viewBox="0 0 302.817 162.375">
  <path id="Path_505" data-name="Path 505" d="M656.079,1496.291h-2.141v2.918h2.187a1.855,1.855,0,0,0,1.233-.373,1.3,1.3,0,0,0,.442-1.055,1.356,1.356,0,0,0-.466-1.094A1.879,1.879,0,0,0,656.079,1496.291Z" transform="translate(-396.806 -1338.711)" fill="#fff"/>
  <path id="Path_506" data-name="Path 506" d="M369.328,1496.331h3.134l-1.567-4.529Z" transform="translate(-343.264 -1337.867)" fill="#fff"/>
  <path id="Path_507" data-name="Path 507" d="M631.141,1491.353a1.852,1.852,0,0,0-1.318-.411h-1.815v3.178h1.815a1.812,1.812,0,0,0,1.318-.425,1.588,1.588,0,0,0,.434-1.186A1.516,1.516,0,0,0,631.141,1491.353Z" transform="translate(-391.928 -1337.705)" fill="#fff"/>
  <path id="Path_508" data-name="Path 508" d="M641.173,1496.331h3.134l-1.567-4.529Z" transform="translate(-394.405 -1337.867)" fill="#fff"/>
  <path id="Path_509" data-name="Path 509" d="M657.118,1493.249a1.227,1.227,0,0,0,.419-1,1.25,1.25,0,0,0-.419-1.008,1.79,1.79,0,0,0-1.2-.357h-1.985v2.714h1.985A1.812,1.812,0,0,0,657.118,1493.249Z" transform="translate(-396.806 -1337.694)" fill="#fff"/>
  <path id="Path_510" data-name="Path 510" d="M692.978,1496.331h3.134l-1.567-4.529Z" transform="translate(-404.151 -1337.867)" fill="#fff"/>
  <path id="Path_511" data-name="Path 511" d="M667.143,1496.331h3.134l-1.567-4.529Z" transform="translate(-399.29 -1337.867)" fill="#fff"/>
  <path id="Path_512" data-name="Path 512" d="M342.94,1490.9h-1.722v3.148h1.722a1.877,1.877,0,0,0,1.334-.411,1.514,1.514,0,0,0,.434-1.156Q344.708,1490.9,342.94,1490.9Z" transform="translate(-337.975 -1337.698)" fill="#fff"/>
  <path id="Path_513" data-name="Path 513" d="M538.755,1493.249a1.225,1.225,0,0,0,.42-1,1.248,1.248,0,0,0-.42-1.008,1.788,1.788,0,0,0-1.194-.357h-1.985v2.714h1.985A1.81,1.81,0,0,0,538.755,1493.249Z" transform="translate(-374.539 -1337.694)" fill="#fff"/>
  <path id="Path_514" data-name="Path 514" d="M537.716,1496.291h-2.14v2.918h2.187a1.856,1.856,0,0,0,1.233-.373,1.3,1.3,0,0,0,.442-1.055,1.358,1.358,0,0,0-.465-1.094A1.88,1.88,0,0,0,537.716,1496.291Z" transform="translate(-374.539 -1338.711)" fill="#fff"/>
  <path id="Path_515" data-name="Path 515" d="M576.415,1372.935a6.579,6.579,0,0,0-3.415-2.178l-.464-.123a8.924,8.924,0,0,0-1.957-.391,1.371,1.371,0,0,0-.138.007c-.031.089-.066.2-.1.334a28.829,28.829,0,0,0-.258,3.695c.286-.063.57-.15.848-.229A48.868,48.868,0,0,1,576.415,1372.935Z" transform="translate(-381.03 -1314.998)" fill="#fff"/>
  <path id="Path_516" data-name="Path 516" d="M452.452,1496.331h3.134l-1.567-4.529Z" transform="translate(-358.902 -1337.867)" fill="#fff"/>
  <path id="Path_517" data-name="Path 517" d="M494.186,1491.353a1.852,1.852,0,0,0-1.318-.411h-1.815v3.178h1.815a1.812,1.812,0,0,0,1.318-.425,1.588,1.588,0,0,0,.434-1.186A1.516,1.516,0,0,0,494.186,1491.353Z" transform="translate(-366.163 -1337.705)" fill="#fff"/>
  <path id="Path_518" data-name="Path 518" d="M478.287,1496.331h3.134l-1.567-4.529Z" transform="translate(-363.762 -1337.867)" fill="#fff"/>
  <path id="Path_519" data-name="Path 519" d="M504.219,1496.331h3.134l-1.567-4.529Z" transform="translate(-368.64 -1337.867)" fill="#fff"/>
  <path id="Path_520" data-name="Path 520" d="M574.712,1496.331h3.134l-1.567-4.529Z" transform="translate(-381.902 -1337.867)" fill="#fff"/>
  <path id="Path_521" data-name="Path 521" d="M422.7,1490.9h-1.722v3.148H422.7a1.876,1.876,0,0,0,1.334-.411,1.511,1.511,0,0,0,.434-1.156Q424.469,1490.9,422.7,1490.9Z" transform="translate(-352.981 -1337.698)" fill="#fff"/>
  <path id="Path_522" data-name="Path 522" d="M407.316,1491.353a1.85,1.85,0,0,0-1.318-.411h-1.815v3.178H406a1.811,1.811,0,0,0,1.318-.425,1.585,1.585,0,0,0,.434-1.186A1.513,1.513,0,0,0,407.316,1491.353Z" transform="translate(-349.821 -1337.705)" fill="#fff"/>
  <path id="Path_523" data-name="Path 523" d="M564.679,1491.353a1.85,1.85,0,0,0-1.318-.411h-1.815v3.178h1.815a1.81,1.81,0,0,0,1.318-.425,1.588,1.588,0,0,0,.434-1.186A1.516,1.516,0,0,0,564.679,1491.353Z" transform="translate(-379.425 -1337.705)" fill="#fff"/>
  <path id="Path_524" data-name="Path 524" d="M548.781,1496.331h3.134l-1.567-4.529Z" transform="translate(-377.023 -1337.867)" fill="#fff"/>
  <path id="Path_525" data-name="Path 525" d="M488.027,1383.885a13.421,13.421,0,0,0,4.138-2.87C490.852,1382.057,489.427,1382.954,488.027,1383.885Z" transform="translate(-365.594 -1317.025)" fill="#fff"/>
  <path id="Path_526" data-name="Path 526" d="M397.928,1348.418c.453-.015.9-.034,1.355-.061l.111,0c1.765-.045,3.541-.049,5.259-.053,1.962-.005,3.991-.011,5.962-.077h.107c.251,0,.5-.005.758-.009.3,0,.591-.01.887-.01.061,0,.128,0,.19,0a9.6,9.6,0,0,0-1.587-.392C406.613,1347.057,402.272,1347.909,397.928,1348.418Z" transform="translate(-348.644 -1310.722)" fill="#fff"/>
  <path id="Path_527" data-name="Path 527" d="M396,1339.893c4.344-.509,8.685-1.361,13.043-.6a9.6,9.6,0,0,1,1.587.392,10.951,10.951,0,0,1,3.846.612l.1.038.1.044c2.768,1.251,3.446,3.983,3.85,5.616l.083.344q.744,3.6,1.476,7.2.938,4.591,1.887,9.179c.39,1.913.807,3.8,1.223,5.693.613,2.781,1.246,5.655,1.776,8.53.048.216.1.433.148.65a12.489,12.489,0,0,0,3.363.088,45.217,45.217,0,0,0,9.173-1.6c.2-.075.414-.156.621-.249.4-7.548.848-15.526,1.343-24.156.056-.8.039-1.606.02-2.462a28.764,28.764,0,0,1,.068-3.442,5.547,5.547,0,0,1,4.364-4.867,62.531,62.531,0,0,1,15.435-1.921h.156c.377-.007.813-.01,1.249-.01,10.721,0,20.361,2.027,28.653,6.025a28.133,28.133,0,0,1,4.749,2.825c2.25-1.429,4.02-3.5,6.033-5.23q20.406-18.1,41.459-35.456a35.91,35.91,0,0,0,4.1-3.973c-2.6-.906-5.415-.658-8.116-.969H522.4a45.8,45.8,0,0,1-5.8.2c-16.265-.051-32.531-.112-48.8.019-2.711-.057-5.418.1-8.125.224-1.223.057-2.135,1-2.968,1.786-3.125,3.2-5.318,7.157-8.328,10.448a4.567,4.567,0,0,1-2.941,1.757,163.553,163.553,0,0,1-18.682.545c-5.594-.127-11.19.024-16.784-.182-1.511-.018-3.025-.015-4.536.067-3.619.121-7.3-.076-10.854.748-.891.139-1.12,1.108-1.442,1.8a128.65,128.65,0,0,0-4.887,15.27,15.47,15.47,0,0,0-.581,4.306,6.673,6.673,0,0,0,2.714.945c1.427-.131,2.835-.169,4.218-.2C395.069,1339.92,395.534,1339.909,396,1339.893Z" transform="translate(-346.713 -1302.197)" fill="#fff"/>
  <path id="Path_528" data-name="Path 528" d="M493.069,1377.279a3.476,3.476,0,0,0-.316-2.706c-1.213-1.752-3.638-2.7-5.639-3.331a14.269,14.269,0,0,0-2.1-.473,24.494,24.494,0,0,0-.241,2.6c-.024.408-.048.814-.079,1.22-.011.991-.058,1.969-.1,2.915a38.714,38.714,0,0,0-.044,4.649c.019.1.037.191.054.261a3.156,3.156,0,0,0,.625.06,5.17,5.17,0,0,0,1.955-.431c.061-.025.12-.056.181-.083,1.4-.93,2.825-1.828,4.138-2.87A16.336,16.336,0,0,0,493.069,1377.279Z" transform="translate(-364.929 -1315.097)" fill="#fff"/>
  <path id="Path_529" data-name="Path 529" d="M402.9,1397.144c-.654-3.282-1.418-6.78-2.32-10.621q-.287,1.058-.574,2.142c-.369,1.388-.74,2.774-1.131,4.154l-.05.163c-.371,1.085-.761,2.165-1.152,3.246-.308.855-.609,1.7-.9,2.531a12.289,12.289,0,0,0,3.542-.409A6.387,6.387,0,0,0,402.9,1397.144Z" transform="translate(-348.427 -1318.061)" fill="#fff"/>
  <path id="Path_530" data-name="Path 530" d="M351.25,1434.615l.171-2.489a25.24,25.24,0,0,1,1.159-5.481l.245-.844c1.655-5.375,3.554-10.653,5.389-15.757l.045-.122q1.03-2.963,2.018-5.989a2.879,2.879,0,0,1-.979.054c-2.846-.248-5.593-1.32-8.476-1.247a6.045,6.045,0,0,0-3.453,1.841,17.914,17.914,0,0,1-4.194,3.1c-1.911.945-4.08,1.608-5.551,3.228a1.164,1.164,0,0,0,.051,1.8,8.729,8.729,0,0,0,3.662,1.457c3.519.791,7.147.706,10.711,1.142a4.422,4.422,0,0,1,2.811,1.133c.451,1.1-.049,2.3-.424,3.35a91.7,91.7,0,0,0-4.218,11.865,4.791,4.791,0,0,0,.021,2.995c.736,1.078,2.22.83,3.343.86l.256-.014c-.075-.023-.149-.042-.224-.068Z" transform="translate(-337.224 -1321.111)" fill="#fff"/>
  <path id="Path_531" data-name="Path 531" d="M629.366,1388.713a2.28,2.28,0,0,1-1.874-1.883c.03-1.586,1.259-2.941,1.051-4.546-.5-.727-1.5-.536-2.247-.481-2.444.355-4.676,1.481-6.972,2.329-5.369,2.089-10.8,4.318-16.583,4.921a12.754,12.754,0,0,1-3.4-.124A46.75,46.75,0,0,1,604.2,1399.5c1.144,4.123,1.322,7.438.572,10.479-1.056,3.89-3.3,7.428-7.076,11.209a47.747,47.747,0,0,1-11.7,8.272,35.894,35.894,0,0,0-4.169,2.459l-1.051.68-.055.032a6.8,6.8,0,0,1-3.454,1.117,4.735,4.735,0,0,1-2.449-.678,10.182,10.182,0,0,1-3.358-3.537c-.141-.213-.282-.428-.426-.633l-.07-.1-.062-.1c-.585-.983-1.2-1.95-1.813-2.917-1.076-1.7-2.188-3.449-3.17-5.314l-.056-.11a5.282,5.282,0,0,1-.283-4.991,29.714,29.714,0,0,1-2.245,3.163c-.23.292-.459.585-.684.879l-.1.128-.11.118a29.552,29.552,0,0,1-5.557,4.7l-.2.131-.218.1c-.761.345-1.523.748-2.331,1.175a24.656,24.656,0,0,1-6.424,2.617,86.757,86.757,0,0,1-18.112,3.468c-2.894.214-5.92.318-9.254.318-5.516,0-11.078-.291-16.457-.571l-5.034-.259-.571-2.356a13.07,13.07,0,0,1-.4-3.09c-.1-5.177-.006-10.461.284-15.641.208-6.783.326-13.777.44-20.541q.063-3.806.134-7.671c-.069.078-.129.161-.2.237a2.481,2.481,0,0,1-3.368.326,5.391,5.391,0,0,1-.469-.454c-.036.261-.058.524-.108.781-1.145,6.593-5.481,11.367-8.915,14.2a41.075,41.075,0,0,1-11.1,6.375,35.573,35.573,0,0,1-9.944,2.252c-1.116.129-2.216.186-3.281.241a21.473,21.473,0,0,0-5.288.692c-.083.263-.167.646-.23.926-.042.19-.084.378-.127.56a67.7,67.7,0,0,0-.58,9.177c-.028,1.457-.055,2.965-.126,4.465l-.023.87a26.566,26.566,0,0,1-.69,6.3l-.494,1.841-1.849.465a32.073,32.073,0,0,1-7.722.714c-.55.006-1.1.01-1.648.023l-.046,0-1.866-.007c-3.256-.008-6.623-.017-9.99-.3l-2.848-.239-.126-2.854c-.121-2.745,0-5.457.123-8.079.049-1.082.1-2.164.131-3.247.4-8.443.844-17.143,1.347-26.506-.207.093-.417.174-.621.249a45.217,45.217,0,0,1-9.173,1.6,12.489,12.489,0,0,1-3.363-.088c.99,4.39,2.049,8.833,3.076,13.14,1.405,5.891,2.859,11.982,4.155,18.023l.114.55a14.845,14.845,0,0,1,.415,3.144v2.711l-2.667.485a45.72,45.72,0,0,1-7.355.552c-.805.016-1.609.032-2.411.065-1.25.089-2.479.1-3.519.1l-2.047-.006-2.523.007a23.272,23.272,0,0,1-3.381-.2,4.027,4.027,0,0,1-3.343-2.611l-.082-.176-.092-.253a17.838,17.838,0,0,1-.658-5.69c0-.419,0-.83-.011-1.228-.76-.042-1.563-.062-2.418-.062-1.822,0-3.631.088-5.546.182-.992.048-1.983.1-2.973.132-.321.029-.65.051-.982.073a5.251,5.251,0,0,0-2.582.518,8.454,8.454,0,0,0-1.631,3.554,21.174,21.174,0,0,1-1.422,3.754,5.056,5.056,0,0,1-4,2.958c-.852.1-1.735.167-2.657.22a1.955,1.955,0,0,1,.435.6,2.608,2.608,0,0,1-.915,1.99,14.081,14.081,0,0,1-5.539,3.2c-7.486,2.543-15.542,2.843-22.989,5.517a7.566,7.566,0,0,0-2.6,1.4c3.882,1.551,8.174,1.233,12.268,1.545,8.685.7,17.365,1.469,26.059,2.026,4.943.391,9.876.885,14.806,1.384,11.913.578,23.821,1.29,35.748,1.59,15.072.479,30.145.985,45.226,1.094h12.226c21.374-.215,42.791-1.175,63.969-4.218a176.476,176.476,0,0,0,21.208-4.152,66.067,66.067,0,0,0,17.32-7.026,27.149,27.149,0,0,0,9.818-10.164c1.12-2.041,1.956-4.364,3.846-5.85,2.538-1.99,5.727-2.835,8.783-3.67,2.692-.772,5.56-.966,8.128-2.153.606-.322,1.366-.761,1.405-1.533-.188-.968-1.15-1.514-1.932-1.978-2.9-1.486-6.26-1.462-9.337-2.377-.79-.263-1.917-.7-1.871-1.7.248-1.305,1.381-2.172,2.3-3.035,2.865-2.619,6.466-4.149,9.912-5.827,4.558-2.168,9.182-4.2,13.816-6.2a36.847,36.847,0,0,0,6.868-3.652V1389C636.843,1388.543,633.04,1389.7,629.366,1388.713Z" transform="translate(-337.746 -1317.161)" fill="#fff"/>
  <path id="Path_532" data-name="Path 532" d="M606.859,1383.953a20.344,20.344,0,0,1-6.5,4.707,31.194,31.194,0,0,1,9.4,4.688,18,18,0,0,1,6.993,11.521l.036.241v.244a16.427,16.427,0,0,1-1.361,6.595,12.75,12.75,0,0,1-.615,1.254,11.419,11.419,0,0,1,3.6-3.377c.2-.135.4-.269.594-.405,0,0,.718-.475,1.045-.689,2.4-1.571,4.669-3.054,5.812-5.15a4.936,4.936,0,0,0-.133-4.272l-.032-.076a85.722,85.722,0,0,0-5.047-9.989c-1.336-2.385-2.716-4.851-3.938-7.4a48.728,48.728,0,0,1-3.465-9.022,1.272,1.272,0,0,1-.637.047,3.307,3.307,0,0,1-1.449-.445A17.01,17.01,0,0,1,606.859,1383.953Z" transform="translate(-386.727 -1315.408)" fill="#fff"/>
  <path id="Path_533" data-name="Path 533" d="M576.414,1373.559a48.873,48.873,0,0,0-5.488,1.114c-.278.079-.563.166-.848.229a38.156,38.156,0,0,0,.357,5.646,1.4,1.4,0,0,0,.347.037,3,3,0,0,0,.81-.125,9.152,9.152,0,0,0,5.005-3.953,2.587,2.587,0,0,0,.024-2.7C576.555,1373.721,576.483,1373.641,576.414,1373.559Z" transform="translate(-381.029 -1315.622)" fill="#fff"/>
  <path id="Path_534" data-name="Path 534" d="M399.915,1400.812a12.289,12.289,0,0,1-3.542.409,49.7,49.7,0,0,0-1.74,5.917l.05,0c.8.016,1.616.032,2.43.032h0a25.909,25.909,0,0,0,6.644-.682h0c-.037-.221-.073-.442-.1-.663-.341-2-.724-4.065-1.154-6.221A6.383,6.383,0,0,1,399.915,1400.812Z" transform="translate(-348.024 -1320.522)" fill="#fff"/>
  <path id="Path_535" data-name="Path 535" d="M578.347,1407.744c-1.159-1.8-3.683-2.731-5.974-3.46a6.548,6.548,0,0,0-1.5-.268h-.031a7.563,7.563,0,0,0-.417,2.666c-.026,1.08-.1,2.137-.164,3.159a31.989,31.989,0,0,0-.054,5.652,13.237,13.237,0,0,0,3.88-.922l.148-.049c.253-.1.512-.192.772-.285a5.309,5.309,0,0,0,1.282-.563,9.7,9.7,0,0,0,2.2-2.993,3.04,3.04,0,0,0-.085-2.855Z" transform="translate(-381.033 -1321.352)" fill="#fff"/>
  <path id="Path_536" data-name="Path 536" d="M632.283,1393.114a8.1,8.1,0,0,1,0,7.108c-1.72,3.156-4.943,5.015-7.841,6.941-1.232.866-2.647,1.645-3.407,3-.434.7-.012,1.487.312,2.132,1.469,2.789,3.289,5.375,4.9,8.083.812,1.157,1.512,2.52,2.781,3.24.857.537,1.835.006,2.6-.445a49.741,49.741,0,0,1,5.469-3.277,44.547,44.547,0,0,0,10.848-7.661c2.725-2.729,5.194-5.915,6.22-9.692a17.465,17.465,0,0,0-.536-8.789c-1.674-5.708-5.064-10.674-8.134-15.7-1.7-2.865-3.534-5.781-4.164-9.107a6.383,6.383,0,0,1,1.908-5.957c1.862-1.981,4.609-2.68,7.223-2.974.763-.158,2.017-.315,1.95-1.351-.227-1.341-1.23-2.35-1.853-3.513-1.227-2.32-2.16-4.8-3.589-7.007a3.446,3.446,0,0,0-2.039-1.715,16.839,16.839,0,0,0-4.6.07,52.434,52.434,0,0,0-12.08,3.34,15.615,15.615,0,0,0-5.457,3.628,11.654,11.654,0,0,0-3.476,8.2c-.136,4.894,1.832,9.525,3.895,13.861C626.059,1381.479,629.83,1386.972,632.283,1393.114Z" transform="translate(-390.292 -1310.493)" fill="#fff"/>
  <path id="Path_537" data-name="Path 537" d="M500.245,1357.2c-8.825-4.255-18.762-5.845-28.5-5.693a59.348,59.348,0,0,0-14.873,1.844,2.275,2.275,0,0,0-1.841,2.008c-.184,1.92.058,3.856-.079,5.779q-1.449,25.284-2.686,50.571c-.11,3.7-.418,7.386-.255,11.087,3.843.321,7.7.273,11.557.294,2.889-.067,5.824.073,8.652-.639a28.372,28.372,0,0,0,.606-6.48c.221-4.71.015-9.461.763-14.131.315-1.257.473-2.823,1.642-3.6,3.2-1.335,6.759-1.008,10.135-1.405a32.688,32.688,0,0,0,9.052-2.029,38.557,38.557,0,0,0,10.263-5.872c3.795-3.131,6.935-7.371,7.792-12.3a15.086,15.086,0,0,0-2.078-10.5A23.354,23.354,0,0,0,500.245,1357.2ZM489.8,1375.259a17.717,17.717,0,0,1-7.486,6.154,7.217,7.217,0,0,1-5.588.209,3.406,3.406,0,0,1-1.523-2.7c-.218-2.7.106-5.4.127-8.1a26.649,26.649,0,0,1,.651-5.466c.163-.533.4-1.163,1.008-1.3a9.336,9.336,0,0,1,4.93.451c2.819.884,5.766,2.162,7.465,4.712A6.624,6.624,0,0,1,489.8,1375.259Z" transform="translate(-358.81 -1311.472)" fill="#fff"/>
  <path id="Path_538" data-name="Path 538" d="M590.3,1356.341c-4.676-3.192-10.39-4.573-15.983-4.855-5.56-.442-11.127.055-16.687.185-2.008.239-4.037.088-6.041.3-2.557.751-5.239.294-7.85.569-1.266.158-2.656.145-3.725.936-.812,17.062-.745,34.151-1.272,51.219q-.431,7.722-.278,15.46a9.938,9.938,0,0,0,.312,2.326c9.292.473,18.619,1.082,27.916.394a84.261,84.261,0,0,0,17.568-3.383c2.976-.594,5.484-2.362,8.2-3.594a26.345,26.345,0,0,0,4.943-4.183,23.989,23.989,0,0,0,3.4-5.06,13.091,13.091,0,0,0,1.081-5.281,14.8,14.8,0,0,0-5.766-9.431c-3.541-2.734-7.887-4.055-12.111-5.312-1.275-.448-2.814-.681-3.588-1.92a10.46,10.46,0,0,1,3.007-1.384c3.446-1.2,6.929-2.771,9.394-5.557,2.976-3.21,3.867-7.874,3.249-12.111C595.895,1361.814,593.421,1358.437,590.3,1356.341Zm-29.106,10a3.423,3.423,0,0,1,1.617-2.495c1.584-.83,3.391-.233,5,.191a9.809,9.809,0,0,1,5.415,3.589,5.762,5.762,0,0,1,.242,6.287,12.4,12.4,0,0,1-6.841,5.451,4.79,4.79,0,0,1-4.134-.4c-.581-.548-1.281-1.23-1.154-2.105l-.03.3A37.438,37.438,0,0,1,561.2,1366.344Zm14.324,35.681a12.782,12.782,0,0,1-2.88,4.01,8.782,8.782,0,0,1-3.256,1.623,14.845,14.845,0,0,1-5.648,1.151,2.809,2.809,0,0,1-2.528-1.617c-.679-3.465-.079-7,.006-10.494a8.017,8.017,0,0,1,1.344-4.973c1.251-1.272,3.229-.9,4.773-.472,2.914.924,6.057,2.132,7.786,4.818A6.229,6.229,0,0,1,575.522,1402.025Z" transform="translate(-375.076 -1311.436)" fill="#fff"/>
  <path id="Path_539" data-name="Path 539" d="M378.91,1422.284c1.383-2.635,1.439-5.963,3.671-8.132,1.493-1.444,3.694-1.317,5.614-1.5,4.673-.164,9.382-.627,14.043,0,.754,2.916-.082,6.018.857,8.9.163.348.354.83.821.821a33.935,33.935,0,0,0,4.842.17c2.017-.015,4.037.054,6.051-.094a68.183,68.183,0,0,0,9.37-.57,15.392,15.392,0,0,0-.457-3.013c-2.286-10.654-5-21.211-7.386-31.844-.875-4.761-2.029-9.464-2.995-14.209-1.139-5.457-2.235-10.926-3.364-16.387-.339-1.354-.682-3.022-2.09-3.658a12.81,12.81,0,0,0-4.542-.39c-3.749.124-7.5.036-11.248.131-3.425.2-6.933-.019-10.278.869a151.206,151.206,0,0,0-5.424,14.57c-1.811,5.57-3.758,11.1-5.518,16.683-1.781,5.657-3.574,11.311-5.521,16.911-1.869,5.193-3.74,10.39-5.366,15.668a27.775,27.775,0,0,0-1.288,5.657c2.466.842,5.116.633,7.675.857a76.764,76.764,0,0,0,11.1-.209C378.174,1423.474,378.6,1422.837,378.91,1422.284Zm5.535-23.413c.794-4.615,2.641-8.955,4.146-13.364,1.305-4.6,2.363-9.285,4.012-13.78.325-.736.53-1.662,1.33-2.032a43.9,43.9,0,0,1,1.59,5.254c1.745,7.117,3.353,14.273,4.582,21.5a9.158,9.158,0,0,1,.215,2.5c-.3,1.051-1.465,1.475-2.408,1.771a35.377,35.377,0,0,1-10.063.782,10.062,10.062,0,0,1-3.079-.449C384.152,1400.515,384.445,1399.582,384.445,1398.871Z" transform="translate(-341.264 -1311.634)" fill="#fff"/>
  <path id="Path_540" data-name="Path 540" d="M344.67,1489.159a4.8,4.8,0,0,0-2.14-.434h-3.988v10.829h2.173V1495.4h1.815a4.681,4.681,0,0,0,2.21-.466,3.011,3.011,0,0,0,1.288-1.227,3.5,3.5,0,0,0-.031-3.35A3.021,3.021,0,0,0,344.67,1489.159Zm-.9,4.072a1.876,1.876,0,0,1-1.334.411h-1.722v-3.149h1.722q1.768,0,1.768,1.582A1.513,1.513,0,0,1,343.77,1493.231Z" transform="translate(-337.472 -1337.288)" fill="#fff"/>
  <path id="Path_541" data-name="Path 541" d="M349.453,1490.478h2.885v9.076h2.172v-9.076H357.4v-1.753h-7.943Z" transform="translate(-339.525 -1337.288)" fill="#fff"/>
  <path id="Path_542" data-name="Path 542" d="M368.807,1488.706l-3.894,10.844h2.281l.714-2.064h4.313l.713,2.064h2.3l-3.895-10.844Zm-.309,7.042,1.567-4.529,1.567,4.529Z" transform="translate(-342.433 -1337.284)" fill="#fff"/>
  <path id="Path_543" data-name="Path 543" d="M381.589,1488.725h-2.172v10.829h5.741v-1.723h-3.568Z" transform="translate(-345.162 -1337.288)" fill="#fff"/>
  <path id="Path_544" data-name="Path 544" d="M394.711,1495.427a2.294,2.294,0,0,1-.573,1.682,2.186,2.186,0,0,1-1.629.582,2.162,2.162,0,0,1-1.614-.582,2.294,2.294,0,0,1-.573-1.682v-6.7h-2.173v6.687a4.443,4.443,0,0,0,.575,2.335,3.659,3.659,0,0,0,1.558,1.435,4.94,4.94,0,0,0,2.2.482,5.071,5.071,0,0,0,2.226-.482,3.8,3.8,0,0,0,1.6-1.435,4.316,4.316,0,0,0,.6-2.335v-6.687h-2.188Z" transform="translate(-346.804 -1337.288)" fill="#fff"/>
  <path id="Path_545" data-name="Path 545" d="M408.86,1493.975a3.361,3.361,0,0,0,.179-3.614,3.094,3.094,0,0,0-1.326-1.2,4.762,4.762,0,0,0-2.142-.441h-4.064v10.829h2.172v-4.219H404.7l2.389,4.219h2.514l-2.591-4.391A3.192,3.192,0,0,0,408.86,1493.975Zm-3.366-.272h-1.815v-3.178h1.815a1.85,1.85,0,0,1,1.318.411,1.513,1.513,0,0,1,.434,1.156,1.585,1.585,0,0,1-.434,1.186A1.81,1.81,0,0,1,405.494,1493.7Z" transform="translate(-349.317 -1337.288)" fill="#fff"/>
  <path id="Path_546" data-name="Path 546" d="M424.432,1489.159a4.805,4.805,0,0,0-2.141-.434H418.3v10.829h2.172V1495.4h1.815a4.686,4.686,0,0,0,2.211-.466,3,3,0,0,0,1.288-1.227,3.5,3.5,0,0,0-.031-3.35A3.019,3.019,0,0,0,424.432,1489.159Zm-.9,4.072a1.875,1.875,0,0,1-1.334.411h-1.722v-3.149H422.2q1.768,0,1.768,1.582A1.51,1.51,0,0,1,423.532,1493.231Z" transform="translate(-352.477 -1337.288)" fill="#fff"/>
  <path id="Path_547" data-name="Path 547" d="M429.921,1499.55H436.2v-1.768h-4.111v-2.87h3.645v-1.723h-3.645v-2.714H436.2v-1.768h-6.283Z" transform="translate(-354.663 -1337.284)" fill="#fff"/>
  <path id="Path_548" data-name="Path 548" d="M442.26,1488.725h-2.172v10.829h5.741v-1.723H442.26Z" transform="translate(-356.575 -1337.288)" fill="#fff"/>
  <path id="Path_549" data-name="Path 549" d="M451.932,1488.706l-3.894,10.844h2.281l.714-2.064h4.314l.713,2.064h2.3l-3.895-10.844Zm-.31,7.042,1.567-4.529,1.567,4.529Z" transform="translate(-358.071 -1337.284)" fill="#fff"/>
  <path id="Path_550" data-name="Path 550" d="M466.211,1493.673l-2.327-4.949h-2.452l3.677,7.059v3.769h2.173v-3.769l3.661-7.059h-2.421Z" transform="translate(-360.591 -1337.288)" fill="#fff"/>
  <path id="Path_551" data-name="Path 551" d="M477.767,1488.706l-3.894,10.844h2.281l.714-2.064h4.313l.713,2.064h2.3l-3.895-10.844Zm-.31,7.042,1.567-4.529,1.567,4.529Z" transform="translate(-362.931 -1337.284)" fill="#fff"/>
  <path id="Path_552" data-name="Path 552" d="M495.73,1493.975a3.366,3.366,0,0,0,.179-3.614,3.1,3.1,0,0,0-1.327-1.2,4.758,4.758,0,0,0-2.141-.441h-4.065v10.829h2.173v-4.219h1.023l2.39,4.219h2.513l-2.591-4.391A3.2,3.2,0,0,0,495.73,1493.975Zm-3.366-.272h-1.815v-3.178h1.815a1.852,1.852,0,0,1,1.318.411,1.516,1.516,0,0,1,.434,1.156,1.588,1.588,0,0,1-.434,1.186A1.811,1.811,0,0,1,492.364,1493.7Z" transform="translate(-365.66 -1337.288)" fill="#fff"/>
  <path id="Path_553" data-name="Path 553" d="M503.7,1488.706,499.8,1499.55h2.281l.714-2.064h4.314l.713,2.064h2.3l-3.895-10.844Zm-.309,7.042,1.566-4.529,1.567,4.529Z" transform="translate(-367.81 -1337.284)" fill="#fff"/>
  <path id="Path_554" data-name="Path 554" d="M521.4,1496.153l-4.918-7.447h-2.172v10.844h2.172v-7.432l4.918,7.432h2.172v-10.844H521.4Z" transform="translate(-370.538 -1337.284)" fill="#fff"/>
  <path id="Path_555" data-name="Path 555" d="M539.044,1494a2.7,2.7,0,0,0,1.342-.9,2.475,2.475,0,0,0,.5-1.584,2.608,2.608,0,0,0-.412-1.443,2.7,2.7,0,0,0-1.21-.991,4.62,4.62,0,0,0-1.9-.357H532.9v10.829h4.67a4.518,4.518,0,0,0,1.909-.373,2.844,2.844,0,0,0,1.233-1.032,2.752,2.752,0,0,0,.427-1.528,2.675,2.675,0,0,0-.59-1.707A2.44,2.44,0,0,0,539.044,1494Zm-3.972-3.521h1.985a1.788,1.788,0,0,1,1.194.357,1.248,1.248,0,0,1,.42,1.008,1.225,1.225,0,0,1-.42,1,1.81,1.81,0,0,1-1.194.349h-1.985Zm3.42,6.935a1.856,1.856,0,0,1-1.233.373h-2.187v-2.918h2.14a1.88,1.88,0,0,1,1.257.4,1.358,1.358,0,0,1,.465,1.094A1.3,1.3,0,0,1,538.493,1497.413Z" transform="translate(-374.036 -1337.288)" fill="#fff"/>
  <path id="Path_556" data-name="Path 556" d="M548.26,1488.706l-3.894,10.844h2.281l.714-2.064h4.313l.713,2.064h2.3l-3.895-10.844Zm-.309,7.042,1.566-4.529,1.567,4.529Z" transform="translate(-376.193 -1337.284)" fill="#fff"/>
  <path id="Path_557" data-name="Path 557" d="M566.223,1493.975a3.366,3.366,0,0,0,.179-3.614,3.1,3.1,0,0,0-1.326-1.2,4.764,4.764,0,0,0-2.142-.441h-4.065v10.829h2.173v-4.219h1.024l2.389,4.219h2.513l-2.591-4.391A3.2,3.2,0,0,0,566.223,1493.975Zm-3.366-.272h-1.815v-3.178h1.815a1.85,1.85,0,0,1,1.318.411,1.516,1.516,0,0,1,.434,1.156,1.588,1.588,0,0,1-.434,1.186A1.81,1.81,0,0,1,562.857,1493.7Z" transform="translate(-378.921 -1337.288)" fill="#fff"/>
  <path id="Path_558" data-name="Path 558" d="M574.191,1488.706,570.3,1499.55h2.281l.714-2.064H577.6l.713,2.064h2.3l-3.895-10.844Zm-.309,7.042,1.567-4.529,1.566,4.529Z" transform="translate(-381.071 -1337.284)" fill="#fff"/>
  <path id="Path_559" data-name="Path 559" d="M584.094,1490.478h2.885v9.076h2.172v-9.076h2.885v-1.753h-7.943Z" transform="translate(-383.667 -1337.288)" fill="#fff"/>
  <path id="Path_560" data-name="Path 560" d="M606.251,1493.824a12.474,12.474,0,0,0-1.722-.621,12.5,12.5,0,0,1-1.2-.411,2.19,2.19,0,0,1-.714-.465.984.984,0,0,1-.287-.723,1.179,1.179,0,0,1,.38-.946,1.509,1.509,0,0,1,1.016-.326,1.789,1.789,0,0,1,1.171.364,1.247,1.247,0,0,1,.473.925h2.389a3.015,3.015,0,0,0-1.155-2.273,4.3,4.3,0,0,0-2.723-.816,4.911,4.911,0,0,0-1.985.381,3.052,3.052,0,0,0-1.35,1.094,2.93,2.93,0,0,0-.482,1.676,2.606,2.606,0,0,0,.473,1.636,2.989,2.989,0,0,0,1.133.916,13.008,13.008,0,0,0,1.714.612,12.407,12.407,0,0,1,1.218.4,2.067,2.067,0,0,1,.737.488,1.105,1.105,0,0,1,.294.792,1.186,1.186,0,0,1-.434.955,1.8,1.8,0,0,1-1.2.364,1.675,1.675,0,0,1-1.171-.387,1.506,1.506,0,0,1-.473-1.056H600.03a2.937,2.937,0,0,0,.544,1.723,3.348,3.348,0,0,0,1.435,1.118,5.15,5.15,0,0,0,2.04.387,4.493,4.493,0,0,0,2.064-.443,3.186,3.186,0,0,0,1.319-1.185,3.079,3.079,0,0,0,.449-1.614,2.584,2.584,0,0,0-.481-1.629A3.073,3.073,0,0,0,606.251,1493.824Z" transform="translate(-386.665 -1337.252)" fill="#fff"/>
  <path id="Path_561" data-name="Path 561" d="M618.536,1495.427a2.3,2.3,0,0,1-.574,1.682,2.184,2.184,0,0,1-1.629.582,2.16,2.16,0,0,1-1.614-.582,2.294,2.294,0,0,1-.574-1.682v-6.7h-2.173v6.687a4.451,4.451,0,0,0,.575,2.335,3.66,3.66,0,0,0,1.559,1.435,4.938,4.938,0,0,0,2.2.482,5.068,5.068,0,0,0,2.226-.482,3.793,3.793,0,0,0,1.6-1.435,4.323,4.323,0,0,0,.6-2.335v-6.687h-2.187Z" transform="translate(-388.912 -1337.288)" fill="#fff"/>
  <path id="Path_562" data-name="Path 562" d="M632.685,1493.975a3.226,3.226,0,0,0,.62-1.931,3.26,3.26,0,0,0-.442-1.683,3.1,3.1,0,0,0-1.327-1.2,4.759,4.759,0,0,0-2.141-.441h-4.065v10.829H627.5v-4.219h1.023l2.39,4.219h2.513l-2.591-4.391A3.2,3.2,0,0,0,632.685,1493.975Zm-3.366-.272H627.5v-3.178h1.815a1.852,1.852,0,0,1,1.318.411,1.516,1.516,0,0,1,.434,1.156,1.588,1.588,0,0,1-.434,1.186A1.811,1.811,0,0,1,629.319,1493.7Z" transform="translate(-391.425 -1337.288)" fill="#fff"/>
  <path id="Path_563" data-name="Path 563" d="M640.653,1488.706l-3.894,10.844h2.281l.714-2.064h4.313l.713,2.064h2.3l-3.895-10.844Zm-.31,7.042,1.567-4.529,1.567,4.529Z" transform="translate(-393.574 -1337.284)" fill="#fff"/>
  <path id="Path_564" data-name="Path 564" d="M657.406,1494a2.7,2.7,0,0,0,1.342-.9,2.475,2.475,0,0,0,.5-1.584,2.614,2.614,0,0,0-.411-1.443,2.7,2.7,0,0,0-1.211-.991,4.62,4.62,0,0,0-1.9-.357h-4.469v10.829h4.671a4.517,4.517,0,0,0,1.908-.373,2.84,2.84,0,0,0,1.233-1.032,2.752,2.752,0,0,0,.427-1.528,2.675,2.675,0,0,0-.59-1.707A2.44,2.44,0,0,0,657.406,1494Zm-3.972-3.521h1.985a1.79,1.79,0,0,1,1.2.357,1.25,1.25,0,0,1,.419,1.008,1.227,1.227,0,0,1-.419,1,1.812,1.812,0,0,1-1.2.349h-1.985Zm3.42,6.935a1.855,1.855,0,0,1-1.233.373h-2.187v-2.918h2.141a1.878,1.878,0,0,1,1.256.4,1.356,1.356,0,0,1,.466,1.094A1.3,1.3,0,0,1,656.855,1497.413Z" transform="translate(-396.303 -1337.288)" fill="#fff"/>
  <path id="Path_565" data-name="Path 565" d="M666.622,1488.706l-3.894,10.844h2.281l.714-2.064h4.313l.713,2.064h2.3l-3.895-10.844Zm-.309,7.042,1.567-4.529,1.567,4.529Z" transform="translate(-398.46 -1337.284)" fill="#fff"/>
  <path id="Path_566" data-name="Path 566" d="M680.9,1493.673l-2.327-4.949h-2.452l3.677,7.059v3.769h2.172v-3.769l3.661-7.059h-2.421Z" transform="translate(-400.98 -1337.288)" fill="#fff"/>
  <path id="Path_567" data-name="Path 567" d="M692.457,1488.706l-3.894,10.844h2.281l.714-2.064h4.313l.713,2.064h2.3l-3.895-10.844Zm-.309,7.042,1.567-4.529,1.567,4.529Z" transform="translate(-403.32 -1337.284)" fill="#fff"/>
</svg>
