<svg id="Group_253" data-name="Group 253" xmlns="http://www.w3.org/2000/svg" width="174.392" height="162.375" viewBox="0 0 174.392 162.375">
  <g id="Group_251" data-name="Group 251">
    <path id="Path_628" data-name="Path 628" d="M793.433,1302.2q24.775,18.876,49.472,37.863c1.383,1.1,2.854,2.109,4.184,3.268q.075,46.209.092,92.421-26.892-.015-53.781-.01-.007-64.586,0-129.175C793.422,1305.113,793.35,1303.655,793.433,1302.2Z" transform="translate(-793.392 -1302.198)" fill="#fff"/>
    <path id="Path_629" data-name="Path 629" d="M983.047,1311.862c4.232-3.215,8.412-6.5,12.683-9.665q-.007,66.765,0,133.531c-17.928.055-35.858.014-53.788.019q.033-46.229.084-92.457Q962.529,1327.57,983.047,1311.862Z" transform="translate(-821.338 -1302.197)" fill="#fff"/>
    <path id="Path_630" data-name="Path 630" d="M814.035,1480.129a1.837,1.837,0,0,1,3.056,2c0,4.807,0,9.617,0,14.424a7.109,7.109,0,0,1-.084.977,6.312,6.312,0,0,1-2.72.223c-.382-.038-.931-.223-.869-.706q0-8.167,0-16.331A.577.577,0,0,1,814.035,1480.129Z" transform="translate(-797.159 -1335.646)" fill="#fff"/>
    <path id="Path_631" data-name="Path 631" d="M852.416,1480.435a3.478,3.478,0,0,1,2.441-.407c.425.07,1.159.072,1.171.654.024,3.6,0,7.212.01,10.819a3.455,3.455,0,0,0,2.047,3.249,4,4,0,0,0,4.1-.688,4.8,4.8,0,0,0,1.017-3.528c.012-3.366-.041-6.738.024-10.1.923-.712,2.311-.425,3.405-.219a2.514,2.514,0,0,1,.153.962c-.011,2.967,0,5.936,0,8.905a8.7,8.7,0,0,1-1.157,5.252,6.665,6.665,0,0,1-5,2.643,8.857,8.857,0,0,1-5.923-1.277,6.309,6.309,0,0,1-2.313-5.207C852.407,1487.806,852.353,1484.119,852.416,1480.435Z" transform="translate(-804.49 -1335.642)" fill="#fff"/>
    <g id="Group_246" data-name="Group 246" transform="translate(101.648 144.355)">
      <path id="Path_632" data-name="Path 632" d="M924.171,1480.837c.3-1.1,1.674-.76,2.525-.835.847.077,2.229-.24,2.5.865,1.664,4.819,3.357,9.629,5.035,14.443a9.153,9.153,0,0,1,.577,2c-.173.61-.926.443-1.4.486a5,5,0,0,1-2.368-.277c-.414-1.277-.811-2.558-1.254-3.823-2.19.033-4.383-.051-6.572.046-.37,1.238-.721,2.491-1.2,3.692-.748.642-1.871.266-2.773.339-.642.024-.782-.721-.517-1.18C920.516,1491.331,922.351,1486.086,924.171,1480.837Zm-.062,10.064c1.556-.022,3.114,0,4.67-.005l.075-.11c-.7-2.417-1.628-4.771-2.3-7.2C925.646,1485.992,924.924,1488.464,924.109,1490.9Z" transform="translate(-918.593 -1480.002)" fill="#fff"/>
    </g>
    <path id="Path_633" data-name="Path 633" d="M941.289,1480.431c.93-.7,2.289-.418,3.379-.233.36.58.153,1.293.2,1.94.045,1.638-.1,3.285.079,4.915,2.129-.043,4.259-.033,6.388,0,.1-2.193-.022-4.393.058-6.587.5-.581,1.443-.43,2.15-.456.493.079,1.4,0,1.45.68q.028,8.192,0,16.386c-.01.7-.945.7-1.452.714-.7-.058-1.712.195-2.155-.467-.051-2.4,0-4.8-.024-7.2q-3.232.015-6.464,0c-.08,2.309,0,4.62-.036,6.931.065.5-.512.688-.9.714a5.75,5.75,0,0,1-2.684-.255C941.258,1491.812,941.244,1486.12,941.289,1480.431Z" transform="translate(-821.21 -1335.643)" fill="#fff"/>
    <g id="Group_247" data-name="Group 247" transform="translate(135.95 144.352)">
      <path id="Path_634" data-name="Path 634" d="M966.728,1480.3a2.979,2.979,0,0,1,1.563-.3,9.211,9.211,0,0,1,2.881.238c1.818,4.747,3.373,9.6,5.086,14.39a12.208,12.208,0,0,1,.782,2.66c-.2.755-1.178.406-1.746.5-.685-.084-1.793.269-2.078-.589-.39-1.163-.772-2.328-1.135-3.5-2.193-.016-4.387-.009-6.577,0-.332,1.173-.733,2.325-1.106,3.486-.217.7-1.068.587-1.638.606-.623-.06-1.366.166-1.866-.305a1.908,1.908,0,0,1,.168-1.177q2.507-7.214,5.017-14.426A6.4,6.4,0,0,1,966.728,1480.3Zm2,3.316c-.731,2.448-1.642,4.84-2.328,7.3,1.585-.039,3.17-.034,4.754,0C970.378,1488.471,969.6,1486.025,968.728,1483.616Z" transform="translate(-960.844 -1479.998)" fill="#fff"/>
    </g>
    <path id="Path_635" data-name="Path 635" d="M1002.855,1480.235a2.005,2.005,0,0,1,3.528,1.888q0,6.627,0,13.253a11,11,0,0,1-.094,2.162,5.9,5.9,0,0,1-3.1.123c-.428-.055-.505-.5-.466-.854q.007-6.731,0-13.466A15.006,15.006,0,0,1,1002.855,1480.235Z" transform="translate(-832.77 -1335.647)" fill="#fff"/>
    <path id="Path_636" data-name="Path 636" d="M794.618,1480.184c3.364-.11,6.735-.016,10.1-.048a25.861,25.861,0,0,1,2.893.067c.265.909.534,2.2-.25,2.907-1.486.063-2.975-.041-4.46.05.053,3.836.01,7.674.023,11.512a23.887,23.887,0,0,1-.072,2.881,5.072,5.072,0,0,1-3.446-.024c-.037-.115-.105-.348-.142-.464,0-4.632-.031-9.263.02-13.9-1.477-.118-2.958.012-4.432-.062-.3-.065-.37-.433-.46-.671A4.421,4.421,0,0,1,794.618,1480.184Z" transform="translate(-793.573 -1335.671)" fill="#fff"/>
    <path id="Path_637" data-name="Path 637" d="M822.521,1481.684a1.337,1.337,0,0,1,1.228-1.525,27.061,27.061,0,0,1,3.336.036,2.059,2.059,0,0,1,1.786,1.412q1.826,5.119,3.687,10.225c.058.267.108.544.154.825.214-.1.211-.433.33-.613,1.276-3.458,2.6-6.9,3.876-10.359a2,2,0,0,1,1.72-1.506,24.582,24.582,0,0,1,3.362,0,1.129,1.129,0,0,1,1,1.254c.007,5.37.029,10.74-.011,16.109a5.812,5.812,0,0,1-2.7.226c-.325-.082-.8-.241-.7-.676q0-6.259,0-12.519a3.208,3.208,0,0,0-.12-1.28c-1.556,4.615-3.247,9.186-4.862,13.785a1.014,1.014,0,0,1-1.017.714,5.262,5.262,0,0,1-2.614-.291c-1.707-4.786-3.285-9.614-4.982-14.405-.053,4.819.067,9.643-.06,14.46a6.051,6.051,0,0,1-2.715.2c-.32-.075-.772-.272-.695-.679Q822.523,1489.385,822.521,1481.684Z" transform="translate(-798.87 -1335.67)" fill="#fff"/>
    <g id="Group_248" data-name="Group 248" transform="translate(66.009 144.458)">
      <path id="Path_638" data-name="Path 638" d="M874.7,1481.428c-.044-.58.272-1.306.955-1.265,1.9-.049,3.818-.044,5.725.007a6.013,6.013,0,0,1,4.548,1.8,4.9,4.9,0,0,1-.8,6.767,4.342,4.342,0,0,1-1.551.748c1.832,1.073,2.4,3.223,3.225,5.034a12.13,12.13,0,0,1,1.02,2.814c-.2.56-.921.44-1.39.48a5.4,5.4,0,0,1-2.379-.26c-.637-1.542-1.233-3.1-1.883-4.639a4.1,4.1,0,0,0-1.505-2.068,4.317,4.317,0,0,0-2.335-.25c0,2.315.069,4.634-.034,6.947a6.131,6.131,0,0,1-2.686.24c-.4-.026-.974-.233-.9-.728Q874.7,1489.243,874.7,1481.428Zm3.624,1.486c.043,1.635,0,3.271.026,4.909a8.866,8.866,0,0,0,3.514-.364,2.444,2.444,0,0,0,.146-4.2A8.562,8.562,0,0,0,878.324,1482.914Z" transform="translate(-874.696 -1480.129)" fill="#fff"/>
    </g>
    <g id="Group_249" data-name="Group 249" transform="translate(87.906 144.455)">
      <path id="Path_639" data-name="Path 639" d="M901.669,1481.432c0-.479.137-1.14.7-1.231,1.107-.147,2.229-.029,3.342-.065,1.917.022,3.975-.127,5.707.852a4.168,4.168,0,0,1,.8,6.473,5.9,5.9,0,0,1-1.124.76,4.1,4.1,0,0,1,3.222,3.062,5.464,5.464,0,0,1-.531,3.744,5.674,5.674,0,0,1-3.752,2.458,34.913,34.913,0,0,1-6.245.279,3.37,3.37,0,0,1-1.674-.217,1.348,1.348,0,0,1-.45-1.2Q901.671,1488.886,901.669,1481.432Zm3.559,1.45c.015,1.5-.029,3,.031,4.495a10.918,10.918,0,0,0,3.29-.282,2.332,2.332,0,0,0,.539-3.7C907.973,1482.562,906.511,1482.988,905.229,1482.882Zm0,7.152c0,1.623,0,3.249,0,4.875,1.041-.007,2.085.015,3.128-.01a2.358,2.358,0,0,0,2.16-1.457,2.4,2.4,0,0,0-1.428-3.182A15.465,15.465,0,0,0,905.229,1490.034Z" transform="translate(-901.667 -1480.125)" fill="#fff"/>
    </g>
    <g id="Group_250" data-name="Group 250" transform="translate(154.331 144.458)">
      <path id="Path_640" data-name="Path 640" d="M983.5,1481.214a.982.982,0,0,1,1.094-1.068c2.172.005,4.348-.079,6.514.087a4.71,4.71,0,0,1,4.223,6.653,4.394,4.394,0,0,1-3,2.607c1.693.924,2.292,2.857,3.018,4.514a20.905,20.905,0,0,1,1.27,3.295c-.252.667-1.123.455-1.678.515-.693-.053-1.5.152-2.095-.289-.8-1.731-1.376-3.561-2.212-5.278a2.87,2.87,0,0,0-1.7-1.624,7.472,7.472,0,0,0-1.842-.006q.065,3.354,0,6.717c-.378.649-1.359.418-2,.481-.56-.037-1.625.062-1.587-.757C983.486,1491.778,983.475,1486.495,983.5,1481.214Zm3.591,1.712c.048,1.628,0,3.259.026,4.887,1.375-.02,2.967.223,4.1-.74,1.047-1.034.919-3.226-.526-3.848A8.6,8.6,0,0,0,987.087,1482.926Z" transform="translate(-983.484 -1480.129)" fill="#fff"/>
    </g>
  </g>
  <g id="Group_252" data-name="Group 252" transform="translate(61.322 46.965)">
    <path id="Path_641" data-name="Path 641" d="M901.1,1375.005q9.768-7.488,19.543-14.96c.055,28.846,0,57.694.027,86.539-6.794.13-13.594.012-20.39.058-10.439-.017-20.877.029-31.316-.023-.072-24.779-.007-49.561-.031-74.34.043-4.035-.065-8.073.045-12.108a9.443,9.443,0,0,1,1.91,1.337c7.974,6.072,15.9,12.212,23.884,18.265C896.942,1378.276,898.97,1376.569,901.1,1375.005Z" transform="translate(-868.923 -1360.045)" fill="#fff"/>
  </g>
</svg>
