<svg id="Group_228" data-name="Group 228" xmlns="http://www.w3.org/2000/svg" width="180.921" height="162.375" viewBox="0 0 180.921 162.375">
  <g id="Group_221" data-name="Group 221" transform="translate(24.573)">
    <g id="Group_219" data-name="Group 219">
      <path id="Path_568" data-name="Path 568" d="M1257.578,1302.393a65.677,65.677,0,1,1-25.473,7.262A65.667,65.667,0,0,1,1257.578,1302.393Zm-.329,5.043a60.417,60.417,0,0,0-23.623,7.075,60.783,60.783,0,1,0,23.623-7.075Z" transform="translate(-1196.714 -1302.197)" fill="#fff"/>
    </g>
    <g id="Group_220" data-name="Group 220" transform="translate(9.117 9.153)">
      <path id="Path_569" data-name="Path 569" d="M1260.856,1313.588a56.714,56.714,0,1,1-30.184,11.183A56.732,56.732,0,0,1,1260.856,1313.588Zm-5.365,6.425q.026,21.536.02,43.075a13.951,13.951,0,0,1-1.44,5.768,19.818,19.818,0,0,1-31.684,5.246,20.518,20.518,0,0,1-5.663-13.381c2.6,2.639,6.065,4.752,9.889,4.593,5.893-.227,10.839-5.586,11.1-11.383a11.761,11.761,0,0,0-3.1-8.657c-4.2-4.515-12.01-4.6-16.573-.589a17.9,17.9,0,0,0-5.683,12.643,33.04,33.04,0,0,0,3.4,16.937,24.815,24.815,0,0,0,11.085,10.937,26.879,26.879,0,0,0,14.679,2.414,27.2,27.2,0,0,0,18.546-11.789,23.333,23.333,0,0,0,3.851-12.752c.041-12.877,0-25.753.017-38.634-.037-2.317.092-4.644-.111-6.957C1261.049,1318.343,1258.262,1319.149,1255.491,1320.013Zm17.091,17.585a19.008,19.008,0,0,0-6.838,15.109,29.251,29.251,0,0,1,8.437-9.826,28.437,28.437,0,0,1,18.5-5.409c7.248.318,14.076,3.549,19.7,8.007a22.811,22.811,0,0,0-8.373-9.971C1294.539,1329.415,1281.185,1330.411,1272.582,1337.6Zm2.255,10.343a25.116,25.116,0,0,0-9.186,15.806,34.84,34.84,0,0,1,6.642-7.508,29.322,29.322,0,0,1,19.038-7.008,26.827,26.827,0,0,1,17.27,6.063,32.706,32.706,0,0,1,9.625,13.531,29.4,29.4,0,0,0-2.259-11.481,23.887,23.887,0,0,0-10.011-11.289A28.35,28.35,0,0,0,1274.837,1347.942Zm-3.174,13.442a23.275,23.275,0,0,0-6.307,15.577q0,22.979,0,45.96c2.781-.827,5.555-1.686,8.339-2.5.156-14.594.006-29.191.095-43.785a15.615,15.615,0,0,1,3.709-8.735,19.81,19.81,0,0,1,29.771-1.158,20.443,20.443,0,0,1,5.233,12.911,19.341,19.341,0,0,0-4.348-3.269,10.836,10.836,0,0,0-9.619-.292,12.491,12.491,0,0,0-7.045,11.035,11.533,11.533,0,0,0,6.151,10.245,12.578,12.578,0,0,0,13.676-1.768c3.8-3.376,5.6-8.565,5.592-13.564a33.793,33.793,0,0,0-1.934-12.545,25.514,25.514,0,0,0-11.779-13.89,26.752,26.752,0,0,0-15.3-2.842A27.109,27.109,0,0,0,1271.664,1361.384Zm-60.551,10.313a26.745,26.745,0,0,0,2.615,12.353,24.075,24.075,0,0,0,9.869,10.476c9.591,5.453,22.5,4.663,31.129-2.32a24.848,24.848,0,0,0,8.816-15.478c-4.609,7.049-11.928,12.454-20.287,13.981a27.5,27.5,0,0,1-20.349-3.949A31.337,31.337,0,0,1,1211.113,1371.7ZM1255,1397.559a28.566,28.566,0,0,1-18.232,5.4,34.5,34.5,0,0,1-19.875-8.061,22.546,22.546,0,0,0,8.068,9.809,26.4,26.4,0,0,0,18.6,3.864,25.5,25.5,0,0,0,14.587-7.184,18.45,18.45,0,0,0,5.3-13.676A28.078,28.078,0,0,1,1255,1397.559Z" transform="translate(-1207.944 -1313.471)" fill="#fff"/>
    </g>
  </g>
  <g id="Group_227" data-name="Group 227" transform="translate(0 139.375)">
    <g id="Group_222" data-name="Group 222" transform="translate(9.818 0.112)">
      <path id="Path_570" data-name="Path 570" d="M1186.137,1474.008c.565,0,1.131,0,1.7,0,2.151,5.409,4.033,10.923,6.36,16.257.468.068.931.136,1.4.21-.017.362-.031.732-.047,1.1a41.43,41.43,0,0,0-7.14,0c0-.38,0-.756,0-1.132.6-.054,1.2-.1,1.8-.162a32.384,32.384,0,0,0-1.271-4.033c-1.964-.037-3.929-.034-5.893-.011a24.789,24.789,0,0,0-1.121,3.976c.6.078,1.209.159,1.819.23.02.335.044.674.067,1.016a48.2,48.2,0,0,0-5.239.081c-.007-.292-.02-.878-.028-1.168.444-.045.887-.089,1.331-.129C1182.273,1484.961,1184.044,1479.417,1186.137,1474.008Zm-.2,4.5c-.8,2.087-1.575,4.179-2.354,6.276q2.377.056,4.749-.007C1187.613,1482.655,1186.824,1480.558,1185.934,1478.506Z" transform="translate(-1178.54 -1474.005)" fill="#fff"/>
    </g>
    <path id="Path_571" data-name="Path 571" d="M1205.115,1474.24a10.775,10.775,0,0,1,7.221.558,26.159,26.159,0,0,0-.4,3.882c-.322,0-.644.01-.962.02a7.649,7.649,0,0,0-.315-2.327,4.538,4.538,0,0,0-4.426-.928,2.855,2.855,0,0,0-.976,4.664c2.188,1.354,5.44.474,7.16,2.682a5.89,5.89,0,0,1-2.617,8.3,10.056,10.056,0,0,1-8.353-.535,31.664,31.664,0,0,0,.369-4.342l.979.027c.122,1.009-.234,2.33.749,3.007,1.7,1.426,4.788,1.707,6.2-.247.85-1.263.833-3.5-.7-4.234-2.035-.925-4.633-.488-6.34-2.121C1200.428,1480.028,1201.739,1475.228,1205.115,1474.24Z" transform="translate(-1173.031 -1473.867)" fill="#fff"/>
    <g id="Group_223" data-name="Group 223" transform="translate(41.987 0.101)">
      <path id="Path_572" data-name="Path 572" d="M1225.8,1473.992q.834.006,1.677.017c2.144,5.405,4.051,10.912,6.358,16.25.457.068.914.132,1.375.2,0,.274,0,.823.007,1.094a45.251,45.251,0,0,0-7.208.014l.014-1.115c.61-.061,1.219-.119,1.829-.186a36.57,36.57,0,0,0-1.274-4.028c-1.967-.033-3.935-.03-5.9,0a26.969,26.969,0,0,0-1.118,3.973c.606.078,1.213.159,1.823.23.006.363.017.728.03,1.1a29.165,29.165,0,0,0-5.219,0c-.007-.295-.02-.877-.028-1.172.447-.045.895-.085,1.341-.126C1221.929,1484.963,1223.663,1479.394,1225.8,1473.992Zm-2.577,10.784q2.367.061,4.738,0c-.685-2.113-1.535-4.169-2.316-6.246C1224.71,1480.559,1224.026,1482.693,1223.224,1484.776Z" transform="translate(-1218.163 -1473.992)" fill="#fff"/>
    </g>
    <g id="Group_224" data-name="Group 224" transform="translate(82.579 0.105)">
      <path id="Path_573" data-name="Path 573" d="M1275.761,1474h1.67c2.026,5.138,3.916,10.33,5.988,15.448.2.836,1.053.955,1.771,1.09.014.231.034.7.045.931a67.6,67.6,0,0,0-7.174.112c-.014-.379-.02-.752-.027-1.125.6-.061,1.209-.122,1.815-.19-.363-1.368-.83-2.7-1.311-4.03q-2.936-.025-5.866,0a17.945,17.945,0,0,0-1.111,4c.606.074,1.212.145,1.825.217,0,.274,0,.826,0,1.1a46.28,46.28,0,0,0-5.223-.088c.006-.366.017-.728.028-1.09l1.314-.143C1271.883,1484.936,1273.655,1479.4,1275.761,1474Zm-2.564,10.78c1.582.041,3.164.037,4.745,0-.711-2.151-1.592-4.237-2.374-6.36C1274.775,1480.537,1273.973,1482.653,1273.2,1484.777Z" transform="translate(-1268.161 -1473.997)" fill="#fff"/>
    </g>
    <g id="Group_225" data-name="Group 225" transform="translate(119.919 0.112)">
      <path id="Path_574" data-name="Path 574" d="M1321.741,1474.005c.565,0,1.131,0,1.7.006,2.13,5.413,4.05,10.912,6.354,16.254.46.061.925.122,1.392.187-.02.373-.037.749-.051,1.125a42.706,42.706,0,0,0-7.146-.007c0-.278.006-.833.006-1.111.6-.061,1.2-.119,1.8-.179a33.084,33.084,0,0,0-1.26-4.034c-1.968-.033-3.933-.03-5.9-.006a27.5,27.5,0,0,0-1.115,3.976c.61.078,1.226.159,1.839.234-.02.369-.036.741-.05,1.114a41.028,41.028,0,0,0-5.162-.1c0-.271,0-.816,0-1.09.438-.045.874-.085,1.314-.126C1317.894,1484.972,1319.634,1479.414,1321.741,1474.005Zm-2.564,10.777c1.578.037,3.163.037,4.745-.007-.684-2.11-1.534-4.162-2.316-6.238C1320.654,1480.558,1320,1482.7,1319.177,1484.782Z" transform="translate(-1314.154 -1474.005)" fill="#fff"/>
    </g>
    <g id="Group_226" data-name="Group 226" transform="translate(163.665 0.109)">
      <path id="Path_575" data-name="Path 575" d="M1375.647,1474.018c.572-.01,1.148-.014,1.727-.017,2.1,5.418,4.054,10.9,6.32,16.25.417.057.833.114,1.256.175.085.241.257.722.343.962-2.219.109-4.44-.01-6.659.119-.725.173-.8-.535-.85-1.047.633-.054,1.274-.108,1.914-.173a26.114,26.114,0,0,0-1.233-4.05c-1.971-.02-3.939-.037-5.907.02a14.13,14.13,0,0,0-.992,4c.576.061,1.151.118,1.734.176.017.257.047.766.064,1.019q-2.667-.035-5.328,0c.006-.331.017-.663.03-.992a1.842,1.842,0,0,0,1.857-1.277C1371.958,1484.179,1373.774,1479.084,1375.647,1474.018Zm-2.483,10.756c1.578.047,3.156.041,4.738,0-.769-2.1-1.578-4.176-2.371-6.266C1374.624,1480.551,1373.881,1482.661,1373.164,1484.775Z" transform="translate(-1368.036 -1474.001)" fill="#fff"/>
    </g>
    <path id="Path_576" data-name="Path 576" d="M1167.093,1475.166c.017-.342.034-.68.054-1.019,2.571.081,5.142.064,7.712.007,0,.251-.006.755-.01,1.006-.654.1-1.3.2-1.958.3-.379,3.651-.122,7.329-.233,10.994-.106,2.377.365,4.958-.9,7.119-1.1,1.843-3,3.618-5.314,3.317q0-1.307.017-2.6a2.979,2.979,0,0,0,2.651.806,105.864,105.864,0,0,0,.322-12.041,62.724,62.724,0,0,0-.214-7.576C1168.512,1475.373,1167.805,1475.271,1167.093,1475.166Z" transform="translate(-1166.447 -1473.92)" fill="#fff"/>
    <path id="Path_577" data-name="Path 577" d="M1247.768,1475.317a8.954,8.954,0,0,1-.061-1.2c3.248.192,6.5-.065,9.751.041a3.349,3.349,0,0,1,3.166,2.123,4.9,4.9,0,0,1-.6,4.231,8.02,8.02,0,0,1-2.649,1.951c1.433,2.3,2.794,4.651,4.254,6.933a3.509,3.509,0,0,0,1.686,1.328c0,.175,0,.525.007.7-1.416-.006-2.824.162-4.237.119a9.333,9.333,0,0,1-1.469-2.191c-1.308-2.35-2.876-4.555-4.028-6.99a4.164,4.164,0,0,0,2.92-.982,3.722,3.722,0,0,0,.214-5.03c-.989-.982-2.489-.853-3.759-.722.044,4.891-.468,9.822.22,14.686.565.05,1.131.1,1.7.148,0,.282.007.847.007,1.129a44.568,44.568,0,0,0-7.18-.011c0-.281.007-.85.01-1.131.518-.051,1.037-.1,1.558-.146a68.069,68.069,0,0,0,.251-8.6,35.371,35.371,0,0,0-.315-6.3C1248.73,1475.371,1248.249,1475.341,1247.768,1475.317Z" transform="translate(-1181.734 -1473.915)" fill="#fff"/>
    <path id="Path_578" data-name="Path 578" d="M1290.445,1474.154c2.462.047,4.927.058,7.39,0,.017.321.034.647.054.972-.722.244-2.052,0-1.978,1.121-.146,1.832-.085,3.675-.105,5.514,2.354.05,4.7.057,7.058,0a48.191,48.191,0,0,0-.2-6.256c-.627-.119-1.249-.237-1.873-.348l.014-1c2.483.041,4.969.055,7.451,0,.006.244.016.735.02.983-.664.115-1.321.234-1.982.355a132.673,132.673,0,0,0,0,14.733c.844.176,1.958.072,2.229,1.148-2.377.292-4.782-.061-7.17.193-.684.234-.45-.735-.661-1.07.633-.068,1.271-.132,1.907-.2a49.694,49.694,0,0,0,.257-7.031c-2.35-.051-4.7-.034-7.055,0a43.942,43.942,0,0,0,.278,7.035c.586.057,1.172.108,1.762.166,0,.285,0,.857,0,1.145a63.251,63.251,0,0,0-7.42-.058c0-.243,0-.732-.007-.978.641-.115,1.283-.221,1.927-.332.248-4.907.135-9.828.034-14.74-.654-.123-1.311-.241-1.965-.355C1290.424,1474.9,1290.437,1474.4,1290.445,1474.154Z" transform="translate(-1189.769 -1473.921)" fill="#fff"/>
    <path id="Path_579" data-name="Path 579" d="M1336.318,1474.55c.089-.088.268-.264.356-.352,3.086,0,6.174-.054,9.264-.047a3.474,3.474,0,0,1,3.523,2.266,4.821,4.821,0,0,1-.641,4.084,7.915,7.915,0,0,1-2.659,1.974c1.386,2.238,2.723,4.5,4.115,6.736.477.921,1.6,1.23,2.046,2.172-1.48.071-2.96.206-4.444.169a7.974,7.974,0,0,1-1.371-2c-1.348-2.425-2.93-4.711-4.186-7.187a4.8,4.8,0,0,0,2.617-.677,3.719,3.719,0,0,0,.576-5.317c-.979-1-2.479-.82-3.749-.831,0,4.9-.454,9.833.18,14.706.839.149,1.951.145,1.862,1.327-2.439-.176-4.88-.108-7.319-.084.014-.261.041-.779.054-1.04.5-.047,1.009-.091,1.517-.136a47.176,47.176,0,0,0,.261-6.919,59.812,59.812,0,0,0-.268-7.865C1337.416,1475.3,1336.386,1475.461,1336.318,1474.55Z" transform="translate(-1198.404 -1473.92)" fill="#fff"/>
    <path id="Path_580" data-name="Path 580" d="M1356.54,1474.155q3.958.1,7.915,0c.21,1.332-1.212,1.118-2.069,1.362-.25,5.05.01,10.113-.261,15.16-.162,3.112-2.8,6.455-6.134,6.215q0-1.3,0-2.581a3.215,3.215,0,0,0,2.608.823,33.565,33.565,0,0,0,.359-5.982c.007-3.6-.016-7.21-.01-10.814a15.686,15.686,0,0,0-.234-2.865,16.3,16.3,0,0,1-1.988-.356C1356.679,1474.877,1356.587,1474.4,1356.54,1474.155Z" transform="translate(-1202.105 -1473.921)" fill="#fff"/>
  </g>
</svg>
