<svg id="Group_235" data-name="Group 235" xmlns="http://www.w3.org/2000/svg" width="274.354" height="162.375" viewBox="0 0 274.354 162.375">
  <g id="Group_230" data-name="Group 230" transform="translate(66.813)">
    <path id="Path_581" data-name="Path 581" d="M1666.231,1302.218a13.728,13.728,0,0,1,3.866.235,9.5,9.5,0,0,1,5.79,5.2c.214.711.47,1.41.691,2.12a8.862,8.862,0,0,1-.331,3.927,8.738,8.738,0,0,1-3.86,5.241,12.132,12.132,0,0,1-3.756,1.443,9.492,9.492,0,0,1-7.086-2.208,10.566,10.566,0,0,1-2.883-4.377,11.358,11.358,0,0,0-.2-1.642c-.3-1.2.145-2.394.216-3.592a9.975,9.975,0,0,1,3.925-5.041A7.91,7.91,0,0,1,1666.231,1302.218Z" transform="translate(-1585.224 -1302.197)" fill="#fff"/>
    <path id="Path_582" data-name="Path 582" d="M1635.04,1303.982a14.245,14.245,0,0,1,2.628-1.479,48.138,48.138,0,0,1,5.615,0,9.8,9.8,0,0,1,5.209,4.385,16.352,16.352,0,0,1,.754,1.542,53.179,53.179,0,0,1-.029,6.188c-.192.027-.382.056-.569.088-.019.306-.037.615-.084.921a9.729,9.729,0,0,1-6.4,4.646,31.607,31.607,0,0,1-3.832-.042c-.706-.43-1.568-.478-2.248-.957a9.165,9.165,0,0,1-4.613-6.537c-.041-.983-.038-1.969,0-2.95A9.411,9.411,0,0,1,1635.04,1303.982Z" transform="translate(-1580.159 -1302.239)" fill="#fff"/>
    <g id="Group_229" data-name="Group 229" transform="translate(0 12.403)">
      <path id="Path_583" data-name="Path 583" d="M1568.315,1319.879a3.861,3.861,0,0,1,2.586-2.378c4.8-.047,9.6-.02,14.393-.014.621-.054,1.033.5,1.481.842a6.927,6.927,0,0,1,1.82,3.214q5.144,13.153,10.252,26.319c1.443,4.016,3.157,7.93,4.6,11.947,1.1,2.878,2.259,5.732,3.38,8.6.671,1.861,1.364,3.713,2.151,5.531q1.566,4.068,3.148,8.131a96.161,96.161,0,0,0,4.15,9.845,11.973,11.973,0,0,0,1.348,1.832c.506.032,1.087.14,1.47-.286,3.17-2.619,6.458-5.1,9.591-7.763-2.16-3.281-4.543-6.418-6.611-9.76a55.452,55.452,0,0,1-5.151-9.843,4.144,4.144,0,0,1-.484-1.508c-.062-.72-.693-1.271-.657-2.009a10.234,10.234,0,0,0-.65-2.592c-.052-.478-.02-.959-.084-1.434-.252-.913-.09-1.874-.373-2.781a22.009,22.009,0,0,1,.184-4.895c.011-1.029.288-2.026.279-3.056a12.389,12.389,0,0,0,.729-2.639,40.154,40.154,0,0,1,2.277-5.131,22.757,22.757,0,0,1,13.3-10.617c1.024-.493,2.183-.409,3.239-.785a25.374,25.374,0,0,1,6.183-.378,12.562,12.562,0,0,1,4.368.621,7.262,7.262,0,0,1,2.613.585,23.205,23.205,0,0,1,9.436,5.651,25.468,25.468,0,0,1,6.022,10.34,19,19,0,0,1,.849,4.085c-.041.6.234,1.17.223,1.773a7.173,7.173,0,0,0,.214,2.257,14.157,14.157,0,0,0-.234,3.119c-.32,1.4-.157,2.887-.653,4.26-.371.923-.326,1.951-.731,2.855-1.944,6.575-5.936,12.264-9.746,17.882-.837,1.251-1.819,2.406-2.574,3.71-.223.4.227.666.5.875,2.941,2.078,5.831,4.228,8.767,6.31.883.723,1.974-.027,2.527-.787a32.508,32.508,0,0,0,3.8-7.667c4.039-10.365,8.033-20.752,12.086-31.115,2.008-5.088,3.918-10.216,5.925-15.306,2.216-5.52,4.309-11.087,6.47-16.627a5.7,5.7,0,0,1,1.7-2.836,3.488,3.488,0,0,1,1.978-.776c4.507.014,9.017-.029,13.524.023a3.718,3.718,0,0,1,2.494,1.618,2.6,2.6,0,0,1,.339,2.459c-1.758,4.575-3.56,9.129-5.3,13.709-.942,2.76-2.14,5.425-3.132,8.166-.408,1.373-1.134,2.635-1.51,4.015-5.538,14.195-10.946,28.453-16.452,42.663-2.968,7.453-5.66,15.021-8.693,22.447-1.024,2.867-2.176,5.713-3.248,8.576a5.268,5.268,0,0,1-2.173,2.968,10.3,10.3,0,0,1-2.019-.018,24.776,24.776,0,0,1-2.479-2.026c-5.376-4.543-10.865-8.952-16.4-13.3a102.841,102.841,0,0,1-9.488-8.078c-.9-.184-1.444.633-2.052,1.134-8.332,6.888-16.625,13.825-24.955,20.718a12.817,12.817,0,0,1-1.918,1.555,9.528,9.528,0,0,1-2.03,0,5.112,5.112,0,0,1-1.969-2.487c-2.779-6.96-5.394-13.985-8.15-20.954-2.957-7.96-6.114-15.851-9.126-23.794q-10.581-27.415-21.148-54.858A4.147,4.147,0,0,1,1568.315,1319.879Zm64.447,29.191c-.758.808-.455,1.951-.628,2.946a9.175,9.175,0,0,0,.119,4.239,19.025,19.025,0,0,0,1.053,3.945,55.872,55.872,0,0,0,5.921,10.178l.758-.036c1.643-2.533,3.339-5.04,4.753-7.714a31.468,31.468,0,0,0,2.007-5.259c.155-.65,0-1.339.207-1.982a16.145,16.145,0,0,0-.161-4.512,7.026,7.026,0,0,0-3.268-4.428,5.26,5.26,0,0,0-2.423-.849c-1.04-.011-2.079-.036-3.119.009a5.774,5.774,0,0,0-1.517.067A8.747,8.747,0,0,0,1632.761,1349.07Z" transform="translate(-1568.275 -1317.473)" fill="#fff"/>
    </g>
  </g>
  <g id="Group_233" data-name="Group 233" transform="translate(0.21 11.717)">
    <g id="Group_231" data-name="Group 231" transform="translate(183.824)">
      <path id="Path_584" data-name="Path 584" d="M1755.025,1316.761a18.043,18.043,0,0,1,3.241-.115,7.575,7.575,0,0,1,3.036.288,4.9,4.9,0,0,1,2.2,1.513c1.94,2.426,2.7,5.492,3.864,8.317q17.573,46.23,35.154,92.46a5.37,5.37,0,0,1,.394,3.184,3.758,3.758,0,0,1-2.8,1.55c-4.055.05-8.11,0-12.163.023a3.606,3.606,0,0,1-2.333-.925,6.967,6.967,0,0,1-1.548-2.959q-1.921-5.056-3.814-10.119a5.559,5.559,0,0,0-1.4-2.444,4.762,4.762,0,0,0-3.042-.866q-18.349.016-36.7.006a3.592,3.592,0,0,0-2.871,1.249,14.234,14.234,0,0,0-1.381,3.135c-1.346,3.476-2.613,6.98-3.95,10.462a3.529,3.529,0,0,1-2.829,2.45c-4.331.009-8.664.032-12.993-.011a3.068,3.068,0,0,1-2.363-1.622,6.681,6.681,0,0,1,.612-4q18.062-47.529,36.128-95.057a16.521,16.521,0,0,1,2.554-4.685A5.893,5.893,0,0,1,1755.025,1316.761Zm1.834,36.175c-4.323,11.351-8.594,22.721-12.907,34.076a6.016,6.016,0,0,0-.632,2.629c.4.531.952,1.124,1.683,1.039q12.925.007,25.852,0a1.138,1.138,0,0,0,1.283-1.262,5.518,5.518,0,0,0-.635-2.637c-4.041-10.608-8.025-21.239-12.051-31.852a10.846,10.846,0,0,0-1.422-3.069A1.455,1.455,0,0,0,1756.859,1352.937Z" transform="translate(-1712.66 -1316.629)" fill="#fff"/>
    </g>
    <g id="Group_232" data-name="Group 232" transform="translate(0 0.212)">
      <path id="Path_585" data-name="Path 585" d="M1489.62,1316.948a6.354,6.354,0,0,1,1.01-.057c9.829.019,19.656-.01,29.486.016,1.456.047,2.883.438,4.341.455a23.717,23.717,0,0,1,3.567.713,31.208,31.208,0,0,1,14.49,8.029,45.976,45.976,0,0,1,3.029,3.758,29.875,29.875,0,0,1,4.222,8.587,19.035,19.035,0,0,1,.907,4.03,24.314,24.314,0,0,1,.308,9.437,21.668,21.668,0,0,0-.446,2.915,38.537,38.537,0,0,1-1.874,5.765c-.425,1.1-1.072,2.111-1.472,3.225.038.376.473.4.738.549a28.841,28.841,0,0,1,10.684,6.87,25.722,25.722,0,0,1,6.652,13.673,10.175,10.175,0,0,1,.451,2.939,42.522,42.522,0,0,1,.191,5.9,40.443,40.443,0,0,1-.277,4.766c-.447,1.468-.611,3.006-1.167,4.443a29.544,29.544,0,0,1-14.872,17.579,33.808,33.808,0,0,1-7.758,2.777c-1.636.085-3.186.788-4.835.715a38.969,38.969,0,0,0-4.944.178c-13.052.023-26.1,0-39.156.011a11.729,11.729,0,0,1-2.462-.146,5.067,5.067,0,0,1-4.185-5.122q-.017-48.6,0-97.21a6,6,0,0,1,.234-2.338A4.388,4.388,0,0,1,1489.62,1316.948ZM1504,1331.973c-.74.193-1.6.582-1.785,1.4a6.638,6.638,0,0,0-.429,2.084q0,10.7,0,21.4c0,1.294.655,2.885,2.125,3,6.678.029,13.359,0,20.041.019a16.639,16.639,0,0,0,4.565-.763,11.067,11.067,0,0,0,6.191-6.366,19.026,19.026,0,0,0,1.249-4.444,15.235,15.235,0,0,0-12.678-16.009,18.623,18.623,0,0,0-3.373-.52c-4.728-.007-9.456.009-14.183,0A6.592,6.592,0,0,0,1504,1331.973Zm-.52,43.237a3.141,3.141,0,0,0-1.721,3q.013,12.607,0,25.217c.036,1.543-.279,3.252.75,4.564a3.851,3.851,0,0,0,2.077.513q14.971.007,29.938.006a8.213,8.213,0,0,0,1.679-.164,16.085,16.085,0,0,0,2.323-.245,22.23,22.23,0,0,0,4.343-1.728,14.34,14.34,0,0,0,5.318-5.255,17.679,17.679,0,0,0,2.415-9.842,23.4,23.4,0,0,0-.777-4.939,14.264,14.264,0,0,0-1.82-4.033,20.627,20.627,0,0,0-4.28-4.132,15.55,15.55,0,0,0-3.747-1.75c-.7-.194-1.316-.689-2.072-.6-1.267.142-2.338-.762-3.594-.677q-14.407-.007-28.815,0A13.709,13.709,0,0,0,1503.477,1375.21Z" transform="translate(-1486.24 -1316.891)" fill="#fff"/>
    </g>
  </g>
  <g id="Group_234" data-name="Group 234" transform="translate(0 142.252)">
    <path id="Path_586" data-name="Path 586" d="M1496.162,1487.134a4.113,4.113,0,0,1,.977,2.718,4.218,4.218,0,0,1-.631,2.277,4.313,4.313,0,0,1-1.849,1.6,6.669,6.669,0,0,1-2.908.584h-5.77v-16.665h5.6a5.647,5.647,0,0,1,3.851,1.168,3.849,3.849,0,0,1,1.323,3.028,3.709,3.709,0,0,1-.835,2.515,4.376,4.376,0,0,1-2.146,1.347A4.006,4.006,0,0,1,1496.162,1487.134Zm-8.512-2.121h3.886a3.853,3.853,0,0,0,2.611-.8,2.77,2.77,0,0,0,.918-2.205,2.708,2.708,0,0,0-.918-2.17,4.021,4.021,0,0,0-2.682-.787h-3.814Zm6.807,7.034a2.931,2.931,0,0,0,1.013-2.361,2.976,2.976,0,0,0-1.061-2.4,4.282,4.282,0,0,0-2.849-.893h-3.91v6.508h3.981A4.245,4.245,0,0,0,1494.457,1492.047Z" transform="translate(-1485.981 -1477.455)" fill="#fff"/>
    <path id="Path_587" data-name="Path 587" d="M1512.178,1490.4H1504.6l-1.454,3.958h-1.764l6.079-16.451h1.884l6.057,16.451h-1.764Zm-.5-1.383-3.291-9.013-3.291,9.013Z" transform="translate(-1488.877 -1477.505)" fill="#fff"/>
    <path id="Path_588" data-name="Path 588" d="M1531.148,1478.647a7,7,0,0,1,3.027,2.885,9.069,9.069,0,0,1,1.049,4.482,8.949,8.949,0,0,1-1.049,4.448,6.941,6.941,0,0,1-3.027,2.861,10.517,10.517,0,0,1-4.745.989h-4.935v-16.665h4.935A10.409,10.409,0,0,1,1531.148,1478.647Zm.56,12.457a6.88,6.88,0,0,0,1.824-5.09,7,7,0,0,0-1.824-5.137,7.129,7.129,0,0,0-5.3-1.848h-3.266v13.9h3.266A7.186,7.186,0,0,0,1531.708,1491.1Z" transform="translate(-1492.657 -1477.455)" fill="#fff"/>
    <path id="Path_589" data-name="Path 589" d="M1550.226,1490.4h-7.582l-1.454,3.958h-1.765l6.08-16.451h1.884l6.056,16.451h-1.764Zm-.5-1.383-3.291-9.013-3.291,9.013Z" transform="translate(-1496.035 -1477.505)" fill="#fff"/>
    <path id="Path_590" data-name="Path 590" d="M1572.08,1494.311h-1.668l-9.227-14.019v14.019h-1.669v-16.665h1.669l9.227,14v-14h1.668Z" transform="translate(-1499.815 -1477.455)" fill="#fff"/>
    <path id="Path_591" data-name="Path 591" d="M1607.627,1477.646l-4.721,16.665h-1.86l-4.2-14.21-4.292,14.21-1.813.024-4.625-16.689h1.789l3.815,14.615,4.268-14.615h1.859l4.149,14.615,3.838-14.615Z" transform="translate(-1504.82 -1477.455)" fill="#fff"/>
    <path id="Path_592" data-name="Path 592" d="M1623.326,1490.4h-7.582l-1.454,3.958h-1.765l6.08-16.451h1.883l6.056,16.451h-1.763Zm-.5-1.383-3.291-9.013-3.29,9.013Z" transform="translate(-1509.787 -1477.505)" fill="#fff"/>
    <path id="Path_593" data-name="Path 593" d="M1641.509,1494.311l-7.224-7.7v7.7h-1.669v-16.665h1.669v7.8l7.224-7.8h2.122l-7.8,8.321,7.868,8.344Z" transform="translate(-1513.567 -1477.455)" fill="#fff"/>
    <path id="Path_594" data-name="Path 594" d="M1659.1,1490.4h-7.582l-1.454,3.958H1648.3l6.08-16.451h1.884l6.056,16.451h-1.764Zm-.5-1.383-3.291-9.013-3.291,9.013Z" transform="translate(-1516.518 -1477.505)" fill="#fff"/>
    <path id="Path_595" data-name="Path 595" d="M1677.4,1477.646v1.383h-7.343v6.223h6.2v1.383h-6.2v7.677h-1.669v-16.665Z" transform="translate(-1520.297 -1477.455)" fill="#fff"/>
    <path id="Path_596" data-name="Path 596" d="M1700.305,1490.4h-7.582l-1.454,3.958h-1.764l6.079-16.451h1.884l6.057,16.451h-1.764Zm-.5-1.383-3.29-9.013-3.29,9.013Z" transform="translate(-1524.269 -1477.505)" fill="#fff"/>
    <path id="Path_597" data-name="Path 597" d="M1711.264,1492.952h5.984v1.359H1709.6v-16.665h1.668Z" transform="translate(-1528.049 -1477.455)" fill="#fff"/>
    <path id="Path_598" data-name="Path 598" d="M1733.944,1497.534l-3.719-3.458a8.986,8.986,0,0,1-2.552.358,8.259,8.259,0,0,1-4.2-1.085,7.828,7.828,0,0,1-2.969-3.028,9.463,9.463,0,0,1,0-8.8,7.832,7.832,0,0,1,2.969-3.027,8.705,8.705,0,0,1,8.416,0,7.743,7.743,0,0,1,2.957,3.027,9.562,9.562,0,0,1-.048,8.894,7.642,7.642,0,0,1-3.075,3.016l4.458,4.1Zm-11.945-7.88a6.091,6.091,0,0,0,2.337,2.467,6.921,6.921,0,0,0,6.676,0,6.1,6.1,0,0,0,2.337-2.467,8.515,8.515,0,0,0,0-7.45,6.119,6.119,0,0,0-2.337-2.457,6.922,6.922,0,0,0-6.676,0A6.115,6.115,0,0,0,1722,1482.2a8.515,8.515,0,0,0,0,7.45Z" transform="translate(-1529.898 -1477.411)" fill="#fff"/>
    <path id="Path_599" data-name="Path 599" d="M1744.856,1477.646v10.49a5.032,5.032,0,0,0,1.181,3.672,4.338,4.338,0,0,0,3.23,1.192,4.287,4.287,0,0,0,3.208-1.18,5.1,5.1,0,0,0,1.156-3.683v-10.49h1.669v10.467a6.276,6.276,0,0,1-1.681,4.768,6.79,6.79,0,0,1-8.75,0,6.279,6.279,0,0,1-1.681-4.768v-10.467Z" transform="translate(-1534.369 -1477.455)" fill="#fff"/>
    <path id="Path_600" data-name="Path 600" d="M1771.574,1494.311l-4.124-6.962h-3.075v6.962H1762.7v-16.665h5.007a6.02,6.02,0,0,1,4.232,1.335,4.554,4.554,0,0,1,1.443,3.5,4.734,4.734,0,0,1-1.038,3.088,4.963,4.963,0,0,1-3.063,1.657l4.292,7.081Zm-7.2-8.321h3.362a4.1,4.1,0,0,0,2.945-.953,3.386,3.386,0,0,0,.989-2.552,3.315,3.315,0,0,0-.953-2.54,4.29,4.29,0,0,0-3-.894h-3.337Z" transform="translate(-1538.04 -1477.455)" fill="#fff"/>
    <path id="Path_601" data-name="Path 601" d="M1780.263,1477.646h1.932l-2.1,5.15h-1.216Z" transform="translate(-1541.083 -1477.455)" fill="#fff"/>
    <path id="Path_602" data-name="Path 602" d="M1793.219,1490.4h-7.582l-1.454,3.958h-1.764l6.079-16.451h1.884l6.057,16.451h-1.764Zm-.5-1.383-3.29-9.013-3.291,9.013Z" transform="translate(-1541.749 -1477.505)" fill="#fff"/>
    <path id="Path_603" data-name="Path 603" d="M1815.074,1494.311h-1.669l-9.227-14.019v14.019h-1.668v-16.665h1.668l9.227,14v-14h1.669Z" transform="translate(-1545.528 -1477.455)" fill="#fff"/>
  </g>
</svg>
