<svg id="Group_245" data-name="Group 245" xmlns="http://www.w3.org/2000/svg" width="324.749" height="89.571" viewBox="0 0 324.749 89.571">
  <g id="Group_236" data-name="Group 236" transform="translate(0.002 0.002)">
    <path id="Path_604" data-name="Path 604" d="M427.036,1637.825c-8.55.179-17.229-.511-25.64,1.4-11.512,3.1-20.467,11.553-28.675,19.761H346.165c3.386-3.58,6.7-7.226,10.141-10.766-6.382-6.406-12.666-12.909-19.079-19.282q.011-29.763.007-59.518c15.061,15.125,30.138,30.234,45.044,45.505a38.7,38.7,0,0,0,25.671,12.032c6.364.252,12.729.357,19.087.479C427.134,1630.9,427.126,1634.367,427.036,1637.825Z" transform="translate(-337.227 -1569.425)" fill="#fff"/>
  </g>
  <path id="Path_605" data-name="Path 605" d="M438.013,1622.787c-6.358-.13-12.715-.228-19.079-.487a38.648,38.648,0,0,1-23.318-9.734c14.208-14.3,28.213-28.781,42.372-43.111C438,1587.235,437.947,1605.007,438.013,1622.787Z" transform="translate(-348.209 -1569.428)" fill="#fff"/>
  <path id="Path_606" data-name="Path 606" d="M337.224,1647.8c5.046,4.98,9.967,10.084,14.97,15.108-3.471,3.566-6.774,7.292-10.274,10.829h-4.7Z" transform="translate(-337.224 -1584.168)" fill="#fff"/>
  <path id="Path_607" data-name="Path 607" d="M436.321,1675.909H386.756c6.942-6.584,14.606-12.633,23.958-15.158,8.4-1.908,17.066-1.226,25.606-1.4C436.3,1664.876,436.337,1670.388,436.321,1675.909Z" transform="translate(-346.542 -1586.341)" fill="#fff"/>
  <g id="Group_244" data-name="Group 244" transform="translate(108.59)">
    <path id="Path_608" data-name="Path 608" d="M476.244,1573.12c4.59-4.994,13.182-4.828,17.929-.119-1.212,1.063-2.425,2.125-3.614,3.2-2.957-2.925-8.267-3-10.93.348a7.473,7.473,0,0,0,1.9,11.184,7.99,7.99,0,0,0,9.479-1.7c1.173,1.03,2.323,2.085,3.5,3.115-4.906,5.564-14.837,5.247-19.3-.705C471.988,1583.979,472.067,1576.973,476.244,1573.12Z" transform="translate(-471.346 -1569.422)" fill="#fff"/>
    <path id="Path_609" data-name="Path 609" d="M503.932,1569.842c1.7.016,3.4.008,5.1-.024.008,7.7-.015,15.409.016,23.112-1.76-.016-3.511-.024-5.263-.024C503.837,1585.21,503.782,1577.53,503.932,1569.842Z" transform="translate(-477.15 -1569.497)" fill="#fff"/>
    <g id="Group_237" data-name="Group 237" transform="translate(37.522 0.303)">
      <path id="Path_610" data-name="Path 610" d="M517.2,1569.814c4.59.373,9.361-.626,13.831.682,5.3,1.593,6.444,9.25,2.4,12.753-2.949,2.964-7.4,2.267-11.175,2.307.04,2.433.032,4.875.023,7.308q-2.544,0-5.089.008C517.217,1585.183,517.2,1577.5,517.2,1569.814Zm5.049,4.327c.048,2.481.04,4.97.024,7.451,2.235-.063,4.581.286,6.73-.483a3.785,3.785,0,0,0-.492-6.761C526.459,1573.9,524.327,1574.205,522.25,1574.141Z" transform="translate(-517.193 -1569.796)" fill="#fff"/>
    </g>
    <path id="Path_611" data-name="Path 611" d="M542.684,1569.814c6.206.055,12.428.095,18.634-.016.007,1.451.007,2.909.007,4.36q-3.459-.035-6.919-.016c.039,6.246-.024,12.484.039,18.73q-2.472-.012-4.93,0c.032-6.246.008-12.484.016-18.73q-3.425-.023-6.848.016Z" transform="translate(-484.467 -1569.493)" fill="#fff"/>
    <g id="Group_238" data-name="Group 238" transform="translate(74.338 0.332)">
      <path id="Path_612" data-name="Path 612" d="M572.012,1569.837c1.569.016,3.155-.048,4.732.055.824.451.856,1.585,1.292,2.338,2.782,6.9,5.532,13.807,8.441,20.655q-2.794-.011-5.572-.032c-.571-1.648-1.189-3.281-1.919-4.858-3.114.11-6.238.032-9.352.1-.6,1.577-1.2,3.162-1.76,4.748l-5.334.047C565.7,1585.213,568.905,1577.541,572.012,1569.837Zm-.887,14.148h6.539c-1.086-2.829-2.092-5.691-3.234-8.5C573.344,1578.325,572.25,1581.162,571.125,1583.985Z" transform="translate(-562.541 -1569.832)" fill="#fff"/>
    </g>
    <path id="Path_613" data-name="Path 613" d="M473.845,1610.193c1.7.008,3.416.008,5.129-.016.119,5.2-.492,10.478.365,15.622,1.062,4.439,8.425,4.312,9.353-.143.761-5.112.222-10.327.325-15.479,1.585.016,3.178.016,4.771.008-.048,4.6.016,9.218-.015,13.83a9.063,9.063,0,0,1-5.152,8.5c-4.906,2.291-12.127.809-14.045-4.771C473.235,1621.995,474.2,1616.027,473.845,1610.193Z" transform="translate(-471.515 -1577.089)" fill="#fff"/>
    <path id="Path_614" data-name="Path 614" d="M506.7,1611.162c4.1-2.33,9.266-1.189,13.039,1.276-.943,1.1-1.91,2.187-2.877,3.266-1.791-1.228-3.86-2.418-6.126-1.871-1.855.127-2.687,2.933-.84,3.741,2.972,1.751,6.721,2.639,8.663,5.762,2.259,3.218.341,7.99-3.178,9.369-4.439,1.7-9.544.428-13.157-2.521q1.509-1.64,3.043-3.25c2.14,1.728,4.97,3.115,7.768,2.346a2.241,2.241,0,0,0,.864-3.765c-2.41-2.306-6.166-2.441-8.449-4.93A6.04,6.04,0,0,1,506.7,1611.162Z" transform="translate(-476.854 -1577.036)" fill="#fff"/>
    <path id="Path_615" data-name="Path 615" d="M557.874,1610.177q2.545.036,5.089.008c-.048,2.956-.024,5.913-.063,8.869q5.172.012,10.335,0c-.039-2.956-.024-5.913-.039-8.869,1.68.007,3.368.016,5.048.007v23.026q-2.532-.025-5.048,0c.015-3.266.007-6.539.024-9.805-3.432.048-6.864.056-10.3-.007.008,3.266-.008,6.539.032,9.813q-2.532-.025-5.073-.008C557.93,1625.53,557.954,1617.857,557.874,1610.177Z" transform="translate(-487.325 -1577.089)" fill="#fff"/>
    <g id="Group_239" data-name="Group 239" transform="translate(43.879 33.08)">
      <path id="Path_616" data-name="Path 616" d="M525.023,1633.216c3.265-7.633,6.3-15.369,9.479-23.049q2.486.035,4.986.016c3.186,7.672,6.341,15.368,9.543,23.041-1.854-.016-3.709-.032-5.564-.032q-.928-2.438-1.879-4.851c-3.131.032-6.269.024-9.4.016-.627,1.617-1.253,3.242-1.879,4.859Q527.659,1633.192,525.023,1633.216Zm11.794-17.311c-.975,2.885-2.108,5.707-3.226,8.537,2.212-.008,4.431-.016,6.643-.008C539.068,1621.6,538.117,1618.679,536.817,1615.905Z" transform="translate(-525.023 -1610.167)" fill="#fff"/>
    </g>
    <g id="Group_240" data-name="Group 240" transform="translate(93.583 33.111)">
      <path id="Path_617" data-name="Path 617" d="M595.668,1610.214c1.7-.008,3.416-.008,5.121-.008q4.625,11.568,9.471,23.041c-1.909-.032-3.812-.04-5.722-.087-.531-1.609-1.11-3.2-1.681-4.8-3.154,0-6.317.016-9.471-.016-.626,1.625-1.253,3.242-1.871,4.866-1.759-.008-3.519,0-5.271.008Q591,1621.738,595.668,1610.214Zm-.919,14.211q3.305.012,6.61.016c-.983-2.869-2.061-5.715-3.273-8.5C596.993,1618.775,595.914,1621.612,594.749,1624.425Z" transform="translate(-586.245 -1610.206)" fill="#fff"/>
    </g>
    <path id="Path_618" data-name="Path 618" d="M470.977,1650.407c1.847.024,3.686.032,5.532.024,1.729,5.168,3.163,10.438,5.129,15.527,1.284-5.2,3.1-10.264,4.327-15.479,1.213-.032,2.433-.056,3.654-.079,1.545,5.144,2.893,10.351,4.557,15.456,1.76-5.112,3.29-10.3,4.986-15.44,1.752.016,3.5.016,5.263.016-2.6,7.5-5.279,14.973-7.649,22.542A27.56,27.56,0,0,1,492,1673c-1.53-4.668-2.751-9.432-4.36-14.076-1.4,4.723-2.893,9.424-4.264,14.164-1.561.032-3.123.024-4.676-.024C476.176,1665.49,473.5,1657.976,470.977,1650.407Z" transform="translate(-470.977 -1584.656)" fill="#fff"/>
    <path id="Path_619" data-name="Path 619" d="M515.7,1650.442c1.744-.008,3.487-.008,5.239-.024-.063,7.745.008,15.488-.04,23.232h-5.128C515.684,1665.913,515.8,1658.178,515.7,1650.442Z" transform="translate(-479.391 -1584.66)" fill="#fff"/>
    <path id="Path_620" data-name="Path 620" d="M529.382,1652.89c3.765-4.153,10.533-3.075,14.687-.048-.967,1.038-1.926,2.077-2.893,3.115-2.466-1.871-6.642-3.337-8.434.19,2.544,3.749,8.236,3.606,10.336,7.855,2.393,3.916-.888,8.862-5.057,9.6h-5.041a16,16,0,0,1-6.484-3.162c1.015-1.047,2.022-2.1,3.036-3.147,2.283,1.538,5.034,3.107,7.878,2.25a2.127,2.127,0,0,0,1.118-3.234c-2.3-2.8-6.484-2.877-8.925-5.532A6.118,6.118,0,0,1,529.382,1652.89Z" transform="translate(-481.422 -1584.611)" fill="#fff"/>
    <g id="Group_241" data-name="Group 241" transform="translate(63.995 65.775)">
      <path id="Path_621" data-name="Path 621" d="M549.8,1673.281c2.924-7.672,6.158-15.226,9.218-22.843h4.969c3.075,7.562,6.222,15.1,9.25,22.676q-2.7.06-5.39.048-.844-2.224-1.68-4.431c-3.052.016-6.1-.135-9.147.04-1.18.967-1.236,2.822-1.909,4.145C553.344,1673.091,551.568,1673.209,549.8,1673.281Zm11.5-17.088c-1.062,2.885-2.211,5.73-3.281,8.608,2.2-.063,4.391-.063,6.594-.032C563.536,1661.9,562.5,1659.014,561.3,1656.193Z" transform="translate(-549.801 -1650.438)" fill="#fff"/>
    </g>
    <path id="Path_622" data-name="Path 622" d="M576.043,1650.418c6.2.032,12.4.016,18.594.008-.008,1.451-.016,2.9-.016,4.36q-3.46-.047-6.919-.032c.007,6.246-.008,12.5.007,18.745-1.6.031-3.194.088-4.787.151h-.08c-.023-6.3.008-12.6-.023-18.9q-3.389-.012-6.777.024Z" transform="translate(-490.743 -1584.66)" fill="#fff"/>
    <g id="Group_242" data-name="Group 242" transform="translate(101.43 65.758)">
      <path id="Path_623" data-name="Path 623" d="M605.358,1650.418c1.648.016,3.3.016,4.953.016,3.195,7.735,6.3,15.5,9.559,23.215h-5.414c-.729-1.625-1.355-3.29-1.989-4.946-3.139,0-6.286,0-9.424.008-.618,1.6-1.245,3.21-1.879,4.811-1.751,0-3.5.007-5.255.032C599.1,1665.866,602.163,1658.115,605.358,1650.418Zm-1.038,14.307c2.227.023,4.447.023,6.674-.008-1.181-2.821-2.164-5.707-3.305-8.544C606.475,1658.987,605.484,1661.9,604.319,1664.725Z" transform="translate(-595.91 -1650.418)" fill="#fff"/>
    </g>
    <path id="Path_624" data-name="Path 624" d="M628.693,1650.446c1.728-.008,3.447-.008,5.176-.008q3.578,6.753,7.125,13.514c2.433-4.47,4.748-9,7.118-13.514H653c-.024,7.7-.008,15.4-.008,23.1-1.617,0-3.242,0-4.851.008-.016-4.93.024-9.86,0-14.79-2.013,3.765-3.963,7.569-6.008,11.318-.9-.016-1.807-.024-2.7-.04q-2.806-5.565-5.755-11.049c-.119,4.835-.039,9.678-.055,14.52-1.53.032-3.052.088-4.581.151H628.7Q628.689,1662.049,628.693,1650.446Z" transform="translate(-500.648 -1584.663)" fill="#fff"/>
    <path id="Path_625" data-name="Path 625" d="M665.469,1650.418c1.728.008,3.455.016,5.183.008q.012,11.615,0,23.224H665.5C665.469,1665.906,665.516,1658.162,665.469,1650.418Z" transform="translate(-507.566 -1584.66)" fill="#fff"/>
    <path id="Path_626" data-name="Path 626" d="M678.756,1650.436q2.6,0,5.223.008c3.591,5.12,7.261,10.177,10.835,15.3-.008-5.1,0-10.217-.016-15.321,1.617.008,3.25.008,4.883.016-.032,7.7-.008,15.4-.016,23.1q-2.437-.012-4.85-.016c-3.773-5.215-7.435-10.5-11.184-15.733-.1,5.286-.024,10.573-.048,15.86h-.42q-2.2-.1-4.375-.166C678.8,1665.8,678.851,1658.116,678.756,1650.436Z" transform="translate(-510.066 -1584.662)" fill="#fff"/>
    <g id="Group_243" data-name="Group 243" transform="translate(192.539 65.758)">
      <path id="Path_627" data-name="Path 627" d="M717.444,1650.418c1.641.016,3.282.016,4.931.016,3.1,7.632,6.412,15.186,9.376,22.875q-2.794-.107-5.572-.309c-.547-1.418-1.086-2.846-1.6-4.272-3.155-.04-6.317-.015-9.471-.023-.564,1.418-1.126,2.837-1.665,4.272-1.775.1-3.543.175-5.31.2C711.27,1665.6,714.242,1657.964,717.444,1650.418Zm2.363,5.66c-1.047,2.909-2.26,5.746-3.265,8.663q3.281.023,6.562-.032C722.01,1661.832,720.972,1658.931,719.807,1656.078Z" transform="translate(-708.131 -1650.418)" fill="#fff"/>
    </g>
  </g>
</svg>
