<svg id="Group_272" data-name="Group 272" xmlns="http://www.w3.org/2000/svg" width="324.75" height="94.768" viewBox="0 0 324.75 94.768">
  <path id="Path_668" data-name="Path 668" d="M1025.386,1586.6a10.273,10.273,0,0,1,10.693-7.561c3.364.171,6.222,2.349,8.154,4.982a28.92,28.92,0,0,1-3.786,2.036c-1.581-2.19-4.488-3.556-7.133-2.508a5.959,5.959,0,0,0-3.243,8.57c1.965,3.939,8.433,3.972,10.447.066a52.167,52.167,0,0,1-5.323-.12c.022-1.191.028-2.376.028-3.567,3.358-.005,6.716.032,10.074.016a9.768,9.768,0,0,1-2.793,7.846,10.214,10.214,0,0,1-17.118-9.76Z" transform="translate(-907.743 -1568.624)" fill="#fff"/>
  <path id="Path_669" data-name="Path 669" d="M1175.022,1585a10.3,10.3,0,0,1,11.1-5.849,9.865,9.865,0,0,1,7.023,5.146c-1.24.565-2.463,1.158-3.687,1.745a6.147,6.147,0,0,0-7.5-2.332,5.958,5.958,0,0,0-2.782,8.5c1.991,3.841,8.405,3.874,10.353-.022-1.739-.022-3.472.011-5.2.006-.022-1.24-.016-2.48.016-3.714,3.352.06,6.71-.006,10.068.082-.225,2.074-.143,4.378-1.492,6.113a10.2,10.2,0,0,1-17.9-9.673Z" transform="translate(-935.785 -1568.621)" fill="#fff"/>
  <path id="Path_670" data-name="Path 670" d="M1052.237,1579.364c4.806-.066,9.613-.022,14.419-.022-.006,1.212-.01,2.431-.016,3.649-3.386-.006-6.77.006-10.156-.011q-.074,2.231-.038,4.466c2.973,0,5.947.022,8.921-.022.077,1.267.1,2.53.082,3.8-2.99.01-5.975.016-8.959-.006-.055,1.41-.066,2.815-.039,4.225,3.72.044,7.446-.1,11.166.049-.127,1.163.335,2.579-.242,3.588-5.036.082-10.073,0-15.11.033C1052.243,1592.526,1052.3,1585.947,1052.237,1579.364Z" transform="translate(-912.862 -1568.687)" fill="#fff"/>
  <g id="Group_265" data-name="Group 265" transform="translate(157.755 10.719)">
    <path id="Path_671" data-name="Path 671" d="M1074.915,1579.436c3.16.017,6.32-.049,9.486.017,2.661.038,5.525,1.723,6.024,4.5.922,3.171-.724,7.122-4.17,7.818,1.531,2.618,3.687,4.812,5.349,7.347-1.75.022-3.495.011-5.24-.016-1.733-2.343-3.308-4.806-5.108-7.106-.489.022-1.47.061-1.965.077q-.007,3.522.006,7.045c-1.476.028-2.952.022-4.422-.055C1074.953,1592.522,1074.887,1585.976,1074.915,1579.436Zm4.383,3.353c-.006,1.948.005,3.9-.05,5.843,2.124.022,4.51.532,6.4-.686,1.327-1.311,1.1-4.247-.851-4.862A21.7,21.7,0,0,0,1079.3,1582.789Z" transform="translate(-1074.876 -1579.423)" fill="#fff"/>
  </g>
  <g id="Group_266" data-name="Group 266" transform="translate(177.722 10.709)">
    <path id="Path_672" data-name="Path 672" d="M1099.48,1579.44c3.648.044,7.308-.137,10.956.088,2.354.11,4.735,1.926,4.631,4.456.274,1.91-.993,3.451-2.458,4.471,3.095.961,4.324,4.85,2.8,7.577a6.745,6.745,0,0,1-5.569,3.056c-3.446.1-6.891-.016-10.337.055C1099.452,1592.575,1099.474,1586.007,1099.48,1579.44Zm4.307,3.352q-.017,2.313-.006,4.631a36.908,36.908,0,0,0,5.509-.132c1.876-.406,2.167-3.44.4-4.164C1107.792,1582.491,1105.745,1582.863,1103.787,1582.792Zm-.006,7.6q-.009,2.674,0,5.349a40.154,40.154,0,0,0,6.084-.149c2.458-.494,2.42-4.542-.016-5.042A37.916,37.916,0,0,0,1103.781,1590.391Z" transform="translate(-1099.47 -1579.412)" fill="#fff"/>
  </g>
  <g id="Group_267" data-name="Group 267" transform="translate(195.278 10.71)">
    <path id="Path_673" data-name="Path 673" d="M1130,1579.511c1.443-.088,2.891-.11,4.339-.093,3,6.535,6.041,13.064,8.779,19.713-1.378.006-2.755-.01-4.126-.032-.636-1.448-1.257-2.9-1.876-4.357-3.325.016-6.65-.033-9.975.033-.675,1.437-1.378,2.864-2.052,4.306-1.333.045-2.666.055-3.994.039C1124.073,1592.591,1127.074,1586.068,1130,1579.511Zm2.189,3.841c-1.092,2.474-2.085,4.987-3.227,7.439,2.184.011,4.373.022,6.562-.01C1134.349,1588.334,1133.685,1585.623,1132.188,1583.352Z" transform="translate(-1121.094 -1579.413)" fill="#fff"/>
  </g>
  <path id="Path_674" data-name="Path 674" d="M1150.43,1599.09c.054-6.584-.055-13.173.054-19.757,1.585.033,3.171.038,4.762-.022,3.116,3.994,5.865,8.262,8.965,12.273.006-4.077,0-8.153,0-12.229,1.224,0,2.453,0,3.688.011.016,6.551-.055,13.1.038,19.652a34.254,34.254,0,0,1-3.752.067c-3.364-4.488-6.6-9.075-10.014-13.525.011,4.477-.054,8.96.044,13.442A30.057,30.057,0,0,1,1150.43,1599.09Z" transform="translate(-931.335 -1568.683)" fill="#fff"/>
  <path id="Path_675" data-name="Path 675" d="M1024.739,1613.678c1.465-.054,2.924-.06,4.39-.032.977,4.493,1.827,9.014,2.76,13.518.735-.494.7-1.476.965-2.228.982-3.758,1.86-7.538,2.848-11.3l4.049-.016c1.092,3.95,1.959,7.95,2.952,11.922.192.6.219,1.355.828,1.717,1.086-4.526,1.811-9.141,2.963-13.656,1.4.017,2.815.028,4.225.055-1.86,6.529-3.5,13.118-5.36,19.653-1.4-.11-2.968.323-4.269-.22-1.136-4.17-2.234-8.361-3.155-12.586-.636.346-.658,1.13-.839,1.75-.845,3.7-1.854,7.357-2.71,11.055q-2.2.025-4.384-.006C1028.2,1626.78,1026.6,1620.191,1024.739,1613.678Z" transform="translate(-907.689 -1575.135)" fill="#fff"/>
  <g id="Group_268" data-name="Group 268" transform="translate(142.657 38.494)">
    <path id="Path_676" data-name="Path 676" d="M1065.206,1613.651c1.453-.028,2.907-.022,4.367.027,2.946,6.546,5.816,13.124,8.817,19.648l-4.186.016a41.559,41.559,0,0,1-1.9-4.334c-3.352-.126-6.715-.028-10.067-.055-.642,1.488-1.323,2.952-2.074,4.384h-3.884C1059.186,1626.742,1062.215,1620.207,1065.206,1613.651Zm2.079,4.027q-1.646,3.646-3.144,7.347c2.173.01,4.339.022,6.512-.011C1069.43,1622.622,1068.925,1619.818,1067.285,1617.678Z" transform="translate(-1056.279 -1613.635)" fill="#fff"/>
  </g>
  <path id="Path_677" data-name="Path 677" d="M1081.953,1613.628c5.585.022,11.171-.006,16.755.01,0,1.2.006,2.393.022,3.583-2.079.115-4.164-.06-6.239.127.045,5.327.017,10.654.017,15.982q-2.14-.007-4.275.033c-.186-5.377-.005-10.759-.093-16.142-2.068,0-4.142.006-6.211-.006C1081.926,1616.02,1081.936,1614.824,1081.953,1613.628Z" transform="translate(-918.448 -1575.14)" fill="#fff"/>
  <path id="Path_678" data-name="Path 678" d="M1105.642,1613.625q2.139.016,4.269-.011c.257,4.587-.083,9.19.181,13.777.257,2.765,3.752,3.193,5.887,2.5,1.646-.428,2.123-2.315,2.069-3.808,0-4.12.049-8.236-.039-12.35a42.2,42.2,0,0,1,4.406-.093c-.006,4.148.016,8.3-.006,12.449.028,2.485-.96,5.234-3.243,6.485a11.608,11.608,0,0,1-8.422.839,6.34,6.34,0,0,1-4.422-3.676,11.144,11.144,0,0,1-.692-4.741C1105.648,1621.2,1105.62,1617.416,1105.642,1613.625Z" transform="translate(-922.906 -1575.137)" fill="#fff"/>
  <path id="Path_679" data-name="Path 679" d="M1129.309,1620.487a10.43,10.43,0,0,1,10.211-7.308,10.917,10.917,0,0,1,8.576,5.173c-1.246.654-2.5,1.289-3.748,1.926-1.487-1.964-3.917-3.357-6.436-2.743-3.775.654-6.063,5.333-4.066,8.658,1.926,4.022,8.521,4.148,10.545.165-1.75-.028-3.5,0-5.25,0-.006-1.207-.006-2.409-.017-3.61,3.358-.049,6.716.028,10.074-.016-.05,2.178-.209,4.532-1.613,6.32a10.215,10.215,0,0,1-18.276-8.564Z" transform="translate(-927.278 -1575.053)" fill="#fff"/>
  <path id="Path_680" data-name="Path 680" d="M1156.545,1613.737a36.236,36.236,0,0,1,4.428-.083c.028,4.494-.131,9,.072,13.5.258,3.094,4.257,3.659,6.535,2.463,1.256-.68,1.552-2.205,1.542-3.517.022-4.148,0-8.3-.006-12.448,1.443-.044,2.891-.033,4.339.066-.088,4.1-.011,8.208-.044,12.306a7.88,7.88,0,0,1-1.821,5.465c-1.992,1.98-4.961,2.5-7.659,2.293a8.431,8.431,0,0,1-5.454-2.244,8.028,8.028,0,0,1-1.87-5.464C1156.562,1621.961,1156.672,1617.846,1156.545,1613.737Z" transform="translate(-932.485 -1575.139)" fill="#fff"/>
  <path id="Path_681" data-name="Path 681" d="M1181.415,1613.583c1.7-.033,3.406-.038,5.107.044,2.88,4.016,5.586,8.2,8.746,11.982.049-4.021-.11-8.054.083-12.076q1.761.041,3.538.016c.143,6.584.022,13.174.061,19.758-1.185,0-2.359.01-3.539.044-3.61-4.324-6.573-9.152-10.2-13.464q.016,6.706.011,13.42c-1.228-.133-2.694.34-3.769-.231C1181.382,1626.58,1181.464,1620.078,1181.415,1613.583Z" transform="translate(-937.164 -1575.122)" fill="#fff"/>
  <path id="Path_682" data-name="Path 682" d="M1207.081,1613.639q2.131-.008,4.273,0c.083,3.951.017,7.9.028,11.845.028,1.317-.006,2.881,1.136,3.786,1.185,1.032,2.853.857,4.313.9l.527-.242a3.024,3.024,0,0,0,2.063-2.732c.225-4.516-.045-9.042.132-13.557,1.432-.006,2.869-.006,4.307-.01-.061,4.652.142,9.311-.1,13.958a7.014,7.014,0,0,1-6.4,6.112l-.554.115c-2.694.1-5.712-.17-7.741-2.145-1.548-1.4-1.943-3.589-1.965-5.586C1207.053,1621.934,1207.1,1617.786,1207.081,1613.639Z" transform="translate(-941.992 -1575.14)" fill="#fff"/>
  <path id="Path_683" data-name="Path 683" d="M1231.92,1613.561c1.607.01,3.215.016,4.828-.028,3.094,3.929,5.706,8.236,8.909,12.065.061-4.011.011-8.021.022-12.032q1.82,0,3.654,0c-.01,6.573-.022,13.146.006,19.719-1.24.028-2.48.028-3.714,0-3.3-4.466-6.479-9.036-9.942-13.377-.071,4.461-.027,8.927-.022,13.388-1.272.011-2.545.016-3.813.006C1231.86,1626.723,1231.821,1620.139,1231.92,1613.561Z" transform="translate(-946.652 -1575.122)" fill="#fff"/>
  <path id="Path_684" data-name="Path 684" d="M1256.316,1619.566a10.473,10.473,0,0,1,9.635-6.392,10.736,10.736,0,0,1,8.811,5.2c-1.262.648-2.529,1.273-3.8,1.888-1.838-2.924-6.221-3.862-8.877-1.514a5.879,5.879,0,0,0-.993,8.318c2.392,3.231,8.087,2.93,9.985-.67-1.772-.082-3.545.022-5.311-.132.033-1.184.049-2.375.055-3.561,3.352-.054,6.7.088,10.051.05-.033,2.4-.329,4.965-1.992,6.842a10.212,10.212,0,0,1-17.562-10.029Z" transform="translate(-951.12 -1575.054)" fill="#fff"/>
  <path id="Path_685" data-name="Path 685" d="M1026.59,1647.762q2.444-.042,4.888-.022c3,4.033,5.821,8.207,8.856,12.218.038-4.059.022-8.115,0-12.169,1.219-.049,2.436-.06,3.654-.054q0,9.884,0,19.757-1.835,0-3.654-.016c-3.335-4.472-6.617-8.982-9.925-13.47-.076,4.494.066,8.992-.072,13.486q-1.884,0-3.758-.016C1026.6,1660.907,1026.59,1654.335,1026.59,1647.762Z" transform="translate(-908.036 -1581.556)" fill="#fff"/>
  <path id="Path_686" data-name="Path 686" d="M1052.269,1647.843c1.448-.07,2.9-.07,4.356-.016-.016,6.557.054,13.113-.038,19.669-1.443.006-2.886,0-4.329-.006C1052.28,1660.94,1052.263,1654.389,1052.269,1647.843Z" transform="translate(-912.866 -1581.566)" fill="#fff"/>
  <g id="Group_269" data-name="Group 269" transform="translate(145.717 66.218)">
    <path id="Path_687" data-name="Path 687" d="M1068.954,1647.82a36.094,36.094,0,0,1,4.357.061c2.958,6.5,5.777,13.063,8.806,19.532-1.41.093-2.821.11-4.231.066-.658-1.416-1.284-2.853-1.854-4.3-3.3-.1-6.6.006-9.9-.071-.79,1.427-1.476,2.9-2.183,4.373q-1.951.025-3.9.028C1062.93,1660.912,1065.98,1654.382,1068.954,1647.82Zm-1.075,11.357c2.173.011,4.351.011,6.523-.006-1.1-2.535-2.074-5.119-3.221-7.632C1070.019,1654.059,1069,1656.643,1067.879,1659.177Z" transform="translate(-1060.049 -1647.782)" fill="#fff"/>
  </g>
  <path id="Path_688" data-name="Path 688" d="M1092.487,1649.027a10.293,10.293,0,0,1,14.407,3.621c-1.2.571-2.359,1.219-3.6,1.685-1.564-1.339-3.248-2.968-5.525-2.672-4.186-.077-7.11,4.85-5.19,8.542,1.832,4.236,8.422,4.367,10.748.505-1.794-.275-3.6-.061-5.4-.214,0-1.212.044-2.419.149-3.627,3.325.11,6.655.05,9.985.072-.082,2.375-.356,4.916-1.942,6.814a10.262,10.262,0,0,1-11.05,3.6,10.174,10.174,0,0,1-2.574-18.326Z" transform="translate(-919.545 -1581.499)" fill="#fff"/>
  <g id="Group_270" data-name="Group 270" transform="translate(188.897 66.208)">
    <path id="Path_689" data-name="Path 689" d="M1122.287,1647.786a37.942,37.942,0,0,1,4.323.115c2.919,6.5,5.734,13.052,8.778,19.494a38.46,38.46,0,0,1-4.208.093c-.675-1.4-1.323-2.819-1.888-4.268-3.237-.149-6.484-.115-9.722-.044-1.224,1.015-1.465,2.941-2.348,4.3a22.482,22.482,0,0,1-3.989-.11C1116.4,1660.91,1119.149,1654.254,1122.287,1647.786Zm-1.086,11.4c2.161-.006,4.323.016,6.484-.039-1.124-2.425-2.1-4.91-3.066-7.4C1123.044,1653.941,1122.287,1656.7,1121.2,1659.187Z" transform="translate(-1113.234 -1647.771)" fill="#fff"/>
  </g>
  <g id="Group_271" data-name="Group 271">
    <path id="Path_690" data-name="Path 690" d="M984.246,1566.221c-15,14.885-29.918,29.847-44.908,44.732l-.779.779c-4.027,4.1-8.169,8.088-12.176,12.212l57.851,13.985Q984.258,1602.075,984.246,1566.221Z" transform="translate(-889.186 -1566.221)" fill="#fff"/>
    <path id="Path_691" data-name="Path 691" d="M913.077,1675.122q11.461-.006,22.93,0h.642c6.8-.01,13.591.015,20.384-.013L923.467,1641.4Z" transform="translate(-886.682 -1580.364)" fill="#fff"/>
    <path id="Path_692" data-name="Path 692" d="M880.566,1593.982c.016,9.749,0,19.5.011,29.25l34.792,5.495Q897.988,1611.329,880.566,1593.982Z" transform="translate(-880.566 -1571.444)" fill="#fff"/>
    <path id="Path_693" data-name="Path 693" d="M880.58,1633.047c.013,12.943-.015,25.886.015,38.828l33.633-33.514Z" transform="translate(-880.569 -1578.793)" fill="#fff"/>
    <path id="Path_694" data-name="Path 694" d="M963.651,1675.08c7.084.028,14.168,0,21.256.014.006-6.848-.006-13.692,0-20.539l-54.924-13.277Z" transform="translate(-889.864 -1580.341)" fill="#fff"/>
    <path id="Path_695" data-name="Path 695" d="M882.764,1675.6c7.352-.01,14.706,0,22.062-.01l9.768-31.707Z" transform="translate(-880.979 -1580.831)" fill="#fff"/>
    <path id="Path_696" data-name="Path 696" d="M924.492,1637.235c-.019.01-.041.018-.059.029C924.452,1637.253,924.473,1637.245,924.492,1637.235Z" transform="translate(-888.818 -1579.581)" fill="#fff"/>
    <path id="Path_697" data-name="Path 697" d="M924.123,1637.5c.008-.008.015-.018.023-.025C924.138,1637.483,924.131,1637.493,924.123,1637.5Z" transform="translate(-888.76 -1579.626)" fill="#fff"/>
    <path id="Path_698" data-name="Path 698" d="M924.766,1637.13c.024-.007.048-.014.073-.02-.011,0-.022,0-.033,0S924.78,1637.125,924.766,1637.13Z" transform="translate(-888.881 -1579.557)" fill="#fff"/>
    <path id="Path_699" data-name="Path 699" d="M925.161,1637.074l.04,0Z" transform="translate(-888.955 -1579.55)" fill="#fff"/>
    <path id="Path_700" data-name="Path 700" d="M923.92,1637.743c-.015.023-.028.046-.041.07C923.892,1637.789,923.906,1637.766,923.92,1637.743Z" transform="translate(-888.714 -1579.676)" fill="#fff"/>
  </g>
</svg>
