<svg id="Group_264" data-name="Group 264" xmlns="http://www.w3.org/2000/svg" width="324.749" height="94.375" viewBox="0 0 324.749 94.375">
  <g id="Group_254" data-name="Group 254">
    <path id="Path_642" data-name="Path 642" d="M1423.912,1566.464q47.188,47.182,94.37,94.371-47.186.006-94.374,0Q1423.914,1613.648,1423.912,1566.464Z" transform="translate(-1423.909 -1566.464)" fill="#fff"/>
  </g>
  <g id="Group_255" data-name="Group 255" transform="translate(51.862)">
    <path id="Path_643" data-name="Path 643" d="M1487.789,1613.649q23.582-23.6,47.182-47.185,0,47.187,0,94.371Q1511.376,1637.244,1487.789,1613.649Z" transform="translate(-1487.789 -1566.464)" fill="#fff"/>
  </g>
  <g id="Group_263" data-name="Group 263" transform="translate(128.347 9.013)">
    <path id="Path_644" data-name="Path 644" d="M1584.125,1577.694q27.688.011,55.376,0-1.054,6.314-2.122,12.628-10.081.01-20.16,0-3.617,21.5-7.234,43h-15.062q3.606-21.5,7.23-43-10.081.005-20.157,0Q1583.06,1584.011,1584.125,1577.694Z" transform="translate(-1581.996 -1577.59)" fill="#fff"/>
    <path id="Path_645" data-name="Path 645" d="M1670.142,1581.631c5.507-3.141,11.99-3.934,18.232-4.051,11.253-.028,22.509,0,33.762-.01q-1.053,6.313-2.121,12.624h-32.319a25.7,25.7,0,0,0-7.52.854,5.683,5.683,0,0,0-3.244,2.225,3.206,3.206,0,0,0,.179,3.754,7.006,7.006,0,0,0,3.875,1.729c3.238.558,6.534.3,9.8.362,6.1-.032,12.465.075,18.11,2.665a11.49,11.49,0,0,1,6.744,8.022,19.813,19.813,0,0,1-2.18,12.755c-2.466,4.56-7.109,7.536-11.99,8.969-7.01,2.181-14.432,1.732-21.676,1.774H1654.88c.709-4.212,1.405-8.425,2.129-12.633q16.378,0,32.76,0a20.68,20.68,0,0,0,7.877-1.213,4.509,4.509,0,0,0,3-3.727,2.774,2.774,0,0,0-1.616-2.7,14.77,14.77,0,0,0-6.135-1.247c-7.085-.207-14.332.524-21.248-1.419-3.531-.989-7.093-2.849-8.98-6.124-2.153-3.73-1.8-8.332-.661-12.332A17.318,17.318,0,0,1,1670.142,1581.631Z" transform="translate(-1595.707 -1577.566)" fill="#fff"/>
    <path id="Path_646" data-name="Path 646" d="M1755.361,1582.13c5.559-3.52,12.314-4.395,18.765-4.543,11.346-.037,22.7-.014,34.045-.014q-1.064,6.308-2.121,12.621-16.461.011-32.925.007c-2.876.062-5.915.158-8.512,1.536a3.772,3.772,0,0,0-2.018,4.364c.493,1.385,1.974,2.032,3.29,2.4,3.368.875,6.881.554,10.326.62,6.307-.028,12.9-.014,18.748,2.676a11.512,11.512,0,0,1,6.672,7.812,19.624,19.624,0,0,1-1.75,12.218,18.82,18.82,0,0,1-10.885,9.207c-6.282,2.3-13.074,2.343-19.677,2.273h-28.407q1.053-6.313,2.121-12.627,14.519-.01,29.036,0c3.469-.031,7.017.2,10.392-.768a5.8,5.8,0,0,0,3.92-2.928,2.882,2.882,0,0,0-.664-3.493c-1.819-1.378-4.216-1.512-6.4-1.684-7.068-.249-14.281.516-21.2-1.316-3.582-.94-7.227-2.714-9.245-5.962-2.084-3.313-2.025-7.485-1.2-11.188A17.413,17.413,0,0,1,1755.361,1582.13Z" transform="translate(-1611.892 -1577.566)" fill="#fff"/>
    <g id="Group_256" data-name="Group 256" transform="translate(0.024 68.478)">
      <path id="Path_647" data-name="Path 647" d="M1582.026,1669.839q.65-3.958,1.3-7.919c1.756.027,3.516-.059,5.273.041a2.438,2.438,0,0,1,2.253,1.267,2.778,2.778,0,0,1-1.423,3.283c-1.519.678-3.227.392-4.836.451q-.244,1.437-.476,2.876Q1583.071,1669.834,1582.026,1669.839Zm3.1-6.124c-.082.482-.165.964-.241,1.45a21.431,21.431,0,0,0,3.325-.1c.613-.076.933-1.034.227-1.23A18.3,18.3,0,0,0,1585.129,1663.715Z" transform="translate(-1582.026 -1661.912)" fill="#fff"/>
    </g>
    <path id="Path_648" data-name="Path 648" d="M1593.442,1661.922q3.839,0,7.677,0c-.1.6-.2,1.2-.3,1.792q-1.394-.006-2.79,0c-.331,2.039-.672,4.078-1,6.117-.7,0-1.4,0-2.1.007.33-2.04.672-4.082,1-6.121-.93-.007-1.86-.007-2.79-.007C1593.242,1663.117,1593.342,1662.518,1593.442,1661.922Z" transform="translate(-1584.094 -1593.436)" fill="#fff"/>
    <path id="Path_649" data-name="Path 649" d="M1606.677,1661.925c2.563-.006,5.122,0,7.681,0-.1.6-.2,1.2-.289,1.791-.934,0-1.867,0-2.8.007-.327,2.039-.672,4.078-1,6.117q-1.049,0-2.1,0,.5-3.064,1.006-6.121-1.4-.011-2.79,0C1606.484,1663.117,1606.58,1662.521,1606.677,1661.925Z" transform="translate(-1586.585 -1593.436)" fill="#fff"/>
    <path id="Path_650" data-name="Path 650" d="M1616.566,1661.925q1.044,0,2.094,0c-.423,2.639-.874,5.27-1.284,7.908-.7.007-1.405.011-2.1.014C1615.7,1667.2,1616.136,1664.564,1616.566,1661.925Z" transform="translate(-1588.256 -1593.436)" fill="#fff"/>
    <path id="Path_651" data-name="Path 651" d="M1620.535,1661.956c.868-.041,1.739-.041,2.614-.032.369,1.712.74,3.425,1.1,5.139q1.406-2.562,2.783-5.135,1.3-.011,2.6,0c-.437,2.639-.864,5.277-1.3,7.916-.7,0-1.4,0-2.094,0,.175-1.078.355-2.156.527-3.231-.6,1.05-1.182,2.108-1.715,3.193-.817.041-1.636.045-2.449.031-.231-1.088-.461-2.177-.71-3.261q-.268,1.632-.533,3.269c-.7,0-1.4,0-2.095,0C1619.684,1667.213,1620.156,1664.591,1620.535,1661.956Z" transform="translate(-1589.008 -1593.435)" fill="#fff"/>
    <path id="Path_652" data-name="Path 652" d="M1632.846,1661.925q1.044,0,2.1,0a41.843,41.843,0,0,0-.679,4.87c.328,1.881,3.442,1.55,3.975-.069a44.5,44.5,0,0,0,.889-4.794c.7,0,1.395-.007,2.1-.007-.43,1.922-.382,3.992-1.25,5.793-1.116,2.112-3.92,2.466-6.014,1.881a2.635,2.635,0,0,1-1.846-2.855C1632.256,1665.122,1632.615,1663.53,1632.846,1661.925Z" transform="translate(-1591.422 -1593.436)" fill="#fff"/>
    <g id="Group_257" data-name="Group 257" transform="translate(49.263 68.48)">
      <path id="Path_653" data-name="Path 653" d="M1642.674,1669.839c.434-2.639.861-5.281,1.3-7.919,1.764.031,3.531-.058,5.294.045.978.049,2.187.517,2.328,1.623a3,3,0,0,1-2.238,3.251c.561.988,1.1,1.994,1.642,3h-2.5c-.524-.958-1.043-1.918-1.567-2.876-.568,0-1.133,0-1.7,0q-.237,1.436-.472,2.873C1644.065,1669.836,1643.37,1669.839,1642.674,1669.839Zm3.1-6.124c-.083.482-.162.968-.238,1.45,1.336-.2,3.3.589,4.1-.868C1648.646,1663.257,1647.038,1663.877,1645.774,1663.716Z" transform="translate(-1642.674 -1661.914)" fill="#fff"/>
    </g>
    <path id="Path_654" data-name="Path 654" d="M1659.219,1662.184c2.112-.465,4.295-.159,6.437-.241-.1.6-.2,1.192-.3,1.791-1.656.02-3.31-.045-4.96.023-.493-.01-1.295.269-1.029.917,1.546.8,3.73-.258,5.063,1.161.992,1.415-.145,3.5-1.771,3.792-2.077.413-4.219.128-6.324.214q.145-.9.3-1.791c1.784-.052,3.582.106,5.359-.086.514-.007,1.044-.789.376-1.037-1.533-.393-3.4.265-4.7-.878C1656.525,1664.726,1657.6,1662.507,1659.219,1662.184Z" transform="translate(-1595.982 -1593.435)" fill="#fff"/>
    <g id="Group_258" data-name="Group 258" transform="translate(68.035 68.486)">
      <path id="Path_655" data-name="Path 655" d="M1670.1,1661.922c.792,0,1.591,0,2.391,0,.558,2.639,1.146,5.271,1.677,7.916q-1.122,0-2.232,0c-.049-.224-.145-.676-.193-.9-1.075,0-2.143,0-3.21,0-.172.3-.338.6-.5.9-.747,0-1.494,0-2.238,0Q1667.95,1665.878,1670.1,1661.922Zm-.592,5.222h1.853q-.263-1.225-.527-2.442C1670.394,1665.511,1669.949,1666.327,1669.513,1667.144Z" transform="translate(-1665.796 -1661.922)" fill="#fff"/>
    </g>
    <path id="Path_656" data-name="Path 656" d="M1676.156,1669.833c.493-2.628.872-5.276,1.327-7.912h2.579c.373,1.716.737,3.431,1.109,5.142.913-1.7,1.864-3.393,2.749-5.115.875-.034,1.75-.034,2.628-.028-.434,2.642-.861,5.281-1.3,7.919-.7,0-1.4,0-2.087,0,.173-1.082.355-2.163.524-3.245-.6,1.072-1.181,2.147-1.746,3.235-.816.014-1.625.014-2.435-.014-.21-1.088-.441-2.166-.693-3.241-.179,1.089-.355,2.177-.534,3.265Q1677.21,1669.84,1676.156,1669.833Z" transform="translate(-1599.71 -1593.435)" fill="#fff"/>
    <path id="Path_657" data-name="Path 657" d="M1689.768,1661.925c.7,0,1.392,0,2.095,0a46.6,46.6,0,0,0-.682,4.815c.269,1.936,3.444,1.626,3.981-.017a40.576,40.576,0,0,0,.875-4.774c.7-.021,1.405-.024,2.112-.028-.393,1.846-.41,3.8-1.13,5.566-1.023,2.3-4,2.745-6.176,2.1a2.63,2.63,0,0,1-1.8-2.838C1689.169,1665.122,1689.545,1663.534,1689.768,1661.925Z" transform="translate(-1602.131 -1593.435)" fill="#fff"/>
    <g id="Group_259" data-name="Group 259" transform="translate(95.477 68.473)">
      <path id="Path_658" data-name="Path 658" d="M1700.9,1661.922a41.456,41.456,0,0,1,5.191.132,2.6,2.6,0,0,1,2.229,2.27c.2,1.991-.6,4.381-2.625,5.129-1.953.685-4.072.272-6.093.386Q1700.242,1665.88,1700.9,1661.922Zm1.8,1.788q-.362,2.17-.713,4.337a12.912,12.912,0,0,0,2.607-.121,2.68,2.68,0,0,0,1.447-3.485C1705.308,1663.352,1703.792,1663.814,1702.7,1663.71Z" transform="translate(-1699.597 -1661.906)" fill="#fff"/>
    </g>
    <g id="Group_260" data-name="Group 260" transform="translate(103.981 68.478)">
      <path id="Path_659" data-name="Path 659" d="M1711.359,1661.931c1.781.01,3.569-.069,5.349.038.985.048,2.2.558,2.29,1.687a2.98,2.98,0,0,1-2.242,3.176c.5.9.989,1.8,1.485,2.7,1.347-2.525,2.776-5.012,4.075-7.563.82-.055,1.643-.059,2.467-.041.55,2.638,1.126,5.273,1.687,7.912h-2.246c-.048-.227-.148-.676-.2-.9q-1.59.006-3.175-.017c-.179.3-.352.6-.513.9-1.482.031-2.963.01-4.44.02q-.786-1.442-1.567-2.88c-.572,0-1.136,0-1.7,0q-.237,1.436-.472,2.873c-.7,0-1.4,0-2.091,0C1710.495,1667.2,1710.94,1664.569,1711.359,1661.931Zm1.809,1.785c-.083.482-.162.964-.238,1.45a19.657,19.657,0,0,0,3.365-.114c.555-.11.888-.93.258-1.2A17.05,17.05,0,0,0,1713.168,1663.715Zm8.625,3.427q.92,0,1.854,0c-.176-.817-.351-1.629-.524-2.445Q1722.451,1665.916,1721.793,1667.142Z" transform="translate(-1710.071 -1661.912)" fill="#fff"/>
    </g>
    <path id="Path_660" data-name="Path 660" d="M1736.508,1662.179c2.105-.461,4.288-.155,6.427-.237q-.15.894-.3,1.788c-1.674.027-3.351-.049-5.026.034-.537,0-1.123.272-1.016.909,1.567.785,3.692-.238,5.067,1.106,1.037,1.319.017,3.431-1.54,3.792-2.121.516-4.344.166-6.5.269.094-.6.189-1.2.293-1.791,1.711-.035,3.434.069,5.146-.049.565.055,1.4-.768.558-1.085-1.532-.369-3.41.272-4.691-.892C1733.818,1664.687,1734.889,1662.5,1736.508,1662.179Z" transform="translate(-1610.521 -1593.435)" fill="#fff"/>
    <path id="Path_661" data-name="Path 661" d="M1745.562,1661.943h7.681c-.107.6-.21,1.2-.31,1.8-1.86-.017-3.717-.006-5.577-.006-.068.416-.137.837-.2,1.257,1.626,0,3.256,0,4.884,0-.1.6-.2,1.2-.3,1.791-1.629,0-3.255,0-4.88,0-.055.313-.162.94-.214,1.254,1.86.01,3.72,0,5.583.007-.1.6-.2,1.192-.286,1.788-2.563.006-5.122,0-7.681,0Q1744.907,1665.892,1745.562,1661.943Z" transform="translate(-1612.524 -1593.439)" fill="#fff"/>
    <path id="Path_662" data-name="Path 662" d="M1761.16,1661.922q1.044,0,2.091,0a35.75,35.75,0,0,1-1.075,5.443c-1.023,2.473-4.278,2.959-6.534,2.094-1.426-.544-1.653-2.249-1.453-3.568l2.066-.01c.063.606-.068,1.375.493,1.8a2.44,2.44,0,0,0,3.555-1.047C1760.73,1665.095,1760.861,1663.49,1761.16,1661.922Z" transform="translate(-1614.378 -1593.436)" fill="#fff"/>
    <g id="Group_261" data-name="Group 261" transform="translate(146.906 68.486)">
      <path id="Path_663" data-name="Path 663" d="M1767.252,1661.922h2.39c.559,2.642,1.147,5.274,1.678,7.919-.751,0-1.491,0-2.236,0-.048-.224-.141-.676-.189-.9-1.075,0-2.15,0-3.217,0q-.253.449-.492.9c-.751,0-1.5,0-2.242,0Q1765.1,1665.878,1767.252,1661.922Zm-.593,5.222h1.854c-.179-.817-.352-1.629-.524-2.442C1767.537,1665.511,1767.1,1666.327,1766.659,1667.144Z" transform="translate(-1762.943 -1661.922)" fill="#fff"/>
    </g>
    <path id="Path_664" data-name="Path 664" d="M1773.3,1669.838c.49-2.632.871-5.28,1.326-7.916h2.091c-.169,1.023-.338,2.046-.5,3.073,1.16,0,2.321,0,3.485-.007.162-1.023.331-2.043.5-3.062q1.043,0,2.094,0-.651,3.963-1.3,7.919c-.7,0-1.4,0-2.094,0,.165-1.02.333-2.032.5-3.049q-1.746-.01-3.49,0c-.165,1.016-.334,2.032-.5,3.049C1774.711,1669.841,1774.006,1669.838,1773.3,1669.838Z" transform="translate(-1617.986 -1593.436)" fill="#fff"/>
    <path id="Path_665" data-name="Path 665" d="M1784.975,1661.929c2.56-.014,5.119,0,7.681-.007-.1.6-.2,1.192-.292,1.791-.934,0-1.864,0-2.79,0-.344,2.039-.668,4.081-1.009,6.124-.7,0-1.4,0-2.091,0q.5-3.064,1-6.124c-.933,0-1.863,0-2.79,0C1784.779,1663.117,1784.875,1662.521,1784.975,1661.929Z" transform="translate(-1620.127 -1593.436)" fill="#fff"/>
    <path id="Path_666" data-name="Path 666" d="M1794.858,1661.947c2.559-.007,5.118,0,7.681,0-.1.6-.2,1.192-.293,1.792-1.863,0-3.727,0-5.587,0-.073.42-.141.837-.2,1.257,1.629,0,3.255,0,4.887,0-.106.6-.2,1.2-.3,1.794-1.633,0-3.259,0-4.888,0-.076.417-.141.837-.206,1.258,1.86.007,3.72,0,5.583,0-.1.6-.2,1.192-.289,1.791h-7.681C1793.993,1667.21,1794.431,1664.578,1794.858,1661.947Z" transform="translate(-1621.798 -1593.439)" fill="#fff"/>
    <g id="Group_262" data-name="Group 262" transform="translate(180.004 68.474)">
      <path id="Path_667" data-name="Path 667" d="M1805.005,1661.922c1.915.046,3.847-.117,5.755.1a1.949,1.949,0,0,1,1.895,1.946,2.979,2.979,0,0,1-2.256,2.855c.493.9.982,1.8,1.488,2.7q2.06-3.808,4.133-7.606,1.188,0,2.387,0c.579,2.639,1.137,5.28,1.7,7.922-.768,0-1.533,0-2.294-.045l-.152-.865c-1.077,0-2.156,0-3.231.017-.166.3-.334.6-.5.9-1.474-.028-2.949,0-4.42-.028-.5-.961-1.023-1.912-1.543-2.859-.568,0-1.136,0-1.7,0q-.237,1.431-.465,2.869c-.7,0-1.405,0-2.1,0C1804.137,1667.2,1804.575,1664.561,1805.005,1661.922Zm1.8,1.8c-.083.482-.159.961-.231,1.447a27.511,27.511,0,0,0,3.159-.066c.579.014,1.178-.861.516-1.209A13.675,13.675,0,0,0,1806.8,1663.717Zm8.628,3.424c.613,0,1.233,0,1.854,0q-.264-1.225-.524-2.445C1816.313,1665.508,1815.869,1666.321,1815.431,1667.141Z" transform="translate(-1803.71 -1661.907)" fill="#fff"/>
    </g>
  </g>
</svg>
